G04*
G04 #@! TF.GenerationSoftware,Altium Limited,Altium Designer,24.0.1 (36)*
G04*
G04 Layer_Color=16711935*
%FSLAX44Y44*%
%MOMM*%
G71*
G04*
G04 #@! TF.SameCoordinates,F5D6D73F-2C16-40EA-88EE-8A7EB2D9318C*
G04*
G04*
G04 #@! TF.FilePolarity,Positive*
G04*
G01*
G75*
%ADD10C,0.2000*%
%ADD12C,0.1270*%
%ADD14C,0.0762*%
%ADD70C,0.0000*%
%ADD71C,0.0254*%
D10*
X-17300Y728310D02*
G03*
X-17300Y728310I-1000J0D01*
G01*
X309400Y645250D02*
G03*
X309400Y645250I-1000J0D01*
G01*
X-17300Y893410D02*
G03*
X-17300Y893410I-1000J0D01*
G01*
Y810860D02*
G03*
X-17300Y810860I-1000J0D01*
G01*
D12*
X-80800Y738350D02*
X-20800D01*
X-80800D02*
Y798350D01*
X-20800D01*
Y738350D02*
Y798350D01*
X208800Y650950D02*
Y761640D01*
Y828750D01*
Y936050D01*
Y650950D02*
X718300D01*
X208800Y936050D02*
X718300D01*
Y650950D02*
Y704650D01*
Y881550D01*
Y936050D01*
X653400Y704650D02*
X718300D01*
X527100D02*
X653400D01*
X527100D02*
Y881550D01*
X653400D01*
X718300D01*
X653400Y704650D02*
Y881550D01*
X208800Y828750D02*
X247700D01*
Y761640D02*
Y828750D01*
X208800Y761640D02*
X247700D01*
X-80800Y903450D02*
X-20800D01*
X-80800D02*
Y963450D01*
X-20800D01*
Y903450D02*
Y963450D01*
X-80800Y820900D02*
X-20800D01*
X-80800D02*
Y880900D01*
X-20800D01*
Y820900D02*
Y880900D01*
D14*
X766230Y295435D02*
X757766Y286971D01*
Y295435D02*
X766230Y286971D01*
X761998Y295435D02*
Y286971D01*
X757766Y291203D02*
X766230D01*
X162980Y695485D02*
X154516Y687021D01*
Y695485D02*
X162980Y687021D01*
X158748Y695485D02*
Y687021D01*
X154516Y691253D02*
X162980D01*
X207430Y295435D02*
X198966Y286971D01*
Y295435D02*
X207430Y286971D01*
X203198Y295435D02*
Y286971D01*
X198966Y291203D02*
X207430D01*
D70*
X782320Y262288D02*
G03*
X782320Y256192I0J-3048D01*
G01*
X179070Y662338D02*
G03*
X179070Y656242I0J-3048D01*
G01*
X223520Y262288D02*
G03*
X223520Y256192I0J-3048D01*
G01*
D71*
X513080Y294800D02*
X782320D01*
Y223680D02*
Y294800D01*
X513080Y223680D02*
X782320D01*
X513080D02*
Y294800D01*
X766064Y215966D02*
Y223680D01*
X757936Y215966D02*
X766064D01*
X757936D02*
Y223680D01*
X766064D01*
X740664Y215966D02*
Y223680D01*
X732536Y215966D02*
X740664D01*
X732536D02*
Y223680D01*
X740664D01*
X715264Y215966D02*
Y223680D01*
X707136Y215966D02*
X715264D01*
X707136D02*
Y223680D01*
X715264D01*
X689864Y215966D02*
Y223680D01*
X681736Y215966D02*
X689864D01*
X681736D02*
Y223680D01*
X689864D01*
X664464Y215966D02*
Y223680D01*
X656336Y215966D02*
X664464D01*
X656336D02*
Y223680D01*
X664464D01*
X639064Y215966D02*
Y223680D01*
X630936Y215966D02*
X639064D01*
X630936D02*
Y223680D01*
X639064D01*
X613664Y215966D02*
Y223680D01*
X605536Y215966D02*
X613664D01*
X605536D02*
Y223680D01*
X613664D01*
X588264Y215966D02*
Y223680D01*
X580136Y215966D02*
X588264D01*
X580136D02*
Y223680D01*
X588264D01*
X562864Y215966D02*
Y223680D01*
X554736Y215966D02*
X562864D01*
X554736D02*
Y223680D01*
X562864D01*
X537464Y215966D02*
Y223680D01*
X529336Y215966D02*
X537464D01*
X529336D02*
Y223680D01*
X537464D01*
X529336Y294800D02*
Y302514D01*
X537464D01*
Y294800D02*
Y302514D01*
X529336Y294800D02*
X537464D01*
X554736D02*
Y302514D01*
X562864D01*
Y294800D02*
Y302514D01*
X554736Y294800D02*
X562864D01*
X580136D02*
Y302514D01*
X588264D01*
Y294800D02*
Y302514D01*
X580136Y294800D02*
X588264D01*
X605536D02*
Y302514D01*
X613664D01*
Y294800D02*
Y302514D01*
X605536Y294800D02*
X613664D01*
X630936D02*
Y302514D01*
X639064D01*
Y294800D02*
Y302514D01*
X630936Y294800D02*
X639064D01*
X656336D02*
Y302514D01*
X664464D01*
Y294800D02*
Y302514D01*
X656336Y294800D02*
X664464D01*
X681736D02*
Y302514D01*
X689864D01*
Y294800D02*
Y302514D01*
X681736Y294800D02*
X689864D01*
X707136D02*
Y302514D01*
X715264D01*
Y294800D02*
Y302514D01*
X707136Y294800D02*
X715264D01*
X732536D02*
Y302514D01*
X740664D01*
Y294800D02*
Y302514D01*
X732536Y294800D02*
X740664D01*
X757936D02*
Y302514D01*
X766064D01*
Y294800D02*
Y302514D01*
X757936Y294800D02*
X766064D01*
X662432Y1093978D02*
X696468D01*
X662432D02*
Y1141222D01*
X696468D01*
Y1093978D02*
Y1141222D01*
X662432Y1208278D02*
X696468D01*
X662432D02*
Y1255522D01*
X696468D01*
Y1208278D02*
Y1255522D01*
X-90170Y694850D02*
X179070D01*
Y623730D02*
Y694850D01*
X-90170Y623730D02*
X179070D01*
X-90170D02*
Y694850D01*
X162814Y616016D02*
Y623730D01*
X154686Y616016D02*
X162814D01*
X154686D02*
Y623730D01*
X162814D01*
X137414Y616016D02*
Y623730D01*
X129286Y616016D02*
X137414D01*
X129286D02*
Y623730D01*
X137414D01*
X112014Y616016D02*
Y623730D01*
X103886Y616016D02*
X112014D01*
X103886D02*
Y623730D01*
X112014D01*
X86614Y616016D02*
Y623730D01*
X78486Y616016D02*
X86614D01*
X78486D02*
Y623730D01*
X86614D01*
X61214Y616016D02*
Y623730D01*
X53086Y616016D02*
X61214D01*
X53086D02*
Y623730D01*
X61214D01*
X35814Y616016D02*
Y623730D01*
X27686Y616016D02*
X35814D01*
X27686D02*
Y623730D01*
X35814D01*
X10414Y616016D02*
Y623730D01*
X2286Y616016D02*
X10414D01*
X2286D02*
Y623730D01*
X10414D01*
X-14986Y616016D02*
Y623730D01*
X-23114Y616016D02*
X-14986D01*
X-23114D02*
Y623730D01*
X-14986D01*
X-40386Y616016D02*
Y623730D01*
X-48514Y616016D02*
X-40386D01*
X-48514D02*
Y623730D01*
X-40386D01*
X-65786Y616016D02*
Y623730D01*
X-73914Y616016D02*
X-65786D01*
X-73914D02*
Y623730D01*
X-65786D01*
X-73914Y694850D02*
Y702564D01*
X-65786D01*
Y694850D02*
Y702564D01*
X-73914Y694850D02*
X-65786D01*
X-48514D02*
Y702564D01*
X-40386D01*
Y694850D02*
Y702564D01*
X-48514Y694850D02*
X-40386D01*
X-23114D02*
Y702564D01*
X-14986D01*
Y694850D02*
Y702564D01*
X-23114Y694850D02*
X-14986D01*
X2286D02*
Y702564D01*
X10414D01*
Y694850D02*
Y702564D01*
X2286Y694850D02*
X10414D01*
X27686D02*
Y702564D01*
X35814D01*
Y694850D02*
Y702564D01*
X27686Y694850D02*
X35814D01*
X53086D02*
Y702564D01*
X61214D01*
Y694850D02*
Y702564D01*
X53086Y694850D02*
X61214D01*
X78486D02*
Y702564D01*
X86614D01*
Y694850D02*
Y702564D01*
X78486Y694850D02*
X86614D01*
X103886D02*
Y702564D01*
X112014D01*
Y694850D02*
Y702564D01*
X103886Y694850D02*
X112014D01*
X129286D02*
Y702564D01*
X137414D01*
Y694850D02*
Y702564D01*
X129286Y694850D02*
X137414D01*
X154686D02*
Y702564D01*
X162814D01*
Y694850D02*
Y702564D01*
X154686Y694850D02*
X162814D01*
X-45720Y294800D02*
X223520D01*
Y223680D02*
Y294800D01*
X-45720Y223680D02*
X223520D01*
X-45720D02*
Y294800D01*
X207264Y215966D02*
Y223680D01*
X199136Y215966D02*
X207264D01*
X199136D02*
Y223680D01*
X207264D01*
X181864Y215966D02*
Y223680D01*
X173736Y215966D02*
X181864D01*
X173736D02*
Y223680D01*
X181864D01*
X156464Y215966D02*
Y223680D01*
X148336Y215966D02*
X156464D01*
X148336D02*
Y223680D01*
X156464D01*
X131064Y215966D02*
Y223680D01*
X122936Y215966D02*
X131064D01*
X122936D02*
Y223680D01*
X131064D01*
X105664Y215966D02*
Y223680D01*
X97536Y215966D02*
X105664D01*
X97536D02*
Y223680D01*
X105664D01*
X80264Y215966D02*
Y223680D01*
X72136Y215966D02*
X80264D01*
X72136D02*
Y223680D01*
X80264D01*
X54864Y215966D02*
Y223680D01*
X46736Y215966D02*
X54864D01*
X46736D02*
Y223680D01*
X54864D01*
X29464Y215966D02*
Y223680D01*
X21336Y215966D02*
X29464D01*
X21336D02*
Y223680D01*
X29464D01*
X4064Y215966D02*
Y223680D01*
X-4064Y215966D02*
X4064D01*
X-4064D02*
Y223680D01*
X4064D01*
X-21336Y215966D02*
Y223680D01*
X-29464Y215966D02*
X-21336D01*
X-29464D02*
Y223680D01*
X-21336D01*
X-29464Y294800D02*
Y302514D01*
X-21336D01*
Y294800D02*
Y302514D01*
X-29464Y294800D02*
X-21336D01*
X-4064D02*
Y302514D01*
X4064D01*
Y294800D02*
Y302514D01*
X-4064Y294800D02*
X4064D01*
X21336D02*
Y302514D01*
X29464D01*
Y294800D02*
Y302514D01*
X21336Y294800D02*
X29464D01*
X46736D02*
Y302514D01*
X54864D01*
Y294800D02*
Y302514D01*
X46736Y294800D02*
X54864D01*
X72136D02*
Y302514D01*
X80264D01*
Y294800D02*
Y302514D01*
X72136Y294800D02*
X80264D01*
X97536D02*
Y302514D01*
X105664D01*
Y294800D02*
Y302514D01*
X97536Y294800D02*
X105664D01*
X122936D02*
Y302514D01*
X131064D01*
Y294800D02*
Y302514D01*
X122936Y294800D02*
X131064D01*
X148336D02*
Y302514D01*
X156464D01*
Y294800D02*
Y302514D01*
X148336Y294800D02*
X156464D01*
X173736D02*
Y302514D01*
X181864D01*
Y294800D02*
Y302514D01*
X173736Y294800D02*
X181864D01*
X199136D02*
Y302514D01*
X207264D01*
Y294800D02*
Y302514D01*
X199136Y294800D02*
X207264D01*
M02*
