M48
;Layer_Color=9474304
;FILE_FORMAT=4:2
METRIC,LZ
;TYPE=PLATED
T01F00S00C0.71
T02F00S00C0.81
T03F00S00C0.89
T04F00S00C0.99
T05F00S00C1.00
T06F00S00C1.02
T07F00S00C1.24
T08F00S00C1.45
T09F00S00C2.11
T10F00S00C3.00
;TYPE=NON_PLATED
T11F00S00C3.00
%
T01
X006921Y004318
X006985Y005778
X006604
X007468Y009144
X006375Y009474
X006121
X005893
X005613
X005969Y012141
X003175Y012319
X003974Y009893
X000102Y009957
X-000076Y00983
X-000918Y00986
X-00108Y009969
T02
X005334Y0022
X005588
X005842
X006096
X00635
X006604
X006858
X007112
X007366
X00762
Y002984
X007366
X007112
X006858
X006604
X00635
X006096
X005842
X005588
X005334
X002032
X001778
X001524
X00127
X001016
X000762
X000508
X000254
Y0022
X000508
X000762
X001016
X00127
X001524
X001778
X002032
X0
X-000254
Y002984
X0
X000063Y006201
X-00019
X-000445
X-000699
Y006985
X-000445
X-00019
X000063
X000317
X000572
X000826
X00108
X001334
X001588
Y006201
X001334
X00108
X000826
X000572
X000317
T03
X004635Y01035
X003619
X002921Y010604
Y010922
Y011239
X001905
Y010922
Y010604
X001397
Y010922
Y011239
Y010287
Y009969
X000381
Y010287
Y010604
Y010922
Y011239
T04
X006668Y001397
X007683
X008382Y003683
Y003937
Y004191
Y004445
Y004699
Y004953
Y005207
X00762
Y004953
Y004699
Y004445
Y004191
Y003937
Y003683
X007175
Y003937
Y004191
Y004445
Y004699
Y004953
Y005207
X006414
Y004953
Y004699
Y004445
Y004191
Y003937
Y003683
X005969
Y003937
Y004191
Y004445
Y004699
Y004953
Y005207
X005207
Y004953
Y004699
Y004445
Y004191
Y003937
Y003683
X004762
Y003937
Y004191
Y004445
Y004699
Y004953
Y005207
X004508Y002667
Y001905
X005448Y001537
X005702
X006033Y001524
X006287
X006668Y001651
X007683
X002984Y001905
Y002667
X002731Y003683
Y003937
Y004191
Y004445
Y004699
Y004953
Y005207
X002286
Y004953
Y004699
Y004445
Y004191
Y003937
Y003683
X001524
Y003937
Y004191
Y004445
Y004699
Y004953
Y005207
X00108
Y004953
Y004699
Y004445
Y004191
Y003937
Y003683
X000317
Y003937
Y004191
Y004445
Y004699
Y004953
Y005207
X003492
Y004953
Y004699
Y004445
Y004191
Y003937
Y003683
X004001
Y003937
Y004191
Y004445
Y004699
Y004953
Y005207
X002106Y001664
X001852
X001549
X001295
X000648Y001778
Y001524
X-000368
Y001778
X-000127Y003683
Y003937
Y004191
Y004445
Y004699
Y004953
Y005207
X-000889
Y004953
Y004699
Y004445
Y004191
Y003937
Y003683
X004635Y010732
X004635Y011065
X004699Y011611
Y01189
X005334Y012001
Y011747
Y011239
Y010986
Y010541
Y010287
X005918Y010274
Y010528
Y010975
Y011229
X005969Y012636
X005715
X005461
X004127Y012652
X003873
X003619
X00381Y01189
Y011611
X003619Y011065
X003619Y010732
X002921Y010239
X002921Y009969
X001905
X001905Y010239
X-000381Y01016
X-000635
Y010414
X-000381
Y010668
X-000635
Y010922
X-000381
Y011176
X-000635
Y01143
X-000381
X-000381Y012017
Y012271
X-000635
Y012017
T05
X-000833Y007458
Y007908
Y008284
Y008734
Y00911
X-000183
Y008734
Y008284
Y007908
Y007458
Y00956
X-000833
T06
X003084Y006668
X003338
X003592
X003846
Y009207
X003592
X003338
X003084
X0041
X004354
X004608
X004862
X005116
X00537
X005624
X005878
X006132
X006386
X00664
Y006668
X006386
X006132
X005878
X005624
X00537
X005116
X004862
X004608
X004354
X0041
T07
X007009Y009986
X007618
X007314Y010456
T08
X007988Y006175
Y006683
Y007382
Y00789
Y008588
Y009096
X007874Y010874
Y011382
X007811Y012065
Y012573
X00235Y012446
X002095
X001842
X001588
X001334
X00108
X000826
X000952Y011938
X001206
X00146
X001715
X001968
X002223
X002476
X000699
T09
X000368Y012169
X002807
T10
X-000952Y001334
X008382
Y013018
X-000952
T11
X002288Y00671
Y009161
X006983
Y00671
M30
