G04*
G04 #@! TF.GenerationSoftware,Altium Limited,Altium Designer,24.0.1 (36)*
G04*
G04 Layer_Color=32768*
%FSLAX44Y44*%
%MOMM*%
G71*
G04*
G04 #@! TF.SameCoordinates,F5D6D73F-2C16-40EA-88EE-8A7EB2D9318C*
G04*
G04*
G04 #@! TF.FilePolarity,Positive*
G04*
G01*
G75*
%ADD13C,0.1524*%
%ADD72C,0.0500*%
G36*
X-78994Y621190D02*
Y610936D01*
X167894D01*
Y621190D01*
X181610D01*
Y697390D01*
X167894D01*
Y707644D01*
X-78994D01*
Y697390D01*
X-92710D01*
Y621190D01*
X-78994D01*
D02*
G37*
G36*
X-34544Y221140D02*
Y210886D01*
X212344D01*
Y221140D01*
X226060D01*
Y297340D01*
X212344D01*
Y307594D01*
X-34544D01*
Y297340D01*
X-48260D01*
Y221140D01*
X-34544D01*
D02*
G37*
G36*
X524256D02*
Y210886D01*
X771144D01*
Y221140D01*
X784860D01*
Y297340D01*
X771144D01*
Y307594D01*
X524256D01*
Y297340D01*
X510540D01*
Y221140D01*
X524256D01*
D02*
G37*
G36*
X699516Y1143762D02*
X699008D01*
Y1091438D01*
X699516D01*
Y1080008D01*
X659384D01*
Y1091438D01*
X659892D01*
Y1143762D01*
X659384D01*
Y1155192D01*
X699516D01*
Y1143762D01*
D02*
G37*
G36*
Y1258062D02*
X699008D01*
Y1205738D01*
X699516D01*
Y1194308D01*
X659384D01*
Y1205738D01*
X659892D01*
Y1258062D01*
X659384D01*
Y1269492D01*
X699516D01*
Y1258062D01*
D02*
G37*
D13*
X510540Y221140D02*
Y297340D01*
Y221140D02*
X524256D01*
X771144D02*
X784860D01*
Y297340D01*
X771144D02*
X784860D01*
X510540D02*
X524256D01*
Y307594D01*
Y210886D02*
Y221140D01*
Y210886D02*
X771144D01*
Y221140D01*
Y297340D02*
Y307594D01*
X524256D02*
X771144D01*
X699516Y1143762D02*
Y1155192D01*
X699008Y1143762D02*
X699516D01*
X699008Y1091438D02*
Y1143762D01*
Y1091438D02*
X699516D01*
Y1080008D02*
Y1091438D01*
X659384Y1155192D02*
X699516D01*
X659384Y1143762D02*
Y1155192D01*
Y1143762D02*
X659892D01*
Y1091438D02*
Y1143762D01*
X659384Y1091438D02*
X659892D01*
X659384Y1080008D02*
Y1091438D01*
Y1080008D02*
X699516D01*
Y1258062D02*
Y1269492D01*
X699008Y1258062D02*
X699516D01*
X699008Y1205738D02*
Y1258062D01*
Y1205738D02*
X699516D01*
Y1194308D02*
Y1205738D01*
X659384Y1269492D02*
X699516D01*
X659384Y1258062D02*
Y1269492D01*
Y1258062D02*
X659892D01*
Y1205738D02*
Y1258062D01*
X659384Y1205738D02*
X659892D01*
X659384Y1194308D02*
Y1205738D01*
Y1194308D02*
X699516D01*
X-92710Y621190D02*
Y697390D01*
Y621190D02*
X-78994D01*
X167894D02*
X181610D01*
Y697390D01*
X167894D02*
X181610D01*
X-92710D02*
X-78994D01*
Y707644D01*
Y610936D02*
Y621190D01*
Y610936D02*
X167894D01*
Y621190D01*
Y697390D02*
Y707644D01*
X-78994D02*
X167894D01*
X-48260Y221140D02*
Y297340D01*
Y221140D02*
X-34544D01*
X212344D02*
X226060D01*
Y297340D01*
X212344D02*
X226060D01*
X-48260D02*
X-34544D01*
Y307594D01*
Y210886D02*
Y221140D01*
Y210886D02*
X212344D01*
Y221140D01*
Y297340D02*
Y307594D01*
X-34544D02*
X212344D01*
D72*
X-8260Y735810D02*
Y800890D01*
X-93340D02*
X-8260D01*
X-93340Y735810D02*
Y800890D01*
Y735810D02*
X-8260D01*
X206300Y648450D02*
X720800D01*
Y938550D01*
X206300D02*
X720800D01*
X206300Y648450D02*
Y938550D01*
X-8260Y900910D02*
Y965990D01*
X-93340D02*
X-8260D01*
X-93340Y900910D02*
Y965990D01*
Y900910D02*
X-8260D01*
Y818360D02*
Y883440D01*
X-93340D02*
X-8260D01*
X-93340Y818360D02*
Y883440D01*
Y818360D02*
X-8260D01*
M02*
