G04*
G04 #@! TF.GenerationSoftware,Altium Limited,Altium Designer,24.0.1 (36)*
G04*
G04 Layer_Physical_Order=1*
G04 Layer_Color=255*
%FSLAX44Y44*%
%MOMM*%
G71*
G04*
G04 #@! TF.SameCoordinates,F5D6D73F-2C16-40EA-88EE-8A7EB2D9318C*
G04*
G04*
G04 #@! TF.FilePolarity,Positive*
G04*
G01*
G75*
%ADD11C,0.2540*%
%ADD16R,3.5052X1.7780*%
%ADD40C,1.3208*%
%ADD41R,1.3208X1.3208*%
%ADD43C,0.7620*%
%ADD44C,1.2700*%
%ADD45C,0.3556*%
%ADD46O,2.0000X2.5000*%
%ADD47R,2.0000X2.5000*%
%ADD48C,2.5400*%
%ADD49R,2.5400X2.5400*%
%ADD50R,1.5080X1.5080*%
%ADD51C,1.5080*%
%ADD52O,2.5000X1.8000*%
%ADD53C,1.9050*%
%ADD54R,1.9050X1.9050*%
%ADD55C,3.8100*%
%ADD56C,3.0000*%
%ADD57R,2.0000X2.0000*%
%ADD58C,2.0000*%
%ADD59O,2.5000X1.8000*%
%ADD60R,2.0000X2.0000*%
%ADD61C,1.8000*%
%ADD62R,1.8000X1.8000*%
%ADD63O,2.5000X2.0000*%
%ADD64R,2.5000X2.0000*%
%ADD65R,2.5000X1.8000*%
%ADD66O,1.8000X2.5000*%
%ADD67C,2.5000*%
%ADD68R,2.5000X2.5000*%
%ADD69C,1.2700*%
G36*
X824921Y1313277D02*
X824576Y1312931D01*
X822656Y1310058D01*
X821334Y1306866D01*
X820660Y1303477D01*
Y1300022D01*
X821334Y1296634D01*
X822656Y1293442D01*
X824576Y1290569D01*
X827019Y1288126D01*
X829892Y1286206D01*
X833084Y1284884D01*
X836472Y1284210D01*
X839928D01*
X843316Y1284884D01*
X846508Y1286206D01*
X849381Y1288126D01*
X849727Y1288471D01*
X850900Y1287985D01*
Y967790D01*
X749002D01*
X748010Y967593D01*
X747170Y967031D01*
X745590Y966952D01*
X718093Y994449D01*
X715993Y995853D01*
X713515Y996345D01*
X713420Y996423D01*
Y1011141D01*
X688340D01*
Y986061D01*
X708424D01*
X708937Y985293D01*
X725267Y968963D01*
X724781Y967790D01*
X708093D01*
X707102Y967593D01*
X706262Y967031D01*
X704681Y966952D01*
X685924Y985709D01*
Y1080008D01*
X699516D01*
Y1102868D01*
X699058D01*
Y1132332D01*
X699516D01*
Y1142492D01*
X679450D01*
X659384D01*
Y1132332D01*
X659842D01*
Y1102868D01*
X659384D01*
Y1080008D01*
X672976D01*
Y983027D01*
X673468Y980550D01*
X674872Y978449D01*
X684766Y968555D01*
X684830Y968256D01*
X684314Y967308D01*
X682983Y967160D01*
X669497Y980647D01*
X668237Y981489D01*
X666750Y981785D01*
X425450D01*
X423963Y981489D01*
X422703Y980647D01*
X409058Y967002D01*
X408636Y966909D01*
X407559Y967031D01*
X407485Y967081D01*
X407410Y967150D01*
X407361Y967210D01*
X407030Y967385D01*
X406719Y967593D01*
X406587Y967619D01*
X406468Y967682D01*
X406095Y967717D01*
X405728Y967790D01*
X383023D01*
X382537Y968963D01*
X394484Y980910D01*
X396240Y980440D01*
X398581D01*
X400842Y981046D01*
X402869Y982216D01*
X404524Y983871D01*
X405695Y985899D01*
X406300Y988160D01*
Y990500D01*
X405695Y992761D01*
X404524Y994789D01*
X402869Y996444D01*
X400842Y997614D01*
X398581Y998220D01*
X396240D01*
X393979Y997614D01*
X391952Y996444D01*
X390297Y994789D01*
X389126Y992761D01*
X388520Y990500D01*
Y988160D01*
X388991Y986404D01*
X369539Y966952D01*
X367958Y967031D01*
X367118Y967593D01*
X366127Y967790D01*
X317367D01*
Y984150D01*
X317367Y984150D01*
X317061Y986471D01*
X316165Y988633D01*
X314740Y990490D01*
X307082Y998149D01*
X307062Y998303D01*
X313204Y1004446D01*
X512120D01*
X514598Y1004938D01*
X516698Y1006342D01*
X527705Y1017349D01*
X529900Y1017060D01*
X536900D01*
X539913Y1017457D01*
X542720Y1018620D01*
X545130Y1020470D01*
X545991Y1021591D01*
X578255D01*
X580090Y1019200D01*
X582500Y1017350D01*
X585307Y1016187D01*
X588320Y1015790D01*
X595320D01*
X598333Y1016187D01*
X601140Y1017350D01*
X603550Y1019200D01*
X605400Y1021610D01*
X606563Y1024417D01*
X606960Y1027430D01*
X606563Y1030443D01*
X605400Y1033250D01*
X603550Y1035660D01*
X601140Y1037510D01*
X598333Y1038673D01*
X595320Y1039070D01*
X588320D01*
X585307Y1038673D01*
X582500Y1037510D01*
X580090Y1035660D01*
X579229Y1034539D01*
X546965D01*
X545130Y1036930D01*
X542720Y1038780D01*
X539913Y1039943D01*
X536900Y1040340D01*
X529900D01*
X526887Y1039943D01*
X524080Y1038780D01*
X521670Y1036930D01*
X519820Y1034520D01*
X518657Y1031712D01*
X518260Y1028700D01*
X518549Y1026506D01*
X509438Y1017394D01*
X327812D01*
X327326Y1018568D01*
X341128Y1032369D01*
X342531Y1034470D01*
X343024Y1036947D01*
Y1145405D01*
X375305Y1177686D01*
X377499Y1177397D01*
X384499D01*
X387512Y1177794D01*
X390319Y1178957D01*
X392730Y1180806D01*
X394580Y1183217D01*
X395742Y1186024D01*
X396139Y1189037D01*
X395850Y1191231D01*
X417327Y1212709D01*
X418731Y1214809D01*
X419224Y1217287D01*
Y1251898D01*
X421693Y1253793D01*
X423703Y1256413D01*
X424967Y1259463D01*
X425398Y1262737D01*
Y1267737D01*
X424967Y1271010D01*
X423703Y1274061D01*
X421693Y1276680D01*
X419073Y1278690D01*
X416023Y1279954D01*
X412749Y1280385D01*
X409476Y1279954D01*
X406425Y1278690D01*
X403806Y1276680D01*
X401796Y1274061D01*
X400737Y1271504D01*
X399362D01*
X398303Y1274061D01*
X396293Y1276680D01*
X393674Y1278690D01*
X390623Y1279954D01*
X387349Y1280385D01*
X384076Y1279954D01*
X381025Y1278690D01*
X378406Y1276680D01*
X376396Y1274061D01*
X375759Y1272525D01*
X374489Y1272777D01*
Y1280277D01*
X363219D01*
Y1265237D01*
Y1250197D01*
X374489D01*
Y1257696D01*
X375759Y1257949D01*
X376396Y1256413D01*
X378406Y1253793D01*
X381025Y1251783D01*
X384076Y1250519D01*
X387349Y1250089D01*
X390623Y1250519D01*
X393674Y1251783D01*
X396293Y1253793D01*
X398303Y1256413D01*
X399362Y1258969D01*
X400737D01*
X401796Y1256413D01*
X403806Y1253793D01*
X406275Y1251898D01*
Y1219968D01*
X386694Y1200387D01*
X384499Y1200676D01*
X377499D01*
X374487Y1200280D01*
X371679Y1199117D01*
X369269Y1197267D01*
X367419Y1194856D01*
X366512Y1192668D01*
X364697Y1192307D01*
X362597Y1190903D01*
X346568Y1174874D01*
X199532D01*
X193519Y1180887D01*
X194177Y1182026D01*
X195262Y1181735D01*
X198438D01*
X201507Y1182557D01*
X204258Y1184146D01*
X206504Y1186392D01*
X208093Y1189143D01*
X208915Y1192212D01*
Y1195388D01*
X208093Y1198457D01*
X206504Y1201208D01*
X204258Y1203454D01*
X201507Y1205043D01*
X198438Y1205865D01*
X195262D01*
X192193Y1205043D01*
X189442Y1203454D01*
X187196Y1201208D01*
X185607Y1198457D01*
X184785Y1195388D01*
Y1192212D01*
X184846Y1191982D01*
X183721Y1191277D01*
X183350Y1191597D01*
X183515Y1192212D01*
Y1195388D01*
X182693Y1198457D01*
X181104Y1201208D01*
X178858Y1203454D01*
X176107Y1205043D01*
X173038Y1205865D01*
X169862D01*
X166793Y1205043D01*
X164042Y1203454D01*
X161796Y1201208D01*
X160207Y1198457D01*
X159385Y1195388D01*
Y1192212D01*
X160207Y1189143D01*
X161796Y1186392D01*
X164042Y1184146D01*
X166793Y1182557D01*
X169862Y1181735D01*
X173038D01*
X174080Y1182014D01*
X192272Y1163822D01*
X194372Y1162418D01*
X196850Y1161926D01*
X339573D01*
X340059Y1160752D01*
X331972Y1152665D01*
X330568Y1150565D01*
X330075Y1148087D01*
Y1039629D01*
X298631Y1008185D01*
X298613Y1008193D01*
X295600Y1008589D01*
X288600D01*
X285587Y1008193D01*
X282780Y1007030D01*
X280370Y1005180D01*
X278520Y1002770D01*
X277357Y999962D01*
X276960Y996950D01*
X277357Y993938D01*
X278520Y991130D01*
X280370Y988720D01*
X282780Y986870D01*
X285587Y985707D01*
X288600Y985310D01*
X294559D01*
X299433Y980436D01*
Y967790D01*
X164993D01*
X164507Y968963D01*
X182052Y986509D01*
X183987Y985707D01*
X187000Y985310D01*
X194000D01*
X197013Y985707D01*
X199820Y986870D01*
X202230Y988720D01*
X204080Y991130D01*
X205243Y993938D01*
X205640Y996950D01*
X205243Y999962D01*
X204080Y1002770D01*
X202230Y1005180D01*
X199820Y1007030D01*
X197013Y1008193D01*
X194384Y1008539D01*
Y1012348D01*
X197012Y1012694D01*
X199819Y1013857D01*
X202230Y1015706D01*
X204079Y1018117D01*
X205242Y1020924D01*
X205639Y1023937D01*
X205242Y1026949D01*
X204079Y1029756D01*
X202230Y1032167D01*
X199819Y1034017D01*
X197012Y1035180D01*
X193999Y1035576D01*
X186999D01*
X183987Y1035180D01*
X181180Y1034017D01*
X178769Y1032167D01*
X176919Y1029756D01*
X175756Y1026949D01*
X175360Y1023937D01*
X175756Y1020924D01*
X176919Y1018117D01*
X178769Y1015706D01*
X181180Y1013857D01*
X183987Y1012694D01*
X186615Y1012348D01*
Y1008539D01*
X183987Y1008193D01*
X181180Y1007030D01*
X178770Y1005180D01*
X176920Y1002770D01*
X175757Y999962D01*
X175360Y996950D01*
X175757Y993938D01*
X176559Y992002D01*
X151508Y966952D01*
X149928Y967031D01*
X149088Y967593D01*
X148097Y967790D01*
X-11794D01*
X-11961Y967756D01*
X-12132Y967768D01*
X-12452Y967659D01*
X-12785Y967593D01*
X-12927Y967498D01*
X-13088Y967443D01*
X-13343Y967219D01*
X-13625Y967031D01*
X-13720Y966889D01*
X-13848Y966777D01*
X-13998Y966473D01*
X-14186Y966191D01*
X-15330Y965590D01*
X-16973Y966030D01*
X-19627D01*
X-21270Y965590D01*
X-22414Y966191D01*
X-22602Y966473D01*
X-22752Y966777D01*
X-22880Y966889D01*
X-22975Y967031D01*
X-23257Y967219D01*
X-23512Y967443D01*
X-23673Y967498D01*
X-23815Y967593D01*
X-24148Y967659D01*
X-24469Y967768D01*
X-24639Y967756D01*
X-24806Y967790D01*
X-76793D01*
X-76961Y967756D01*
X-77132Y967768D01*
X-77452Y967659D01*
X-77785Y967593D01*
X-77927Y967498D01*
X-78088Y967443D01*
X-78343Y967219D01*
X-78625Y967031D01*
X-78720Y966889D01*
X-78848Y966777D01*
X-78998Y966473D01*
X-79186Y966191D01*
X-80330Y965590D01*
X-81973Y966030D01*
X-84627D01*
X-86271Y965590D01*
X-87414Y966191D01*
X-87602Y966473D01*
X-87752Y966777D01*
X-87880Y966889D01*
X-87975Y967031D01*
X-88257Y967219D01*
X-88512Y967443D01*
X-88673Y967498D01*
X-88815Y967593D01*
X-89148Y967659D01*
X-89468Y967768D01*
X-89639Y967756D01*
X-89806Y967790D01*
X-107950D01*
Y988060D01*
X-106780D01*
X-104519Y988665D01*
X-102491Y989836D01*
X-100836Y991491D01*
X-99666Y993518D01*
X-99060Y995779D01*
Y998120D01*
X-99666Y1000381D01*
X-100836Y1002408D01*
X-102491Y1004063D01*
X-104519Y1005234D01*
X-106780Y1005840D01*
X-107950D01*
Y1287985D01*
X-106777Y1288471D01*
X-106431Y1288126D01*
X-103558Y1286206D01*
X-100366Y1284884D01*
X-96978Y1284210D01*
X-93523D01*
X-90134Y1284884D01*
X-86942Y1286206D01*
X-84069Y1288126D01*
X-81626Y1290569D01*
X-79706Y1293442D01*
X-78384Y1296634D01*
X-77710Y1300022D01*
Y1303477D01*
X-78384Y1306866D01*
X-79706Y1310058D01*
X-81626Y1312931D01*
X-81971Y1313277D01*
X-81485Y1314450D01*
X824435D01*
X824921Y1313277D01*
D02*
G37*
G36*
X670193Y968963D02*
X669707Y967790D01*
X422493D01*
X422007Y968963D01*
X427059Y974015D01*
X665141D01*
X670193Y968963D01*
D02*
G37*
G36*
X148583Y964027D02*
X144391Y959835D01*
X-8905D01*
X-8907Y959841D01*
X-10234Y962139D01*
X-12025Y963930D01*
X-11964Y964563D01*
X-11794Y965200D01*
X148097D01*
X148583Y964027D01*
D02*
G37*
G36*
X705891Y933266D02*
X705171Y932189D01*
X703416Y932916D01*
X700027Y933590D01*
X696572D01*
X693184Y932916D01*
X689992Y931594D01*
X687119Y929674D01*
X684676Y927231D01*
X682756Y924358D01*
X681434Y921166D01*
X680760Y917777D01*
Y914323D01*
X681434Y910934D01*
X682756Y907742D01*
X684676Y904869D01*
X687119Y902426D01*
X689992Y900506D01*
X693184Y899184D01*
X696572Y898510D01*
X700027D01*
X703416Y899184D01*
X706608Y900506D01*
X709481Y902426D01*
X711924Y904869D01*
X713844Y907742D01*
X715166Y910934D01*
X715840Y914323D01*
Y917777D01*
X715166Y921166D01*
X714439Y922921D01*
X715516Y923641D01*
X718225Y920931D01*
Y884140D01*
X653400D01*
X652409Y883943D01*
X651569Y883381D01*
X651007Y882541D01*
X650810Y881550D01*
Y704650D01*
X651007Y703659D01*
X651569Y702819D01*
X652218Y702385D01*
X652168Y701572D01*
X652007Y701115D01*
X606129D01*
X591685Y715559D01*
Y908809D01*
X592640Y909065D01*
X595500Y910715D01*
X597835Y913050D01*
X599485Y915910D01*
X599843Y917243D01*
X601157D01*
X601515Y915910D01*
X603166Y913050D01*
X605500Y910715D01*
X608360Y909065D01*
X611549Y908210D01*
X614851D01*
X618040Y909065D01*
X620900Y910715D01*
X623234Y913050D01*
X624885Y915910D01*
X625243Y917243D01*
X626557D01*
X626915Y915910D01*
X628565Y913050D01*
X630900Y910715D01*
X633760Y909065D01*
X636949Y908210D01*
X640251D01*
X643440Y909065D01*
X646300Y910715D01*
X648634Y913050D01*
X650285Y915910D01*
X650643Y917243D01*
X651957D01*
X652315Y915910D01*
X653966Y913050D01*
X656300Y910715D01*
X659160Y909065D01*
X662349Y908210D01*
X665651D01*
X668840Y909065D01*
X671700Y910715D01*
X674035Y913050D01*
X675685Y915910D01*
X676540Y919099D01*
Y922401D01*
X675685Y925590D01*
X674035Y928450D01*
X671700Y930785D01*
X668840Y932435D01*
X665651Y933290D01*
X662349D01*
X659160Y932435D01*
X656300Y930785D01*
X653966Y928450D01*
X652315Y925590D01*
X651957Y924257D01*
X650643D01*
X650285Y925590D01*
X648634Y928450D01*
X646300Y930785D01*
X643440Y932435D01*
X640251Y933290D01*
X636949D01*
X633760Y932435D01*
X630900Y930785D01*
X628565Y928450D01*
X626915Y925590D01*
X626557Y924257D01*
X625243D01*
X624885Y925590D01*
X623234Y928450D01*
X620900Y930785D01*
X618040Y932435D01*
X614851Y933290D01*
X611549D01*
X608360Y932435D01*
X605500Y930785D01*
X603166Y928450D01*
X601515Y925590D01*
X601157Y924257D01*
X599843D01*
X599485Y925590D01*
X597835Y928450D01*
X595500Y930785D01*
X592640Y932435D01*
X589451Y933290D01*
X586149D01*
X582960Y932435D01*
X580100Y930785D01*
X577766Y928450D01*
X576115Y925590D01*
X575757Y924257D01*
X574443D01*
X574085Y925590D01*
X572435Y928450D01*
X570100Y930785D01*
X567240Y932435D01*
X564051Y933290D01*
X560749D01*
X557560Y932435D01*
X554700Y930785D01*
X552365Y928450D01*
X550715Y925590D01*
X550357Y924257D01*
X549043D01*
X548685Y925590D01*
X547034Y928450D01*
X544700Y930785D01*
X541840Y932435D01*
X538651Y933290D01*
X535349D01*
X532160Y932435D01*
X529300Y930785D01*
X526965Y928450D01*
X525315Y925590D01*
X524957Y924257D01*
X523643D01*
X523285Y925590D01*
X521634Y928450D01*
X519300Y930785D01*
X516440Y932435D01*
X513251Y933290D01*
X509949D01*
X506760Y932435D01*
X503900Y930785D01*
X501566Y928450D01*
X499915Y925590D01*
X499557Y924257D01*
X498243D01*
X497885Y925590D01*
X496235Y928450D01*
X493900Y930785D01*
X491040Y932435D01*
X487851Y933290D01*
X484549D01*
X481360Y932435D01*
X478500Y930785D01*
X476166Y928450D01*
X474515Y925590D01*
X474157Y924257D01*
X472843D01*
X472485Y925590D01*
X470835Y928450D01*
X468500Y930785D01*
X465640Y932435D01*
X462451Y933290D01*
X459149D01*
X455960Y932435D01*
X453100Y930785D01*
X450765Y928450D01*
X449115Y925590D01*
X448757Y924257D01*
X447443D01*
X447085Y925590D01*
X445434Y928450D01*
X443100Y930785D01*
X440240Y932435D01*
X437051Y933290D01*
X433749D01*
X430560Y932435D01*
X427700Y930785D01*
X425365Y928450D01*
X423715Y925590D01*
X423357Y924257D01*
X422043D01*
X421685Y925590D01*
X420034Y928450D01*
X417700Y930785D01*
X414840Y932435D01*
X413885Y932691D01*
Y960841D01*
X418244Y965200D01*
X673956D01*
X705891Y933266D01*
D02*
G37*
G36*
X406411Y963937D02*
X406115Y962450D01*
Y932691D01*
X405160Y932435D01*
X402300Y930785D01*
X399966Y928450D01*
X398315Y925590D01*
X397957Y924257D01*
X396643D01*
X396285Y925590D01*
X394635Y928450D01*
X392300Y930785D01*
X389440Y932435D01*
X386251Y933290D01*
X382949D01*
X379760Y932435D01*
X376900Y930785D01*
X374566Y928450D01*
X372915Y925590D01*
X372557Y924257D01*
X371243D01*
X370885Y925590D01*
X369235Y928450D01*
X366900Y930785D01*
X364040Y932435D01*
X363085Y932691D01*
Y949510D01*
X378774Y965200D01*
X405728D01*
X406411Y963937D01*
D02*
G37*
G36*
X850900Y529598D02*
X849630Y529161D01*
X847520Y530780D01*
X844713Y531943D01*
X841700Y532340D01*
X839470D01*
Y520700D01*
Y509060D01*
X841700D01*
X844713Y509457D01*
X847520Y510620D01*
X849630Y512239D01*
X850900Y511802D01*
Y504198D01*
X849630Y503761D01*
X847520Y505380D01*
X844713Y506543D01*
X841700Y506940D01*
X834700D01*
X831687Y506543D01*
X828880Y505380D01*
X826470Y503530D01*
X824620Y501120D01*
X823457Y498312D01*
X823060Y495300D01*
X823457Y492287D01*
X824620Y489480D01*
X826470Y487070D01*
X828880Y485220D01*
X831687Y484057D01*
X834700Y483660D01*
X841700D01*
X844713Y484057D01*
X847520Y485220D01*
X849630Y486839D01*
X850900Y486402D01*
Y478798D01*
X849630Y478361D01*
X847520Y479980D01*
X844713Y481143D01*
X841700Y481539D01*
X834700D01*
X831687Y481143D01*
X828880Y479980D01*
X826470Y478130D01*
X824620Y475720D01*
X823457Y472912D01*
X823060Y469900D01*
X823457Y466888D01*
X824620Y464080D01*
X826470Y461670D01*
X828880Y459820D01*
X831687Y458657D01*
X834700Y458260D01*
X841700D01*
X844713Y458657D01*
X847520Y459820D01*
X849630Y461439D01*
X850900Y461002D01*
Y453398D01*
X849630Y452961D01*
X847520Y454580D01*
X844713Y455743D01*
X841700Y456139D01*
X834700D01*
X831687Y455743D01*
X829752Y454941D01*
X812047Y472647D01*
X810787Y473489D01*
X809300Y473785D01*
X776382D01*
X775580Y475720D01*
X773730Y478130D01*
X771320Y479980D01*
X768513Y481143D01*
X765500Y481539D01*
X758500D01*
X755487Y481143D01*
X752680Y479980D01*
X750270Y478130D01*
X748420Y475720D01*
X747257Y472912D01*
X746860Y469900D01*
X747257Y466888D01*
X748281Y464415D01*
X732997Y449131D01*
X731499Y449429D01*
X731130Y450320D01*
X729280Y452730D01*
X726870Y454580D01*
X724063Y455743D01*
X721050Y456139D01*
X714050D01*
X711037Y455743D01*
X708230Y454580D01*
X705820Y452730D01*
X703970Y450320D01*
X703168Y448385D01*
X668359D01*
X653946Y462798D01*
X654930Y464080D01*
X656093Y466888D01*
X656490Y469900D01*
X656093Y472912D01*
X654930Y475720D01*
X653080Y478130D01*
X650670Y479980D01*
X647863Y481143D01*
X644850Y481539D01*
X637850D01*
X634837Y481143D01*
X632030Y479980D01*
X629620Y478130D01*
X627770Y475720D01*
X626607Y472912D01*
X626210Y469900D01*
X626607Y466888D01*
X627631Y464415D01*
X612347Y449131D01*
X610849Y449429D01*
X610480Y450320D01*
X608630Y452730D01*
X606220Y454580D01*
X603413Y455743D01*
X600400Y456139D01*
X593400D01*
X590387Y455743D01*
X588452Y454941D01*
X570747Y472647D01*
X569487Y473489D01*
X568000Y473785D01*
X535082D01*
X534280Y475720D01*
X532430Y478130D01*
X530020Y479980D01*
X527213Y481143D01*
X524200Y481539D01*
X517200D01*
X514187Y481143D01*
X511380Y479980D01*
X508970Y478130D01*
X507120Y475720D01*
X505957Y472912D01*
X505560Y469900D01*
X505957Y466888D01*
X506981Y464415D01*
X491697Y449131D01*
X490199Y449429D01*
X489830Y450320D01*
X487980Y452730D01*
X485570Y454580D01*
X482763Y455743D01*
X479750Y456139D01*
X472750D01*
X469737Y455743D01*
X467802Y454941D01*
X450097Y472647D01*
X448837Y473489D01*
X447350Y473785D01*
X414432D01*
X413630Y475720D01*
X411780Y478130D01*
X409370Y479980D01*
X406563Y481143D01*
X403550Y481539D01*
X396550D01*
X393537Y481143D01*
X390730Y479980D01*
X388320Y478130D01*
X386470Y475720D01*
X385307Y472912D01*
X384910Y469900D01*
X385307Y466888D01*
X386109Y464952D01*
X369541Y448385D01*
X363632D01*
X362830Y450320D01*
X360980Y452730D01*
X358570Y454580D01*
X355763Y455743D01*
X352750Y456139D01*
X345750D01*
X342737Y455743D01*
X340802Y454941D01*
X323097Y472647D01*
X321837Y473489D01*
X320350Y473785D01*
X287432D01*
X286630Y475720D01*
X284780Y478130D01*
X282370Y479980D01*
X279563Y481143D01*
X276550Y481539D01*
X269550D01*
X266537Y481143D01*
X263730Y479980D01*
X261320Y478130D01*
X259470Y475720D01*
X258307Y472912D01*
X257910Y469900D01*
X258307Y466888D01*
X259109Y464952D01*
X253993Y459837D01*
X253151Y458577D01*
X253066Y458150D01*
X244047Y449131D01*
X242549Y449429D01*
X242180Y450320D01*
X240330Y452730D01*
X237920Y454580D01*
X235113Y455743D01*
X232100Y456139D01*
X225100D01*
X222087Y455743D01*
X220152Y454941D01*
X202447Y472647D01*
X201187Y473489D01*
X199700Y473785D01*
X166782D01*
X165980Y475720D01*
X164130Y478130D01*
X161720Y479980D01*
X158913Y481143D01*
X155900Y481539D01*
X148900D01*
X145887Y481143D01*
X143080Y479980D01*
X140670Y478130D01*
X138820Y475720D01*
X137657Y472912D01*
X137260Y469900D01*
X137657Y466888D01*
X138681Y464415D01*
X123397Y449131D01*
X121899Y449429D01*
X121530Y450320D01*
X119680Y452730D01*
X117270Y454580D01*
X114463Y455743D01*
X111450Y456139D01*
X104450D01*
X101437Y455743D01*
X98630Y454580D01*
X96220Y452730D01*
X94370Y450320D01*
X93568Y448385D01*
X62259D01*
X45691Y464952D01*
X46493Y466888D01*
X46890Y469900D01*
X46493Y472912D01*
X45330Y475720D01*
X43480Y478130D01*
X41070Y479980D01*
X38263Y481143D01*
X35250Y481539D01*
X28250D01*
X25237Y481143D01*
X22430Y479980D01*
X20020Y478130D01*
X18170Y475720D01*
X17007Y472912D01*
X16610Y469900D01*
X17007Y466888D01*
X18031Y464415D01*
X2747Y449131D01*
X1249Y449429D01*
X880Y450320D01*
X-970Y452730D01*
X-3380Y454580D01*
X-6187Y455743D01*
X-9200Y456139D01*
X-16200D01*
X-19213Y455743D01*
X-21148Y454941D01*
X-38853Y472647D01*
X-40113Y473489D01*
X-41600Y473785D01*
X-74518D01*
X-75320Y475720D01*
X-77170Y478130D01*
X-79580Y479980D01*
X-82387Y481143D01*
X-85400Y481539D01*
X-92400D01*
X-95413Y481143D01*
X-98220Y479980D01*
X-100055Y478572D01*
X-101325Y479198D01*
Y480881D01*
X-97348Y484859D01*
X-95413Y484057D01*
X-92400Y483660D01*
X-85400D01*
X-82387Y484057D01*
X-79580Y485220D01*
X-77170Y487070D01*
X-75320Y489480D01*
X-74157Y492287D01*
X-73760Y495300D01*
X-74157Y498312D01*
X-75320Y501120D01*
X-77170Y503530D01*
X-79580Y505380D01*
X-82387Y506543D01*
X-85400Y506940D01*
X-92400D01*
X-95413Y506543D01*
X-97348Y505741D01*
X-99593Y507987D01*
X-99107Y509160D01*
X-73860D01*
Y532240D01*
X-101325D01*
Y559931D01*
X-49068Y612188D01*
X-47979Y611559D01*
X-45654Y610936D01*
X-43246D01*
X-40921Y611559D01*
X-38835Y612763D01*
X-37133Y614465D01*
X-35929Y616550D01*
X-35306Y618876D01*
Y621284D01*
X-35929Y623609D01*
X-37133Y625695D01*
X-38835Y627397D01*
X-40921Y628601D01*
X-43246Y629224D01*
X-45654D01*
X-47979Y628601D01*
X-50065Y627397D01*
X-51767Y625695D01*
X-52971Y623609D01*
X-53594Y621284D01*
Y618876D01*
X-53546Y618698D01*
X-106777Y565467D01*
X-107950Y565953D01*
Y965200D01*
X-89806D01*
X-89636Y964563D01*
X-89575Y963930D01*
X-91366Y962139D01*
X-92693Y959841D01*
X-93380Y957277D01*
Y954623D01*
X-92693Y952059D01*
X-91366Y949761D01*
X-89489Y947884D01*
X-87191Y946557D01*
X-84627Y945870D01*
X-81973D01*
X-79409Y946557D01*
X-77111Y947884D01*
X-75234Y949761D01*
X-73907Y952059D01*
X-73220Y954623D01*
Y957277D01*
X-73907Y959841D01*
X-75234Y962139D01*
X-77025Y963930D01*
X-76964Y964563D01*
X-76793Y965200D01*
X-24806D01*
X-24636Y964563D01*
X-24575Y963930D01*
X-26366Y962139D01*
X-27693Y959841D01*
X-28380Y957277D01*
Y954623D01*
X-27693Y952059D01*
X-26366Y949761D01*
X-24489Y947884D01*
X-22191Y946557D01*
X-19627Y945870D01*
X-16973D01*
X-14409Y946557D01*
X-14404Y946560D01*
X-3885Y936041D01*
Y904897D01*
X-6950Y901832D01*
X-8220Y902358D01*
Y921030D01*
X-28380D01*
Y900870D01*
X-9708D01*
X-9182Y899600D01*
X-21047Y887735D01*
X-21889Y886475D01*
X-22185Y884988D01*
Y882795D01*
X-22191Y882793D01*
X-24489Y881466D01*
X-26366Y879589D01*
X-27693Y877291D01*
X-28380Y874727D01*
Y872073D01*
X-27693Y869509D01*
X-26366Y867211D01*
X-24489Y865334D01*
X-22191Y864007D01*
X-19627Y863320D01*
X-16973D01*
X-14409Y864007D01*
X-14404Y864010D01*
X-3885Y853491D01*
Y805684D01*
X-11381Y798187D01*
X-12111Y798916D01*
X-14409Y800243D01*
X-16973Y800930D01*
X-19627D01*
X-22191Y800243D01*
X-24489Y798916D01*
X-26366Y797039D01*
X-27693Y794741D01*
X-28380Y792177D01*
Y789523D01*
X-27693Y786959D01*
X-26366Y784661D01*
X-24489Y782784D01*
X-22191Y781457D01*
X-19627Y780770D01*
X-16973D01*
X-14409Y781457D01*
X-12111Y782784D01*
X-10234Y784661D01*
X-8907Y786959D01*
X-8220Y789523D01*
Y790408D01*
X-8078Y790503D01*
X2747Y801328D01*
X3589Y802588D01*
X3885Y804074D01*
Y855100D01*
X3589Y856587D01*
X2747Y857847D01*
X-8910Y869504D01*
X-8907Y869509D01*
X-8220Y872073D01*
Y874727D01*
X-8907Y877291D01*
X-10234Y879589D01*
X-12111Y881466D01*
X-13722Y882396D01*
X-13887Y883908D01*
X2747Y900541D01*
X3589Y901802D01*
X3885Y903288D01*
Y937650D01*
X3589Y939137D01*
X2747Y940397D01*
X-7652Y950795D01*
X-7126Y952065D01*
X146000D01*
X147487Y952361D01*
X148747Y953203D01*
X160744Y965200D01*
X366127D01*
X366613Y964027D01*
X356453Y953867D01*
X355611Y952606D01*
X355315Y951120D01*
Y932691D01*
X354360Y932435D01*
X351500Y930785D01*
X349165Y928450D01*
X347515Y925590D01*
X347157Y924257D01*
X345843D01*
X345485Y925590D01*
X343834Y928450D01*
X341500Y930785D01*
X338640Y932435D01*
X335451Y933290D01*
X332149D01*
X328960Y932435D01*
X326100Y930785D01*
X323765Y928450D01*
X322115Y925590D01*
X321757Y924257D01*
X320443D01*
X320085Y925590D01*
X318435Y928450D01*
X316100Y930785D01*
X313240Y932435D01*
X310051Y933290D01*
X309670D01*
Y920750D01*
Y908210D01*
X310051D01*
X313240Y909065D01*
X316100Y910715D01*
X318435Y913050D01*
X320085Y915910D01*
X320443Y917243D01*
X321757D01*
X322115Y915910D01*
X323765Y913050D01*
X326100Y910715D01*
X328960Y909065D01*
X332149Y908210D01*
X335451D01*
X338640Y909065D01*
X341500Y910715D01*
X343834Y913050D01*
X345485Y915910D01*
X345843Y917243D01*
X347157D01*
X347515Y915910D01*
X349165Y913050D01*
X351500Y910715D01*
X354360Y909065D01*
X357549Y908210D01*
X360851D01*
X364040Y909065D01*
X366900Y910715D01*
X369235Y913050D01*
X370885Y915910D01*
X371243Y917243D01*
X372557D01*
X372915Y915910D01*
X374566Y913050D01*
X376900Y910715D01*
X379760Y909065D01*
X382949Y908210D01*
X386251D01*
X389440Y909065D01*
X392300Y910715D01*
X394635Y913050D01*
X396285Y915910D01*
X396643Y917243D01*
X397957D01*
X398315Y915910D01*
X399966Y913050D01*
X402300Y910715D01*
X405160Y909065D01*
X408349Y908210D01*
X411651D01*
X414840Y909065D01*
X417700Y910715D01*
X420034Y913050D01*
X421685Y915910D01*
X422043Y917243D01*
X423357D01*
X423715Y915910D01*
X425365Y913050D01*
X427700Y910715D01*
X430560Y909065D01*
X433749Y908210D01*
X437051D01*
X440240Y909065D01*
X443100Y910715D01*
X445434Y913050D01*
X447085Y915910D01*
X447443Y917243D01*
X448757D01*
X449115Y915910D01*
X450765Y913050D01*
X453100Y910715D01*
X455960Y909065D01*
X459149Y908210D01*
X462451D01*
X465640Y909065D01*
X468500Y910715D01*
X470835Y913050D01*
X472485Y915910D01*
X472843Y917243D01*
X474157D01*
X474515Y915910D01*
X476166Y913050D01*
X478500Y910715D01*
X481360Y909065D01*
X484549Y908210D01*
X487851D01*
X491040Y909065D01*
X493900Y910715D01*
X496235Y913050D01*
X497885Y915910D01*
X498243Y917243D01*
X499557D01*
X499915Y915910D01*
X501566Y913050D01*
X503900Y910715D01*
X506760Y909065D01*
X509949Y908210D01*
X513251D01*
X516440Y909065D01*
X519300Y910715D01*
X521634Y913050D01*
X523285Y915910D01*
X523643Y917243D01*
X524957D01*
X525315Y915910D01*
X526965Y913050D01*
X529300Y910715D01*
X532160Y909065D01*
X535349Y908210D01*
X538651D01*
X541840Y909065D01*
X544700Y910715D01*
X547034Y913050D01*
X548685Y915910D01*
X549043Y917243D01*
X550357D01*
X550715Y915910D01*
X552365Y913050D01*
X554700Y910715D01*
X557560Y909065D01*
X558515Y908809D01*
Y720300D01*
X558811Y718813D01*
X559653Y717553D01*
X587803Y689403D01*
X589063Y688561D01*
X590550Y688265D01*
X690950D01*
X691203Y686995D01*
X689992Y686494D01*
X687119Y684574D01*
X684676Y682131D01*
X682756Y679258D01*
X681434Y676066D01*
X680760Y672678D01*
Y669222D01*
X681434Y665834D01*
X682756Y662642D01*
X684676Y659769D01*
X687119Y657326D01*
X689992Y655406D01*
X693184Y654084D01*
X696572Y653410D01*
X700027D01*
X703416Y654084D01*
X706608Y655406D01*
X709481Y657326D01*
X711924Y659769D01*
X713145Y661597D01*
X714415Y661211D01*
Y637359D01*
X663326Y586270D01*
X661570Y586740D01*
X659230D01*
X656969Y586134D01*
X654941Y584964D01*
X653286Y583309D01*
X652116Y581281D01*
X651510Y579020D01*
Y576680D01*
X652116Y574419D01*
X653286Y572391D01*
X654941Y570736D01*
X656969Y569566D01*
X659230Y568960D01*
X661570D01*
X663831Y569566D01*
X665859Y570736D01*
X667514Y572391D01*
X668684Y574419D01*
X669290Y576680D01*
Y579020D01*
X668820Y580776D01*
X693442Y605398D01*
X694615Y604912D01*
Y585872D01*
X693041Y584964D01*
X691386Y583309D01*
X690216Y581281D01*
X689610Y579020D01*
Y576680D01*
X690216Y574419D01*
X691386Y572391D01*
X693041Y570736D01*
X695069Y569566D01*
X697330Y568960D01*
X699670D01*
X701931Y569566D01*
X703959Y570736D01*
X705614Y572391D01*
X706784Y574419D01*
X707390Y576680D01*
Y579020D01*
X706784Y581281D01*
X705614Y583309D01*
X703959Y584964D01*
X702385Y585872D01*
Y607157D01*
X726647Y631419D01*
X727489Y632679D01*
X727785Y634166D01*
Y676348D01*
X728958Y676834D01*
X783589Y622203D01*
Y602297D01*
X814069D01*
Y632777D01*
X784003D01*
X725995Y690785D01*
Y922540D01*
X725699Y924027D01*
X724857Y925287D01*
X686117Y964027D01*
X686603Y965200D01*
X688121D01*
X737870Y915451D01*
Y913230D01*
X738476Y910969D01*
X739646Y908941D01*
X741301Y907286D01*
X743329Y906116D01*
X744947Y905682D01*
X784810Y865819D01*
X784190Y864892D01*
X783698Y862414D01*
X783850Y861648D01*
X783589Y860338D01*
Y857336D01*
X784175Y854391D01*
X785324Y851618D01*
X786992Y849122D01*
X789114Y846999D01*
X791610Y845331D01*
X794384Y844182D01*
X797328Y843597D01*
X800330D01*
X803275Y844182D01*
X806048Y845331D01*
X808544Y846999D01*
X810667Y849122D01*
X812335Y851618D01*
X813484Y854391D01*
X814069Y857336D01*
Y860338D01*
X813484Y863282D01*
X812335Y866056D01*
X810667Y868552D01*
X808544Y870674D01*
X806048Y872342D01*
X803275Y873491D01*
X800330Y874077D01*
X797328D01*
X795274Y873668D01*
X755650Y913291D01*
Y915570D01*
X755044Y917831D01*
X753874Y919859D01*
X752219Y921514D01*
X750191Y922684D01*
X748495Y923139D01*
X707607Y964027D01*
X708093Y965200D01*
X729030D01*
X783589Y910640D01*
Y894397D01*
X814069D01*
Y924877D01*
X787665D01*
X748516Y964027D01*
X749002Y965200D01*
X850900D01*
Y529598D01*
D02*
G37*
G36*
X576115Y915910D02*
X577766Y913050D01*
X580100Y910715D01*
X582960Y909065D01*
X583915Y908809D01*
Y713950D01*
X584211Y712463D01*
X585053Y711203D01*
X599048Y697208D01*
X598562Y696035D01*
X592159D01*
X566285Y721909D01*
Y908809D01*
X567240Y909065D01*
X570100Y910715D01*
X572435Y913050D01*
X574085Y915910D01*
X574443Y917243D01*
X575757D01*
X576115Y915910D01*
D02*
G37*
G36*
X824259Y449448D02*
X823457Y447513D01*
X823060Y444500D01*
X823457Y441488D01*
X824620Y438680D01*
X826470Y436270D01*
X828880Y434420D01*
X831687Y433257D01*
X834700Y432860D01*
X841700D01*
X844713Y433257D01*
X847520Y434420D01*
X849630Y436039D01*
X850900Y435602D01*
Y427998D01*
X849630Y427561D01*
X847520Y429180D01*
X844713Y430343D01*
X841700Y430740D01*
X834700D01*
X831687Y430343D01*
X828880Y429180D01*
X826470Y427330D01*
X824620Y424920D01*
X823457Y422113D01*
X823060Y419100D01*
X823457Y416087D01*
X824620Y413280D01*
X826470Y410870D01*
X828880Y409020D01*
X831687Y407857D01*
X834700Y407461D01*
X841700D01*
X844713Y407857D01*
X847520Y409020D01*
X849630Y410639D01*
X850900Y410202D01*
Y402598D01*
X849630Y402161D01*
X847520Y403780D01*
X844713Y404943D01*
X841700Y405340D01*
X834700D01*
X831687Y404943D01*
X828880Y403780D01*
X826470Y401930D01*
X824620Y399520D01*
X823457Y396712D01*
X823060Y393700D01*
X823457Y390687D01*
X824259Y388752D01*
X810053Y374547D01*
X809211Y373287D01*
X808915Y371800D01*
Y287359D01*
X798491Y276935D01*
X738209D01*
X719827Y295317D01*
X720344Y297246D01*
Y299654D01*
X719721Y301980D01*
X718517Y304065D01*
X716814Y305767D01*
X714730Y306971D01*
X712404Y307594D01*
X709996D01*
X707671Y306971D01*
X705585Y305767D01*
X703883Y304065D01*
X702679Y301980D01*
X702056Y299654D01*
Y297246D01*
X702679Y294921D01*
X703883Y292836D01*
X705585Y291133D01*
X707671Y289929D01*
X709996Y289306D01*
X712404D01*
X714333Y289823D01*
X733853Y270303D01*
X735113Y269461D01*
X736600Y269165D01*
X800100D01*
X801587Y269461D01*
X802847Y270303D01*
X815547Y283003D01*
X816389Y284263D01*
X816685Y285750D01*
Y370191D01*
X829752Y383259D01*
X831687Y382457D01*
X834700Y382061D01*
X841700D01*
X844713Y382457D01*
X847520Y383620D01*
X849630Y385239D01*
X850900Y384802D01*
Y377198D01*
X849630Y376761D01*
X847520Y378380D01*
X844713Y379543D01*
X841700Y379939D01*
X834700D01*
X831687Y379543D01*
X828880Y378380D01*
X826470Y376530D01*
X824620Y374120D01*
X823457Y371312D01*
X823060Y368300D01*
X823457Y365288D01*
X824620Y362480D01*
X826470Y360070D01*
X828880Y358220D01*
X831687Y357057D01*
X834700Y356660D01*
X841700D01*
X844713Y357057D01*
X847520Y358220D01*
X849630Y359839D01*
X850900Y359402D01*
Y147115D01*
X849727Y146629D01*
X849381Y146974D01*
X846508Y148894D01*
X843316Y150216D01*
X839928Y150890D01*
X836472D01*
X833084Y150216D01*
X829892Y148894D01*
X827019Y146974D01*
X824576Y144531D01*
X822656Y141658D01*
X821334Y138466D01*
X820660Y135077D01*
Y131622D01*
X821334Y128234D01*
X822656Y125042D01*
X824576Y122169D01*
X824921Y121823D01*
X824435Y120650D01*
X-81485D01*
X-81971Y121823D01*
X-81626Y122169D01*
X-79706Y125042D01*
X-78384Y128234D01*
X-77710Y131622D01*
Y135077D01*
X-78384Y138466D01*
X-79706Y141658D01*
X-81626Y144531D01*
X-84069Y146974D01*
X-86942Y148894D01*
X-90134Y150216D01*
X-93523Y150890D01*
X-96978D01*
X-100366Y150216D01*
X-103558Y148894D01*
X-106431Y146974D01*
X-106777Y146629D01*
X-107950Y147115D01*
Y291297D01*
X-106777Y291783D01*
X-91647Y276653D01*
X-90387Y275811D01*
X-88900Y275515D01*
X6350D01*
X7837Y275811D01*
X9097Y276653D01*
X22267Y289823D01*
X24196Y289306D01*
X26604D01*
X28930Y289929D01*
X31014Y291133D01*
X32717Y292836D01*
X33921Y294921D01*
X34544Y297246D01*
Y299654D01*
X33921Y301980D01*
X32717Y304065D01*
X31014Y305767D01*
X28930Y306971D01*
X26604Y307594D01*
X24196D01*
X21871Y306971D01*
X19785Y305767D01*
X18083Y304065D01*
X16879Y301980D01*
X16256Y299654D01*
Y297246D01*
X16773Y295317D01*
X4741Y283285D01*
X-87291D01*
X-101325Y297319D01*
Y359002D01*
X-100055Y359628D01*
X-98220Y358220D01*
X-95413Y357057D01*
X-92400Y356660D01*
X-85400D01*
X-82387Y357057D01*
X-79580Y358220D01*
X-77170Y360070D01*
X-75320Y362480D01*
X-74157Y365288D01*
X-73760Y368300D01*
X-74157Y371312D01*
X-75320Y374120D01*
X-77170Y376530D01*
X-79580Y378380D01*
X-82387Y379543D01*
X-85400Y379939D01*
X-92400D01*
X-95413Y379543D01*
X-98220Y378380D01*
X-100055Y376972D01*
X-101325Y377598D01*
Y384402D01*
X-100055Y385028D01*
X-98220Y383620D01*
X-95413Y382457D01*
X-92400Y382061D01*
X-85400D01*
X-82387Y382457D01*
X-79580Y383620D01*
X-77170Y385470D01*
X-75320Y387880D01*
X-74157Y390687D01*
X-73760Y393700D01*
X-74157Y396712D01*
X-75320Y399520D01*
X-77170Y401930D01*
X-79580Y403780D01*
X-82387Y404943D01*
X-85400Y405340D01*
X-92400D01*
X-95413Y404943D01*
X-98220Y403780D01*
X-100055Y402372D01*
X-101325Y402998D01*
Y409802D01*
X-100055Y410428D01*
X-98220Y409020D01*
X-95413Y407857D01*
X-92400Y407461D01*
X-85400D01*
X-82387Y407857D01*
X-79580Y409020D01*
X-77170Y410870D01*
X-75320Y413280D01*
X-74157Y416087D01*
X-73760Y419100D01*
X-74157Y422113D01*
X-75320Y424920D01*
X-77170Y427330D01*
X-79580Y429180D01*
X-82387Y430343D01*
X-85400Y430740D01*
X-92400D01*
X-95413Y430343D01*
X-98220Y429180D01*
X-100055Y427772D01*
X-101325Y428398D01*
Y435202D01*
X-100055Y435828D01*
X-98220Y434420D01*
X-95413Y433257D01*
X-92400Y432860D01*
X-85400D01*
X-82387Y433257D01*
X-79580Y434420D01*
X-77170Y436270D01*
X-75320Y438680D01*
X-74157Y441488D01*
X-73760Y444500D01*
X-74157Y447513D01*
X-75320Y450320D01*
X-77170Y452730D01*
X-79580Y454580D01*
X-82387Y455743D01*
X-85400Y456139D01*
X-92400D01*
X-95413Y455743D01*
X-98220Y454580D01*
X-100055Y453172D01*
X-101325Y453798D01*
Y460602D01*
X-100055Y461228D01*
X-98220Y459820D01*
X-95413Y458657D01*
X-92400Y458260D01*
X-85400D01*
X-82387Y458657D01*
X-79580Y459820D01*
X-77170Y461670D01*
X-75320Y464080D01*
X-74518Y466015D01*
X-43209D01*
X-26641Y449448D01*
X-27443Y447513D01*
X-27840Y444500D01*
X-27443Y441488D01*
X-26280Y438680D01*
X-24430Y436270D01*
X-22020Y434420D01*
X-19213Y433257D01*
X-16200Y432860D01*
X-9200D01*
X-6187Y433257D01*
X-3380Y434420D01*
X-970Y436270D01*
X880Y438680D01*
X1682Y440615D01*
X3610D01*
X5097Y440911D01*
X6357Y441753D01*
X23840Y459236D01*
X25237Y458657D01*
X28250Y458260D01*
X35250D01*
X38263Y458657D01*
X40198Y459459D01*
X57903Y441753D01*
X59163Y440911D01*
X60650Y440615D01*
X93568D01*
X94370Y438680D01*
X96220Y436270D01*
X98630Y434420D01*
X101437Y433257D01*
X104450Y432860D01*
X111450D01*
X114463Y433257D01*
X117270Y434420D01*
X119680Y436270D01*
X121530Y438680D01*
X122332Y440615D01*
X124260D01*
X125747Y440911D01*
X127007Y441753D01*
X144490Y459236D01*
X145887Y458657D01*
X148900Y458260D01*
X155900D01*
X158913Y458657D01*
X161720Y459820D01*
X164130Y461670D01*
X165980Y464080D01*
X166782Y466015D01*
X198091D01*
X214659Y449448D01*
X213857Y447513D01*
X213460Y444500D01*
X213857Y441488D01*
X215020Y438680D01*
X216870Y436270D01*
X219280Y434420D01*
X222087Y433257D01*
X225100Y432860D01*
X232100D01*
X235113Y433257D01*
X237920Y434420D01*
X240330Y436270D01*
X242180Y438680D01*
X242982Y440615D01*
X244910D01*
X246397Y440911D01*
X247657Y441753D01*
X259487Y453583D01*
X260329Y454843D01*
X260414Y455270D01*
X264602Y459459D01*
X266537Y458657D01*
X269550Y458260D01*
X276550D01*
X279563Y458657D01*
X282370Y459820D01*
X284780Y461670D01*
X286630Y464080D01*
X287432Y466015D01*
X318741D01*
X335309Y449448D01*
X334507Y447513D01*
X334110Y444500D01*
X334507Y441488D01*
X335670Y438680D01*
X337520Y436270D01*
X339930Y434420D01*
X342737Y433257D01*
X345750Y432860D01*
X352750D01*
X355763Y433257D01*
X358570Y434420D01*
X360980Y436270D01*
X362830Y438680D01*
X363632Y440615D01*
X371150D01*
X372637Y440911D01*
X373897Y441753D01*
X391602Y459459D01*
X393537Y458657D01*
X396550Y458260D01*
X403550D01*
X406563Y458657D01*
X409370Y459820D01*
X411780Y461670D01*
X413630Y464080D01*
X414432Y466015D01*
X445741D01*
X462309Y449448D01*
X461507Y447513D01*
X461110Y444500D01*
X461507Y441488D01*
X462309Y439552D01*
X448103Y425347D01*
X447261Y424087D01*
X446965Y422600D01*
Y281262D01*
X446463Y281162D01*
X443726Y280028D01*
X441263Y278382D01*
X439168Y276287D01*
X437522Y273824D01*
X436388Y271087D01*
X435810Y268181D01*
Y265219D01*
X436388Y262313D01*
X437522Y259576D01*
X439168Y257113D01*
X441263Y255018D01*
X443726Y253372D01*
X446463Y252238D01*
X449369Y251660D01*
X452331D01*
X455237Y252238D01*
X457974Y253372D01*
X460437Y255018D01*
X462532Y257113D01*
X464178Y259576D01*
X465312Y262313D01*
X465890Y265219D01*
Y268181D01*
X465312Y271087D01*
X464178Y273824D01*
X462532Y276287D01*
X460437Y278382D01*
X457974Y280028D01*
X455237Y281162D01*
X454735Y281262D01*
Y420991D01*
X467802Y434059D01*
X469737Y433257D01*
X472750Y432860D01*
X479750D01*
X482763Y433257D01*
X485570Y434420D01*
X487980Y436270D01*
X489830Y438680D01*
X490632Y440615D01*
X492560D01*
X494047Y440911D01*
X495307Y441753D01*
X512790Y459236D01*
X514187Y458657D01*
X517200Y458260D01*
X524200D01*
X527213Y458657D01*
X530020Y459820D01*
X532430Y461670D01*
X534280Y464080D01*
X535082Y466015D01*
X566391D01*
X582959Y449448D01*
X582157Y447513D01*
X581760Y444500D01*
X582157Y441488D01*
X583320Y438680D01*
X585170Y436270D01*
X587580Y434420D01*
X590387Y433257D01*
X593400Y432860D01*
X600400D01*
X603413Y433257D01*
X606220Y434420D01*
X608630Y436270D01*
X610480Y438680D01*
X611282Y440615D01*
X613210D01*
X614697Y440911D01*
X615957Y441753D01*
X633440Y459236D01*
X634837Y458657D01*
X637850Y458260D01*
X644850D01*
X647188Y458568D01*
X649187Y456569D01*
X648468Y455492D01*
X647863Y455743D01*
X644850Y456139D01*
X637850D01*
X634837Y455743D01*
X632030Y454580D01*
X629620Y452730D01*
X627770Y450320D01*
X626607Y447513D01*
X626210Y444500D01*
X626607Y441488D01*
X627770Y438680D01*
X629620Y436270D01*
X632030Y434420D01*
X634837Y433257D01*
X637850Y432860D01*
X644850D01*
X647863Y433257D01*
X650670Y434420D01*
X653080Y436270D01*
X654930Y438680D01*
X656093Y441488D01*
X656490Y444500D01*
X656093Y447513D01*
X655842Y448118D01*
X656919Y448838D01*
X664003Y441753D01*
X665263Y440911D01*
X666750Y440615D01*
X687099D01*
X687439Y439345D01*
X686691Y438914D01*
X685036Y437259D01*
X683866Y435231D01*
X683287Y433070D01*
X701013D01*
X700434Y435231D01*
X699264Y437259D01*
X697609Y438914D01*
X696861Y439345D01*
X697201Y440615D01*
X703168D01*
X703970Y438680D01*
X705820Y436270D01*
X708230Y434420D01*
X711037Y433257D01*
X714050Y432860D01*
X721050D01*
X724063Y433257D01*
X725998Y434059D01*
X732715Y427341D01*
Y424412D01*
X731445Y424159D01*
X731130Y424920D01*
X729280Y427330D01*
X726870Y429180D01*
X724063Y430343D01*
X721050Y430740D01*
X714050D01*
X711037Y430343D01*
X708230Y429180D01*
X705820Y427330D01*
X703970Y424920D01*
X702807Y422113D01*
X702410Y419100D01*
X702807Y416087D01*
X703970Y413280D01*
X705820Y410870D01*
X708230Y409020D01*
X711037Y407857D01*
X714050Y407461D01*
X721050D01*
X724063Y407857D01*
X726870Y409020D01*
X729280Y410870D01*
X731130Y413280D01*
X731445Y414041D01*
X732715Y413788D01*
Y399011D01*
X731445Y398759D01*
X731130Y399520D01*
X729280Y401930D01*
X726870Y403780D01*
X724063Y404943D01*
X721050Y405340D01*
X714050D01*
X711037Y404943D01*
X708230Y403780D01*
X705820Y401930D01*
X703970Y399520D01*
X702807Y396712D01*
X702410Y393700D01*
X702807Y390687D01*
X703609Y388752D01*
X693213Y378357D01*
X692371Y377097D01*
X692075Y375610D01*
Y335619D01*
X663533Y307077D01*
X661604Y307594D01*
X659196D01*
X656870Y306971D01*
X654786Y305767D01*
X653083Y304065D01*
X651879Y301980D01*
X651256Y299654D01*
Y297246D01*
X651879Y294921D01*
X653083Y292836D01*
X654786Y291133D01*
X656870Y289929D01*
X659196Y289306D01*
X661604D01*
X663930Y289929D01*
X666014Y291133D01*
X667717Y292836D01*
X668921Y294921D01*
X669544Y297246D01*
Y299654D01*
X669027Y301583D01*
X698707Y331263D01*
X699549Y332523D01*
X699845Y334010D01*
Y374001D01*
X709102Y383259D01*
X711037Y382457D01*
X714050Y382061D01*
X721050D01*
X724063Y382457D01*
X726870Y383620D01*
X729280Y385470D01*
X731130Y387880D01*
X731445Y388641D01*
X732715Y388388D01*
Y373611D01*
X731445Y373359D01*
X731130Y374120D01*
X729280Y376530D01*
X726870Y378380D01*
X724063Y379543D01*
X721050Y379939D01*
X714050D01*
X711037Y379543D01*
X708230Y378380D01*
X705820Y376530D01*
X703970Y374120D01*
X702807Y371312D01*
X702410Y368300D01*
X702807Y365288D01*
X703970Y362480D01*
X705820Y360070D01*
X708230Y358220D01*
X711037Y357057D01*
X714050Y356660D01*
X721050D01*
X724063Y357057D01*
X726870Y358220D01*
X729280Y360070D01*
X731130Y362480D01*
X731445Y363241D01*
X732715Y362989D01*
Y342900D01*
X733011Y341413D01*
X733853Y340153D01*
X758115Y315891D01*
Y307594D01*
X752856D01*
Y289306D01*
X771144D01*
Y307594D01*
X765885D01*
Y317500D01*
X765589Y318987D01*
X764747Y320247D01*
X740485Y344509D01*
Y428950D01*
X740189Y430437D01*
X739347Y431697D01*
X731533Y439510D01*
X731991Y440615D01*
X733860D01*
X735347Y440911D01*
X736607Y441753D01*
X754090Y459236D01*
X755487Y458657D01*
X758500Y458260D01*
X765500D01*
X768513Y458657D01*
X771320Y459820D01*
X773730Y461670D01*
X775580Y464080D01*
X776382Y466015D01*
X807691D01*
X824259Y449448D01*
D02*
G37*
%LPC*%
G36*
X360679Y1280277D02*
X349409D01*
Y1266507D01*
X360679D01*
Y1280277D01*
D02*
G37*
G36*
Y1263967D02*
X349409D01*
Y1250197D01*
X360679D01*
Y1263967D01*
D02*
G37*
G36*
X109538Y1256665D02*
X109220D01*
Y1245870D01*
X120015D01*
Y1246188D01*
X119193Y1249257D01*
X117604Y1252008D01*
X115358Y1254254D01*
X112607Y1255843D01*
X109538Y1256665D01*
D02*
G37*
G36*
X106680D02*
X106362D01*
X103293Y1255843D01*
X100542Y1254254D01*
X98296Y1252008D01*
X96707Y1249257D01*
X95885Y1246188D01*
Y1245870D01*
X106680D01*
Y1256665D01*
D02*
G37*
G36*
X639826Y1295524D02*
X569000D01*
X566522Y1295032D01*
X564422Y1293628D01*
X549484Y1278690D01*
X533560D01*
Y1255056D01*
X533400Y1254924D01*
X530922Y1254432D01*
X528822Y1253028D01*
X527418Y1250928D01*
X526926Y1248450D01*
Y1211398D01*
X526887Y1211393D01*
X524080Y1210230D01*
X521670Y1208380D01*
X519820Y1205970D01*
X518657Y1203163D01*
X518260Y1200150D01*
X518657Y1197138D01*
X519820Y1194330D01*
X521670Y1191920D01*
X524080Y1190070D01*
X526887Y1188907D01*
X529900Y1188510D01*
X536900D01*
X539913Y1188907D01*
X542720Y1190070D01*
X545130Y1191920D01*
X546980Y1194330D01*
X548143Y1197138D01*
X548540Y1200150D01*
X548143Y1203163D01*
X546980Y1205970D01*
X545130Y1208380D01*
X542720Y1210230D01*
X539913Y1211393D01*
X539874Y1211398D01*
Y1248450D01*
X540006Y1248610D01*
X558640D01*
Y1256109D01*
X559910Y1256362D01*
X560546Y1254826D01*
X562556Y1252206D01*
X565176Y1250196D01*
X568226Y1248933D01*
X571500Y1248502D01*
X574774Y1248933D01*
X577824Y1250196D01*
X580444Y1252206D01*
X582454Y1254826D01*
X583513Y1257383D01*
X584887D01*
X585946Y1254826D01*
X587956Y1252206D01*
X590426Y1250312D01*
Y1220218D01*
X589786Y1219579D01*
X588616Y1217551D01*
X588010Y1215290D01*
Y1212950D01*
X588616Y1210689D01*
X589786Y1208661D01*
X590426Y1208022D01*
Y1177432D01*
X568818Y1155824D01*
X514350D01*
X511872Y1155332D01*
X509772Y1153928D01*
X490722Y1134878D01*
X489318Y1132778D01*
X488826Y1130300D01*
Y1066982D01*
X469136Y1047292D01*
X466050Y1047698D01*
X461050D01*
X457776Y1047267D01*
X454726Y1046004D01*
X452106Y1043994D01*
X450096Y1041374D01*
X448833Y1038324D01*
X448402Y1035050D01*
X448833Y1031776D01*
X450096Y1028726D01*
X452106Y1026106D01*
X454726Y1024096D01*
X457776Y1022833D01*
X461050Y1022402D01*
X466050D01*
X469324Y1022833D01*
X472374Y1024096D01*
X474994Y1026106D01*
X477004Y1028726D01*
X478267Y1031776D01*
X478698Y1035050D01*
X478292Y1038136D01*
X499878Y1059722D01*
X501282Y1061822D01*
X501774Y1064300D01*
Y1127618D01*
X517032Y1142876D01*
X571500D01*
X573978Y1143368D01*
X576078Y1144772D01*
X601478Y1170172D01*
X602882Y1172272D01*
X603374Y1174750D01*
Y1208022D01*
X604014Y1208661D01*
X605184Y1210689D01*
X605790Y1212950D01*
Y1215290D01*
X605184Y1217551D01*
X604014Y1219579D01*
X603374Y1220218D01*
Y1250312D01*
X605844Y1252206D01*
X607854Y1254826D01*
X609117Y1257876D01*
X609548Y1261150D01*
Y1266150D01*
X609117Y1269424D01*
X607854Y1272474D01*
X605844Y1275094D01*
X603224Y1277104D01*
X600174Y1278367D01*
X596900Y1278798D01*
X593626Y1278367D01*
X590576Y1277104D01*
X587956Y1275094D01*
X585946Y1272474D01*
X584887Y1269917D01*
X583513D01*
X582454Y1272474D01*
X580444Y1275094D01*
X577824Y1277104D01*
X574774Y1278367D01*
X571500Y1278798D01*
X569428Y1278525D01*
X568834Y1279728D01*
X571682Y1282576D01*
X637144D01*
X659384Y1260336D01*
Y1246632D01*
X659842D01*
Y1217168D01*
X659384D01*
Y1194308D01*
X699516D01*
Y1199264D01*
X709091D01*
X711569Y1199756D01*
X713670Y1201160D01*
X764922Y1252412D01*
X766579D01*
X767544Y1250081D01*
X769212Y1247585D01*
X771335Y1245462D01*
X773831Y1243794D01*
X776605Y1242646D01*
X779549Y1242060D01*
X782551D01*
X785495Y1242646D01*
X788269Y1243794D01*
X790765Y1245462D01*
X792888Y1247585D01*
X794556Y1250081D01*
X795704Y1252855D01*
X796290Y1255799D01*
Y1258801D01*
X795704Y1261745D01*
X794556Y1264519D01*
X792888Y1267015D01*
X790765Y1269138D01*
X788269Y1270806D01*
X785495Y1271954D01*
X782551Y1272540D01*
X779549D01*
X776605Y1271954D01*
X773831Y1270806D01*
X771335Y1269138D01*
X769212Y1267015D01*
X768107Y1265361D01*
X762240D01*
X759762Y1264868D01*
X757662Y1263465D01*
X706410Y1212212D01*
X699516D01*
Y1217168D01*
X699058D01*
Y1246632D01*
X699516D01*
Y1269492D01*
X668540D01*
X644404Y1293628D01*
X642304Y1295032D01*
X639826Y1295524D01*
D02*
G37*
G36*
X236538Y1256665D02*
X233362D01*
X230293Y1255843D01*
X227542Y1254254D01*
X225296Y1252008D01*
X223707Y1249257D01*
X222885Y1246188D01*
Y1243012D01*
X223707Y1239943D01*
X225296Y1237192D01*
X227542Y1234946D01*
X230293Y1233357D01*
X233362Y1232535D01*
X236538D01*
X239607Y1233357D01*
X242358Y1234946D01*
X244604Y1237192D01*
X246193Y1239943D01*
X247015Y1243012D01*
Y1246188D01*
X246193Y1249257D01*
X244604Y1252008D01*
X242358Y1254254D01*
X239607Y1255843D01*
X236538Y1256665D01*
D02*
G37*
G36*
X211138D02*
X207962D01*
X204893Y1255843D01*
X202142Y1254254D01*
X199896Y1252008D01*
X198307Y1249257D01*
X197485Y1246188D01*
Y1243012D01*
X198307Y1239943D01*
X199896Y1237192D01*
X202142Y1234946D01*
X204893Y1233357D01*
X207962Y1232535D01*
X211138D01*
X214207Y1233357D01*
X216958Y1234946D01*
X219204Y1237192D01*
X220793Y1239943D01*
X221615Y1243012D01*
Y1246188D01*
X220793Y1249257D01*
X219204Y1252008D01*
X216958Y1254254D01*
X214207Y1255843D01*
X211138Y1256665D01*
D02*
G37*
G36*
X185738D02*
X182562D01*
X179493Y1255843D01*
X176742Y1254254D01*
X174496Y1252008D01*
X172907Y1249257D01*
X172085Y1246188D01*
Y1243012D01*
X172907Y1239943D01*
X174496Y1237192D01*
X176742Y1234946D01*
X179493Y1233357D01*
X182562Y1232535D01*
X185738D01*
X188807Y1233357D01*
X191558Y1234946D01*
X193804Y1237192D01*
X195393Y1239943D01*
X196215Y1243012D01*
Y1246188D01*
X195393Y1249257D01*
X193804Y1252008D01*
X191558Y1254254D01*
X188807Y1255843D01*
X185738Y1256665D01*
D02*
G37*
G36*
X160338D02*
X157162D01*
X154093Y1255843D01*
X151342Y1254254D01*
X149096Y1252008D01*
X147507Y1249257D01*
X146685Y1246188D01*
Y1243012D01*
X147507Y1239943D01*
X149096Y1237192D01*
X151342Y1234946D01*
X154093Y1233357D01*
X157162Y1232535D01*
X160338D01*
X163407Y1233357D01*
X166158Y1234946D01*
X168404Y1237192D01*
X169993Y1239943D01*
X170815Y1243012D01*
Y1246188D01*
X169993Y1249257D01*
X168404Y1252008D01*
X166158Y1254254D01*
X163407Y1255843D01*
X160338Y1256665D01*
D02*
G37*
G36*
X120015Y1243330D02*
X109220D01*
Y1232535D01*
X109538D01*
X112607Y1233357D01*
X115358Y1234946D01*
X117604Y1237192D01*
X119193Y1239943D01*
X120015Y1243012D01*
Y1243330D01*
D02*
G37*
G36*
X106680D02*
X95885D01*
Y1243012D01*
X96707Y1239943D01*
X98296Y1237192D01*
X100542Y1234946D01*
X103293Y1233357D01*
X106362Y1232535D01*
X106680D01*
Y1243330D01*
D02*
G37*
G36*
X84138Y1256665D02*
X80962D01*
X77893Y1255843D01*
X75142Y1254254D01*
X72896Y1252008D01*
X71307Y1249257D01*
X71100Y1248485D01*
X32187D01*
X30701Y1248189D01*
X29440Y1247347D01*
X11223Y1229130D01*
X10381Y1227869D01*
X10085Y1226383D01*
Y1122680D01*
X10381Y1121193D01*
X11055Y1120185D01*
X10069Y1119375D01*
X-38956Y1168400D01*
X-40217Y1169242D01*
X-41703Y1169538D01*
X-78947D01*
X-80433Y1169242D01*
X-81694Y1168400D01*
X-91647Y1158447D01*
X-92489Y1157187D01*
X-92785Y1155700D01*
Y1130300D01*
X-92489Y1128813D01*
X-91647Y1127553D01*
X-78947Y1114853D01*
X-77687Y1114011D01*
X-76200Y1113715D01*
X-74406D01*
X-74254Y1113146D01*
X-72734Y1110514D01*
X-70586Y1108366D01*
X-67954Y1106846D01*
X-65019Y1106060D01*
X-61981D01*
X-59046Y1106846D01*
X-56414Y1108366D01*
X-54266Y1110514D01*
X-52747Y1113146D01*
X-51960Y1116081D01*
Y1119119D01*
X-52747Y1122054D01*
X-54266Y1124686D01*
X-56414Y1126834D01*
X-59046Y1128354D01*
X-61981Y1129140D01*
X-65019D01*
X-67954Y1128354D01*
X-70586Y1126834D01*
X-72734Y1124686D01*
X-73928Y1122618D01*
X-75285Y1122324D01*
X-75482Y1122376D01*
X-85015Y1131909D01*
Y1154091D01*
X-77338Y1161768D01*
X-43312D01*
X-37354Y1155810D01*
X-37880Y1154540D01*
X-39619D01*
X-42554Y1153754D01*
X-45186Y1152234D01*
X-47334Y1150086D01*
X-48854Y1147454D01*
X-49640Y1144519D01*
Y1141481D01*
X-48854Y1138546D01*
X-47334Y1135914D01*
X-45186Y1133766D01*
X-42554Y1132246D01*
X-39619Y1131460D01*
X-36581D01*
X-33646Y1132246D01*
X-33135Y1132541D01*
X2465Y1096941D01*
Y1085850D01*
X2761Y1084363D01*
X3603Y1083103D01*
X23336Y1063370D01*
X22952Y1060450D01*
X23383Y1057176D01*
X23467Y1056973D01*
X22391Y1056253D01*
X-30368Y1109012D01*
X-28866Y1110514D01*
X-27346Y1113146D01*
X-26560Y1116081D01*
Y1119119D01*
X-27346Y1122054D01*
X-28866Y1124686D01*
X-31014Y1126834D01*
X-33646Y1128354D01*
X-36581Y1129140D01*
X-39619D01*
X-42554Y1128354D01*
X-45186Y1126834D01*
X-47334Y1124686D01*
X-48854Y1122054D01*
X-49640Y1119119D01*
Y1116081D01*
X-48854Y1113146D01*
X-47334Y1110514D01*
X-45186Y1108366D01*
X-42554Y1106846D01*
X-39619Y1106060D01*
X-38233D01*
X-37889Y1105545D01*
X-37354Y1105010D01*
X-37880Y1103740D01*
X-39619D01*
X-42554Y1102953D01*
X-45186Y1101434D01*
X-47334Y1099286D01*
X-48854Y1096654D01*
X-49640Y1093719D01*
Y1090681D01*
X-48854Y1087746D01*
X-47334Y1085114D01*
X-45186Y1082966D01*
X-42554Y1081447D01*
X-39619Y1080660D01*
X-36581D01*
X-33646Y1081447D01*
X-31014Y1082966D01*
X-28866Y1085114D01*
X-27346Y1087746D01*
X-26560Y1090681D01*
Y1092420D01*
X-25290Y1092946D01*
X22985Y1044671D01*
Y1037430D01*
X23060Y1037055D01*
Y1016160D01*
X53140D01*
Y1024815D01*
X80062D01*
X81548Y1025111D01*
X82809Y1025953D01*
X123487Y1066631D01*
X124660Y1066145D01*
Y1061720D01*
X138430D01*
Y1072990D01*
X132767D01*
X132088Y1074260D01*
X132252Y1074505D01*
X157640D01*
X159127Y1074801D01*
X160387Y1075643D01*
X173059Y1088315D01*
X176036D01*
X177046Y1085876D01*
X179056Y1083256D01*
X181676Y1081246D01*
X184726Y1079983D01*
X188000Y1079552D01*
X193000D01*
X196274Y1079983D01*
X199324Y1081246D01*
X201655Y1083035D01*
X202925Y1082610D01*
Y1075869D01*
X200046Y1072990D01*
X175460D01*
Y1047910D01*
X205540D01*
Y1067496D01*
X209557Y1071513D01*
X210399Y1072773D01*
X210695Y1074260D01*
Y1097920D01*
X210399Y1099407D01*
X209557Y1100667D01*
X201467Y1108757D01*
X200207Y1109599D01*
X198720Y1109895D01*
X131480D01*
X129993Y1109599D01*
X128733Y1108757D01*
X84311Y1064335D01*
X52564D01*
X51554Y1066774D01*
X49544Y1069394D01*
X46924Y1071404D01*
X43874Y1072667D01*
X40600Y1073098D01*
X35600D01*
X32326Y1072667D01*
X29276Y1071404D01*
X27586Y1070107D01*
X10235Y1087459D01*
Y1098550D01*
X9939Y1100037D01*
X9097Y1101297D01*
X-27641Y1138035D01*
X-27346Y1138546D01*
X-26560Y1141481D01*
Y1143220D01*
X-25290Y1143746D01*
X20774Y1097682D01*
X22034Y1096840D01*
X23060Y1096636D01*
Y1079660D01*
X53140D01*
Y1104740D01*
X35969D01*
X35717Y1106009D01*
X34875Y1107269D01*
X31403Y1110741D01*
X32123Y1111817D01*
X32326Y1111733D01*
X35600Y1111302D01*
X40600D01*
X43874Y1111733D01*
X46924Y1112996D01*
X49544Y1115006D01*
X51554Y1117626D01*
X52564Y1120065D01*
X104523D01*
X106009Y1120361D01*
X107270Y1121203D01*
X119942Y1133875D01*
X124660D01*
Y1125220D01*
X154740D01*
Y1133875D01*
X172581D01*
X175460Y1130996D01*
Y1111410D01*
X205540D01*
Y1136490D01*
X180954D01*
X176937Y1140507D01*
X175677Y1141349D01*
X174190Y1141645D01*
X118333D01*
X116846Y1141349D01*
X115586Y1140507D01*
X102914Y1127835D01*
X52564D01*
X51554Y1130274D01*
X49544Y1132894D01*
X46924Y1134904D01*
X44604Y1135865D01*
X44284Y1137340D01*
X89901Y1182957D01*
X90593Y1182557D01*
X93662Y1181735D01*
X96838D01*
X99907Y1182557D01*
X102658Y1184146D01*
X104904Y1186392D01*
X106493Y1189143D01*
X107315Y1192212D01*
Y1195388D01*
X106493Y1198457D01*
X104904Y1201208D01*
X102658Y1203454D01*
X99907Y1205043D01*
X96838Y1205865D01*
X93662D01*
X90593Y1205043D01*
X87842Y1203454D01*
X85596Y1201208D01*
X84007Y1198457D01*
X83185Y1195388D01*
Y1192212D01*
X84007Y1189143D01*
X84407Y1188451D01*
X83088Y1187132D01*
X81915Y1187618D01*
Y1205865D01*
X57785D01*
Y1181735D01*
X76032D01*
X76518Y1180562D01*
X35353Y1139397D01*
X34511Y1138137D01*
X34215Y1136650D01*
Y1136416D01*
X32326Y1136167D01*
X29276Y1134904D01*
X26656Y1132894D01*
X24646Y1130274D01*
X23383Y1127224D01*
X22952Y1123950D01*
X23383Y1120676D01*
X23467Y1120473D01*
X22390Y1119753D01*
X17855Y1124289D01*
Y1204264D01*
X19070Y1204633D01*
X20060Y1203151D01*
X23067Y1200144D01*
X26603Y1197781D01*
X30532Y1196154D01*
X34704Y1195324D01*
X38956D01*
X43128Y1196154D01*
X47057Y1197781D01*
X50593Y1200144D01*
X53600Y1203151D01*
X55963Y1206687D01*
X57590Y1210616D01*
X58420Y1214788D01*
Y1219040D01*
X57590Y1223212D01*
X55963Y1227141D01*
X53600Y1230677D01*
X50593Y1233684D01*
X47057Y1236047D01*
X43128Y1237674D01*
X38956Y1238504D01*
X34704D01*
X32956Y1238156D01*
X32357Y1239276D01*
X33796Y1240715D01*
X71100D01*
X71307Y1239943D01*
X72896Y1237192D01*
X75142Y1234946D01*
X77893Y1233357D01*
X80962Y1232535D01*
X84138D01*
X87207Y1233357D01*
X89958Y1234946D01*
X92204Y1237192D01*
X93793Y1239943D01*
X94615Y1243012D01*
Y1246188D01*
X93793Y1249257D01*
X92204Y1252008D01*
X89958Y1254254D01*
X87207Y1255843D01*
X84138Y1256665D01*
D02*
G37*
G36*
X279400Y1273885D02*
X158750D01*
X157263Y1273589D01*
X156003Y1272747D01*
X138699Y1255443D01*
X138007Y1255843D01*
X134938Y1256665D01*
X131762D01*
X128693Y1255843D01*
X125942Y1254254D01*
X123696Y1252008D01*
X122107Y1249257D01*
X121285Y1246188D01*
Y1243012D01*
X122107Y1239943D01*
X123696Y1237192D01*
X125942Y1234946D01*
X128693Y1233357D01*
X131762Y1232535D01*
X134938D01*
X138007Y1233357D01*
X140758Y1234946D01*
X143004Y1237192D01*
X144593Y1239943D01*
X145415Y1243012D01*
Y1246188D01*
X144593Y1249257D01*
X144193Y1249949D01*
X160359Y1266115D01*
X277791D01*
X309080Y1234826D01*
X308610Y1233070D01*
Y1230730D01*
X309216Y1228469D01*
X310386Y1226441D01*
X312041Y1224786D01*
X314069Y1223616D01*
X316330Y1223010D01*
X318670D01*
X320931Y1223616D01*
X322959Y1224786D01*
X324614Y1226441D01*
X325784Y1228469D01*
X326390Y1230730D01*
Y1233070D01*
X325784Y1235331D01*
X324614Y1237359D01*
X322959Y1239014D01*
X320931Y1240184D01*
X318670Y1240790D01*
X316330D01*
X314574Y1240320D01*
X282147Y1272747D01*
X280887Y1273589D01*
X279400Y1273885D01*
D02*
G37*
G36*
X-36581Y1238677D02*
X-39620D01*
X-42555Y1237890D01*
X-45186Y1236371D01*
X-47335Y1234222D01*
X-48854Y1231591D01*
X-49641Y1228656D01*
Y1225617D01*
X-48854Y1222682D01*
X-47335Y1220051D01*
X-45186Y1217902D01*
X-42555Y1216383D01*
X-39620Y1215597D01*
X-36581D01*
X-33646Y1216383D01*
X-31015Y1217902D01*
X-28866Y1220051D01*
X-27347Y1222682D01*
X-26561Y1225617D01*
Y1228656D01*
X-27347Y1231591D01*
X-28866Y1234222D01*
X-31015Y1236371D01*
X-33646Y1237890D01*
X-36581Y1238677D01*
D02*
G37*
G36*
X-51961D02*
X-75041D01*
Y1215597D01*
X-51961D01*
Y1238677D01*
D02*
G37*
G36*
X282796Y1238504D02*
X278544D01*
X274372Y1237674D01*
X270443Y1236047D01*
X266907Y1233684D01*
X263900Y1230677D01*
X261537Y1227141D01*
X259910Y1223212D01*
X259080Y1219040D01*
Y1214788D01*
X259910Y1210616D01*
X261537Y1206687D01*
X263900Y1203151D01*
X266907Y1200144D01*
X270443Y1197781D01*
X274372Y1196154D01*
X278544Y1195324D01*
X282796D01*
X286968Y1196154D01*
X290897Y1197781D01*
X294433Y1200144D01*
X297440Y1203151D01*
X299803Y1206687D01*
X301430Y1210616D01*
X302260Y1214788D01*
Y1219040D01*
X301430Y1223212D01*
X299803Y1227141D01*
X297440Y1230677D01*
X294433Y1233684D01*
X290897Y1236047D01*
X286968Y1237674D01*
X282796Y1238504D01*
D02*
G37*
G36*
X473399Y1200676D02*
X471169D01*
Y1190307D01*
X484872D01*
X484642Y1192049D01*
X483479Y1194856D01*
X481630Y1197267D01*
X479219Y1199117D01*
X476412Y1200280D01*
X473399Y1200676D01*
D02*
G37*
G36*
X468629D02*
X466399D01*
X463387Y1200280D01*
X460579Y1199117D01*
X458169Y1197267D01*
X456319Y1194856D01*
X455156Y1192049D01*
X454927Y1190307D01*
X468629D01*
Y1200676D01*
D02*
G37*
G36*
X-36581Y1213277D02*
X-39620D01*
X-42555Y1212490D01*
X-45186Y1210971D01*
X-47335Y1208822D01*
X-48854Y1206191D01*
X-49641Y1203256D01*
Y1200217D01*
X-48854Y1197282D01*
X-47335Y1194651D01*
X-45186Y1192502D01*
X-42555Y1190983D01*
X-39620Y1190197D01*
X-36581D01*
X-33646Y1190983D01*
X-31015Y1192502D01*
X-28866Y1194651D01*
X-27347Y1197282D01*
X-26561Y1200217D01*
Y1203256D01*
X-27347Y1206191D01*
X-28866Y1208822D01*
X-31015Y1210971D01*
X-33646Y1212490D01*
X-36581Y1213277D01*
D02*
G37*
G36*
X-61981D02*
X-65020D01*
X-67955Y1212490D01*
X-70586Y1210971D01*
X-72735Y1208822D01*
X-74254Y1206191D01*
X-75041Y1203256D01*
Y1200217D01*
X-74254Y1197282D01*
X-72735Y1194651D01*
X-70586Y1192502D01*
X-67955Y1190983D01*
X-65020Y1190197D01*
X-61981D01*
X-59046Y1190983D01*
X-56415Y1192502D01*
X-54266Y1194651D01*
X-52747Y1197282D01*
X-51961Y1200217D01*
Y1203256D01*
X-52747Y1206191D01*
X-54266Y1208822D01*
X-56415Y1210971D01*
X-59046Y1212490D01*
X-61981Y1213277D01*
D02*
G37*
G36*
X469899Y1189037D02*
D01*
D01*
D01*
D02*
G37*
G36*
X249238Y1205865D02*
X246062D01*
X242993Y1205043D01*
X240242Y1203454D01*
X237996Y1201208D01*
X236407Y1198457D01*
X235585Y1195388D01*
Y1192212D01*
X236407Y1189143D01*
X237996Y1186392D01*
X240242Y1184146D01*
X242993Y1182557D01*
X246062Y1181735D01*
X249238D01*
X252307Y1182557D01*
X255058Y1184146D01*
X257304Y1186392D01*
X258893Y1189143D01*
X259715Y1192212D01*
Y1195388D01*
X258893Y1198457D01*
X257304Y1201208D01*
X255058Y1203454D01*
X252307Y1205043D01*
X249238Y1205865D01*
D02*
G37*
G36*
X223838D02*
X220662D01*
X217593Y1205043D01*
X214842Y1203454D01*
X212596Y1201208D01*
X211007Y1198457D01*
X210185Y1195388D01*
Y1192212D01*
X211007Y1189143D01*
X212596Y1186392D01*
X214842Y1184146D01*
X217593Y1182557D01*
X220662Y1181735D01*
X223838D01*
X226907Y1182557D01*
X229658Y1184146D01*
X231904Y1186392D01*
X233493Y1189143D01*
X234315Y1192212D01*
Y1195388D01*
X233493Y1198457D01*
X231904Y1201208D01*
X229658Y1203454D01*
X226907Y1205043D01*
X223838Y1205865D01*
D02*
G37*
G36*
X147638D02*
X144462D01*
X141393Y1205043D01*
X138642Y1203454D01*
X136396Y1201208D01*
X134807Y1198457D01*
X133985Y1195388D01*
Y1192212D01*
X134807Y1189143D01*
X136396Y1186392D01*
X138642Y1184146D01*
X141393Y1182557D01*
X144462Y1181735D01*
X147638D01*
X150707Y1182557D01*
X153458Y1184146D01*
X155704Y1186392D01*
X157293Y1189143D01*
X158115Y1192212D01*
Y1195388D01*
X157293Y1198457D01*
X155704Y1201208D01*
X153458Y1203454D01*
X150707Y1205043D01*
X147638Y1205865D01*
D02*
G37*
G36*
X122238D02*
X119062D01*
X115993Y1205043D01*
X113242Y1203454D01*
X110996Y1201208D01*
X109407Y1198457D01*
X108585Y1195388D01*
Y1192212D01*
X109407Y1189143D01*
X110996Y1186392D01*
X113242Y1184146D01*
X115993Y1182557D01*
X119062Y1181735D01*
X122238D01*
X125307Y1182557D01*
X128058Y1184146D01*
X130304Y1186392D01*
X131893Y1189143D01*
X132715Y1192212D01*
Y1195388D01*
X131893Y1198457D01*
X130304Y1201208D01*
X128058Y1203454D01*
X125307Y1205043D01*
X122238Y1205865D01*
D02*
G37*
G36*
X484872Y1187767D02*
X471169D01*
Y1177397D01*
X473399D01*
X476412Y1177794D01*
X479219Y1178957D01*
X481630Y1180806D01*
X483479Y1183217D01*
X484642Y1186024D01*
X484872Y1187767D01*
D02*
G37*
G36*
X468629D02*
X454927D01*
X455156Y1186024D01*
X456319Y1183217D01*
X458169Y1180806D01*
X460579Y1178957D01*
X463387Y1177794D01*
X466399Y1177397D01*
X468629D01*
Y1187767D01*
D02*
G37*
G36*
X536900Y1186390D02*
X529900D01*
X526887Y1185993D01*
X524080Y1184830D01*
X521670Y1182980D01*
X519820Y1180570D01*
X518657Y1177763D01*
X518260Y1174750D01*
X518657Y1171738D01*
X519820Y1168930D01*
X521670Y1166520D01*
X524080Y1164670D01*
X526887Y1163507D01*
X529900Y1163110D01*
X536900D01*
X539913Y1163507D01*
X542720Y1164670D01*
X545130Y1166520D01*
X546980Y1168930D01*
X548143Y1171738D01*
X548540Y1174750D01*
X548143Y1177763D01*
X546980Y1180570D01*
X545130Y1182980D01*
X542720Y1184830D01*
X539913Y1185993D01*
X536900Y1186390D01*
D02*
G37*
G36*
X699516Y1155192D02*
X680720D01*
Y1145032D01*
X699516D01*
Y1155192D01*
D02*
G37*
G36*
X678180D02*
X659384D01*
Y1145032D01*
X678180D01*
Y1155192D01*
D02*
G37*
G36*
X-51960Y1154540D02*
X-75040D01*
Y1131460D01*
X-51960D01*
Y1154540D01*
D02*
G37*
G36*
X595320Y1134529D02*
X593090D01*
Y1124159D01*
X606792D01*
X606563Y1125902D01*
X605400Y1128709D01*
X603550Y1131120D01*
X601140Y1132970D01*
X598333Y1134133D01*
X595320Y1134529D01*
D02*
G37*
G36*
X590550D02*
X588320D01*
X585307Y1134133D01*
X582500Y1132970D01*
X580090Y1131120D01*
X578240Y1128709D01*
X577077Y1125902D01*
X576848Y1124159D01*
X590550D01*
Y1134529D01*
D02*
G37*
G36*
X796290Y1221740D02*
X765810D01*
Y1191260D01*
X774576D01*
Y1153477D01*
X772159D01*
Y1122997D01*
X802639D01*
Y1153477D01*
X787524D01*
Y1191260D01*
X796290D01*
Y1221740D01*
D02*
G37*
G36*
X384499Y1172736D02*
X377499D01*
X374487Y1172340D01*
X371679Y1171177D01*
X369269Y1169327D01*
X367419Y1166917D01*
X366256Y1164109D01*
X365860Y1161097D01*
X366256Y1158084D01*
X367419Y1155277D01*
X369269Y1152866D01*
X371679Y1151017D01*
X374487Y1149854D01*
X374525Y1149849D01*
Y1115600D01*
X373255Y1115043D01*
X371269Y1116567D01*
X368462Y1117730D01*
X365449Y1118126D01*
X358449D01*
X355437Y1117730D01*
X352630Y1116567D01*
X350219Y1114717D01*
X348369Y1112307D01*
X347206Y1109499D01*
X346810Y1106487D01*
X347206Y1103474D01*
X348369Y1100667D01*
X350219Y1098256D01*
X352630Y1096407D01*
X355437Y1095244D01*
X358449Y1094847D01*
X365449D01*
X368462Y1095244D01*
X371269Y1096407D01*
X373255Y1097930D01*
X374525Y1097374D01*
Y1091381D01*
X367645Y1084501D01*
X365450Y1084790D01*
X358450D01*
X355437Y1084393D01*
X352630Y1083230D01*
X350220Y1081380D01*
X348370Y1078970D01*
X347207Y1076162D01*
X346810Y1073150D01*
X347207Y1070137D01*
X348370Y1067330D01*
X350220Y1064920D01*
X352630Y1063070D01*
X355437Y1061907D01*
X358450Y1061510D01*
X365450D01*
X368463Y1061907D01*
X371270Y1063070D01*
X373680Y1064920D01*
X375530Y1067330D01*
X376693Y1070137D01*
X377090Y1073150D01*
X376801Y1075344D01*
X385577Y1084121D01*
X386981Y1086222D01*
X387474Y1088699D01*
Y1149849D01*
X387512Y1149854D01*
X390319Y1151017D01*
X392730Y1152866D01*
X394580Y1155277D01*
X395742Y1158084D01*
X396139Y1161097D01*
X395742Y1164109D01*
X394580Y1166917D01*
X392730Y1169327D01*
X390319Y1171177D01*
X387512Y1172340D01*
X384499Y1172736D01*
D02*
G37*
G36*
X536900Y1135590D02*
X529900D01*
X526887Y1135193D01*
X524080Y1134030D01*
X521670Y1132180D01*
X519820Y1129770D01*
X518657Y1126963D01*
X518260Y1123950D01*
X518657Y1120938D01*
X519820Y1118130D01*
X521670Y1115720D01*
X524080Y1113870D01*
X526887Y1112707D01*
X529900Y1112310D01*
X536900D01*
X539913Y1112707D01*
X542720Y1113870D01*
X545130Y1115720D01*
X546980Y1118130D01*
X548143Y1120938D01*
X548540Y1123950D01*
X548143Y1126963D01*
X546980Y1129770D01*
X545130Y1132180D01*
X542720Y1134030D01*
X539913Y1135193D01*
X536900Y1135590D01*
D02*
G37*
G36*
X154740Y1122680D02*
X140970D01*
Y1111410D01*
X154740D01*
Y1122680D01*
D02*
G37*
G36*
X138430D02*
X124660D01*
Y1111410D01*
X138430D01*
Y1122680D01*
D02*
G37*
G36*
X294600Y1136598D02*
X289600D01*
X286326Y1136167D01*
X283276Y1134904D01*
X280656Y1132894D01*
X278646Y1130274D01*
X277383Y1127224D01*
X276952Y1123950D01*
X277383Y1120676D01*
X278646Y1117626D01*
X280656Y1115006D01*
X283276Y1112996D01*
X286326Y1111733D01*
X289600Y1111302D01*
X294600D01*
X297874Y1111733D01*
X300924Y1112996D01*
X303544Y1115006D01*
X305554Y1117626D01*
X306817Y1120676D01*
X307248Y1123950D01*
X306817Y1127224D01*
X305554Y1130274D01*
X303544Y1132894D01*
X300924Y1134904D01*
X297874Y1136167D01*
X294600Y1136598D01*
D02*
G37*
G36*
X606792Y1121619D02*
X593090D01*
Y1111250D01*
X595320D01*
X598333Y1111647D01*
X601140Y1112809D01*
X603550Y1114659D01*
X605400Y1117070D01*
X606563Y1119877D01*
X606792Y1121619D01*
D02*
G37*
G36*
X590550D02*
X576848D01*
X577077Y1119877D01*
X578240Y1117070D01*
X580090Y1114659D01*
X582500Y1112809D01*
X585307Y1111647D01*
X588320Y1111250D01*
X590550D01*
Y1121619D01*
D02*
G37*
G36*
X536900Y1110190D02*
X534670D01*
Y1099820D01*
X548372D01*
X548143Y1101562D01*
X546980Y1104370D01*
X545130Y1106780D01*
X542720Y1108630D01*
X539913Y1109793D01*
X536900Y1110190D01*
D02*
G37*
G36*
X532130D02*
X529900D01*
X526887Y1109793D01*
X524080Y1108630D01*
X521670Y1106780D01*
X519820Y1104370D01*
X518657Y1101562D01*
X518428Y1099820D01*
X532130D01*
Y1110190D01*
D02*
G37*
G36*
X473399Y1172736D02*
X466399D01*
X463387Y1172340D01*
X460579Y1171177D01*
X458169Y1169327D01*
X456319Y1166917D01*
X455156Y1164109D01*
X454760Y1161097D01*
X455156Y1158084D01*
X456319Y1155277D01*
X458169Y1152866D01*
X460250Y1151270D01*
Y1118126D01*
X460049D01*
X457037Y1117730D01*
X454230Y1116567D01*
X451819Y1114717D01*
X449969Y1112307D01*
X448806Y1109499D01*
X448410Y1106487D01*
X448806Y1103474D01*
X449969Y1100667D01*
X451819Y1098256D01*
X454230Y1096407D01*
X457037Y1095244D01*
X460049Y1094847D01*
X467049D01*
X470062Y1095244D01*
X472869Y1096407D01*
X475280Y1098256D01*
X477130Y1100667D01*
X478292Y1103474D01*
X478689Y1106487D01*
X478292Y1109499D01*
X477130Y1112307D01*
X475280Y1114717D01*
X473199Y1116314D01*
Y1149457D01*
X473399D01*
X476412Y1149854D01*
X479219Y1151017D01*
X481630Y1152866D01*
X483479Y1155277D01*
X484642Y1158084D01*
X485039Y1161097D01*
X484642Y1164109D01*
X483479Y1166917D01*
X481630Y1169327D01*
X479219Y1171177D01*
X476412Y1172340D01*
X473399Y1172736D01*
D02*
G37*
G36*
X307140Y1104740D02*
X293370D01*
Y1093470D01*
X307140D01*
Y1104740D01*
D02*
G37*
G36*
X290830D02*
X277060D01*
Y1093470D01*
X290830D01*
Y1104740D01*
D02*
G37*
G36*
X548372Y1097280D02*
X534670D01*
Y1086910D01*
X536900D01*
X539913Y1087307D01*
X542720Y1088470D01*
X545130Y1090320D01*
X546980Y1092730D01*
X548143Y1095537D01*
X548372Y1097280D01*
D02*
G37*
G36*
X532130D02*
X518428D01*
X518657Y1095537D01*
X519820Y1092730D01*
X521670Y1090320D01*
X524080Y1088470D01*
X526887Y1087307D01*
X529900Y1086910D01*
X532130D01*
Y1097280D01*
D02*
G37*
G36*
X595320Y1109129D02*
X588320D01*
X585307Y1108733D01*
X582500Y1107570D01*
X580090Y1105720D01*
X578240Y1103309D01*
X577077Y1100502D01*
X576680Y1097490D01*
X577077Y1094477D01*
X578240Y1091670D01*
X580090Y1089259D01*
X582500Y1087409D01*
X585307Y1086247D01*
X588320Y1085850D01*
X595320D01*
X598333Y1086247D01*
X601140Y1087409D01*
X603550Y1089259D01*
X605400Y1091670D01*
X606563Y1094477D01*
X606960Y1097490D01*
X606563Y1100502D01*
X605400Y1103309D01*
X603550Y1105720D01*
X601140Y1107570D01*
X598333Y1108733D01*
X595320Y1109129D01*
D02*
G37*
G36*
X-61981Y1103740D02*
X-65019D01*
X-67954Y1102953D01*
X-70586Y1101434D01*
X-72734Y1099286D01*
X-74254Y1096654D01*
X-75040Y1093719D01*
Y1090681D01*
X-74254Y1087746D01*
X-72734Y1085114D01*
X-70586Y1082966D01*
X-67954Y1081447D01*
X-65019Y1080660D01*
X-61981D01*
X-59046Y1081447D01*
X-56414Y1082966D01*
X-54266Y1085114D01*
X-52747Y1087746D01*
X-51960Y1090681D01*
Y1093719D01*
X-52747Y1096654D01*
X-54266Y1099286D01*
X-56414Y1101434D01*
X-59046Y1102953D01*
X-61981Y1103740D01*
D02*
G37*
G36*
X307140Y1090930D02*
X293370D01*
Y1079660D01*
X307140D01*
Y1090930D01*
D02*
G37*
G36*
X290830D02*
X277060D01*
Y1079660D01*
X290830D01*
Y1090930D01*
D02*
G37*
G36*
X788900Y1102677D02*
X785898D01*
X782954Y1102091D01*
X780181Y1100942D01*
X777684Y1099274D01*
X775562Y1097152D01*
X773894Y1094656D01*
X772745Y1091882D01*
X772563Y1090967D01*
X771756Y1090428D01*
X737725Y1056396D01*
X736200Y1057276D01*
X733011Y1058131D01*
X729709D01*
X726520Y1057276D01*
X723660Y1055625D01*
X721326Y1053291D01*
X719675Y1050431D01*
X718820Y1047242D01*
Y1043940D01*
X719675Y1040751D01*
X721326Y1037891D01*
X723660Y1035556D01*
X726520Y1033905D01*
X729709Y1033051D01*
X733011D01*
X736200Y1033905D01*
X739060Y1035556D01*
X741395Y1037891D01*
X743045Y1040751D01*
X743900Y1043940D01*
Y1044259D01*
X776462Y1076821D01*
X777684Y1075599D01*
X780181Y1073931D01*
X782954Y1072782D01*
X785898Y1072197D01*
X788900D01*
X791845Y1072782D01*
X794618Y1073931D01*
X797114Y1075599D01*
X799237Y1077722D01*
X800905Y1080218D01*
X802054Y1082991D01*
X802639Y1085936D01*
Y1088938D01*
X802054Y1091882D01*
X800905Y1094656D01*
X799237Y1097152D01*
X797114Y1099274D01*
X794618Y1100942D01*
X791845Y1102091D01*
X788900Y1102677D01*
D02*
G37*
G36*
X-36581Y1078340D02*
X-39619D01*
X-42554Y1077553D01*
X-45186Y1076034D01*
X-47334Y1073886D01*
X-48854Y1071254D01*
X-49006Y1070685D01*
X-52594D01*
X-52747Y1071254D01*
X-54266Y1073886D01*
X-56414Y1076034D01*
X-59046Y1077553D01*
X-61981Y1078340D01*
X-65019D01*
X-67954Y1077553D01*
X-70586Y1076034D01*
X-72734Y1073886D01*
X-74254Y1071254D01*
X-75040Y1068319D01*
Y1065281D01*
X-74254Y1062346D01*
X-72734Y1059714D01*
X-70586Y1057566D01*
X-67954Y1056047D01*
X-65019Y1055260D01*
X-61981D01*
X-59046Y1056047D01*
X-56414Y1057566D01*
X-54266Y1059714D01*
X-52747Y1062346D01*
X-52594Y1062915D01*
X-49006D01*
X-48854Y1062346D01*
X-47334Y1059714D01*
X-45186Y1057566D01*
X-42554Y1056047D01*
X-39619Y1055260D01*
X-36581D01*
X-33646Y1056047D01*
X-31014Y1057566D01*
X-28866Y1059714D01*
X-27346Y1062346D01*
X-26560Y1065281D01*
Y1068319D01*
X-27346Y1071254D01*
X-28866Y1073886D01*
X-31014Y1076034D01*
X-33646Y1077553D01*
X-36581Y1078340D01*
D02*
G37*
G36*
X154740Y1072990D02*
X140970D01*
Y1061720D01*
X154740D01*
Y1072990D01*
D02*
G37*
G36*
X467050Y1084790D02*
X460050D01*
X457037Y1084393D01*
X454230Y1083230D01*
X451820Y1081380D01*
X449970Y1078970D01*
X448807Y1076162D01*
X448410Y1073150D01*
X448807Y1070137D01*
X449970Y1067330D01*
X451820Y1064920D01*
X454230Y1063070D01*
X457037Y1061907D01*
X460050Y1061510D01*
X467050D01*
X470063Y1061907D01*
X472870Y1063070D01*
X475280Y1064920D01*
X477130Y1067330D01*
X478293Y1070137D01*
X478690Y1073150D01*
X478293Y1076162D01*
X477130Y1078970D01*
X475280Y1081380D01*
X472870Y1083230D01*
X470063Y1084393D01*
X467050Y1084790D01*
D02*
G37*
G36*
X154740Y1059180D02*
X140970D01*
Y1047910D01*
X154740D01*
Y1059180D01*
D02*
G37*
G36*
X138430D02*
X124660D01*
Y1047910D01*
X138430D01*
Y1059180D01*
D02*
G37*
G36*
X294600Y1073098D02*
X289600D01*
X286326Y1072667D01*
X283276Y1071404D01*
X280656Y1069394D01*
X278646Y1066774D01*
X277383Y1063724D01*
X276952Y1060450D01*
X277383Y1057176D01*
X278646Y1054126D01*
X280656Y1051506D01*
X283276Y1049496D01*
X286326Y1048233D01*
X289600Y1047802D01*
X294600D01*
X297874Y1048233D01*
X300924Y1049496D01*
X303544Y1051506D01*
X305554Y1054126D01*
X306817Y1057176D01*
X307248Y1060450D01*
X306817Y1063724D01*
X305554Y1066774D01*
X303544Y1069394D01*
X300924Y1071404D01*
X297874Y1072667D01*
X294600Y1073098D01*
D02*
G37*
G36*
X536900Y1065740D02*
X529900D01*
X526887Y1065343D01*
X524080Y1064180D01*
X521670Y1062330D01*
X519820Y1059920D01*
X518657Y1057113D01*
X518260Y1054100D01*
X518657Y1051087D01*
X519820Y1048280D01*
X521670Y1045870D01*
X524080Y1044020D01*
X526887Y1042857D01*
X529900Y1042460D01*
X536900D01*
X539913Y1042857D01*
X542720Y1044020D01*
X545130Y1045870D01*
X546980Y1048280D01*
X548143Y1051087D01*
X548540Y1054100D01*
X548143Y1057113D01*
X546980Y1059920D01*
X545130Y1062330D01*
X542720Y1064180D01*
X539913Y1065343D01*
X536900Y1065740D01*
D02*
G37*
G36*
X595320Y1064470D02*
X588320D01*
X585307Y1064073D01*
X582500Y1062910D01*
X580090Y1061060D01*
X578240Y1058650D01*
X577077Y1055843D01*
X576680Y1052830D01*
X577077Y1049818D01*
X578240Y1047010D01*
X580090Y1044600D01*
X582500Y1042750D01*
X585307Y1041587D01*
X588320Y1041190D01*
X595320D01*
X598333Y1041587D01*
X601140Y1042750D01*
X603550Y1044600D01*
X605400Y1047010D01*
X606563Y1049818D01*
X606960Y1052830D01*
X606563Y1055843D01*
X605400Y1058650D01*
X603550Y1061060D01*
X601140Y1062910D01*
X598333Y1064073D01*
X595320Y1064470D01*
D02*
G37*
G36*
X376990Y1047590D02*
X363220D01*
Y1036320D01*
X376990D01*
Y1047590D01*
D02*
G37*
G36*
X360680D02*
X346910D01*
Y1036320D01*
X360680D01*
Y1047590D01*
D02*
G37*
G36*
X-36581Y1052940D02*
X-39619D01*
X-42554Y1052153D01*
X-45186Y1050634D01*
X-47334Y1048486D01*
X-48854Y1045854D01*
X-49640Y1042919D01*
Y1039881D01*
X-48854Y1036946D01*
X-47334Y1034314D01*
X-45186Y1032166D01*
X-42554Y1030647D01*
X-39619Y1029860D01*
X-36581D01*
X-33646Y1030647D01*
X-31014Y1032166D01*
X-28866Y1034314D01*
X-27346Y1036946D01*
X-26560Y1039881D01*
Y1042919D01*
X-27346Y1045854D01*
X-28866Y1048486D01*
X-31014Y1050634D01*
X-33646Y1052153D01*
X-36581Y1052940D01*
D02*
G37*
G36*
X-61981D02*
X-65019D01*
X-67954Y1052153D01*
X-70586Y1050634D01*
X-72734Y1048486D01*
X-74254Y1045854D01*
X-75040Y1042919D01*
Y1039881D01*
X-74254Y1036946D01*
X-72734Y1034314D01*
X-70586Y1032166D01*
X-67954Y1030647D01*
X-65019Y1029860D01*
X-61981D01*
X-59046Y1030647D01*
X-56414Y1032166D01*
X-54266Y1034314D01*
X-52747Y1036946D01*
X-51960Y1039881D01*
Y1042919D01*
X-52747Y1045854D01*
X-54266Y1048486D01*
X-56414Y1050634D01*
X-59046Y1052153D01*
X-61981Y1052940D01*
D02*
G37*
G36*
X376990Y1033780D02*
X363220D01*
Y1022510D01*
X376990D01*
Y1033780D01*
D02*
G37*
G36*
X360680D02*
X346910D01*
Y1022510D01*
X360680D01*
Y1033780D01*
D02*
G37*
G36*
X142200Y1041348D02*
X137200D01*
X133926Y1040917D01*
X130876Y1039654D01*
X128256Y1037644D01*
X126246Y1035024D01*
X124983Y1031974D01*
X124552Y1028700D01*
X124983Y1025426D01*
X126246Y1022376D01*
X128256Y1019756D01*
X130876Y1017746D01*
X133926Y1016483D01*
X137200Y1016052D01*
X142200D01*
X145474Y1016483D01*
X148524Y1017746D01*
X151144Y1019756D01*
X153154Y1022376D01*
X154417Y1025426D01*
X154848Y1028700D01*
X154417Y1031974D01*
X153154Y1035024D01*
X151144Y1037644D01*
X148524Y1039654D01*
X145474Y1040917D01*
X142200Y1041348D01*
D02*
G37*
G36*
X295599Y1035576D02*
X288599D01*
X285587Y1035180D01*
X282780Y1034017D01*
X280369Y1032167D01*
X278519Y1029756D01*
X277356Y1026949D01*
X276960Y1023937D01*
X277356Y1020924D01*
X278519Y1018117D01*
X280369Y1015706D01*
X282780Y1013857D01*
X285587Y1012694D01*
X288599Y1012297D01*
X295599D01*
X298612Y1012694D01*
X301419Y1013857D01*
X303830Y1015706D01*
X305679Y1018117D01*
X306842Y1020924D01*
X307239Y1023937D01*
X306842Y1026949D01*
X305679Y1029756D01*
X303830Y1032167D01*
X301419Y1034017D01*
X298612Y1035180D01*
X295599Y1035576D01*
D02*
G37*
G36*
X-36581Y1027540D02*
X-39619D01*
X-42554Y1026753D01*
X-45186Y1025234D01*
X-47334Y1023086D01*
X-48854Y1020454D01*
X-49640Y1017519D01*
Y1014481D01*
X-48854Y1011546D01*
X-47334Y1008914D01*
X-45186Y1006766D01*
X-42554Y1005247D01*
X-39619Y1004460D01*
X-36581D01*
X-33646Y1005247D01*
X-31014Y1006766D01*
X-28866Y1008914D01*
X-27346Y1011546D01*
X-26560Y1014481D01*
Y1017519D01*
X-27346Y1020454D01*
X-28866Y1023086D01*
X-31014Y1025234D01*
X-33646Y1026753D01*
X-36581Y1027540D01*
D02*
G37*
G36*
X-61981D02*
X-65019D01*
X-67954Y1026753D01*
X-70586Y1025234D01*
X-72734Y1023086D01*
X-74254Y1020454D01*
X-75040Y1017519D01*
Y1014481D01*
X-74254Y1011546D01*
X-72734Y1008914D01*
X-70586Y1006766D01*
X-67954Y1005247D01*
X-65019Y1004460D01*
X-61981D01*
X-59046Y1005247D01*
X-56414Y1006766D01*
X-54266Y1008914D01*
X-52747Y1011546D01*
X-51960Y1014481D01*
Y1017519D01*
X-52747Y1020454D01*
X-54266Y1023086D01*
X-56414Y1025234D01*
X-59046Y1026753D01*
X-61981Y1027540D01*
D02*
G37*
G36*
X154740Y1009490D02*
X140970D01*
Y998220D01*
X154740D01*
Y1009490D01*
D02*
G37*
G36*
X138430D02*
X124660D01*
Y998220D01*
X138430D01*
Y1009490D01*
D02*
G37*
G36*
X11330Y1004570D02*
X8990D01*
X6729Y1003964D01*
X4701Y1002794D01*
X3046Y1001139D01*
X1876Y999111D01*
X1270Y996850D01*
Y994510D01*
X1876Y992249D01*
X3046Y990221D01*
X4701Y988566D01*
X6729Y987396D01*
X8990Y986790D01*
X11330D01*
X13591Y987396D01*
X15619Y988566D01*
X17274Y990221D01*
X18444Y992249D01*
X19050Y994510D01*
Y996850D01*
X18444Y999111D01*
X17274Y1001139D01*
X15619Y1002794D01*
X13591Y1003964D01*
X11330Y1004570D01*
D02*
G37*
G36*
X763491Y1011141D02*
X760189D01*
X757000Y1010286D01*
X754140Y1008635D01*
X751805Y1006301D01*
X750155Y1003441D01*
X749300Y1000252D01*
Y996950D01*
X750155Y993761D01*
X751805Y990901D01*
X754140Y988566D01*
X757000Y986916D01*
X760189Y986061D01*
X763491D01*
X766680Y986916D01*
X769540Y988566D01*
X771874Y990901D01*
X773525Y993761D01*
X774380Y996950D01*
Y1000252D01*
X773525Y1003441D01*
X771874Y1006301D01*
X769540Y1008635D01*
X766680Y1010286D01*
X763491Y1011141D01*
D02*
G37*
G36*
X154740Y995680D02*
X140970D01*
Y984410D01*
X154740D01*
Y995680D01*
D02*
G37*
G36*
X138430D02*
X124660D01*
Y984410D01*
X138430D01*
Y995680D01*
D02*
G37*
G36*
X40600Y1009598D02*
X35600D01*
X32326Y1009167D01*
X29276Y1007904D01*
X26656Y1005894D01*
X24646Y1003274D01*
X23383Y1000224D01*
X22952Y996950D01*
X23383Y993676D01*
X24646Y990626D01*
X26656Y988006D01*
X29276Y985996D01*
X32326Y984733D01*
X35600Y984302D01*
X40600D01*
X43874Y984733D01*
X46924Y985996D01*
X49544Y988006D01*
X51554Y990626D01*
X52817Y993676D01*
X53248Y996950D01*
X52817Y1000224D01*
X51554Y1003274D01*
X49544Y1005894D01*
X46924Y1007904D01*
X43874Y1009167D01*
X40600Y1009598D01*
D02*
G37*
G36*
X-90648Y994916D02*
X-92989D01*
X-95250Y994310D01*
X-97277Y993140D01*
X-98932Y991485D01*
X-100103Y989458D01*
X-100709Y987197D01*
Y984856D01*
X-100103Y982595D01*
X-98932Y980568D01*
X-97277Y978912D01*
X-95250Y977742D01*
X-92989Y977136D01*
X-90648D01*
X-88387Y977742D01*
X-86360Y978912D01*
X-84705Y980568D01*
X-83534Y982595D01*
X-82929Y984856D01*
Y987197D01*
X-83534Y989458D01*
X-84705Y991485D01*
X-86360Y993140D01*
X-88387Y994310D01*
X-90648Y994916D01*
D02*
G37*
G36*
X-6450Y991870D02*
X-8790D01*
X-11051Y991264D01*
X-13079Y990094D01*
X-14734Y988439D01*
X-15904Y986411D01*
X-16510Y984150D01*
Y981810D01*
X-15904Y979549D01*
X-14734Y977521D01*
X-13079Y975866D01*
X-11051Y974696D01*
X-8790Y974090D01*
X-6450D01*
X-4189Y974696D01*
X-2161Y975866D01*
X-506Y977521D01*
X664Y979549D01*
X1270Y981810D01*
Y984150D01*
X664Y986411D01*
X-506Y988439D01*
X-2161Y990094D01*
X-4189Y991264D01*
X-6450Y991870D01*
D02*
G37*
%LPD*%
G36*
X178835Y1100855D02*
X177046Y1098524D01*
X176036Y1096085D01*
X171450D01*
X169963Y1095789D01*
X168703Y1094947D01*
X156031Y1082275D01*
X151790D01*
X151365Y1083545D01*
X153154Y1085876D01*
X154417Y1088926D01*
X154848Y1092200D01*
X154417Y1095474D01*
X153154Y1098524D01*
X151365Y1100855D01*
X151790Y1102125D01*
X178410D01*
X178835Y1100855D01*
D02*
G37*
G36*
X124599Y1091840D02*
X124983Y1088926D01*
X126246Y1085876D01*
X128256Y1083256D01*
X128342Y1083191D01*
X128035Y1081825D01*
X127005Y1081137D01*
X78453Y1032585D01*
X53140D01*
Y1041240D01*
X30755D01*
Y1046280D01*
X30488Y1047619D01*
X30842Y1048099D01*
X31425Y1048606D01*
X32326Y1048233D01*
X35600Y1047802D01*
X40600D01*
X43874Y1048233D01*
X46924Y1049496D01*
X49544Y1051506D01*
X51554Y1054126D01*
X52564Y1056565D01*
X85920D01*
X87406Y1056861D01*
X88667Y1057703D01*
X123401Y1092437D01*
X124599Y1091840D01*
D02*
G37*
%LPC*%
G36*
X638710Y956310D02*
X636370D01*
X634109Y955704D01*
X632081Y954534D01*
X630426Y952879D01*
X629256Y950851D01*
X628650Y948590D01*
Y946250D01*
X629256Y943989D01*
X630426Y941961D01*
X632081Y940306D01*
X634109Y939136D01*
X636370Y938530D01*
X638710D01*
X640971Y939136D01*
X642999Y940306D01*
X644654Y941961D01*
X645824Y943989D01*
X646430Y946250D01*
Y948590D01*
X645824Y950851D01*
X644654Y952879D01*
X642999Y954534D01*
X640971Y955704D01*
X638710Y956310D01*
D02*
G37*
G36*
X613310D02*
X610970D01*
X608709Y955704D01*
X606681Y954534D01*
X605026Y952879D01*
X603856Y950851D01*
X603250Y948590D01*
Y946250D01*
X603856Y943989D01*
X605026Y941961D01*
X606681Y940306D01*
X608709Y939136D01*
X610970Y938530D01*
X613310D01*
X615571Y939136D01*
X617599Y940306D01*
X619254Y941961D01*
X620424Y943989D01*
X621030Y946250D01*
Y948590D01*
X620424Y950851D01*
X619254Y952879D01*
X617599Y954534D01*
X615571Y955704D01*
X613310Y956310D01*
D02*
G37*
G36*
X590450D02*
X588110D01*
X585849Y955704D01*
X583821Y954534D01*
X582166Y952879D01*
X580996Y950851D01*
X580390Y948590D01*
Y946250D01*
X580996Y943989D01*
X582166Y941961D01*
X583821Y940306D01*
X585849Y939136D01*
X588110Y938530D01*
X590450D01*
X592711Y939136D01*
X594739Y940306D01*
X596394Y941961D01*
X597564Y943989D01*
X598170Y946250D01*
Y948590D01*
X597564Y950851D01*
X596394Y952879D01*
X594739Y954534D01*
X592711Y955704D01*
X590450Y956310D01*
D02*
G37*
G36*
X562510D02*
X560170D01*
X557909Y955704D01*
X555881Y954534D01*
X554226Y952879D01*
X553056Y950851D01*
X552450Y948590D01*
Y946250D01*
X553056Y943989D01*
X554226Y941961D01*
X555881Y940306D01*
X557909Y939136D01*
X560170Y938530D01*
X562510D01*
X564771Y939136D01*
X566799Y940306D01*
X568454Y941961D01*
X569624Y943989D01*
X570230Y946250D01*
Y948590D01*
X569624Y950851D01*
X568454Y952879D01*
X566799Y954534D01*
X564771Y955704D01*
X562510Y956310D01*
D02*
G37*
G36*
X307130Y933290D02*
X306749D01*
X303560Y932435D01*
X300700Y930785D01*
X298365Y928450D01*
X296715Y925590D01*
X295860Y922401D01*
Y922020D01*
X307130D01*
Y933290D01*
D02*
G37*
G36*
Y919480D02*
X295860D01*
Y919099D01*
X296715Y915910D01*
X298365Y913050D01*
X300700Y910715D01*
X303560Y909065D01*
X306749Y908210D01*
X307130D01*
Y919480D01*
D02*
G37*
G36*
X230527Y933590D02*
X227073D01*
X223684Y932916D01*
X220492Y931594D01*
X217619Y929674D01*
X215176Y927231D01*
X213256Y924358D01*
X211934Y921166D01*
X211260Y917777D01*
Y914323D01*
X211934Y910934D01*
X213256Y907742D01*
X215176Y904869D01*
X217619Y902426D01*
X220492Y900506D01*
X223684Y899184D01*
X227073Y898510D01*
X230527D01*
X233916Y899184D01*
X237108Y900506D01*
X239981Y902426D01*
X242424Y904869D01*
X244344Y907742D01*
X245666Y910934D01*
X246340Y914323D01*
Y917777D01*
X245666Y921166D01*
X244344Y924358D01*
X242424Y927231D01*
X239981Y929674D01*
X237108Y931594D01*
X233916Y932916D01*
X230527Y933590D01*
D02*
G37*
G36*
X-81973Y883480D02*
X-84627D01*
X-87191Y882793D01*
X-89489Y881466D01*
X-91366Y879589D01*
X-92693Y877291D01*
X-93380Y874727D01*
Y872073D01*
X-92693Y869509D01*
X-91366Y867211D01*
X-89489Y865334D01*
X-87191Y864007D01*
X-84627Y863320D01*
X-81973D01*
X-79409Y864007D01*
X-77111Y865334D01*
X-75234Y867211D01*
X-73907Y869509D01*
X-73220Y872073D01*
Y874727D01*
X-73907Y877291D01*
X-75234Y879589D01*
X-77111Y881466D01*
X-79409Y882793D01*
X-81973Y883480D01*
D02*
G37*
G36*
X-8220Y838480D02*
X-28380D01*
Y818320D01*
X-8220D01*
Y838480D01*
D02*
G37*
G36*
X-81973Y800930D02*
X-84627D01*
X-87191Y800243D01*
X-89489Y798916D01*
X-91366Y797039D01*
X-92693Y794741D01*
X-93380Y792177D01*
Y789523D01*
X-92693Y786959D01*
X-91366Y784661D01*
X-89489Y782784D01*
X-87191Y781457D01*
X-84627Y780770D01*
X-81973D01*
X-79409Y781457D01*
X-77111Y782784D01*
X-75234Y784661D01*
X-73907Y786959D01*
X-73220Y789523D01*
Y792177D01*
X-73907Y794741D01*
X-75234Y797039D01*
X-77111Y798916D01*
X-79409Y800243D01*
X-81973Y800930D01*
D02*
G37*
G36*
X800330Y804227D02*
X797328D01*
X794384Y803641D01*
X791610Y802492D01*
X789114Y800824D01*
X786992Y798702D01*
X785324Y796206D01*
X784175Y793432D01*
X783589Y790488D01*
Y787486D01*
X784175Y784541D01*
X785324Y781768D01*
X786992Y779272D01*
X789114Y777149D01*
X791610Y775481D01*
X794384Y774332D01*
X797328Y773747D01*
X800330D01*
X803275Y774332D01*
X806048Y775481D01*
X808544Y777149D01*
X810667Y779272D01*
X812335Y781768D01*
X813484Y784541D01*
X814069Y787486D01*
Y790488D01*
X813484Y793432D01*
X812335Y796206D01*
X810667Y798702D01*
X808544Y800824D01*
X806048Y802492D01*
X803275Y803641D01*
X800330Y804227D01*
D02*
G37*
G36*
X-81973Y921030D02*
X-84627D01*
X-87191Y920343D01*
X-89489Y919016D01*
X-91366Y917139D01*
X-92693Y914841D01*
X-93380Y912277D01*
Y909623D01*
X-92693Y907059D01*
X-91366Y904761D01*
X-89489Y902884D01*
X-87191Y901557D01*
X-87185Y901555D01*
Y896100D01*
X-86889Y894613D01*
X-86047Y893353D01*
X-54685Y861991D01*
Y742950D01*
X-54389Y741463D01*
X-53715Y740455D01*
X-54701Y739645D01*
X-59615Y744559D01*
Y808600D01*
X-59911Y810087D01*
X-60753Y811347D01*
X-73910Y824504D01*
X-73907Y824509D01*
X-73220Y827073D01*
Y829727D01*
X-73907Y832291D01*
X-75234Y834589D01*
X-77111Y836466D01*
X-79409Y837793D01*
X-81973Y838480D01*
X-84627D01*
X-87191Y837793D01*
X-89489Y836466D01*
X-91366Y834589D01*
X-92693Y832291D01*
X-93380Y829727D01*
Y827073D01*
X-92693Y824509D01*
X-91366Y822211D01*
X-89489Y820334D01*
X-87191Y819007D01*
X-84627Y818320D01*
X-81973D01*
X-79409Y819007D01*
X-79404Y819010D01*
X-67385Y806991D01*
Y742950D01*
X-67089Y741463D01*
X-66247Y740203D01*
X-48652Y722608D01*
X-49138Y721435D01*
X-55541D01*
X-74697Y740591D01*
X-73907Y741959D01*
X-73220Y744523D01*
Y747177D01*
X-73907Y749741D01*
X-75234Y752039D01*
X-77111Y753916D01*
X-79409Y755243D01*
X-81973Y755930D01*
X-84627D01*
X-87191Y755243D01*
X-89489Y753916D01*
X-91366Y752039D01*
X-92693Y749741D01*
X-93380Y747177D01*
Y744523D01*
X-92693Y741959D01*
X-91366Y739661D01*
X-89489Y737784D01*
X-87191Y736457D01*
X-84627Y735770D01*
X-81973D01*
X-81098Y736004D01*
X-59897Y714803D01*
X-58637Y713961D01*
X-57150Y713665D01*
X213457D01*
X243617Y683505D01*
X243523Y682772D01*
X243096Y682523D01*
X242198Y682357D01*
X239981Y684574D01*
X237108Y686494D01*
X233916Y687816D01*
X230527Y688490D01*
X227073D01*
X223684Y687816D01*
X220492Y686494D01*
X217619Y684574D01*
X215176Y682131D01*
X213256Y679258D01*
X211934Y676066D01*
X211260Y672678D01*
Y669222D01*
X211934Y665834D01*
X213256Y662642D01*
X215176Y659769D01*
X217619Y657326D01*
X220492Y655406D01*
X223684Y654084D01*
X227073Y653410D01*
X230527D01*
X233916Y654084D01*
X237108Y655406D01*
X239981Y657326D01*
X242424Y659769D01*
X242550Y659957D01*
X243765Y659588D01*
Y647700D01*
X244061Y646213D01*
X244903Y644953D01*
X270303Y619553D01*
X271563Y618711D01*
X273050Y618415D01*
X517950D01*
X519437Y618711D01*
X520697Y619553D01*
X556703Y655559D01*
X557560Y655065D01*
X560749Y654210D01*
X564051D01*
X567240Y655065D01*
X570100Y656715D01*
X572435Y659050D01*
X574085Y661910D01*
X574443Y663243D01*
X575757D01*
X576115Y661910D01*
X577766Y659050D01*
X580100Y656715D01*
X582960Y655065D01*
X586149Y654210D01*
X589451D01*
X592640Y655065D01*
X595500Y656715D01*
X597835Y659050D01*
X599485Y661910D01*
X599843Y663243D01*
X601157D01*
X601515Y661910D01*
X603166Y659050D01*
X605500Y656715D01*
X608360Y655065D01*
X611549Y654210D01*
X614851D01*
X618040Y655065D01*
X620900Y656715D01*
X623234Y659050D01*
X624885Y661910D01*
X625243Y663243D01*
X626557D01*
X626915Y661910D01*
X628565Y659050D01*
X630900Y656715D01*
X633760Y655065D01*
X636949Y654210D01*
X640251D01*
X643440Y655065D01*
X646300Y656715D01*
X648634Y659050D01*
X650285Y661910D01*
X650643Y663243D01*
X651957D01*
X652315Y661910D01*
X653966Y659050D01*
X656300Y656715D01*
X659160Y655065D01*
X662349Y654210D01*
X665651D01*
X668840Y655065D01*
X671700Y656715D01*
X674035Y659050D01*
X675685Y661910D01*
X676540Y665099D01*
Y668401D01*
X675685Y671590D01*
X674035Y674450D01*
X671700Y676785D01*
X668840Y678435D01*
X665651Y679290D01*
X662349D01*
X659160Y678435D01*
X656300Y676785D01*
X653966Y674450D01*
X652315Y671590D01*
X651957Y670257D01*
X650643D01*
X650285Y671590D01*
X648634Y674450D01*
X646300Y676785D01*
X643440Y678435D01*
X640251Y679290D01*
X636949D01*
X633760Y678435D01*
X630900Y676785D01*
X628565Y674450D01*
X626915Y671590D01*
X626557Y670257D01*
X625243D01*
X624885Y671590D01*
X623234Y674450D01*
X620900Y676785D01*
X618040Y678435D01*
X614851Y679290D01*
X611549D01*
X608360Y678435D01*
X605500Y676785D01*
X603166Y674450D01*
X601515Y671590D01*
X601157Y670257D01*
X599843D01*
X599485Y671590D01*
X597835Y674450D01*
X595500Y676785D01*
X592640Y678435D01*
X589451Y679290D01*
X586149D01*
X582960Y678435D01*
X580100Y676785D01*
X577766Y674450D01*
X576115Y671590D01*
X575757Y670257D01*
X574443D01*
X574085Y671590D01*
X572435Y674450D01*
X570100Y676785D01*
X567240Y678435D01*
X564051Y679290D01*
X560749D01*
X557560Y678435D01*
X554700Y676785D01*
X552365Y674450D01*
X550715Y671590D01*
X550357Y670257D01*
X549043D01*
X548685Y671590D01*
X547034Y674450D01*
X544700Y676785D01*
X541840Y678435D01*
X538651Y679290D01*
X535349D01*
X532160Y678435D01*
X529300Y676785D01*
X526965Y674450D01*
X525315Y671590D01*
X524957Y670257D01*
X523643D01*
X523285Y671590D01*
X521634Y674450D01*
X519300Y676785D01*
X516440Y678435D01*
X513251Y679290D01*
X509949D01*
X506760Y678435D01*
X503900Y676785D01*
X501566Y674450D01*
X499915Y671590D01*
X499557Y670257D01*
X498243D01*
X497885Y671590D01*
X496235Y674450D01*
X493900Y676785D01*
X491040Y678435D01*
X487851Y679290D01*
X484549D01*
X481360Y678435D01*
X478500Y676785D01*
X476166Y674450D01*
X474515Y671590D01*
X474157Y670257D01*
X472843D01*
X472485Y671590D01*
X470835Y674450D01*
X468500Y676785D01*
X465640Y678435D01*
X462451Y679290D01*
X459149D01*
X455960Y678435D01*
X453100Y676785D01*
X450765Y674450D01*
X449115Y671590D01*
X448757Y670257D01*
X447443D01*
X447085Y671590D01*
X445434Y674450D01*
X443100Y676785D01*
X440240Y678435D01*
X437051Y679290D01*
X433749D01*
X430560Y678435D01*
X427700Y676785D01*
X425365Y674450D01*
X423715Y671590D01*
X423357Y670257D01*
X422043D01*
X421685Y671590D01*
X420034Y674450D01*
X417700Y676785D01*
X414840Y678435D01*
X411651Y679290D01*
X408349D01*
X405160Y678435D01*
X402300Y676785D01*
X399966Y674450D01*
X398315Y671590D01*
X397957Y670257D01*
X396643D01*
X396285Y671590D01*
X394635Y674450D01*
X392300Y676785D01*
X389440Y678435D01*
X386251Y679290D01*
X382949D01*
X379760Y678435D01*
X376900Y676785D01*
X374566Y674450D01*
X372915Y671590D01*
X372557Y670257D01*
X371243D01*
X370885Y671590D01*
X369235Y674450D01*
X366900Y676785D01*
X364040Y678435D01*
X360851Y679290D01*
X357549D01*
X354360Y678435D01*
X351500Y676785D01*
X349165Y674450D01*
X347515Y671590D01*
X347157Y670257D01*
X345843D01*
X345485Y671590D01*
X343834Y674450D01*
X341500Y676785D01*
X338640Y678435D01*
X335451Y679290D01*
X332149D01*
X328960Y678435D01*
X326100Y676785D01*
X323765Y674450D01*
X322817Y672806D01*
X321156Y672469D01*
X320940Y672632D01*
Y679290D01*
X295860D01*
Y654210D01*
X320940D01*
Y660868D01*
X321156Y661031D01*
X322817Y660694D01*
X323765Y659050D01*
X326100Y656715D01*
X328960Y655065D01*
X332149Y654210D01*
X335451D01*
X338640Y655065D01*
X341500Y656715D01*
X343834Y659050D01*
X345485Y661910D01*
X345843Y663243D01*
X347157D01*
X347515Y661910D01*
X349165Y659050D01*
X351500Y656715D01*
X354360Y655065D01*
X357549Y654210D01*
X360851D01*
X364040Y655065D01*
X366900Y656715D01*
X369235Y659050D01*
X370885Y661910D01*
X371243Y663243D01*
X372557D01*
X372915Y661910D01*
X374566Y659050D01*
X376900Y656715D01*
X379760Y655065D01*
X382949Y654210D01*
X386251D01*
X389440Y655065D01*
X392300Y656715D01*
X394635Y659050D01*
X396285Y661910D01*
X396643Y663243D01*
X397957D01*
X398315Y661910D01*
X399966Y659050D01*
X402300Y656715D01*
X405160Y655065D01*
X408349Y654210D01*
X411651D01*
X414840Y655065D01*
X417700Y656715D01*
X420034Y659050D01*
X421685Y661910D01*
X422043Y663243D01*
X423357D01*
X423715Y661910D01*
X425365Y659050D01*
X427700Y656715D01*
X430560Y655065D01*
X433749Y654210D01*
X437051D01*
X440240Y655065D01*
X443100Y656715D01*
X445434Y659050D01*
X447085Y661910D01*
X447443Y663243D01*
X448757D01*
X449115Y661910D01*
X450765Y659050D01*
X453100Y656715D01*
X455960Y655065D01*
X459149Y654210D01*
X462451D01*
X465640Y655065D01*
X468500Y656715D01*
X470835Y659050D01*
X472485Y661910D01*
X472843Y663243D01*
X474157D01*
X474515Y661910D01*
X476166Y659050D01*
X478500Y656715D01*
X481360Y655065D01*
X484549Y654210D01*
X487851D01*
X491040Y655065D01*
X493900Y656715D01*
X496235Y659050D01*
X497885Y661910D01*
X498243Y663243D01*
X499557D01*
X499915Y661910D01*
X500409Y661053D01*
X479075Y639719D01*
X275493D01*
X264235Y650977D01*
Y686634D01*
X263939Y688121D01*
X263097Y689381D01*
X219481Y732997D01*
X218221Y733839D01*
X216734Y734135D01*
X-36491D01*
X-46915Y744559D01*
Y863600D01*
X-47211Y865087D01*
X-48053Y866347D01*
X-79415Y897709D01*
Y901555D01*
X-79409Y901557D01*
X-77111Y902884D01*
X-75234Y904761D01*
X-73907Y907059D01*
X-73220Y909623D01*
Y912277D01*
X-73907Y914841D01*
X-75234Y917139D01*
X-77111Y919016D01*
X-79409Y920343D01*
X-81973Y921030D01*
D02*
G37*
G36*
X-8220Y755930D02*
X-28380D01*
Y735770D01*
X-8220D01*
Y755930D01*
D02*
G37*
G36*
X167894Y707644D02*
X149606D01*
Y689356D01*
X167894D01*
Y707644D01*
D02*
G37*
G36*
X134554D02*
X132146D01*
X129820Y707021D01*
X127736Y705817D01*
X126033Y704115D01*
X124829Y702029D01*
X124206Y699704D01*
Y697296D01*
X124829Y694970D01*
X126033Y692886D01*
X127736Y691183D01*
X129820Y689979D01*
X132146Y689356D01*
X134554D01*
X136880Y689979D01*
X138965Y691183D01*
X140667Y692886D01*
X141871Y694970D01*
X142494Y697296D01*
Y699704D01*
X141871Y702029D01*
X140667Y704115D01*
X138965Y705817D01*
X136880Y707021D01*
X134554Y707644D01*
D02*
G37*
G36*
X109154D02*
X106746D01*
X104420Y707021D01*
X102336Y705817D01*
X100633Y704115D01*
X99429Y702029D01*
X98806Y699704D01*
Y697296D01*
X99429Y694970D01*
X100633Y692886D01*
X102336Y691183D01*
X104420Y689979D01*
X106746Y689356D01*
X109154D01*
X111480Y689979D01*
X113565Y691183D01*
X115267Y692886D01*
X116471Y694970D01*
X117094Y697296D01*
Y699704D01*
X116471Y702029D01*
X115267Y704115D01*
X113565Y705817D01*
X111480Y707021D01*
X109154Y707644D01*
D02*
G37*
G36*
X83754D02*
X81346D01*
X79021Y707021D01*
X76936Y705817D01*
X75233Y704115D01*
X74029Y702029D01*
X73406Y699704D01*
Y697296D01*
X74029Y694970D01*
X75233Y692886D01*
X76936Y691183D01*
X79021Y689979D01*
X81346Y689356D01*
X83754D01*
X86080Y689979D01*
X88165Y691183D01*
X89867Y692886D01*
X91071Y694970D01*
X91694Y697296D01*
Y699704D01*
X91071Y702029D01*
X89867Y704115D01*
X88165Y705817D01*
X86080Y707021D01*
X83754Y707644D01*
D02*
G37*
G36*
X58354D02*
X55946D01*
X53621Y707021D01*
X51536Y705817D01*
X49833Y704115D01*
X48629Y702029D01*
X48006Y699704D01*
Y697296D01*
X48629Y694970D01*
X49833Y692886D01*
X51536Y691183D01*
X53621Y689979D01*
X55946Y689356D01*
X58354D01*
X60679Y689979D01*
X62765Y691183D01*
X64467Y692886D01*
X65671Y694970D01*
X66294Y697296D01*
Y699704D01*
X65671Y702029D01*
X64467Y704115D01*
X62765Y705817D01*
X60679Y707021D01*
X58354Y707644D01*
D02*
G37*
G36*
X32954D02*
X30546D01*
X28221Y707021D01*
X26135Y705817D01*
X24433Y704115D01*
X23229Y702029D01*
X22606Y699704D01*
Y697296D01*
X23229Y694970D01*
X24433Y692886D01*
X26135Y691183D01*
X28221Y689979D01*
X30546Y689356D01*
X32954D01*
X35280Y689979D01*
X37364Y691183D01*
X39067Y692886D01*
X40271Y694970D01*
X40894Y697296D01*
Y699704D01*
X40271Y702029D01*
X39067Y704115D01*
X37364Y705817D01*
X35280Y707021D01*
X32954Y707644D01*
D02*
G37*
G36*
X7554D02*
X5146D01*
X2821Y707021D01*
X736Y705817D01*
X-967Y704115D01*
X-2171Y702029D01*
X-2794Y699704D01*
Y697296D01*
X-2171Y694970D01*
X-967Y692886D01*
X736Y691183D01*
X2821Y689979D01*
X5146Y689356D01*
X7554D01*
X9880Y689979D01*
X11964Y691183D01*
X13667Y692886D01*
X14871Y694970D01*
X15494Y697296D01*
Y699704D01*
X14871Y702029D01*
X13667Y704115D01*
X11964Y705817D01*
X9880Y707021D01*
X7554Y707644D01*
D02*
G37*
G36*
X-17846D02*
X-20254D01*
X-22580Y707021D01*
X-24664Y705817D01*
X-26367Y704115D01*
X-27571Y702029D01*
X-28194Y699704D01*
Y697296D01*
X-27571Y694970D01*
X-26367Y692886D01*
X-24664Y691183D01*
X-22580Y689979D01*
X-20254Y689356D01*
X-17846D01*
X-15520Y689979D01*
X-13435Y691183D01*
X-11733Y692886D01*
X-10529Y694970D01*
X-9906Y697296D01*
Y699704D01*
X-10529Y702029D01*
X-11733Y704115D01*
X-13435Y705817D01*
X-15520Y707021D01*
X-17846Y707644D01*
D02*
G37*
G36*
X-43246D02*
X-45654D01*
X-47979Y707021D01*
X-50065Y705817D01*
X-51767Y704115D01*
X-52971Y702029D01*
X-53594Y699704D01*
Y697296D01*
X-52971Y694970D01*
X-51767Y692886D01*
X-50065Y691183D01*
X-47979Y689979D01*
X-45654Y689356D01*
X-43246D01*
X-40921Y689979D01*
X-38835Y691183D01*
X-37133Y692886D01*
X-35929Y694970D01*
X-35306Y697296D01*
Y699704D01*
X-35929Y702029D01*
X-37133Y704115D01*
X-38835Y705817D01*
X-40921Y707021D01*
X-43246Y707644D01*
D02*
G37*
G36*
X-68646D02*
X-71054D01*
X-73380Y707021D01*
X-75465Y705817D01*
X-77167Y704115D01*
X-78371Y702029D01*
X-78994Y699704D01*
Y697296D01*
X-78371Y694970D01*
X-77167Y692886D01*
X-75465Y691183D01*
X-73380Y689979D01*
X-71054Y689356D01*
X-68646D01*
X-66321Y689979D01*
X-64236Y691183D01*
X-62533Y692886D01*
X-61329Y694970D01*
X-60706Y697296D01*
Y699704D01*
X-61329Y702029D01*
X-62533Y704115D01*
X-64236Y705817D01*
X-66321Y707021D01*
X-68646Y707644D01*
D02*
G37*
G36*
X814069Y753427D02*
X783589D01*
Y722947D01*
X792355D01*
Y682151D01*
X791610Y681842D01*
X789114Y680174D01*
X786992Y678052D01*
X785324Y675556D01*
X784175Y672782D01*
X783589Y669838D01*
Y666836D01*
X784175Y663891D01*
X785324Y661118D01*
X786992Y658622D01*
X789114Y656499D01*
X791610Y654831D01*
X794384Y653682D01*
X797328Y653097D01*
X800330D01*
X803275Y653682D01*
X806048Y654831D01*
X808544Y656499D01*
X810667Y658622D01*
X812335Y661118D01*
X813484Y663891D01*
X814069Y666836D01*
Y669838D01*
X813484Y672782D01*
X812335Y675556D01*
X810667Y678052D01*
X808544Y680174D01*
X806048Y681842D01*
X805304Y682151D01*
Y722947D01*
X814069D01*
Y753427D01*
D02*
G37*
G36*
X160020Y629206D02*
Y621350D01*
X167876D01*
X167271Y623609D01*
X166067Y625695D01*
X164364Y627397D01*
X162279Y628601D01*
X160020Y629206D01*
D02*
G37*
G36*
X157480Y629206D02*
X155220Y628601D01*
X153135Y627397D01*
X151433Y625695D01*
X150229Y623609D01*
X149624Y621350D01*
X157480D01*
Y629206D01*
D02*
G37*
G36*
Y618810D02*
X149624D01*
X150229Y616550D01*
X151433Y614465D01*
X153135Y612763D01*
X155220Y611559D01*
X157480Y610954D01*
Y618810D01*
D02*
G37*
G36*
X167876D02*
X160020D01*
Y610954D01*
X162279Y611559D01*
X164364Y612763D01*
X166067Y614465D01*
X167271Y616550D01*
X167876Y618810D01*
D02*
G37*
G36*
X-68646Y629224D02*
X-71054D01*
X-73380Y628601D01*
X-75465Y627397D01*
X-77167Y625695D01*
X-78371Y623609D01*
X-78994Y621284D01*
Y618876D01*
X-78371Y616550D01*
X-77167Y614465D01*
X-75465Y612763D01*
X-73380Y611559D01*
X-71054Y610936D01*
X-68646D01*
X-66321Y611559D01*
X-64236Y612763D01*
X-62533Y614465D01*
X-61329Y616550D01*
X-60706Y618876D01*
Y621284D01*
X-61329Y623609D01*
X-62533Y625695D01*
X-64236Y627397D01*
X-66321Y628601D01*
X-68646Y629224D01*
D02*
G37*
G36*
X134554D02*
X132146D01*
X129820Y628601D01*
X127736Y627397D01*
X126033Y625695D01*
X124829Y623609D01*
X124206Y621284D01*
Y618876D01*
X124829Y616550D01*
X126033Y614465D01*
X127736Y612763D01*
X129820Y611559D01*
X132146Y610936D01*
X134554D01*
X136483Y611453D01*
X177728Y570208D01*
X177242Y569035D01*
X164489D01*
X116577Y616947D01*
X117094Y618876D01*
Y621284D01*
X116471Y623609D01*
X115267Y625695D01*
X113565Y627397D01*
X111480Y628601D01*
X109154Y629224D01*
X106746D01*
X104420Y628601D01*
X102336Y627397D01*
X100633Y625695D01*
X99429Y623609D01*
X98806Y621284D01*
Y618876D01*
X99429Y616550D01*
X100633Y614465D01*
X102336Y612763D01*
X104420Y611559D01*
X106746Y610936D01*
X109154D01*
X111083Y611453D01*
X158678Y563858D01*
X158192Y562685D01*
X145439D01*
X91177Y616947D01*
X91694Y618876D01*
Y621284D01*
X91071Y623609D01*
X89867Y625695D01*
X88165Y627397D01*
X86080Y628601D01*
X83754Y629224D01*
X81346D01*
X79021Y628601D01*
X76936Y627397D01*
X75233Y625695D01*
X74029Y623609D01*
X73406Y621284D01*
Y618876D01*
X74029Y616550D01*
X75233Y614465D01*
X76936Y612763D01*
X79021Y611559D01*
X81346Y610936D01*
X83754D01*
X85683Y611453D01*
X139628Y557508D01*
X139142Y556335D01*
X126389D01*
X65777Y616947D01*
X66294Y618876D01*
Y621284D01*
X65671Y623609D01*
X64467Y625695D01*
X62765Y627397D01*
X60679Y628601D01*
X58354Y629224D01*
X55946D01*
X53621Y628601D01*
X51536Y627397D01*
X49833Y625695D01*
X48629Y623609D01*
X48006Y621284D01*
Y619684D01*
X46736Y619158D01*
X44523Y621371D01*
X43262Y622213D01*
X41776Y622509D01*
X40566D01*
X40271Y623609D01*
X39067Y625695D01*
X37364Y627397D01*
X35280Y628601D01*
X32954Y629224D01*
X30546D01*
X28221Y628601D01*
X26135Y627397D01*
X24433Y625695D01*
X23229Y623609D01*
X22606Y621284D01*
Y618876D01*
X23229Y616550D01*
X24433Y614465D01*
X26135Y612763D01*
X28221Y611559D01*
X30546Y610936D01*
X32954D01*
X35280Y611559D01*
X37364Y612763D01*
X39067Y614465D01*
X40381Y614526D01*
X117280Y537627D01*
X116607Y536504D01*
X114708Y537080D01*
X113511Y537197D01*
X43442Y607267D01*
X42182Y608109D01*
X40695Y608405D01*
X23519D01*
X14977Y616947D01*
X15494Y618876D01*
Y621284D01*
X14871Y623609D01*
X13667Y625695D01*
X11964Y627397D01*
X9880Y628601D01*
X7554Y629224D01*
X5146D01*
X2821Y628601D01*
X736Y627397D01*
X-967Y625695D01*
X-2171Y623609D01*
X-2794Y621284D01*
Y618876D01*
X-2171Y616550D01*
X-967Y614465D01*
X736Y612763D01*
X2821Y611559D01*
X5146Y610936D01*
X7554D01*
X9483Y611453D01*
X19163Y601773D01*
X20423Y600931D01*
X21910Y600635D01*
X39086D01*
X106208Y533513D01*
X105722Y532340D01*
X104450D01*
X101437Y531943D01*
X98630Y530780D01*
X96220Y528930D01*
X94370Y526520D01*
X93207Y523713D01*
X92978Y521970D01*
X107950D01*
Y520700D01*
X109220D01*
Y509060D01*
X111450D01*
X114463Y509457D01*
X117270Y510620D01*
X119680Y512470D01*
X121530Y514880D01*
X122002Y516021D01*
X123255Y516231D01*
X129227Y509489D01*
X129322Y509417D01*
X129388Y509318D01*
X130132Y508575D01*
X130132Y508574D01*
X138459Y500248D01*
X137657Y498312D01*
X137260Y495300D01*
X137657Y492287D01*
X138820Y489480D01*
X140670Y487070D01*
X143080Y485220D01*
X145887Y484057D01*
X148900Y483660D01*
X155900D01*
X158913Y484057D01*
X161720Y485220D01*
X164130Y487070D01*
X165980Y489480D01*
X167143Y492287D01*
X167540Y495300D01*
X167143Y498312D01*
X165980Y501120D01*
X164130Y503530D01*
X161720Y505380D01*
X158913Y506543D01*
X155900Y506940D01*
X148900D01*
X145887Y506543D01*
X143952Y505741D01*
X141707Y507987D01*
X142193Y509160D01*
X167440D01*
Y529625D01*
X215802D01*
X216428Y528355D01*
X215020Y526520D01*
X213857Y523713D01*
X213628Y521970D01*
X243572D01*
X243343Y523713D01*
X243092Y524318D01*
X244169Y525037D01*
X250115Y519091D01*
Y510850D01*
X250411Y509363D01*
X251253Y508103D01*
X259109Y500248D01*
X258307Y498312D01*
X257910Y495300D01*
X258307Y492287D01*
X259470Y489480D01*
X261320Y487070D01*
X263730Y485220D01*
X266537Y484057D01*
X269550Y483660D01*
X276550D01*
X279563Y484057D01*
X282370Y485220D01*
X284780Y487070D01*
X286630Y489480D01*
X287793Y492287D01*
X288190Y495300D01*
X287793Y498312D01*
X286630Y501120D01*
X284780Y503530D01*
X282370Y505380D01*
X279563Y506543D01*
X276550Y506940D01*
X269550D01*
X266537Y506543D01*
X264602Y505741D01*
X262357Y507987D01*
X262843Y509160D01*
X288090D01*
Y532240D01*
X258010D01*
Y523842D01*
X256770Y523454D01*
X256740Y523454D01*
X244791Y535403D01*
X244791Y535403D01*
X244791Y535403D01*
X244047Y536147D01*
X243062Y536805D01*
X243062Y536805D01*
X242820Y536971D01*
X242818Y536971D01*
X242810Y536973D01*
X242787Y536989D01*
X242787Y536989D01*
X242786Y536989D01*
X242446Y537058D01*
X241537Y537375D01*
X241334Y537447D01*
X241333Y537447D01*
X240127Y537299D01*
X233364Y537381D01*
X232320Y537393D01*
X232100Y537401D01*
Y537395D01*
X128499D01*
X56228Y609666D01*
X56754Y610936D01*
X58354D01*
X60283Y611453D01*
X122033Y549703D01*
X123293Y548861D01*
X124780Y548565D01*
X353991D01*
X379855Y522701D01*
Y510122D01*
X380151Y508635D01*
X380993Y507375D01*
X386808Y501560D01*
X386470Y501120D01*
X385307Y498312D01*
X384910Y495300D01*
X385307Y492287D01*
X386470Y489480D01*
X388320Y487070D01*
X390730Y485220D01*
X393537Y484057D01*
X396550Y483660D01*
X403550D01*
X406563Y484057D01*
X409370Y485220D01*
X411780Y487070D01*
X413630Y489480D01*
X414793Y492287D01*
X415190Y495300D01*
X414793Y498312D01*
X413630Y501120D01*
X411780Y503530D01*
X409370Y505380D01*
X406563Y506543D01*
X403550Y506940D01*
X396550D01*
X393537Y506543D01*
X393025Y506331D01*
X391369Y507987D01*
X391855Y509160D01*
X415090D01*
Y532240D01*
X385010D01*
Y530193D01*
X383837Y529707D01*
X359802Y553742D01*
X360288Y554915D01*
X464681D01*
X500505Y519091D01*
Y508110D01*
X500801Y506623D01*
X501643Y505363D01*
X506759Y500248D01*
X505957Y498312D01*
X505560Y495300D01*
X505957Y492287D01*
X507120Y489480D01*
X508970Y487070D01*
X511380Y485220D01*
X514187Y484057D01*
X517200Y483660D01*
X524200D01*
X527213Y484057D01*
X530020Y485220D01*
X532430Y487070D01*
X534280Y489480D01*
X535443Y492287D01*
X535840Y495300D01*
X535443Y498312D01*
X534280Y501120D01*
X532430Y503530D01*
X530020Y505380D01*
X527213Y506543D01*
X524200Y506940D01*
X517200D01*
X514187Y506543D01*
X512252Y505741D01*
X510007Y507987D01*
X510493Y509160D01*
X535740D01*
Y532240D01*
X505660D01*
Y526583D01*
X504487Y526097D01*
X470492Y560092D01*
X470978Y561265D01*
X588941D01*
X618415Y531791D01*
Y510850D01*
X618711Y509363D01*
X619553Y508103D01*
X627409Y500248D01*
X626607Y498312D01*
X626210Y495300D01*
X626607Y492287D01*
X627770Y489480D01*
X629620Y487070D01*
X632030Y485220D01*
X634837Y484057D01*
X637850Y483660D01*
X644850D01*
X647863Y484057D01*
X650670Y485220D01*
X653080Y487070D01*
X654930Y489480D01*
X656093Y492287D01*
X656490Y495300D01*
X656093Y498312D01*
X654930Y501120D01*
X653080Y503530D01*
X650670Y505380D01*
X647863Y506543D01*
X644850Y506940D01*
X637850D01*
X634837Y506543D01*
X632902Y505741D01*
X630657Y507987D01*
X631143Y509160D01*
X656390D01*
Y532240D01*
X626310D01*
X626185Y533400D01*
X625889Y534887D01*
X625047Y536147D01*
X607452Y553742D01*
X607938Y554915D01*
X715941D01*
X739065Y531791D01*
Y510850D01*
X739361Y509363D01*
X740203Y508103D01*
X748059Y500248D01*
X747257Y498312D01*
X746860Y495300D01*
X747257Y492287D01*
X748420Y489480D01*
X750270Y487070D01*
X752680Y485220D01*
X755487Y484057D01*
X758500Y483660D01*
X765500D01*
X768513Y484057D01*
X771320Y485220D01*
X773730Y487070D01*
X775580Y489480D01*
X776743Y492287D01*
X777140Y495300D01*
X776743Y498312D01*
X775580Y501120D01*
X773730Y503530D01*
X771320Y505380D01*
X768513Y506543D01*
X765500Y506940D01*
X758500D01*
X755487Y506543D01*
X753552Y505741D01*
X751307Y507987D01*
X751793Y509160D01*
X777040D01*
Y532240D01*
X746960D01*
X746835Y533400D01*
X746539Y534887D01*
X745697Y536147D01*
X720297Y561547D01*
X719037Y562389D01*
X717550Y562685D01*
X605693D01*
X594131Y574247D01*
X592871Y575089D01*
X591384Y575385D01*
X183539D01*
X141977Y616947D01*
X142494Y618876D01*
Y621284D01*
X141871Y623609D01*
X140667Y625695D01*
X138965Y627397D01*
X136880Y628601D01*
X134554Y629224D01*
D02*
G37*
G36*
X836930Y532340D02*
X834700D01*
X831687Y531943D01*
X828880Y530780D01*
X826470Y528930D01*
X824620Y526520D01*
X823457Y523713D01*
X823228Y521970D01*
X836930D01*
Y532340D01*
D02*
G37*
G36*
X721050D02*
X718820D01*
Y521970D01*
X732522D01*
X732293Y523713D01*
X731130Y526520D01*
X729280Y528930D01*
X726870Y530780D01*
X724063Y531943D01*
X721050Y532340D01*
D02*
G37*
G36*
X716280D02*
X714050D01*
X711037Y531943D01*
X708230Y530780D01*
X705820Y528930D01*
X703970Y526520D01*
X702807Y523713D01*
X702578Y521970D01*
X716280D01*
Y532340D01*
D02*
G37*
G36*
X600400D02*
X598170D01*
Y521970D01*
X611872D01*
X611643Y523713D01*
X610480Y526520D01*
X608630Y528930D01*
X606220Y530780D01*
X603413Y531943D01*
X600400Y532340D01*
D02*
G37*
G36*
X595630D02*
X593400D01*
X590387Y531943D01*
X587580Y530780D01*
X585170Y528930D01*
X583320Y526520D01*
X582157Y523713D01*
X581928Y521970D01*
X595630D01*
Y532340D01*
D02*
G37*
G36*
X479750D02*
X477520D01*
Y521970D01*
X491222D01*
X490993Y523713D01*
X489830Y526520D01*
X487980Y528930D01*
X485570Y530780D01*
X482763Y531943D01*
X479750Y532340D01*
D02*
G37*
G36*
X474980D02*
X472750D01*
X469737Y531943D01*
X466930Y530780D01*
X464520Y528930D01*
X462670Y526520D01*
X461507Y523713D01*
X461278Y521970D01*
X474980D01*
Y532340D01*
D02*
G37*
G36*
X352750D02*
X350520D01*
Y521970D01*
X364222D01*
X363993Y523713D01*
X362830Y526520D01*
X360980Y528930D01*
X358570Y530780D01*
X355763Y531943D01*
X352750Y532340D01*
D02*
G37*
G36*
X347980D02*
X345750D01*
X342737Y531943D01*
X339930Y530780D01*
X337520Y528930D01*
X335670Y526520D01*
X334507Y523713D01*
X334278Y521970D01*
X347980D01*
Y532340D01*
D02*
G37*
G36*
X-9200D02*
X-11430D01*
Y521970D01*
X2272D01*
X2043Y523713D01*
X880Y526520D01*
X-970Y528930D01*
X-3380Y530780D01*
X-6187Y531943D01*
X-9200Y532340D01*
D02*
G37*
G36*
X-13970D02*
X-16200D01*
X-19213Y531943D01*
X-22020Y530780D01*
X-24430Y528930D01*
X-26280Y526520D01*
X-27443Y523713D01*
X-27672Y521970D01*
X-13970D01*
Y532340D01*
D02*
G37*
G36*
X836930Y519430D02*
X823228D01*
X823457Y517687D01*
X824620Y514880D01*
X826470Y512470D01*
X828880Y510620D01*
X831687Y509457D01*
X834700Y509060D01*
X836930D01*
Y519430D01*
D02*
G37*
G36*
X732522D02*
X718820D01*
Y509060D01*
X721050D01*
X724063Y509457D01*
X726870Y510620D01*
X729280Y512470D01*
X731130Y514880D01*
X732293Y517687D01*
X732522Y519430D01*
D02*
G37*
G36*
X716280D02*
X702578D01*
X702807Y517687D01*
X703970Y514880D01*
X705820Y512470D01*
X708230Y510620D01*
X711037Y509457D01*
X714050Y509060D01*
X716280D01*
Y519430D01*
D02*
G37*
G36*
X611872D02*
X598170D01*
Y509060D01*
X600400D01*
X603413Y509457D01*
X606220Y510620D01*
X608630Y512470D01*
X610480Y514880D01*
X611643Y517687D01*
X611872Y519430D01*
D02*
G37*
G36*
X595630D02*
X581928D01*
X582157Y517687D01*
X583320Y514880D01*
X585170Y512470D01*
X587580Y510620D01*
X590387Y509457D01*
X593400Y509060D01*
X595630D01*
Y519430D01*
D02*
G37*
G36*
X491222D02*
X477520D01*
Y509060D01*
X479750D01*
X482763Y509457D01*
X485570Y510620D01*
X487980Y512470D01*
X489830Y514880D01*
X490993Y517687D01*
X491222Y519430D01*
D02*
G37*
G36*
X474980D02*
X461278D01*
X461507Y517687D01*
X462670Y514880D01*
X464520Y512470D01*
X466930Y510620D01*
X469737Y509457D01*
X472750Y509060D01*
X474980D01*
Y519430D01*
D02*
G37*
G36*
X364222D02*
X350520D01*
Y509060D01*
X352750D01*
X355763Y509457D01*
X358570Y510620D01*
X360980Y512470D01*
X362830Y514880D01*
X363993Y517687D01*
X364222Y519430D01*
D02*
G37*
G36*
X347980D02*
X334278D01*
X334507Y517687D01*
X335670Y514880D01*
X337520Y512470D01*
X339930Y510620D01*
X342737Y509457D01*
X345750Y509060D01*
X347980D01*
Y519430D01*
D02*
G37*
G36*
X243572D02*
X229870D01*
Y509060D01*
X232100D01*
X235113Y509457D01*
X237920Y510620D01*
X240330Y512470D01*
X242180Y514880D01*
X243343Y517687D01*
X243572Y519430D01*
D02*
G37*
G36*
X227330D02*
X213628D01*
X213857Y517687D01*
X215020Y514880D01*
X216870Y512470D01*
X219280Y510620D01*
X222087Y509457D01*
X225100Y509060D01*
X227330D01*
Y519430D01*
D02*
G37*
G36*
X106680D02*
X92978D01*
X93207Y517687D01*
X94370Y514880D01*
X96220Y512470D01*
X98630Y510620D01*
X101437Y509457D01*
X104450Y509060D01*
X106680D01*
Y519430D01*
D02*
G37*
G36*
X2272D02*
X-11430D01*
Y509060D01*
X-9200D01*
X-6187Y509457D01*
X-3380Y510620D01*
X-970Y512470D01*
X880Y514880D01*
X2043Y517687D01*
X2272Y519430D01*
D02*
G37*
G36*
X-13970D02*
X-27672D01*
X-27443Y517687D01*
X-26280Y514880D01*
X-24430Y512470D01*
X-22020Y510620D01*
X-19213Y509457D01*
X-16200Y509060D01*
X-13970D01*
Y519430D01*
D02*
G37*
G36*
X721050Y506940D02*
X714050D01*
X711037Y506543D01*
X708230Y505380D01*
X705820Y503530D01*
X703970Y501120D01*
X702807Y498312D01*
X702410Y495300D01*
X702807Y492287D01*
X703970Y489480D01*
X705820Y487070D01*
X708230Y485220D01*
X711037Y484057D01*
X714050Y483660D01*
X721050D01*
X724063Y484057D01*
X726870Y485220D01*
X729280Y487070D01*
X731130Y489480D01*
X732293Y492287D01*
X732690Y495300D01*
X732293Y498312D01*
X731130Y501120D01*
X729280Y503530D01*
X726870Y505380D01*
X724063Y506543D01*
X721050Y506940D01*
D02*
G37*
G36*
X600400D02*
X593400D01*
X590387Y506543D01*
X587580Y505380D01*
X585170Y503530D01*
X583320Y501120D01*
X582157Y498312D01*
X581760Y495300D01*
X582157Y492287D01*
X583320Y489480D01*
X585170Y487070D01*
X587580Y485220D01*
X590387Y484057D01*
X593400Y483660D01*
X600400D01*
X603413Y484057D01*
X606220Y485220D01*
X608630Y487070D01*
X610480Y489480D01*
X611643Y492287D01*
X612040Y495300D01*
X611643Y498312D01*
X610480Y501120D01*
X608630Y503530D01*
X606220Y505380D01*
X603413Y506543D01*
X600400Y506940D01*
D02*
G37*
G36*
X479750D02*
X472750D01*
X469737Y506543D01*
X466930Y505380D01*
X464520Y503530D01*
X462670Y501120D01*
X461507Y498312D01*
X461110Y495300D01*
X461507Y492287D01*
X462670Y489480D01*
X464520Y487070D01*
X466930Y485220D01*
X469737Y484057D01*
X472750Y483660D01*
X479750D01*
X482763Y484057D01*
X485570Y485220D01*
X487980Y487070D01*
X489830Y489480D01*
X490993Y492287D01*
X491390Y495300D01*
X490993Y498312D01*
X489830Y501120D01*
X487980Y503530D01*
X485570Y505380D01*
X482763Y506543D01*
X479750Y506940D01*
D02*
G37*
G36*
X352750D02*
X345750D01*
X342737Y506543D01*
X339930Y505380D01*
X337520Y503530D01*
X335670Y501120D01*
X334507Y498312D01*
X334110Y495300D01*
X334507Y492287D01*
X335670Y489480D01*
X337520Y487070D01*
X339930Y485220D01*
X342737Y484057D01*
X345750Y483660D01*
X352750D01*
X355763Y484057D01*
X358570Y485220D01*
X360980Y487070D01*
X362830Y489480D01*
X363993Y492287D01*
X364390Y495300D01*
X363993Y498312D01*
X362830Y501120D01*
X360980Y503530D01*
X358570Y505380D01*
X355763Y506543D01*
X352750Y506940D01*
D02*
G37*
G36*
X232100D02*
X225100D01*
X222087Y506543D01*
X219280Y505380D01*
X216870Y503530D01*
X215020Y501120D01*
X213857Y498312D01*
X213460Y495300D01*
X213857Y492287D01*
X215020Y489480D01*
X216870Y487070D01*
X219280Y485220D01*
X222087Y484057D01*
X225100Y483660D01*
X232100D01*
X235113Y484057D01*
X237920Y485220D01*
X240330Y487070D01*
X242180Y489480D01*
X243343Y492287D01*
X243740Y495300D01*
X243343Y498312D01*
X242180Y501120D01*
X240330Y503530D01*
X237920Y505380D01*
X235113Y506543D01*
X232100Y506940D01*
D02*
G37*
G36*
X111450D02*
X104450D01*
X101437Y506543D01*
X98630Y505380D01*
X96220Y503530D01*
X94370Y501120D01*
X93207Y498312D01*
X92810Y495300D01*
X93207Y492287D01*
X94370Y489480D01*
X96220Y487070D01*
X98630Y485220D01*
X101437Y484057D01*
X104450Y483660D01*
X111450D01*
X114463Y484057D01*
X117270Y485220D01*
X119680Y487070D01*
X121530Y489480D01*
X122693Y492287D01*
X123090Y495300D01*
X122693Y498312D01*
X121530Y501120D01*
X119680Y503530D01*
X117270Y505380D01*
X114463Y506543D01*
X111450Y506940D01*
D02*
G37*
G36*
X-17846Y629224D02*
X-20254D01*
X-22580Y628601D01*
X-24664Y627397D01*
X-26367Y625695D01*
X-27571Y623609D01*
X-28194Y621284D01*
Y618876D01*
X-27571Y616550D01*
X-26367Y614465D01*
X-24664Y612763D01*
X-22935Y611764D01*
Y565150D01*
X-22639Y563663D01*
X-21797Y562403D01*
X8815Y531791D01*
Y510850D01*
X9111Y509363D01*
X9953Y508103D01*
X17809Y500248D01*
X17007Y498312D01*
X16610Y495300D01*
X17007Y492287D01*
X18170Y489480D01*
X20020Y487070D01*
X22430Y485220D01*
X25237Y484057D01*
X28250Y483660D01*
X35250D01*
X38263Y484057D01*
X41070Y485220D01*
X43480Y487070D01*
X45330Y489480D01*
X46493Y492287D01*
X46890Y495300D01*
X46493Y498312D01*
X45330Y501120D01*
X43480Y503530D01*
X41070Y505380D01*
X38263Y506543D01*
X35250Y506940D01*
X28250D01*
X25237Y506543D01*
X23302Y505741D01*
X21057Y507987D01*
X21543Y509160D01*
X46790D01*
Y532240D01*
X16710D01*
X16585Y533400D01*
X16289Y534887D01*
X15447Y536147D01*
X-15165Y566759D01*
Y611764D01*
X-13435Y612763D01*
X-11733Y614465D01*
X-10529Y616550D01*
X-9906Y618876D01*
Y621284D01*
X-10529Y623609D01*
X-11733Y625695D01*
X-13435Y627397D01*
X-15520Y628601D01*
X-17846Y629224D01*
D02*
G37*
G36*
X-9200Y506940D02*
X-16200D01*
X-19213Y506543D01*
X-22020Y505380D01*
X-24430Y503530D01*
X-26280Y501120D01*
X-27443Y498312D01*
X-27840Y495300D01*
X-27443Y492287D01*
X-26280Y489480D01*
X-24430Y487070D01*
X-22020Y485220D01*
X-19213Y484057D01*
X-16200Y483660D01*
X-9200D01*
X-6187Y484057D01*
X-3380Y485220D01*
X-970Y487070D01*
X880Y489480D01*
X2043Y492287D01*
X2440Y495300D01*
X2043Y498312D01*
X880Y501120D01*
X-970Y503530D01*
X-3380Y505380D01*
X-6187Y506543D01*
X-9200Y506940D01*
D02*
G37*
G36*
X721050Y481539D02*
X714050D01*
X711037Y481143D01*
X708230Y479980D01*
X705820Y478130D01*
X703970Y475720D01*
X702807Y472912D01*
X702410Y469900D01*
X702807Y466888D01*
X703970Y464080D01*
X705820Y461670D01*
X708230Y459820D01*
X711037Y458657D01*
X714050Y458260D01*
X721050D01*
X724063Y458657D01*
X726870Y459820D01*
X729280Y461670D01*
X731130Y464080D01*
X732293Y466888D01*
X732690Y469900D01*
X732293Y472912D01*
X731130Y475720D01*
X729280Y478130D01*
X726870Y479980D01*
X724063Y481143D01*
X721050Y481539D01*
D02*
G37*
G36*
X600400D02*
X593400D01*
X590387Y481143D01*
X587580Y479980D01*
X585170Y478130D01*
X583320Y475720D01*
X582157Y472912D01*
X581760Y469900D01*
X582157Y466888D01*
X583320Y464080D01*
X585170Y461670D01*
X587580Y459820D01*
X590387Y458657D01*
X593400Y458260D01*
X600400D01*
X603413Y458657D01*
X606220Y459820D01*
X608630Y461670D01*
X610480Y464080D01*
X611643Y466888D01*
X612040Y469900D01*
X611643Y472912D01*
X610480Y475720D01*
X608630Y478130D01*
X606220Y479980D01*
X603413Y481143D01*
X600400Y481539D01*
D02*
G37*
G36*
X479750D02*
X472750D01*
X469737Y481143D01*
X466930Y479980D01*
X464520Y478130D01*
X462670Y475720D01*
X461507Y472912D01*
X461110Y469900D01*
X461507Y466888D01*
X462670Y464080D01*
X464520Y461670D01*
X466930Y459820D01*
X469737Y458657D01*
X472750Y458260D01*
X479750D01*
X482763Y458657D01*
X485570Y459820D01*
X487980Y461670D01*
X489830Y464080D01*
X490993Y466888D01*
X491390Y469900D01*
X490993Y472912D01*
X489830Y475720D01*
X487980Y478130D01*
X485570Y479980D01*
X482763Y481143D01*
X479750Y481539D01*
D02*
G37*
G36*
X352750D02*
X345750D01*
X342737Y481143D01*
X339930Y479980D01*
X337520Y478130D01*
X335670Y475720D01*
X334507Y472912D01*
X334110Y469900D01*
X334507Y466888D01*
X335670Y464080D01*
X337520Y461670D01*
X339930Y459820D01*
X342737Y458657D01*
X345750Y458260D01*
X352750D01*
X355763Y458657D01*
X358570Y459820D01*
X360980Y461670D01*
X362830Y464080D01*
X363993Y466888D01*
X364390Y469900D01*
X363993Y472912D01*
X362830Y475720D01*
X360980Y478130D01*
X358570Y479980D01*
X355763Y481143D01*
X352750Y481539D01*
D02*
G37*
G36*
X232100D02*
X225100D01*
X222087Y481143D01*
X219280Y479980D01*
X216870Y478130D01*
X215020Y475720D01*
X213857Y472912D01*
X213460Y469900D01*
X213857Y466888D01*
X215020Y464080D01*
X216870Y461670D01*
X219280Y459820D01*
X222087Y458657D01*
X225100Y458260D01*
X232100D01*
X235113Y458657D01*
X237920Y459820D01*
X240330Y461670D01*
X242180Y464080D01*
X243343Y466888D01*
X243740Y469900D01*
X243343Y472912D01*
X242180Y475720D01*
X240330Y478130D01*
X237920Y479980D01*
X235113Y481143D01*
X232100Y481539D01*
D02*
G37*
G36*
X111450D02*
X104450D01*
X101437Y481143D01*
X98630Y479980D01*
X96220Y478130D01*
X94370Y475720D01*
X93207Y472912D01*
X92810Y469900D01*
X93207Y466888D01*
X94370Y464080D01*
X96220Y461670D01*
X98630Y459820D01*
X101437Y458657D01*
X104450Y458260D01*
X111450D01*
X114463Y458657D01*
X117270Y459820D01*
X119680Y461670D01*
X121530Y464080D01*
X122693Y466888D01*
X123090Y469900D01*
X122693Y472912D01*
X121530Y475720D01*
X119680Y478130D01*
X117270Y479980D01*
X114463Y481143D01*
X111450Y481539D01*
D02*
G37*
G36*
X-9200D02*
X-16200D01*
X-19213Y481143D01*
X-22020Y479980D01*
X-24430Y478130D01*
X-26280Y475720D01*
X-27443Y472912D01*
X-27840Y469900D01*
X-27443Y466888D01*
X-26280Y464080D01*
X-24430Y461670D01*
X-22020Y459820D01*
X-19213Y458657D01*
X-16200Y458260D01*
X-9200D01*
X-6187Y458657D01*
X-3380Y459820D01*
X-970Y461670D01*
X880Y464080D01*
X2043Y466888D01*
X2440Y469900D01*
X2043Y472912D01*
X880Y475720D01*
X-970Y478130D01*
X-3380Y479980D01*
X-6187Y481143D01*
X-9200Y481539D01*
D02*
G37*
%LPD*%
G36*
X550715Y661910D02*
X551209Y661053D01*
X516341Y626185D01*
X503588D01*
X503102Y627358D01*
X531303Y655559D01*
X532160Y655065D01*
X535349Y654210D01*
X538651D01*
X541840Y655065D01*
X544700Y656715D01*
X547034Y659050D01*
X548685Y661910D01*
X549043Y663243D01*
X550357D01*
X550715Y661910D01*
D02*
G37*
G36*
X525315D02*
X525809Y661053D01*
X497291Y632535D01*
X484674D01*
X484148Y633805D01*
X505903Y655559D01*
X506760Y655065D01*
X509949Y654210D01*
X513251D01*
X516440Y655065D01*
X519300Y656715D01*
X521634Y659050D01*
X523285Y661910D01*
X523643Y663243D01*
X524957D01*
X525315Y661910D01*
D02*
G37*
%LPC*%
G36*
X765500Y456139D02*
X758500D01*
X755487Y455743D01*
X752680Y454580D01*
X750270Y452730D01*
X748420Y450320D01*
X747257Y447513D01*
X746860Y444500D01*
X747257Y441488D01*
X748420Y438680D01*
X750270Y436270D01*
X752680Y434420D01*
X755487Y433257D01*
X758500Y432860D01*
X765500D01*
X768513Y433257D01*
X771320Y434420D01*
X773730Y436270D01*
X775580Y438680D01*
X776743Y441488D01*
X777140Y444500D01*
X776743Y447513D01*
X775580Y450320D01*
X773730Y452730D01*
X771320Y454580D01*
X768513Y455743D01*
X765500Y456139D01*
D02*
G37*
G36*
X524200D02*
X517200D01*
X514187Y455743D01*
X511380Y454580D01*
X508970Y452730D01*
X507120Y450320D01*
X505957Y447513D01*
X505560Y444500D01*
X505957Y441488D01*
X507120Y438680D01*
X508970Y436270D01*
X511380Y434420D01*
X514187Y433257D01*
X517200Y432860D01*
X524200D01*
X527213Y433257D01*
X530020Y434420D01*
X532430Y436270D01*
X534280Y438680D01*
X535443Y441488D01*
X535840Y444500D01*
X535443Y447513D01*
X534280Y450320D01*
X532430Y452730D01*
X530020Y454580D01*
X527213Y455743D01*
X524200Y456139D01*
D02*
G37*
G36*
X403550D02*
X396550D01*
X393537Y455743D01*
X390730Y454580D01*
X388320Y452730D01*
X386470Y450320D01*
X385307Y447513D01*
X384910Y444500D01*
X385307Y441488D01*
X386470Y438680D01*
X388320Y436270D01*
X390730Y434420D01*
X393537Y433257D01*
X396550Y432860D01*
X403550D01*
X406563Y433257D01*
X409370Y434420D01*
X411780Y436270D01*
X413630Y438680D01*
X414793Y441488D01*
X415190Y444500D01*
X414793Y447513D01*
X413630Y450320D01*
X411780Y452730D01*
X409370Y454580D01*
X406563Y455743D01*
X403550Y456139D01*
D02*
G37*
G36*
X276550D02*
X269550D01*
X266537Y455743D01*
X263730Y454580D01*
X261320Y452730D01*
X259470Y450320D01*
X258307Y447513D01*
X257910Y444500D01*
X258307Y441488D01*
X259470Y438680D01*
X261320Y436270D01*
X263730Y434420D01*
X266537Y433257D01*
X269550Y432860D01*
X276550D01*
X279563Y433257D01*
X282370Y434420D01*
X284780Y436270D01*
X286630Y438680D01*
X287793Y441488D01*
X288190Y444500D01*
X287793Y447513D01*
X286630Y450320D01*
X284780Y452730D01*
X282370Y454580D01*
X279563Y455743D01*
X276550Y456139D01*
D02*
G37*
G36*
X155900D02*
X148900D01*
X145887Y455743D01*
X143080Y454580D01*
X140670Y452730D01*
X138820Y450320D01*
X137657Y447513D01*
X137260Y444500D01*
X137657Y441488D01*
X138820Y438680D01*
X140670Y436270D01*
X143080Y434420D01*
X145887Y433257D01*
X148900Y432860D01*
X155900D01*
X158913Y433257D01*
X161720Y434420D01*
X164130Y436270D01*
X165980Y438680D01*
X167143Y441488D01*
X167540Y444500D01*
X167143Y447513D01*
X165980Y450320D01*
X164130Y452730D01*
X161720Y454580D01*
X158913Y455743D01*
X155900Y456139D01*
D02*
G37*
G36*
X35250D02*
X28250D01*
X25237Y455743D01*
X22430Y454580D01*
X20020Y452730D01*
X18170Y450320D01*
X17007Y447513D01*
X16610Y444500D01*
X17007Y441488D01*
X18170Y438680D01*
X20020Y436270D01*
X22430Y434420D01*
X25237Y433257D01*
X28250Y432860D01*
X35250D01*
X38263Y433257D01*
X41070Y434420D01*
X43480Y436270D01*
X45330Y438680D01*
X46493Y441488D01*
X46890Y444500D01*
X46493Y447513D01*
X45330Y450320D01*
X43480Y452730D01*
X41070Y454580D01*
X38263Y455743D01*
X35250Y456139D01*
D02*
G37*
G36*
X701013Y430530D02*
X693420D01*
Y422937D01*
X695581Y423516D01*
X697609Y424686D01*
X699264Y426341D01*
X700434Y428369D01*
X701013Y430530D01*
D02*
G37*
G36*
X690880D02*
X683287D01*
X683866Y428369D01*
X685036Y426341D01*
X686691Y424686D01*
X688719Y423516D01*
X690880Y422937D01*
Y430530D01*
D02*
G37*
G36*
X765500Y430740D02*
X758500D01*
X755487Y430343D01*
X752680Y429180D01*
X750270Y427330D01*
X748420Y424920D01*
X747257Y422113D01*
X746860Y419100D01*
X747257Y416087D01*
X748420Y413280D01*
X750270Y410870D01*
X752680Y409020D01*
X755487Y407857D01*
X758500Y407461D01*
X765500D01*
X768513Y407857D01*
X771320Y409020D01*
X773730Y410870D01*
X775580Y413280D01*
X776743Y416087D01*
X777140Y419100D01*
X776743Y422113D01*
X775580Y424920D01*
X773730Y427330D01*
X771320Y429180D01*
X768513Y430343D01*
X765500Y430740D01*
D02*
G37*
G36*
X644850D02*
X637850D01*
X634837Y430343D01*
X632030Y429180D01*
X629620Y427330D01*
X627770Y424920D01*
X626607Y422113D01*
X626210Y419100D01*
X626607Y416087D01*
X627770Y413280D01*
X629620Y410870D01*
X632030Y409020D01*
X634837Y407857D01*
X637850Y407461D01*
X644850D01*
X647863Y407857D01*
X650670Y409020D01*
X653080Y410870D01*
X654930Y413280D01*
X656093Y416087D01*
X656490Y419100D01*
X656093Y422113D01*
X654930Y424920D01*
X653080Y427330D01*
X650670Y429180D01*
X647863Y430343D01*
X644850Y430740D01*
D02*
G37*
G36*
X600400D02*
X593400D01*
X590387Y430343D01*
X587580Y429180D01*
X585170Y427330D01*
X583320Y424920D01*
X582157Y422113D01*
X581760Y419100D01*
X582157Y416087D01*
X583320Y413280D01*
X585170Y410870D01*
X587580Y409020D01*
X590387Y407857D01*
X593400Y407461D01*
X600400D01*
X603413Y407857D01*
X606220Y409020D01*
X608630Y410870D01*
X610480Y413280D01*
X611643Y416087D01*
X612040Y419100D01*
X611643Y422113D01*
X610480Y424920D01*
X608630Y427330D01*
X606220Y429180D01*
X603413Y430343D01*
X600400Y430740D01*
D02*
G37*
G36*
X524200D02*
X517200D01*
X514187Y430343D01*
X511380Y429180D01*
X508970Y427330D01*
X507120Y424920D01*
X505957Y422113D01*
X505560Y419100D01*
X505957Y416087D01*
X507120Y413280D01*
X508970Y410870D01*
X511380Y409020D01*
X514187Y407857D01*
X517200Y407461D01*
X524200D01*
X527213Y407857D01*
X530020Y409020D01*
X532430Y410870D01*
X534280Y413280D01*
X535443Y416087D01*
X535840Y419100D01*
X535443Y422113D01*
X534280Y424920D01*
X532430Y427330D01*
X530020Y429180D01*
X527213Y430343D01*
X524200Y430740D01*
D02*
G37*
G36*
X479750D02*
X472750D01*
X469737Y430343D01*
X466930Y429180D01*
X464520Y427330D01*
X462670Y424920D01*
X461507Y422113D01*
X461110Y419100D01*
X461507Y416087D01*
X462670Y413280D01*
X464520Y410870D01*
X466930Y409020D01*
X469737Y407857D01*
X472750Y407461D01*
X479750D01*
X482763Y407857D01*
X485570Y409020D01*
X487980Y410870D01*
X489830Y413280D01*
X490993Y416087D01*
X491390Y419100D01*
X490993Y422113D01*
X489830Y424920D01*
X487980Y427330D01*
X485570Y429180D01*
X482763Y430343D01*
X479750Y430740D01*
D02*
G37*
G36*
X403550D02*
X396550D01*
X393537Y430343D01*
X390730Y429180D01*
X388320Y427330D01*
X386470Y424920D01*
X385307Y422113D01*
X384910Y419100D01*
X385307Y416087D01*
X386470Y413280D01*
X388320Y410870D01*
X390730Y409020D01*
X393537Y407857D01*
X396550Y407461D01*
X403550D01*
X406563Y407857D01*
X409370Y409020D01*
X411780Y410870D01*
X413630Y413280D01*
X414793Y416087D01*
X415190Y419100D01*
X414793Y422113D01*
X413630Y424920D01*
X411780Y427330D01*
X409370Y429180D01*
X406563Y430343D01*
X403550Y430740D01*
D02*
G37*
G36*
X352750D02*
X345750D01*
X342737Y430343D01*
X339930Y429180D01*
X337520Y427330D01*
X335670Y424920D01*
X334507Y422113D01*
X334110Y419100D01*
X334507Y416087D01*
X335670Y413280D01*
X337520Y410870D01*
X339930Y409020D01*
X342737Y407857D01*
X345750Y407461D01*
X352750D01*
X355763Y407857D01*
X358570Y409020D01*
X360980Y410870D01*
X362830Y413280D01*
X363993Y416087D01*
X364390Y419100D01*
X363993Y422113D01*
X362830Y424920D01*
X360980Y427330D01*
X358570Y429180D01*
X355763Y430343D01*
X352750Y430740D01*
D02*
G37*
G36*
X276550D02*
X269550D01*
X266537Y430343D01*
X263730Y429180D01*
X261320Y427330D01*
X259470Y424920D01*
X258307Y422113D01*
X257910Y419100D01*
X258307Y416087D01*
X259470Y413280D01*
X261320Y410870D01*
X263730Y409020D01*
X266537Y407857D01*
X269550Y407461D01*
X276550D01*
X279563Y407857D01*
X282370Y409020D01*
X284780Y410870D01*
X286630Y413280D01*
X287793Y416087D01*
X288190Y419100D01*
X287793Y422113D01*
X286630Y424920D01*
X284780Y427330D01*
X282370Y429180D01*
X279563Y430343D01*
X276550Y430740D01*
D02*
G37*
G36*
X232100D02*
X225100D01*
X222087Y430343D01*
X219280Y429180D01*
X216870Y427330D01*
X215020Y424920D01*
X213857Y422113D01*
X213460Y419100D01*
X213857Y416087D01*
X215020Y413280D01*
X216870Y410870D01*
X219280Y409020D01*
X222087Y407857D01*
X225100Y407461D01*
X232100D01*
X235113Y407857D01*
X237920Y409020D01*
X240330Y410870D01*
X242180Y413280D01*
X243343Y416087D01*
X243740Y419100D01*
X243343Y422113D01*
X242180Y424920D01*
X240330Y427330D01*
X237920Y429180D01*
X235113Y430343D01*
X232100Y430740D01*
D02*
G37*
G36*
X155900D02*
X148900D01*
X145887Y430343D01*
X143080Y429180D01*
X140670Y427330D01*
X138820Y424920D01*
X137657Y422113D01*
X137260Y419100D01*
X137657Y416087D01*
X138820Y413280D01*
X140670Y410870D01*
X143080Y409020D01*
X145887Y407857D01*
X148900Y407461D01*
X155900D01*
X158913Y407857D01*
X161720Y409020D01*
X164130Y410870D01*
X165980Y413280D01*
X167143Y416087D01*
X167540Y419100D01*
X167143Y422113D01*
X165980Y424920D01*
X164130Y427330D01*
X161720Y429180D01*
X158913Y430343D01*
X155900Y430740D01*
D02*
G37*
G36*
X111450D02*
X104450D01*
X101437Y430343D01*
X98630Y429180D01*
X96220Y427330D01*
X94370Y424920D01*
X93207Y422113D01*
X92810Y419100D01*
X93207Y416087D01*
X94370Y413280D01*
X96220Y410870D01*
X98630Y409020D01*
X101437Y407857D01*
X104450Y407461D01*
X111450D01*
X114463Y407857D01*
X117270Y409020D01*
X119680Y410870D01*
X121530Y413280D01*
X122693Y416087D01*
X123090Y419100D01*
X122693Y422113D01*
X121530Y424920D01*
X119680Y427330D01*
X117270Y429180D01*
X114463Y430343D01*
X111450Y430740D01*
D02*
G37*
G36*
X35250D02*
X28250D01*
X25237Y430343D01*
X22430Y429180D01*
X20020Y427330D01*
X18170Y424920D01*
X17007Y422113D01*
X16610Y419100D01*
X17007Y416087D01*
X18170Y413280D01*
X20020Y410870D01*
X22430Y409020D01*
X25237Y407857D01*
X28250Y407461D01*
X35250D01*
X38263Y407857D01*
X41070Y409020D01*
X43480Y410870D01*
X45330Y413280D01*
X46493Y416087D01*
X46890Y419100D01*
X46493Y422113D01*
X45330Y424920D01*
X43480Y427330D01*
X41070Y429180D01*
X38263Y430343D01*
X35250Y430740D01*
D02*
G37*
G36*
X-9200D02*
X-16200D01*
X-19213Y430343D01*
X-22020Y429180D01*
X-24430Y427330D01*
X-26280Y424920D01*
X-27443Y422113D01*
X-27840Y419100D01*
X-27443Y416087D01*
X-26280Y413280D01*
X-24430Y410870D01*
X-22020Y409020D01*
X-19213Y407857D01*
X-16200Y407461D01*
X-9200D01*
X-6187Y407857D01*
X-3380Y409020D01*
X-970Y410870D01*
X880Y413280D01*
X2043Y416087D01*
X2440Y419100D01*
X2043Y422113D01*
X880Y424920D01*
X-970Y427330D01*
X-3380Y429180D01*
X-6187Y430343D01*
X-9200Y430740D01*
D02*
G37*
G36*
X765500Y405340D02*
X758500D01*
X755487Y404943D01*
X752680Y403780D01*
X750270Y401930D01*
X748420Y399520D01*
X747257Y396712D01*
X746860Y393700D01*
X747257Y390687D01*
X748420Y387880D01*
X750270Y385470D01*
X752680Y383620D01*
X755487Y382457D01*
X758500Y382061D01*
X765500D01*
X768513Y382457D01*
X771320Y383620D01*
X773730Y385470D01*
X775580Y387880D01*
X776743Y390687D01*
X777140Y393700D01*
X776743Y396712D01*
X775580Y399520D01*
X773730Y401930D01*
X771320Y403780D01*
X768513Y404943D01*
X765500Y405340D01*
D02*
G37*
G36*
X644850D02*
X637850D01*
X634837Y404943D01*
X632030Y403780D01*
X629620Y401930D01*
X627770Y399520D01*
X626607Y396712D01*
X626210Y393700D01*
X626607Y390687D01*
X627770Y387880D01*
X629620Y385470D01*
X632030Y383620D01*
X634837Y382457D01*
X637850Y382061D01*
X644850D01*
X647863Y382457D01*
X650670Y383620D01*
X653080Y385470D01*
X654930Y387880D01*
X656093Y390687D01*
X656490Y393700D01*
X656093Y396712D01*
X654930Y399520D01*
X653080Y401930D01*
X650670Y403780D01*
X647863Y404943D01*
X644850Y405340D01*
D02*
G37*
G36*
X524200D02*
X517200D01*
X514187Y404943D01*
X511380Y403780D01*
X508970Y401930D01*
X507120Y399520D01*
X505957Y396712D01*
X505560Y393700D01*
X505957Y390687D01*
X507120Y387880D01*
X508970Y385470D01*
X511380Y383620D01*
X514187Y382457D01*
X517200Y382061D01*
X524200D01*
X527213Y382457D01*
X530020Y383620D01*
X532430Y385470D01*
X534280Y387880D01*
X535443Y390687D01*
X535840Y393700D01*
X535443Y396712D01*
X534280Y399520D01*
X532430Y401930D01*
X530020Y403780D01*
X527213Y404943D01*
X524200Y405340D01*
D02*
G37*
G36*
X403550D02*
X396550D01*
X393537Y404943D01*
X390730Y403780D01*
X388320Y401930D01*
X386470Y399520D01*
X385307Y396712D01*
X384910Y393700D01*
X385307Y390687D01*
X386470Y387880D01*
X388320Y385470D01*
X390730Y383620D01*
X393537Y382457D01*
X396550Y382061D01*
X403550D01*
X406563Y382457D01*
X409370Y383620D01*
X411780Y385470D01*
X413630Y387880D01*
X414793Y390687D01*
X415190Y393700D01*
X414793Y396712D01*
X413630Y399520D01*
X411780Y401930D01*
X409370Y403780D01*
X406563Y404943D01*
X403550Y405340D01*
D02*
G37*
G36*
X352750D02*
X345750D01*
X342737Y404943D01*
X339930Y403780D01*
X337520Y401930D01*
X335670Y399520D01*
X334507Y396712D01*
X334110Y393700D01*
X334507Y390687D01*
X335670Y387880D01*
X337520Y385470D01*
X339930Y383620D01*
X342737Y382457D01*
X345750Y382061D01*
X352750D01*
X355763Y382457D01*
X358570Y383620D01*
X360980Y385470D01*
X362830Y387880D01*
X363993Y390687D01*
X364390Y393700D01*
X363993Y396712D01*
X362830Y399520D01*
X360980Y401930D01*
X358570Y403780D01*
X355763Y404943D01*
X352750Y405340D01*
D02*
G37*
G36*
X276550D02*
X269550D01*
X266537Y404943D01*
X263730Y403780D01*
X261320Y401930D01*
X259470Y399520D01*
X258307Y396712D01*
X257910Y393700D01*
X258307Y390687D01*
X259470Y387880D01*
X261320Y385470D01*
X263730Y383620D01*
X266537Y382457D01*
X269550Y382061D01*
X276550D01*
X279563Y382457D01*
X282370Y383620D01*
X284780Y385470D01*
X286630Y387880D01*
X287793Y390687D01*
X288190Y393700D01*
X287793Y396712D01*
X286630Y399520D01*
X284780Y401930D01*
X282370Y403780D01*
X279563Y404943D01*
X276550Y405340D01*
D02*
G37*
G36*
X232100D02*
X225100D01*
X222087Y404943D01*
X219280Y403780D01*
X216870Y401930D01*
X215020Y399520D01*
X214218Y397585D01*
X199416D01*
X197929Y397289D01*
X196669Y396447D01*
X168786Y368563D01*
X167445Y369019D01*
X167143Y371312D01*
X165980Y374120D01*
X164130Y376530D01*
X161720Y378380D01*
X158913Y379543D01*
X155900Y379939D01*
X148900D01*
X145887Y379543D01*
X143080Y378380D01*
X140670Y376530D01*
X138820Y374120D01*
X137657Y371312D01*
X137260Y368300D01*
X137657Y365288D01*
X138820Y362480D01*
X140670Y360070D01*
X143080Y358220D01*
X145887Y357057D01*
X148900Y356660D01*
X155087D01*
X155613Y355391D01*
X106438Y306215D01*
X105129Y306971D01*
X102804Y307594D01*
X100396D01*
X98070Y306971D01*
X95985Y305767D01*
X94283Y304065D01*
X93079Y301980D01*
X92456Y299654D01*
Y297246D01*
X93079Y294921D01*
X94283Y292836D01*
X95985Y291133D01*
X98070Y289929D01*
X100396Y289306D01*
X102804D01*
X105129Y289929D01*
X107214Y291133D01*
X108917Y292836D01*
X110121Y294921D01*
X110744Y297246D01*
Y299534D01*
X201025Y389815D01*
X214218D01*
X215020Y387880D01*
X216870Y385470D01*
X219280Y383620D01*
X222087Y382457D01*
X225100Y382061D01*
X232100D01*
X235113Y382457D01*
X237920Y383620D01*
X240330Y385470D01*
X242180Y387880D01*
X243343Y390687D01*
X243740Y393700D01*
X243343Y396712D01*
X242180Y399520D01*
X240330Y401930D01*
X237920Y403780D01*
X235113Y404943D01*
X232100Y405340D01*
D02*
G37*
G36*
X155900D02*
X148900D01*
X145887Y404943D01*
X143080Y403780D01*
X140670Y401930D01*
X138820Y399520D01*
X137657Y396712D01*
X137260Y393700D01*
X137657Y390687D01*
X138820Y387880D01*
X140670Y385470D01*
X143080Y383620D01*
X145887Y382457D01*
X148900Y382061D01*
X155900D01*
X158913Y382457D01*
X161720Y383620D01*
X164130Y385470D01*
X165980Y387880D01*
X167143Y390687D01*
X167540Y393700D01*
X167143Y396712D01*
X165980Y399520D01*
X164130Y401930D01*
X161720Y403780D01*
X158913Y404943D01*
X155900Y405340D01*
D02*
G37*
G36*
X111450D02*
X104450D01*
X101437Y404943D01*
X98630Y403780D01*
X96220Y401930D01*
X94370Y399520D01*
X93207Y396712D01*
X92810Y393700D01*
X93207Y390687D01*
X94009Y388752D01*
X48053Y342797D01*
X47211Y341537D01*
X46915Y340050D01*
Y306766D01*
X45185Y305767D01*
X43483Y304065D01*
X42279Y301980D01*
X41656Y299654D01*
Y297246D01*
X42279Y294921D01*
X43483Y292836D01*
X45185Y291133D01*
X47270Y289929D01*
X49596Y289306D01*
X52004D01*
X54330Y289929D01*
X56414Y291133D01*
X58117Y292836D01*
X59321Y294921D01*
X59944Y297246D01*
Y299654D01*
X59321Y301980D01*
X58117Y304065D01*
X56414Y305767D01*
X54685Y306766D01*
Y338441D01*
X99502Y383259D01*
X101437Y382457D01*
X104450Y382061D01*
X111450D01*
X114463Y382457D01*
X117270Y383620D01*
X119680Y385470D01*
X121530Y387880D01*
X122693Y390687D01*
X123090Y393700D01*
X122693Y396712D01*
X121530Y399520D01*
X119680Y401930D01*
X117270Y403780D01*
X114463Y404943D01*
X111450Y405340D01*
D02*
G37*
G36*
X35250D02*
X28250D01*
X25237Y404943D01*
X22430Y403780D01*
X20020Y401930D01*
X18170Y399520D01*
X17007Y396712D01*
X16610Y393700D01*
X17007Y390687D01*
X18170Y387880D01*
X20020Y385470D01*
X22430Y383620D01*
X25237Y382457D01*
X28250Y382061D01*
X35250D01*
X38263Y382457D01*
X41070Y383620D01*
X43480Y385470D01*
X45330Y387880D01*
X46493Y390687D01*
X46890Y393700D01*
X46493Y396712D01*
X45330Y399520D01*
X43480Y401930D01*
X41070Y403780D01*
X38263Y404943D01*
X35250Y405340D01*
D02*
G37*
G36*
X-9200D02*
X-16200D01*
X-19213Y404943D01*
X-22020Y403780D01*
X-24430Y401930D01*
X-26280Y399520D01*
X-27443Y396712D01*
X-27840Y393700D01*
X-27443Y390687D01*
X-26641Y388752D01*
X-31757Y383637D01*
X-32599Y382377D01*
X-32895Y380890D01*
Y327460D01*
X-32599Y325973D01*
X-31757Y324713D01*
X-8627Y301583D01*
X-9144Y299654D01*
Y297246D01*
X-8521Y294921D01*
X-7317Y292836D01*
X-5615Y291133D01*
X-3530Y289929D01*
X-1204Y289306D01*
X1204D01*
X3530Y289929D01*
X5615Y291133D01*
X7317Y292836D01*
X8521Y294921D01*
X9144Y297246D01*
Y299654D01*
X8521Y301980D01*
X7317Y304065D01*
X5615Y305767D01*
X3530Y306971D01*
X1204Y307594D01*
X-1204D01*
X-3133Y307077D01*
X-25125Y329069D01*
Y359002D01*
X-23855Y359628D01*
X-22020Y358220D01*
X-19213Y357057D01*
X-16200Y356660D01*
X-9200D01*
X-6187Y357057D01*
X-3380Y358220D01*
X-970Y360070D01*
X880Y362480D01*
X2043Y365288D01*
X2440Y368300D01*
X2043Y371312D01*
X880Y374120D01*
X-970Y376530D01*
X-3380Y378380D01*
X-6187Y379543D01*
X-9200Y379939D01*
X-16200D01*
X-19213Y379543D01*
X-22020Y378380D01*
X-23855Y376972D01*
X-25125Y377598D01*
Y379281D01*
X-21148Y383259D01*
X-19213Y382457D01*
X-16200Y382061D01*
X-9200D01*
X-6187Y382457D01*
X-3380Y383620D01*
X-970Y385470D01*
X880Y387880D01*
X2043Y390687D01*
X2440Y393700D01*
X2043Y396712D01*
X880Y399520D01*
X-970Y401930D01*
X-3380Y403780D01*
X-6187Y404943D01*
X-9200Y405340D01*
D02*
G37*
G36*
X479750D02*
X472750D01*
X469737Y404943D01*
X466930Y403780D01*
X464520Y401930D01*
X462670Y399520D01*
X461507Y396712D01*
X461110Y393700D01*
X461507Y390687D01*
X462670Y387880D01*
X464520Y385470D01*
X466930Y383620D01*
X469737Y382457D01*
X472750Y382061D01*
X479750D01*
X482763Y382457D01*
X484698Y383259D01*
X488675Y379281D01*
Y377598D01*
X487405Y376972D01*
X485570Y378380D01*
X482763Y379543D01*
X479750Y379939D01*
X472750D01*
X469737Y379543D01*
X466930Y378380D01*
X464520Y376530D01*
X462670Y374120D01*
X461507Y371312D01*
X461110Y368300D01*
X461507Y365288D01*
X462670Y362480D01*
X464520Y360070D01*
X466930Y358220D01*
X469737Y357057D01*
X472750Y356660D01*
X479750D01*
X482763Y357057D01*
X485570Y358220D01*
X487980Y360070D01*
X488850Y361203D01*
X490495Y361261D01*
X550173Y301583D01*
X549656Y299654D01*
Y297246D01*
X550279Y294921D01*
X551483Y292836D01*
X553186Y291133D01*
X555271Y289929D01*
X557596Y289306D01*
X560004D01*
X562329Y289929D01*
X564414Y291133D01*
X566117Y292836D01*
X567321Y294921D01*
X567944Y297246D01*
Y299654D01*
X567321Y301980D01*
X566117Y304065D01*
X564414Y305767D01*
X562329Y306971D01*
X560004Y307594D01*
X557596D01*
X555667Y307077D01*
X496445Y366299D01*
Y380890D01*
X496149Y382377D01*
X495307Y383637D01*
X490191Y388752D01*
X490993Y390687D01*
X491390Y393700D01*
X490993Y396712D01*
X489830Y399520D01*
X487980Y401930D01*
X485570Y403780D01*
X482763Y404943D01*
X479750Y405340D01*
D02*
G37*
G36*
X765500Y379939D02*
X758500D01*
X755487Y379543D01*
X752680Y378380D01*
X750270Y376530D01*
X748420Y374120D01*
X747257Y371312D01*
X746860Y368300D01*
X747257Y365288D01*
X748420Y362480D01*
X750270Y360070D01*
X752680Y358220D01*
X755487Y357057D01*
X758500Y356660D01*
X765500D01*
X768513Y357057D01*
X771320Y358220D01*
X773730Y360070D01*
X775580Y362480D01*
X776743Y365288D01*
X777140Y368300D01*
X776743Y371312D01*
X775580Y374120D01*
X773730Y376530D01*
X771320Y378380D01*
X768513Y379543D01*
X765500Y379939D01*
D02*
G37*
G36*
X644850D02*
X637850D01*
X634837Y379543D01*
X632030Y378380D01*
X629620Y376530D01*
X627770Y374120D01*
X626607Y371312D01*
X626210Y368300D01*
X626607Y365288D01*
X627770Y362480D01*
X629620Y360070D01*
X632030Y358220D01*
X634837Y357057D01*
X637850Y356660D01*
X644850D01*
X647863Y357057D01*
X650670Y358220D01*
X653080Y360070D01*
X654930Y362480D01*
X656093Y365288D01*
X656490Y368300D01*
X656093Y371312D01*
X654930Y374120D01*
X653080Y376530D01*
X650670Y378380D01*
X647863Y379543D01*
X644850Y379939D01*
D02*
G37*
G36*
X600400D02*
X593400D01*
X590387Y379543D01*
X587580Y378380D01*
X585170Y376530D01*
X583320Y374120D01*
X582157Y371312D01*
X581760Y368300D01*
X582157Y365288D01*
X583320Y362480D01*
X585170Y360070D01*
X587580Y358220D01*
X590387Y357057D01*
X593400Y356660D01*
X600400D01*
X603413Y357057D01*
X606220Y358220D01*
X608630Y360070D01*
X610480Y362480D01*
X611643Y365288D01*
X612040Y368300D01*
X611643Y371312D01*
X610480Y374120D01*
X608630Y376530D01*
X606220Y378380D01*
X603413Y379543D01*
X600400Y379939D01*
D02*
G37*
G36*
X524200D02*
X517200D01*
X514187Y379543D01*
X511380Y378380D01*
X508970Y376530D01*
X507120Y374120D01*
X505957Y371312D01*
X505560Y368300D01*
X505957Y365288D01*
X507120Y362480D01*
X508970Y360070D01*
X511380Y358220D01*
X514187Y357057D01*
X517200Y356660D01*
X524200D01*
X527213Y357057D01*
X530020Y358220D01*
X532430Y360070D01*
X534280Y362480D01*
X535443Y365288D01*
X535840Y368300D01*
X535443Y371312D01*
X534280Y374120D01*
X532430Y376530D01*
X530020Y378380D01*
X527213Y379543D01*
X524200Y379939D01*
D02*
G37*
G36*
X403550D02*
X396550D01*
X393537Y379543D01*
X390730Y378380D01*
X388320Y376530D01*
X386470Y374120D01*
X385307Y371312D01*
X384910Y368300D01*
X385307Y365288D01*
X386470Y362480D01*
X388320Y360070D01*
X390730Y358220D01*
X393537Y357057D01*
X396550Y356660D01*
X403550D01*
X406563Y357057D01*
X409370Y358220D01*
X411780Y360070D01*
X413630Y362480D01*
X414793Y365288D01*
X415190Y368300D01*
X414793Y371312D01*
X413630Y374120D01*
X411780Y376530D01*
X409370Y378380D01*
X406563Y379543D01*
X403550Y379939D01*
D02*
G37*
G36*
X352750D02*
X345750D01*
X342737Y379543D01*
X339930Y378380D01*
X337520Y376530D01*
X335670Y374120D01*
X334507Y371312D01*
X334110Y368300D01*
X334507Y365288D01*
X335670Y362480D01*
X337520Y360070D01*
X339930Y358220D01*
X342737Y357057D01*
X345750Y356660D01*
X352750D01*
X355763Y357057D01*
X358570Y358220D01*
X360980Y360070D01*
X362830Y362480D01*
X363993Y365288D01*
X364390Y368300D01*
X363993Y371312D01*
X362830Y374120D01*
X360980Y376530D01*
X358570Y378380D01*
X355763Y379543D01*
X352750Y379939D01*
D02*
G37*
G36*
X276550D02*
X269550D01*
X266537Y379543D01*
X263730Y378380D01*
X261320Y376530D01*
X259470Y374120D01*
X258307Y371312D01*
X257910Y368300D01*
X258307Y365288D01*
X259470Y362480D01*
X261320Y360070D01*
X263730Y358220D01*
X266537Y357057D01*
X269550Y356660D01*
X276550D01*
X279563Y357057D01*
X282370Y358220D01*
X284780Y360070D01*
X286630Y362480D01*
X287793Y365288D01*
X288190Y368300D01*
X287793Y371312D01*
X286630Y374120D01*
X284780Y376530D01*
X282370Y378380D01*
X279563Y379543D01*
X276550Y379939D01*
D02*
G37*
G36*
X232100D02*
X225100D01*
X222087Y379543D01*
X219280Y378380D01*
X216870Y376530D01*
X215020Y374120D01*
X213857Y371312D01*
X213460Y368300D01*
X213857Y365288D01*
X215020Y362480D01*
X216870Y360070D01*
X219280Y358220D01*
X222087Y357057D01*
X225100Y356660D01*
X232100D01*
X235113Y357057D01*
X237920Y358220D01*
X240330Y360070D01*
X242180Y362480D01*
X243343Y365288D01*
X243740Y368300D01*
X243343Y371312D01*
X242180Y374120D01*
X240330Y376530D01*
X237920Y378380D01*
X235113Y379543D01*
X232100Y379939D01*
D02*
G37*
G36*
X111450D02*
X104450D01*
X101437Y379543D01*
X98630Y378380D01*
X96220Y376530D01*
X94370Y374120D01*
X93207Y371312D01*
X92810Y368300D01*
X93207Y365288D01*
X94370Y362480D01*
X96220Y360070D01*
X98630Y358220D01*
X101437Y357057D01*
X104450Y356660D01*
X111450D01*
X114463Y357057D01*
X117270Y358220D01*
X119680Y360070D01*
X121530Y362480D01*
X122693Y365288D01*
X123090Y368300D01*
X122693Y371312D01*
X121530Y374120D01*
X119680Y376530D01*
X117270Y378380D01*
X114463Y379543D01*
X111450Y379939D01*
D02*
G37*
G36*
X35250D02*
X28250D01*
X25237Y379543D01*
X22430Y378380D01*
X20020Y376530D01*
X18170Y374120D01*
X17007Y371312D01*
X16610Y368300D01*
X17007Y365288D01*
X18170Y362480D01*
X20020Y360070D01*
X22430Y358220D01*
X25237Y357057D01*
X28250Y356660D01*
X35250D01*
X38263Y357057D01*
X41070Y358220D01*
X43480Y360070D01*
X45330Y362480D01*
X46493Y365288D01*
X46890Y368300D01*
X46493Y371312D01*
X45330Y374120D01*
X43480Y376530D01*
X41070Y378380D01*
X38263Y379543D01*
X35250Y379939D01*
D02*
G37*
G36*
X600400Y405340D02*
X593400D01*
X590387Y404943D01*
X587580Y403780D01*
X585170Y401930D01*
X583320Y399520D01*
X582157Y396712D01*
X581760Y393700D01*
X582157Y390687D01*
X583320Y387880D01*
X585170Y385470D01*
X587580Y383620D01*
X590387Y382457D01*
X593400Y382061D01*
X600400D01*
X603413Y382457D01*
X605348Y383259D01*
X613335Y375271D01*
Y308094D01*
X612262Y307203D01*
X610804Y307594D01*
X608396D01*
X606071Y306971D01*
X603985Y305767D01*
X602283Y304065D01*
X601079Y301980D01*
X600456Y299654D01*
Y297246D01*
X601079Y294921D01*
X602283Y292836D01*
X603985Y291133D01*
X606071Y289929D01*
X608396Y289306D01*
X610804D01*
X613130Y289929D01*
X615215Y291133D01*
X616917Y292836D01*
X618121Y294921D01*
X618744Y297246D01*
Y299654D01*
X618227Y301583D01*
X619967Y303323D01*
X620809Y304583D01*
X621105Y306070D01*
Y376880D01*
X620809Y378367D01*
X619967Y379627D01*
X610841Y388752D01*
X611643Y390687D01*
X612040Y393700D01*
X611643Y396712D01*
X610480Y399520D01*
X608630Y401930D01*
X606220Y403780D01*
X603413Y404943D01*
X600400Y405340D01*
D02*
G37*
G36*
X737804Y307594D02*
X735396D01*
X733071Y306971D01*
X730985Y305767D01*
X729283Y304065D01*
X728079Y301980D01*
X727456Y299654D01*
Y297246D01*
X728079Y294921D01*
X729283Y292836D01*
X730985Y291133D01*
X733071Y289929D01*
X735396Y289306D01*
X737804D01*
X740129Y289929D01*
X742215Y291133D01*
X743917Y292836D01*
X745121Y294921D01*
X745744Y297246D01*
Y299654D01*
X745121Y301980D01*
X743917Y304065D01*
X742215Y305767D01*
X740129Y306971D01*
X737804Y307594D01*
D02*
G37*
G36*
X687004D02*
X684596D01*
X682271Y306971D01*
X680185Y305767D01*
X678483Y304065D01*
X677279Y301980D01*
X676656Y299654D01*
Y297246D01*
X677279Y294921D01*
X678483Y292836D01*
X680185Y291133D01*
X682271Y289929D01*
X684596Y289306D01*
X687004D01*
X689330Y289929D01*
X691414Y291133D01*
X693117Y292836D01*
X694321Y294921D01*
X694944Y297246D01*
Y299654D01*
X694321Y301980D01*
X693117Y304065D01*
X691414Y305767D01*
X689330Y306971D01*
X687004Y307594D01*
D02*
G37*
G36*
X636204D02*
X633796D01*
X631470Y306971D01*
X629385Y305767D01*
X627683Y304065D01*
X626479Y301980D01*
X625856Y299654D01*
Y297246D01*
X626479Y294921D01*
X627683Y292836D01*
X629385Y291133D01*
X631470Y289929D01*
X633796Y289306D01*
X636204D01*
X638530Y289929D01*
X640614Y291133D01*
X642317Y292836D01*
X643521Y294921D01*
X644144Y297246D01*
Y299654D01*
X643521Y301980D01*
X642317Y304065D01*
X640614Y305767D01*
X638530Y306971D01*
X636204Y307594D01*
D02*
G37*
G36*
X585404D02*
X582996D01*
X580671Y306971D01*
X578586Y305767D01*
X576883Y304065D01*
X575679Y301980D01*
X575056Y299654D01*
Y297246D01*
X575679Y294921D01*
X576883Y292836D01*
X578586Y291133D01*
X580671Y289929D01*
X582996Y289306D01*
X585404D01*
X587729Y289929D01*
X589814Y291133D01*
X591517Y292836D01*
X592721Y294921D01*
X593344Y297246D01*
Y299654D01*
X592721Y301980D01*
X591517Y304065D01*
X589814Y305767D01*
X587729Y306971D01*
X585404Y307594D01*
D02*
G37*
G36*
X534604D02*
X532196D01*
X529870Y306971D01*
X527785Y305767D01*
X526083Y304065D01*
X524879Y301980D01*
X524256Y299654D01*
Y297246D01*
X524879Y294921D01*
X526083Y292836D01*
X527785Y291133D01*
X529870Y289929D01*
X532196Y289306D01*
X534604D01*
X536930Y289929D01*
X539015Y291133D01*
X540717Y292836D01*
X541921Y294921D01*
X542544Y297246D01*
Y299654D01*
X541921Y301980D01*
X540717Y304065D01*
X539015Y305767D01*
X536930Y306971D01*
X534604Y307594D01*
D02*
G37*
G36*
X212344D02*
X194056D01*
Y289306D01*
X212344D01*
Y307594D01*
D02*
G37*
G36*
X179004D02*
X176596D01*
X174270Y306971D01*
X172185Y305767D01*
X170483Y304065D01*
X169279Y301980D01*
X168656Y299654D01*
Y297246D01*
X169279Y294921D01*
X170483Y292836D01*
X172185Y291133D01*
X174270Y289929D01*
X176596Y289306D01*
X179004D01*
X181329Y289929D01*
X183414Y291133D01*
X185117Y292836D01*
X186321Y294921D01*
X186944Y297246D01*
Y299654D01*
X186321Y301980D01*
X185117Y304065D01*
X183414Y305767D01*
X181329Y306971D01*
X179004Y307594D01*
D02*
G37*
G36*
X153604D02*
X151196D01*
X148870Y306971D01*
X146785Y305767D01*
X145083Y304065D01*
X143879Y301980D01*
X143256Y299654D01*
Y297246D01*
X143879Y294921D01*
X145083Y292836D01*
X146785Y291133D01*
X148870Y289929D01*
X151196Y289306D01*
X153604D01*
X155929Y289929D01*
X158014Y291133D01*
X159717Y292836D01*
X160921Y294921D01*
X161544Y297246D01*
Y299654D01*
X160921Y301980D01*
X159717Y304065D01*
X158014Y305767D01*
X155929Y306971D01*
X153604Y307594D01*
D02*
G37*
G36*
X128204D02*
X125796D01*
X123470Y306971D01*
X121385Y305767D01*
X119683Y304065D01*
X118479Y301980D01*
X117856Y299654D01*
Y297246D01*
X118479Y294921D01*
X119683Y292836D01*
X121385Y291133D01*
X123470Y289929D01*
X125796Y289306D01*
X128204D01*
X130529Y289929D01*
X132614Y291133D01*
X134317Y292836D01*
X135521Y294921D01*
X136144Y297246D01*
Y299654D01*
X135521Y301980D01*
X134317Y304065D01*
X132614Y305767D01*
X130529Y306971D01*
X128204Y307594D01*
D02*
G37*
G36*
X77404D02*
X74996D01*
X72670Y306971D01*
X70585Y305767D01*
X68883Y304065D01*
X67679Y301980D01*
X67056Y299654D01*
Y297246D01*
X67679Y294921D01*
X68883Y292836D01*
X70585Y291133D01*
X72670Y289929D01*
X74996Y289306D01*
X77404D01*
X79729Y289929D01*
X81814Y291133D01*
X83517Y292836D01*
X84721Y294921D01*
X85344Y297246D01*
Y299654D01*
X84721Y301980D01*
X83517Y304065D01*
X81814Y305767D01*
X79729Y306971D01*
X77404Y307594D01*
D02*
G37*
G36*
X-24196D02*
X-26604D01*
X-28930Y306971D01*
X-31014Y305767D01*
X-32717Y304065D01*
X-33921Y301980D01*
X-34544Y299654D01*
Y297246D01*
X-33921Y294921D01*
X-32717Y292836D01*
X-31014Y291133D01*
X-28930Y289929D01*
X-26604Y289306D01*
X-24196D01*
X-21871Y289929D01*
X-19785Y291133D01*
X-18083Y292836D01*
X-16879Y294921D01*
X-16256Y297246D01*
Y299654D01*
X-16879Y301980D01*
X-18083Y304065D01*
X-19785Y305767D01*
X-21871Y306971D01*
X-24196Y307594D01*
D02*
G37*
G36*
X299931Y281740D02*
X299720D01*
Y267970D01*
X313490D01*
Y268181D01*
X312912Y271087D01*
X311778Y273824D01*
X310132Y276287D01*
X308037Y278382D01*
X305574Y280028D01*
X302837Y281162D01*
X299931Y281740D01*
D02*
G37*
G36*
X297180D02*
X296969D01*
X294063Y281162D01*
X291326Y280028D01*
X288863Y278382D01*
X286768Y276287D01*
X285122Y273824D01*
X283988Y271087D01*
X283410Y268181D01*
Y267970D01*
X297180D01*
Y281740D01*
D02*
G37*
G36*
X313490Y265430D02*
X299720D01*
Y251660D01*
X299931D01*
X302837Y252238D01*
X305574Y253372D01*
X308037Y255018D01*
X310132Y257113D01*
X311778Y259576D01*
X312912Y262313D01*
X313490Y265219D01*
Y265430D01*
D02*
G37*
G36*
X297180D02*
X283410D01*
Y265219D01*
X283988Y262313D01*
X285122Y259576D01*
X286768Y257113D01*
X288863Y255018D01*
X291326Y253372D01*
X294063Y252238D01*
X296969Y251660D01*
X297180D01*
Y265430D01*
D02*
G37*
G36*
X763270Y229156D02*
Y221300D01*
X771126D01*
X770521Y223559D01*
X769317Y225644D01*
X767615Y227347D01*
X765529Y228551D01*
X763270Y229156D01*
D02*
G37*
G36*
X204470D02*
Y221300D01*
X212326D01*
X211721Y223559D01*
X210517Y225644D01*
X208815Y227347D01*
X206730Y228551D01*
X204470Y229156D01*
D02*
G37*
G36*
X760730D02*
X758471Y228551D01*
X756385Y227347D01*
X754683Y225644D01*
X753479Y223559D01*
X752874Y221300D01*
X760730D01*
Y229156D01*
D02*
G37*
G36*
X201930D02*
X199671Y228551D01*
X197586Y227347D01*
X195883Y225644D01*
X194679Y223559D01*
X194074Y221300D01*
X201930D01*
Y229156D01*
D02*
G37*
G36*
X179004Y229174D02*
X176596D01*
X174270Y228551D01*
X172185Y227347D01*
X170483Y225644D01*
X169484Y223915D01*
X167128D01*
X165641Y223619D01*
X164381Y222777D01*
X162711Y221107D01*
X161438Y221630D01*
X160921Y223559D01*
X159717Y225644D01*
X158014Y227347D01*
X155929Y228551D01*
X153604Y229174D01*
X151196D01*
X148870Y228551D01*
X146785Y227347D01*
X145083Y225644D01*
X143879Y223559D01*
X143256Y221234D01*
Y218826D01*
X143304Y218648D01*
X106341Y181685D01*
X79152D01*
X78350Y183620D01*
X76500Y186030D01*
X74090Y187880D01*
X71283Y189043D01*
X68270Y189440D01*
X61270D01*
X58257Y189043D01*
X55450Y187880D01*
X53040Y186030D01*
X51190Y183620D01*
X50027Y180812D01*
X49630Y177800D01*
X50027Y174788D01*
X51190Y171980D01*
X53040Y169570D01*
X55450Y167720D01*
X58257Y166557D01*
X61270Y166160D01*
X68270D01*
X71283Y166557D01*
X74090Y167720D01*
X76500Y169570D01*
X78350Y171980D01*
X79152Y173915D01*
X104096D01*
X104583Y172742D01*
X88125Y156285D01*
X79152D01*
X78350Y158220D01*
X76500Y160630D01*
X74090Y162480D01*
X71283Y163643D01*
X68270Y164039D01*
X61270D01*
X58257Y163643D01*
X55450Y162480D01*
X53040Y160630D01*
X51190Y158220D01*
X50027Y155413D01*
X49630Y152400D01*
X50027Y149388D01*
X51190Y146580D01*
X53040Y144170D01*
X55450Y142320D01*
X58257Y141157D01*
X61270Y140760D01*
X68270D01*
X71283Y141157D01*
X74090Y142320D01*
X76500Y144170D01*
X78350Y146580D01*
X79152Y148515D01*
X89734D01*
X91221Y148811D01*
X92481Y149653D01*
X117779Y174951D01*
X118856Y174232D01*
X118297Y172883D01*
X117900Y169870D01*
Y162870D01*
X118297Y159857D01*
X119460Y157050D01*
X121310Y154640D01*
X123720Y152790D01*
X126528Y151627D01*
X129540Y151230D01*
X132552Y151627D01*
X135360Y152790D01*
X137770Y154640D01*
X139620Y157050D01*
X140783Y159857D01*
X141180Y162870D01*
Y169870D01*
X140783Y172883D01*
X139620Y175690D01*
X137770Y178100D01*
X135360Y179950D01*
X132552Y181113D01*
X129540Y181510D01*
X126528Y181113D01*
X125178Y180554D01*
X124459Y181631D01*
X142143Y199315D01*
X150298D01*
X151784Y199611D01*
X153045Y200453D01*
X168351Y215760D01*
X169788Y215618D01*
X170483Y214415D01*
X172185Y212713D01*
X174270Y211509D01*
X176596Y210886D01*
X179004D01*
X181329Y211509D01*
X183414Y212713D01*
X185117Y214415D01*
X186321Y216500D01*
X186944Y218826D01*
Y221234D01*
X186321Y223559D01*
X185117Y225644D01*
X183414Y227347D01*
X181329Y228551D01*
X179004Y229174D01*
D02*
G37*
G36*
X771126Y218760D02*
X763270D01*
Y210904D01*
X765529Y211509D01*
X767615Y212713D01*
X769317Y214415D01*
X770521Y216500D01*
X771126Y218760D01*
D02*
G37*
G36*
X212326D02*
X204470D01*
Y210904D01*
X206730Y211509D01*
X208815Y212713D01*
X210517Y214415D01*
X211721Y216500D01*
X212326Y218760D01*
D02*
G37*
G36*
X760730D02*
X752874D01*
X753479Y216500D01*
X754683Y214415D01*
X756385Y212713D01*
X758471Y211509D01*
X760730Y210904D01*
Y218760D01*
D02*
G37*
G36*
X201930D02*
X194074D01*
X194679Y216500D01*
X195883Y214415D01*
X197586Y212713D01*
X199671Y211509D01*
X201930Y210904D01*
Y218760D01*
D02*
G37*
G36*
X687004Y229174D02*
X684596D01*
X682271Y228551D01*
X680185Y227347D01*
X678483Y225644D01*
X677279Y223559D01*
X676656Y221234D01*
Y218826D01*
X677279Y216500D01*
X678483Y214415D01*
X680185Y212713D01*
X682271Y211509D01*
X684596Y210886D01*
X687004D01*
X689330Y211509D01*
X691414Y212713D01*
X693117Y214415D01*
X694321Y216500D01*
X694944Y218826D01*
Y221234D01*
X694321Y223559D01*
X693117Y225644D01*
X691414Y227347D01*
X689330Y228551D01*
X687004Y229174D01*
D02*
G37*
G36*
X661604D02*
X659196D01*
X656870Y228551D01*
X654786Y227347D01*
X653083Y225644D01*
X651879Y223559D01*
X651256Y221234D01*
Y218826D01*
X651879Y216500D01*
X653083Y214415D01*
X654786Y212713D01*
X656870Y211509D01*
X659196Y210886D01*
X661604D01*
X663930Y211509D01*
X666014Y212713D01*
X667717Y214415D01*
X668921Y216500D01*
X669544Y218826D01*
Y221234D01*
X668921Y223559D01*
X667717Y225644D01*
X666014Y227347D01*
X663930Y228551D01*
X661604Y229174D01*
D02*
G37*
G36*
X636204D02*
X633796D01*
X631470Y228551D01*
X629385Y227347D01*
X627683Y225644D01*
X626479Y223559D01*
X625856Y221234D01*
Y218826D01*
X626479Y216500D01*
X627683Y214415D01*
X629385Y212713D01*
X631470Y211509D01*
X633796Y210886D01*
X636204D01*
X638530Y211509D01*
X640614Y212713D01*
X642317Y214415D01*
X643521Y216500D01*
X644144Y218826D01*
Y221234D01*
X643521Y223559D01*
X642317Y225644D01*
X640614Y227347D01*
X638530Y228551D01*
X636204Y229174D01*
D02*
G37*
G36*
X610804D02*
X608396D01*
X606071Y228551D01*
X603985Y227347D01*
X602283Y225644D01*
X601079Y223559D01*
X600456Y221234D01*
Y218826D01*
X601079Y216500D01*
X602283Y214415D01*
X603985Y212713D01*
X606071Y211509D01*
X608396Y210886D01*
X610804D01*
X613130Y211509D01*
X615215Y212713D01*
X616917Y214415D01*
X618121Y216500D01*
X618744Y218826D01*
Y221234D01*
X618121Y223559D01*
X616917Y225644D01*
X615215Y227347D01*
X613130Y228551D01*
X610804Y229174D01*
D02*
G37*
G36*
X585404D02*
X582996D01*
X580671Y228551D01*
X578586Y227347D01*
X576883Y225644D01*
X575679Y223559D01*
X575056Y221234D01*
Y218826D01*
X575679Y216500D01*
X576883Y214415D01*
X578586Y212713D01*
X580671Y211509D01*
X582996Y210886D01*
X585404D01*
X587729Y211509D01*
X589814Y212713D01*
X591517Y214415D01*
X592721Y216500D01*
X593344Y218826D01*
Y221234D01*
X592721Y223559D01*
X591517Y225644D01*
X589814Y227347D01*
X587729Y228551D01*
X585404Y229174D01*
D02*
G37*
G36*
X560004D02*
X557596D01*
X555271Y228551D01*
X553186Y227347D01*
X551483Y225644D01*
X550279Y223559D01*
X549656Y221234D01*
Y218826D01*
X550279Y216500D01*
X551483Y214415D01*
X553186Y212713D01*
X555271Y211509D01*
X557596Y210886D01*
X560004D01*
X562329Y211509D01*
X564414Y212713D01*
X566117Y214415D01*
X567321Y216500D01*
X567944Y218826D01*
Y221234D01*
X567321Y223559D01*
X566117Y225644D01*
X564414Y227347D01*
X562329Y228551D01*
X560004Y229174D01*
D02*
G37*
G36*
X534604D02*
X532196D01*
X529870Y228551D01*
X527785Y227347D01*
X526083Y225644D01*
X524879Y223559D01*
X524256Y221234D01*
Y218826D01*
X524879Y216500D01*
X526083Y214415D01*
X527785Y212713D01*
X529870Y211509D01*
X532196Y210886D01*
X534604D01*
X536930Y211509D01*
X539015Y212713D01*
X540717Y214415D01*
X541921Y216500D01*
X542544Y218826D01*
Y221234D01*
X541921Y223559D01*
X540717Y225644D01*
X539015Y227347D01*
X536930Y228551D01*
X534604Y229174D01*
D02*
G37*
G36*
X128204D02*
X125796D01*
X123470Y228551D01*
X121385Y227347D01*
X119683Y225644D01*
X118479Y223559D01*
X117856Y221234D01*
Y218826D01*
X118479Y216500D01*
X119683Y214415D01*
X121385Y212713D01*
X123470Y211509D01*
X125796Y210886D01*
X128204D01*
X130529Y211509D01*
X132614Y212713D01*
X134317Y214415D01*
X135521Y216500D01*
X136144Y218826D01*
Y221234D01*
X135521Y223559D01*
X134317Y225644D01*
X132614Y227347D01*
X130529Y228551D01*
X128204Y229174D01*
D02*
G37*
G36*
X102804D02*
X100396D01*
X98070Y228551D01*
X95985Y227347D01*
X94283Y225644D01*
X93079Y223559D01*
X92456Y221234D01*
Y218826D01*
X93079Y216500D01*
X94283Y214415D01*
X95985Y212713D01*
X98070Y211509D01*
X100396Y210886D01*
X102804D01*
X105129Y211509D01*
X107214Y212713D01*
X108917Y214415D01*
X110121Y216500D01*
X110744Y218826D01*
Y221234D01*
X110121Y223559D01*
X108917Y225644D01*
X107214Y227347D01*
X105129Y228551D01*
X102804Y229174D01*
D02*
G37*
G36*
X77404D02*
X74996D01*
X72670Y228551D01*
X70585Y227347D01*
X68883Y225644D01*
X67679Y223559D01*
X67056Y221234D01*
Y218826D01*
X67679Y216500D01*
X68883Y214415D01*
X70585Y212713D01*
X72670Y211509D01*
X74996Y210886D01*
X77404D01*
X79729Y211509D01*
X81814Y212713D01*
X83517Y214415D01*
X84721Y216500D01*
X85344Y218826D01*
Y221234D01*
X84721Y223559D01*
X83517Y225644D01*
X81814Y227347D01*
X79729Y228551D01*
X77404Y229174D01*
D02*
G37*
G36*
X52004D02*
X49596D01*
X47270Y228551D01*
X45185Y227347D01*
X43483Y225644D01*
X42279Y223559D01*
X41656Y221234D01*
Y218826D01*
X42279Y216500D01*
X43483Y214415D01*
X45185Y212713D01*
X47270Y211509D01*
X49596Y210886D01*
X52004D01*
X54330Y211509D01*
X56414Y212713D01*
X58117Y214415D01*
X59321Y216500D01*
X59944Y218826D01*
Y221234D01*
X59321Y223559D01*
X58117Y225644D01*
X56414Y227347D01*
X54330Y228551D01*
X52004Y229174D01*
D02*
G37*
G36*
X26604D02*
X24196D01*
X21871Y228551D01*
X19785Y227347D01*
X18083Y225644D01*
X16879Y223559D01*
X16256Y221234D01*
Y218826D01*
X16879Y216500D01*
X18083Y214415D01*
X19785Y212713D01*
X21871Y211509D01*
X24196Y210886D01*
X26604D01*
X28930Y211509D01*
X31014Y212713D01*
X32717Y214415D01*
X33921Y216500D01*
X34544Y218826D01*
Y221234D01*
X33921Y223559D01*
X32717Y225644D01*
X31014Y227347D01*
X28930Y228551D01*
X26604Y229174D01*
D02*
G37*
G36*
X1204D02*
X-1204D01*
X-3530Y228551D01*
X-5615Y227347D01*
X-7317Y225644D01*
X-8521Y223559D01*
X-9144Y221234D01*
Y218826D01*
X-8521Y216500D01*
X-7317Y214415D01*
X-5615Y212713D01*
X-3530Y211509D01*
X-1204Y210886D01*
X1204D01*
X3530Y211509D01*
X5615Y212713D01*
X7317Y214415D01*
X8521Y216500D01*
X9144Y218826D01*
Y221234D01*
X8521Y223559D01*
X7317Y225644D01*
X5615Y227347D01*
X3530Y228551D01*
X1204Y229174D01*
D02*
G37*
G36*
X-24196D02*
X-26604D01*
X-28930Y228551D01*
X-31014Y227347D01*
X-32717Y225644D01*
X-33921Y223559D01*
X-34544Y221234D01*
Y218826D01*
X-33921Y216500D01*
X-32717Y214415D01*
X-31014Y212713D01*
X-28930Y211509D01*
X-26604Y210886D01*
X-24196D01*
X-21871Y211509D01*
X-19785Y212713D01*
X-18083Y214415D01*
X-16879Y216500D01*
X-16256Y218826D01*
Y221234D01*
X-16879Y223559D01*
X-18083Y225644D01*
X-19785Y227347D01*
X-21871Y228551D01*
X-24196Y229174D01*
D02*
G37*
G36*
X452331Y205540D02*
X449369D01*
X446463Y204962D01*
X443726Y203828D01*
X441263Y202182D01*
X439168Y200087D01*
X437522Y197624D01*
X436388Y194887D01*
X435810Y191981D01*
Y189019D01*
X436388Y186113D01*
X437522Y183376D01*
X439168Y180913D01*
X441263Y178818D01*
X443726Y177172D01*
X446463Y176038D01*
X449369Y175460D01*
X452331D01*
X455237Y176038D01*
X457974Y177172D01*
X460437Y178818D01*
X462532Y180913D01*
X464178Y183376D01*
X465312Y186113D01*
X465890Y189019D01*
Y191981D01*
X465312Y194887D01*
X464178Y197624D01*
X462532Y200087D01*
X460437Y202182D01*
X457974Y203828D01*
X455237Y204962D01*
X452331Y205540D01*
D02*
G37*
G36*
X313490D02*
X283410D01*
Y175460D01*
X313490D01*
Y205540D01*
D02*
G37*
G36*
X-33330Y189440D02*
X-40330D01*
X-43343Y189043D01*
X-46150Y187880D01*
X-48560Y186030D01*
X-50410Y183620D01*
X-51573Y180812D01*
X-51970Y177800D01*
X-51573Y174788D01*
X-50410Y171980D01*
X-48560Y169570D01*
X-46150Y167720D01*
X-43343Y166557D01*
X-40330Y166160D01*
X-33330D01*
X-30317Y166557D01*
X-27510Y167720D01*
X-27314Y167870D01*
X-15745Y156301D01*
X-16555Y155315D01*
X-17563Y155989D01*
X-19050Y156285D01*
X-22448D01*
X-23250Y158220D01*
X-25100Y160630D01*
X-27510Y162480D01*
X-30317Y163643D01*
X-33330Y164039D01*
X-40330D01*
X-43343Y163643D01*
X-46150Y162480D01*
X-48560Y160630D01*
X-50410Y158220D01*
X-51573Y155413D01*
X-51970Y152400D01*
X-51573Y149388D01*
X-50410Y146580D01*
X-48560Y144170D01*
X-46150Y142320D01*
X-43343Y141157D01*
X-40330Y140760D01*
X-33330D01*
X-30317Y141157D01*
X-27510Y142320D01*
X-25100Y144170D01*
X-23250Y146580D01*
X-22448Y148515D01*
X-20659D01*
X3603Y124253D01*
X4863Y123411D01*
X6350Y123115D01*
X149340D01*
X150827Y123411D01*
X152087Y124253D01*
X180263Y152429D01*
X182198Y151627D01*
X185210Y151230D01*
X188223Y151627D01*
X191030Y152790D01*
X193441Y154640D01*
X195291Y157050D01*
X196453Y159857D01*
X196850Y162870D01*
Y169870D01*
X196453Y172883D01*
X195291Y175690D01*
X193441Y178100D01*
X191030Y179950D01*
X188223Y181113D01*
X185210Y181510D01*
X182198Y181113D01*
X179391Y179950D01*
X176980Y178100D01*
X175130Y175690D01*
X173967Y172883D01*
X173571Y169870D01*
Y162870D01*
X173967Y159857D01*
X174769Y157922D01*
X147731Y130885D01*
X130108D01*
X129622Y132058D01*
X149992Y152429D01*
X151927Y151627D01*
X154940Y151230D01*
X157952Y151627D01*
X160760Y152790D01*
X163170Y154640D01*
X165020Y157050D01*
X166183Y159857D01*
X166579Y162870D01*
Y169870D01*
X166183Y172883D01*
X165020Y175690D01*
X163170Y178100D01*
X160760Y179950D01*
X157952Y181113D01*
X154940Y181510D01*
X151927Y181113D01*
X149120Y179950D01*
X146710Y178100D01*
X144860Y175690D01*
X143697Y172883D01*
X143300Y169870D01*
Y162870D01*
X143697Y159857D01*
X144499Y157922D01*
X123811Y137235D01*
X14309D01*
X-22426Y173970D01*
X-22087Y174788D01*
X-21690Y177800D01*
X-22087Y180812D01*
X-23250Y183620D01*
X-25100Y186030D01*
X-27510Y187880D01*
X-30317Y189043D01*
X-33330Y189440D01*
D02*
G37*
G36*
X737804Y229174D02*
X735396D01*
X733071Y228551D01*
X730985Y227347D01*
X729283Y225644D01*
X728079Y223559D01*
X727456Y221234D01*
Y218826D01*
X728079Y216500D01*
X729283Y214415D01*
X730985Y212713D01*
X732715Y211714D01*
Y177800D01*
X733011Y176313D01*
X733853Y175053D01*
X746553Y162353D01*
X747813Y161511D01*
X749300Y161215D01*
X753968D01*
X754770Y159280D01*
X756620Y156870D01*
X759030Y155020D01*
X761837Y153857D01*
X764850Y153460D01*
X771850D01*
X774863Y153857D01*
X777670Y155020D01*
X780080Y156870D01*
X781930Y159280D01*
X783093Y162087D01*
X783490Y165100D01*
X783093Y168113D01*
X781930Y170920D01*
X780080Y173330D01*
X777670Y175180D01*
X774863Y176343D01*
X771850Y176740D01*
X764850D01*
X761837Y176343D01*
X759030Y175180D01*
X756620Y173330D01*
X754770Y170920D01*
X753968Y168985D01*
X750909D01*
X740485Y179409D01*
Y211714D01*
X742215Y212713D01*
X743917Y214415D01*
X745121Y216500D01*
X745744Y218826D01*
Y221234D01*
X745121Y223559D01*
X743917Y225644D01*
X742215Y227347D01*
X740129Y228551D01*
X737804Y229174D01*
D02*
G37*
G36*
X635000Y181685D02*
X596900D01*
X595413Y181389D01*
X594153Y180547D01*
X578973Y165367D01*
X578460Y165400D01*
X576050Y167250D01*
X573242Y168413D01*
X570230Y168810D01*
X567217Y168413D01*
X564410Y167250D01*
X562000Y165400D01*
X560150Y162990D01*
X558987Y160183D01*
X558590Y157170D01*
Y150170D01*
X558987Y147157D01*
X560150Y144350D01*
X562000Y141940D01*
X564410Y140090D01*
X567217Y138927D01*
X570230Y138530D01*
X573242Y138927D01*
X576050Y140090D01*
X578460Y141940D01*
X580310Y144350D01*
X581473Y147157D01*
X581870Y150170D01*
Y157170D01*
X581852Y157299D01*
X581975Y157381D01*
X598509Y173915D01*
X633391D01*
X644953Y162353D01*
X646213Y161511D01*
X647700Y161215D01*
X652368D01*
X653170Y159280D01*
X655020Y156870D01*
X657430Y155020D01*
X660237Y153857D01*
X663250Y153460D01*
X670250D01*
X673263Y153857D01*
X676070Y155020D01*
X678480Y156870D01*
X680330Y159280D01*
X681493Y162087D01*
X681890Y165100D01*
X681493Y168113D01*
X680330Y170920D01*
X678480Y173330D01*
X676070Y175180D01*
X673263Y176343D01*
X670250Y176740D01*
X663250D01*
X660237Y176343D01*
X657430Y175180D01*
X655020Y173330D01*
X653170Y170920D01*
X652368Y168985D01*
X649309D01*
X637747Y180547D01*
X636487Y181389D01*
X635000Y181685D01*
D02*
G37*
G36*
X210611Y181510D02*
X207598Y181113D01*
X204791Y179950D01*
X202380Y178100D01*
X200530Y175690D01*
X199368Y172883D01*
X198971Y169870D01*
Y162870D01*
X199368Y159857D01*
X200530Y157050D01*
X202380Y154640D01*
X204791Y152790D01*
X207598Y151627D01*
X210611Y151230D01*
X213623Y151627D01*
X216430Y152790D01*
X218841Y154640D01*
X220691Y157050D01*
X221853Y159857D01*
X222250Y162870D01*
Y169870D01*
X221853Y172883D01*
X220691Y175690D01*
X218841Y178100D01*
X216430Y179950D01*
X213623Y181113D01*
X210611Y181510D01*
D02*
G37*
G36*
X544830Y168810D02*
X541818Y168413D01*
X539010Y167250D01*
X536600Y165400D01*
X534750Y162990D01*
X533587Y160183D01*
X533190Y157170D01*
Y150170D01*
X533587Y147157D01*
X534750Y144350D01*
X536600Y141940D01*
X539010Y140090D01*
X541818Y138927D01*
X544830Y138530D01*
X547842Y138927D01*
X550650Y140090D01*
X553060Y141940D01*
X554910Y144350D01*
X556073Y147157D01*
X556469Y150170D01*
Y157170D01*
X556073Y160183D01*
X554910Y162990D01*
X553060Y165400D01*
X550650Y167250D01*
X547842Y168413D01*
X544830Y168810D01*
D02*
G37*
G36*
X603250Y167540D02*
X600238Y167143D01*
X597430Y165980D01*
X595020Y164130D01*
X593170Y161720D01*
X592007Y158913D01*
X591610Y155900D01*
Y148900D01*
X592007Y145887D01*
X593170Y143080D01*
X595020Y140670D01*
X597430Y138820D01*
X600238Y137657D01*
X603250Y137260D01*
X606263Y137657D01*
X609070Y138820D01*
X611480Y140670D01*
X613330Y143080D01*
X614493Y145887D01*
X614889Y148900D01*
Y155900D01*
X614493Y158913D01*
X613330Y161720D01*
X611480Y164130D01*
X609070Y165980D01*
X606263Y167143D01*
X603250Y167540D01*
D02*
G37*
G36*
X712404Y229174D02*
X709996D01*
X707671Y228551D01*
X705585Y227347D01*
X703883Y225644D01*
X702679Y223559D01*
X702056Y221234D01*
Y218826D01*
X702679Y216500D01*
X703883Y214415D01*
X705585Y212713D01*
X707315Y211714D01*
Y158750D01*
X707611Y157263D01*
X708453Y156003D01*
X727503Y136953D01*
X728763Y136111D01*
X730250Y135815D01*
X753968D01*
X754770Y133880D01*
X756620Y131470D01*
X759030Y129620D01*
X761837Y128457D01*
X764850Y128060D01*
X771850D01*
X774863Y128457D01*
X777670Y129620D01*
X780080Y131470D01*
X781930Y133880D01*
X783093Y136687D01*
X783490Y139700D01*
X783093Y142712D01*
X781930Y145520D01*
X780080Y147930D01*
X777670Y149780D01*
X774863Y150943D01*
X771850Y151340D01*
X764850D01*
X761837Y150943D01*
X759030Y149780D01*
X756620Y147930D01*
X754770Y145520D01*
X753968Y143585D01*
X731859D01*
X715085Y160359D01*
Y211714D01*
X716814Y212713D01*
X718517Y214415D01*
X719721Y216500D01*
X720344Y218826D01*
Y221234D01*
X719721Y223559D01*
X718517Y225644D01*
X716814Y227347D01*
X714730Y228551D01*
X712404Y229174D01*
D02*
G37*
G36*
X628650Y167540D02*
X625638Y167143D01*
X622830Y165980D01*
X620420Y164130D01*
X618570Y161720D01*
X617407Y158913D01*
X617010Y155900D01*
Y148900D01*
X617407Y145887D01*
X618570Y143080D01*
X620420Y140670D01*
X622830Y138820D01*
X625638Y137657D01*
X628650Y137260D01*
X631662Y137657D01*
X633598Y138459D01*
X635103Y136953D01*
X636363Y136111D01*
X637850Y135815D01*
X652368D01*
X653170Y133880D01*
X655020Y131470D01*
X657430Y129620D01*
X660237Y128457D01*
X663250Y128060D01*
X670250D01*
X673263Y128457D01*
X676070Y129620D01*
X678480Y131470D01*
X680330Y133880D01*
X681493Y136687D01*
X681890Y139700D01*
X681493Y142712D01*
X680330Y145520D01*
X678480Y147930D01*
X676070Y149780D01*
X673263Y150943D01*
X670250Y151340D01*
X663250D01*
X660237Y150943D01*
X657430Y149780D01*
X655020Y147930D01*
X653170Y145520D01*
X652368Y143585D01*
X640314D01*
X639465Y144855D01*
X639893Y145887D01*
X640290Y148900D01*
Y155900D01*
X639893Y158913D01*
X638730Y161720D01*
X636880Y164130D01*
X634470Y165980D01*
X631662Y167143D01*
X628650Y167540D01*
D02*
G37*
%LPD*%
D11*
X124257Y520957D02*
G03*
X111707Y533507I-12807J-257D01*
G01*
X241290Y533400D02*
G03*
X241300Y533400I31J2540D01*
G01*
X232274Y533509D02*
G03*
X232100Y533510I-174J-12809D01*
G01*
X-50800Y742950D02*
Y863600D01*
X-83300Y896100D02*
X-50800Y863600D01*
X-83300Y896100D02*
Y910950D01*
X-50800Y742950D02*
X-38100Y730250D01*
X695960Y334010D02*
Y375610D01*
X660400Y298450D02*
X695960Y334010D01*
Y375610D02*
X714050Y393700D01*
X617220Y306070D02*
Y376880D01*
X609600Y298450D02*
X617220Y306070D01*
X600400Y393700D02*
X617220Y376880D01*
X359200Y920750D02*
Y951120D01*
X397410Y989330D01*
X374788Y1186325D02*
X377499Y1189037D01*
X279400Y1270000D02*
X317500Y1231900D01*
X158750Y1270000D02*
X279400D01*
X133350Y1244600D02*
X158750Y1270000D01*
X132879Y511321D02*
X148900Y495300D01*
X21910Y604520D02*
X40695D01*
X124257Y520957D02*
X132135Y512065D01*
X40695Y604520D02*
X111707Y533507D01*
X132135Y512065D02*
X132879Y511321D01*
X6350Y620080D02*
X21910Y604520D01*
X679450Y1205738D02*
X685038Y1211326D01*
X717550Y444500D02*
X721050D01*
X666750D02*
X717550D01*
X23521Y1100429D02*
X29871D01*
X-41703Y1165653D02*
X23521Y1100429D01*
X-76200Y1117600D02*
X-63500D01*
X-88900Y1130300D02*
Y1155700D01*
Y1130300D02*
X-76200Y1117600D01*
X-88900Y1155700D02*
X-78947Y1165653D01*
X-41703D01*
X29871Y1100429D02*
X32128Y1098172D01*
X812800Y371800D02*
X834700Y393700D01*
X800100Y273050D02*
X812800Y285750D01*
Y371800D01*
X637850Y139700D02*
X666750D01*
X628650Y148900D02*
X637850Y139700D01*
X635000Y177800D02*
X647700Y165100D01*
X596900Y177800D02*
X635000D01*
X647700Y165100D02*
X666750D01*
X579228Y160128D02*
X596900Y177800D01*
X570230Y153670D02*
X576688Y160128D01*
X579228D01*
X140534Y203200D02*
X150298D01*
X89734Y152400D02*
X140534Y203200D01*
X64770Y152400D02*
X89734D01*
X64770Y177800D02*
X107950D01*
X150180Y220030D02*
X152400D01*
X107950Y177800D02*
X150180Y220030D01*
X126890Y533510D02*
X232100D01*
X41776Y618624D02*
X126890Y533510D01*
X33206Y618624D02*
X41776D01*
X-83300Y828400D02*
X-63500Y808600D01*
Y742950D02*
X-44450Y723900D01*
X-63500Y742950D02*
Y808600D01*
X-44450Y723900D02*
X215900D01*
X-83300Y743700D02*
X-57150Y717550D01*
X-83300Y743700D02*
Y745850D01*
X-57150Y717550D02*
X215066D01*
X-38100Y730250D02*
X216734D01*
X-15901Y793249D02*
X-10825D01*
X0Y804074D02*
Y855100D01*
X-18300Y790850D02*
X-15901Y793249D01*
X-10825D02*
X0Y804074D01*
X-18300Y873400D02*
X0Y855100D01*
Y903288D02*
Y937650D01*
X-18300Y884988D02*
X0Y903288D01*
X-18300Y873400D02*
Y884988D01*
Y955950D02*
X0Y937650D01*
X-35142Y1108292D02*
Y1114642D01*
Y1108292D02*
X26870Y1046280D01*
Y1037430D02*
Y1046280D01*
X-38100Y1117600D02*
X-35142Y1114642D01*
X26870Y1037430D02*
X35600Y1028700D01*
X6350Y1085850D02*
Y1098550D01*
X31750Y1060450D02*
X85920D01*
X6350Y1085850D02*
X31750Y1060450D01*
X80062Y1028700D02*
X129752Y1078390D01*
X157640D02*
X171450Y1092200D01*
X129752Y1078390D02*
X157640D01*
X171450Y1092200D02*
X190500D01*
X31750Y620080D02*
X33206Y618624D01*
X241300Y533400D02*
X242044Y532656D01*
X232274Y533509D02*
X241290Y533400D01*
X57150Y620080D02*
X124780Y552450D01*
X394616Y500734D02*
X400050Y495300D01*
X124780Y552450D02*
X355600D01*
X143830Y558800D02*
X466290D01*
X82550Y620080D02*
X143830Y558800D01*
X162880Y565150D02*
X590550D01*
X107950Y620080D02*
X162880Y565150D01*
X133350Y620080D02*
X181930Y571500D01*
X591384D01*
X722110Y689176D02*
Y922540D01*
X666750Y977900D02*
X722110Y922540D01*
X425450Y977900D02*
X666750D01*
X410000Y962450D02*
X425450Y977900D01*
X-19050Y565150D02*
Y620080D01*
X-105210Y561540D02*
X-46670Y620080D01*
X-44450D01*
X-105210Y508110D02*
Y561540D01*
X215066Y717550D02*
X247650Y684966D01*
X215900Y723900D02*
X254000Y685800D01*
X216734Y730250D02*
X260350Y686634D01*
Y649368D02*
X273884Y635834D01*
X260350Y649368D02*
Y686634D01*
X101600Y298450D02*
X104166D01*
X199416Y393700D01*
X228600D01*
X749300Y165100D02*
X768350D01*
X736600Y177800D02*
Y220030D01*
Y177800D02*
X749300Y165100D01*
X730250Y139700D02*
X768350D01*
X711200Y158750D02*
X730250Y139700D01*
X711200Y158750D02*
Y220030D01*
X410000Y920750D02*
Y962450D01*
X790172Y862414D02*
X793749Y858837D01*
X722110Y689176D02*
X793749Y617537D01*
X587800Y713950D02*
Y920750D01*
Y713950D02*
X604520Y697230D01*
X705806D01*
X723900Y634166D02*
Y679136D01*
X705806Y697230D02*
X723900Y679136D01*
X703701Y692150D02*
X718300Y677551D01*
X660400Y577850D02*
X718300Y635750D01*
Y677551D01*
X590550Y692150D02*
X703701D01*
X562400Y720300D02*
Y920750D01*
Y720300D02*
X590550Y692150D01*
X728709Y1045591D02*
X731360D01*
X-38100Y1143000D02*
X6350Y1098550D01*
X781050Y1085120D02*
X785083D01*
X776335Y1085850D02*
X781050D01*
X731360Y1045591D02*
X736076D01*
X779463Y1258887D02*
X781050Y1257300D01*
X492560Y364690D02*
X558800Y298450D01*
X492560Y364690D02*
Y380890D01*
X641350Y469900D02*
X666750Y444500D01*
X638610Y469900D02*
X641350D01*
X736600Y342900D02*
Y428950D01*
Y342900D02*
X762000Y317500D01*
Y298450D02*
Y317500D01*
X721050Y444500D02*
X736600Y428950D01*
Y273050D02*
X800100D01*
X711200Y298450D02*
X736600Y273050D01*
X383740Y510122D02*
X398562Y495300D01*
X400050D01*
X383740Y510122D02*
Y524310D01*
X355600Y552450D02*
X383740Y524310D01*
X622300Y510850D02*
Y533400D01*
X590550Y565150D02*
X622300Y533400D01*
X591384Y571500D02*
X604084Y558800D01*
X717550D01*
X742950Y510850D02*
Y533400D01*
X717550Y558800D02*
X742950Y533400D01*
X698500Y577850D02*
Y608766D01*
X320350Y469900D02*
X345750Y444500D01*
X349250D01*
X273050Y469900D02*
X320350D01*
X256740Y456330D02*
Y457090D01*
X244910Y444500D02*
X256740Y456330D01*
Y457090D02*
X269550Y469900D01*
X125420Y133350D02*
X154940Y162870D01*
X-31750Y177800D02*
X12700Y133350D01*
X125420D01*
X-36830Y177800D02*
X-31750D01*
X154940Y162870D02*
Y166370D01*
X6350Y127000D02*
X149340D01*
X-36830Y152400D02*
X-19050D01*
X6350Y127000D01*
X149340D02*
X185210Y162870D01*
Y166370D01*
X698500Y608766D02*
X723900Y634166D01*
X628650Y148900D02*
Y152400D01*
X466290Y558800D02*
X504390Y520700D01*
Y508110D02*
Y520700D01*
X742950Y510850D02*
X758500Y495300D01*
X762000D01*
X349250Y444500D02*
X371150D01*
X269550Y469900D02*
X273050D01*
X104523Y1123950D02*
X118333Y1137760D01*
X188000Y1123950D02*
X190500D01*
X38100D02*
X104523D01*
X118333Y1137760D02*
X174190D01*
X188000Y1123950D01*
X35600Y1028700D02*
X38100D01*
X32128Y1098172D02*
Y1104522D01*
X13970Y1122680D02*
Y1226383D01*
X32128Y1098172D02*
X38100Y1092200D01*
X13970Y1122680D02*
X32128Y1104522D01*
X32187Y1244600D02*
X82550D01*
X13970Y1226383D02*
X32187Y1244600D01*
X-63500Y1066800D02*
X-38100D01*
X380999Y1189037D02*
X384499D01*
X377499D02*
X380999D01*
X533400Y1028700D02*
X534035Y1028065D01*
X591185D02*
X591820Y1027430D01*
X529900Y1028700D02*
X533400D01*
X367175Y1186325D02*
X374788D01*
X38100Y1123950D02*
Y1136650D01*
X95250Y1193800D01*
X198720Y1106010D02*
X206810Y1097920D01*
Y1074260D02*
Y1097920D01*
X131480Y1106010D02*
X198720D01*
X38100Y1028700D02*
X80062D01*
X190500Y1060450D02*
X193000D01*
X206810Y1074260D01*
X85920Y1060450D02*
X131480Y1106010D01*
X35600Y996950D02*
X38100D01*
X466724Y1157922D02*
X469899Y1161097D01*
X463549Y1106487D02*
X466724Y1109662D01*
X361950Y1073150D02*
X365450D01*
X463550Y1035050D02*
X466050D01*
X546100Y1261150D02*
Y1263650D01*
Y1266150D01*
X670814Y1258062D02*
X679450D01*
X785083Y1085120D02*
X787399Y1087437D01*
X709610Y989871D02*
X713515D01*
X700880Y998601D02*
X709610Y989871D01*
X190500Y996950D02*
Y1023936D01*
Y996950D02*
X190500Y996950D01*
X190499Y1023937D02*
X190500Y1023936D01*
X146000Y955950D02*
X187000Y996950D01*
X-18300Y955950D02*
X146000D01*
X187000Y996950D02*
X190500D01*
X480684Y635834D02*
X511600Y666750D01*
X273884Y635834D02*
X480684D01*
X254000Y648534D02*
X273884Y628650D01*
X247650Y647700D02*
Y684966D01*
X517950Y622300D02*
X562400Y666750D01*
X247650Y647700D02*
X273050Y622300D01*
X517950D01*
X498900Y628650D02*
X537000Y666750D01*
X273884Y628650D02*
X498900D01*
X254000Y648534D02*
Y685800D01*
X479750Y393700D02*
X492560Y380890D01*
X476250Y393700D02*
X479750D01*
X596900D02*
X600400D01*
X714050D02*
X717550D01*
X721050Y444500D02*
X733860D01*
X834700Y393700D02*
X838200D01*
X472750Y444500D02*
X476250D01*
X450850Y266700D02*
Y422600D01*
X472750Y444500D01*
X150298Y203200D02*
X167128Y220030D01*
X177800D01*
X50800Y340050D02*
X104450Y393700D01*
X50800Y298450D02*
Y340050D01*
X104450Y393700D02*
X107950D01*
X-29010Y327460D02*
Y380890D01*
X-16200Y393700D02*
X-12700D01*
X-29010Y327460D02*
X0Y298450D01*
X-29010Y380890D02*
X-16200Y393700D01*
X762000Y469900D02*
X809300D01*
X834700Y444500D01*
X838200D01*
X733860D02*
X759260Y469900D01*
X762000D01*
X596900Y444500D02*
X613210D01*
X638610Y469900D01*
X568000D02*
X593400Y444500D01*
X596900D01*
X520700Y469900D02*
X568000D01*
X517960D02*
X520700D01*
X476250Y444500D02*
X492560D01*
X517960Y469900D01*
X400050D02*
X447350D01*
X472750Y444500D01*
X371150D02*
X396550Y469900D01*
X400050D01*
X228600Y444500D02*
X244910D01*
X199700Y469900D02*
X225100Y444500D01*
X152400Y469900D02*
X199700D01*
X225100Y444500D02*
X228600D01*
X124260D02*
X149660Y469900D01*
X152400D01*
X107950Y444500D02*
X124260D01*
X35250Y469900D02*
X60650Y444500D01*
X107950D01*
X31750Y469900D02*
X35250D01*
X29010D02*
X31750D01*
X-12700Y444500D02*
X3610D01*
X29010Y469900D01*
X-16200Y444500D02*
X-12700D01*
X-88900Y469900D02*
X-41600D01*
X-16200Y444500D01*
X-88900Y279400D02*
X6350D01*
X25400Y298450D01*
X-105210Y295710D02*
X-88900Y279400D01*
X-105210Y295710D02*
Y482490D01*
X-92400Y495300D01*
X-88900D01*
X622300Y510850D02*
X637850Y495300D01*
X641350D01*
X517200D02*
X520700D01*
X504390Y508110D02*
X517200Y495300D01*
X254000Y510850D02*
Y520700D01*
X242044Y532656D02*
X254000Y520700D01*
X148900Y495300D02*
X152400D01*
X269550D02*
X273050D01*
X254000Y510850D02*
X269550Y495300D01*
X12700Y510850D02*
X28250Y495300D01*
X31750D01*
X12700Y510850D02*
Y533400D01*
X-19050Y565150D02*
X12700Y533400D01*
X-105210Y508110D02*
X-92400Y495300D01*
D16*
X679450Y1143762D02*
D03*
Y1091438D02*
D03*
Y1258062D02*
D03*
Y1205738D02*
D03*
D40*
X762000Y220030D02*
D03*
X736600D02*
D03*
X711200D02*
D03*
X685800D02*
D03*
X660400D02*
D03*
X635000D02*
D03*
X609600D02*
D03*
X584200D02*
D03*
X558800D02*
D03*
X533400D02*
D03*
Y298450D02*
D03*
X558800D02*
D03*
X584200D02*
D03*
X609600D02*
D03*
X635000D02*
D03*
X660400D02*
D03*
X685800D02*
D03*
X711200D02*
D03*
X736600D02*
D03*
X158750Y620080D02*
D03*
X133350D02*
D03*
X107950D02*
D03*
X82550D02*
D03*
X57150D02*
D03*
X31750D02*
D03*
X6350D02*
D03*
X-19050D02*
D03*
X-44450D02*
D03*
X-69850D02*
D03*
Y698500D02*
D03*
X-44450D02*
D03*
X-19050D02*
D03*
X6350D02*
D03*
X31750D02*
D03*
X57150D02*
D03*
X82550D02*
D03*
X107950D02*
D03*
X133350D02*
D03*
X203200Y220030D02*
D03*
X177800D02*
D03*
X152400D02*
D03*
X127000D02*
D03*
X101600D02*
D03*
X76200D02*
D03*
X50800D02*
D03*
X25400D02*
D03*
X0D02*
D03*
X-25400D02*
D03*
Y298450D02*
D03*
X0D02*
D03*
X25400D02*
D03*
X50800D02*
D03*
X76200D02*
D03*
X101600D02*
D03*
X127000D02*
D03*
X152400D02*
D03*
X177800D02*
D03*
D41*
X762000D02*
D03*
X158750Y698500D02*
D03*
X203200Y298450D02*
D03*
D43*
X779663Y1145540D02*
X779880Y1145756D01*
X571500Y1149350D02*
X596900Y1174750D01*
Y1214120D02*
Y1263650D01*
Y1174750D02*
Y1214120D01*
X781050Y1147127D02*
Y1206500D01*
X679450Y983027D02*
X746760Y915717D01*
X798829Y858837D02*
Y860956D01*
X746760Y913025D02*
Y915717D01*
Y913025D02*
X798829Y860956D01*
X679450Y983027D02*
Y1091438D01*
X374788Y1186325D02*
X377499Y1189037D01*
X296552Y996950D02*
X336550Y1036947D01*
Y1148087D02*
X374788Y1186325D01*
X311600Y1010920D02*
X512120D01*
X295600Y996950D02*
X295790D01*
X336550Y1036947D02*
Y1148087D01*
X292100Y996950D02*
X295600D01*
X512120Y1010920D02*
X529900Y1028700D01*
X380999Y1088699D02*
Y1161097D01*
X365450Y1073150D02*
X380999Y1088699D01*
X798829Y668337D02*
Y738187D01*
X709091Y1205738D02*
X762240Y1258887D01*
X679450Y1205738D02*
X709091D01*
X514350Y1149350D02*
X571500D01*
X495300Y1130300D02*
X514350Y1149350D01*
X495300Y1064300D02*
Y1130300D01*
X546100Y1266150D02*
X569000Y1289050D01*
X639826D02*
X670814Y1258062D01*
X569000Y1289050D02*
X639826D01*
X790172Y862414D02*
X790347Y862589D01*
X171450Y1193800D02*
X196850Y1168400D01*
X349250D02*
X367175Y1186325D01*
X196850Y1168400D02*
X349250D01*
X466050Y1035050D02*
X495300Y1064300D01*
X736076Y1045591D02*
X776335Y1085850D01*
X762240Y1258887D02*
X779463D01*
X412749Y1217287D02*
Y1265237D01*
X534035Y1028065D02*
X591185D01*
X384499Y1189037D02*
X412749Y1217287D01*
X466724Y1109662D02*
Y1157922D01*
X533400Y1200150D02*
Y1248450D01*
X713515Y989871D02*
X793749Y909637D01*
D44*
X295600Y996950D02*
X308400Y984150D01*
Y920750D02*
Y984150D01*
D45*
X533400Y1248450D02*
X546100Y1261150D01*
D46*
X596900Y1263650D02*
D03*
X571500D02*
D03*
X412749Y1265237D02*
D03*
X387349D02*
D03*
D47*
X546100Y1263650D02*
D03*
X361949Y1265237D02*
D03*
D48*
X781050Y1257300D02*
D03*
X787399Y1087437D02*
D03*
X798829Y788987D02*
D03*
Y858837D02*
D03*
Y668337D02*
D03*
D49*
X781050Y1206500D02*
D03*
X787399Y1138237D02*
D03*
X798829Y738187D02*
D03*
Y909637D02*
D03*
Y617537D02*
D03*
D50*
X-18300Y745850D02*
D03*
Y910950D02*
D03*
Y828400D02*
D03*
D51*
X-83300Y745850D02*
D03*
X-18300Y790850D02*
D03*
X-83300D02*
D03*
Y910950D02*
D03*
X-18300Y955950D02*
D03*
X-83300D02*
D03*
Y828400D02*
D03*
X-18300Y873400D02*
D03*
X-83300D02*
D03*
D52*
X-36830Y177800D02*
D03*
X64770D02*
D03*
X-88900Y495300D02*
D03*
Y469900D02*
D03*
Y444500D02*
D03*
Y419100D02*
D03*
Y393700D02*
D03*
Y368300D02*
D03*
X-12700Y520700D02*
D03*
Y495300D02*
D03*
Y469900D02*
D03*
Y444500D02*
D03*
Y419100D02*
D03*
Y393700D02*
D03*
Y368300D02*
D03*
X463550Y1073150D02*
D03*
X361950D02*
D03*
X361949Y1106487D02*
D03*
X463549D02*
D03*
X292100Y996950D02*
D03*
X190500D02*
D03*
X190499Y1023937D02*
D03*
X292099D02*
D03*
X762000Y495300D02*
D03*
Y469900D02*
D03*
Y444500D02*
D03*
Y419100D02*
D03*
Y393700D02*
D03*
Y368300D02*
D03*
X838200Y520700D02*
D03*
Y495300D02*
D03*
Y469900D02*
D03*
Y444500D02*
D03*
Y419100D02*
D03*
Y393700D02*
D03*
Y368300D02*
D03*
X641350Y495300D02*
D03*
Y469900D02*
D03*
Y444500D02*
D03*
Y419100D02*
D03*
Y393700D02*
D03*
Y368300D02*
D03*
X717550Y520700D02*
D03*
Y495300D02*
D03*
Y469900D02*
D03*
Y444500D02*
D03*
Y419100D02*
D03*
Y393700D02*
D03*
Y368300D02*
D03*
X520700Y495300D02*
D03*
Y469900D02*
D03*
Y444500D02*
D03*
Y419100D02*
D03*
Y393700D02*
D03*
Y368300D02*
D03*
X596900Y520700D02*
D03*
Y495300D02*
D03*
Y469900D02*
D03*
Y444500D02*
D03*
Y419100D02*
D03*
Y393700D02*
D03*
Y368300D02*
D03*
X400050Y495300D02*
D03*
Y469900D02*
D03*
Y444500D02*
D03*
Y419100D02*
D03*
Y393700D02*
D03*
Y368300D02*
D03*
X476250Y520700D02*
D03*
Y495300D02*
D03*
Y469900D02*
D03*
Y444500D02*
D03*
Y419100D02*
D03*
Y393700D02*
D03*
Y368300D02*
D03*
X273050Y495300D02*
D03*
Y469900D02*
D03*
Y444500D02*
D03*
Y419100D02*
D03*
Y393700D02*
D03*
Y368300D02*
D03*
X349250Y520700D02*
D03*
Y495300D02*
D03*
Y469900D02*
D03*
Y444500D02*
D03*
Y419100D02*
D03*
Y393700D02*
D03*
Y368300D02*
D03*
X152400Y495300D02*
D03*
Y469900D02*
D03*
Y444500D02*
D03*
Y419100D02*
D03*
Y393700D02*
D03*
Y368300D02*
D03*
X228600Y520700D02*
D03*
Y495300D02*
D03*
Y469900D02*
D03*
Y444500D02*
D03*
Y419100D02*
D03*
Y393700D02*
D03*
Y368300D02*
D03*
X31750Y495300D02*
D03*
Y469900D02*
D03*
Y444500D02*
D03*
Y419100D02*
D03*
Y393700D02*
D03*
Y368300D02*
D03*
X107950Y520700D02*
D03*
Y495300D02*
D03*
Y469900D02*
D03*
Y444500D02*
D03*
Y419100D02*
D03*
Y393700D02*
D03*
Y368300D02*
D03*
X666750Y165100D02*
D03*
X768350D02*
D03*
X666750Y139700D02*
D03*
X768350D02*
D03*
X-36830Y152400D02*
D03*
X64770D02*
D03*
D53*
X247650Y1193800D02*
D03*
X234950Y1244600D02*
D03*
X222250Y1193800D02*
D03*
X209550Y1244600D02*
D03*
X196850Y1193800D02*
D03*
X184150Y1244600D02*
D03*
X171450Y1193800D02*
D03*
X158750Y1244600D02*
D03*
X146050Y1193800D02*
D03*
X133350Y1244600D02*
D03*
X120650Y1193800D02*
D03*
X107950Y1244600D02*
D03*
X95250Y1193800D02*
D03*
X82550Y1244600D02*
D03*
D54*
X69850Y1193800D02*
D03*
D55*
X280670Y1216914D02*
D03*
X36830D02*
D03*
D56*
X228800Y916050D02*
D03*
X698300Y670950D02*
D03*
Y916050D02*
D03*
X228800Y670950D02*
D03*
X838200Y133350D02*
D03*
X-95250Y1301750D02*
D03*
X838200D02*
D03*
X-95250Y133350D02*
D03*
D57*
X308400Y666750D02*
D03*
D58*
X333800D02*
D03*
X359200D02*
D03*
X384600D02*
D03*
X410000D02*
D03*
X435400D02*
D03*
X460800D02*
D03*
X486200D02*
D03*
X511600D02*
D03*
X537000D02*
D03*
X562400D02*
D03*
X587800D02*
D03*
X613200D02*
D03*
X638600D02*
D03*
X664000D02*
D03*
X308400Y920750D02*
D03*
X333800D02*
D03*
X359200D02*
D03*
X384600D02*
D03*
X410000D02*
D03*
X435400D02*
D03*
X460800D02*
D03*
X486200D02*
D03*
X511600D02*
D03*
X537000D02*
D03*
X562400D02*
D03*
X587800D02*
D03*
X613200D02*
D03*
X638600D02*
D03*
X664000D02*
D03*
X761840Y998601D02*
D03*
X731360Y1045591D02*
D03*
D59*
X469899Y1161097D02*
D03*
Y1189037D02*
D03*
X533400Y1098550D02*
D03*
Y1123950D02*
D03*
Y1054100D02*
D03*
Y1028700D02*
D03*
Y1174750D02*
D03*
Y1200150D02*
D03*
X591820Y1097490D02*
D03*
Y1122890D02*
D03*
Y1052830D02*
D03*
Y1027430D02*
D03*
X380999Y1161097D02*
D03*
Y1189037D02*
D03*
D60*
X700880Y998601D02*
D03*
D61*
X-38100Y1016000D02*
D03*
X-63500D02*
D03*
X-38100Y1041400D02*
D03*
X-63500D02*
D03*
X-38100Y1066800D02*
D03*
X-63500D02*
D03*
X-38100Y1092200D02*
D03*
X-63500D02*
D03*
X-38100Y1117600D02*
D03*
X-63500D02*
D03*
X-38100Y1143000D02*
D03*
X-38101Y1227137D02*
D03*
X-63501Y1201737D02*
D03*
X-38101D02*
D03*
D62*
X-63500Y1143000D02*
D03*
X-63501Y1227137D02*
D03*
D63*
X463550Y1035050D02*
D03*
X38100Y996950D02*
D03*
Y1123950D02*
D03*
X139700Y1092200D02*
D03*
X292100Y1123950D02*
D03*
X190500Y1092200D02*
D03*
X38100Y1060450D02*
D03*
X139700Y1028700D02*
D03*
X292100Y1060450D02*
D03*
D64*
X361950Y1035050D02*
D03*
X139700Y996950D02*
D03*
Y1123950D02*
D03*
X38100Y1092200D02*
D03*
X190500Y1123950D02*
D03*
X292100Y1092200D02*
D03*
X139700Y1060450D02*
D03*
X38100Y1028700D02*
D03*
X190500Y1060450D02*
D03*
D65*
X-88900Y520700D02*
D03*
X762000D02*
D03*
X641350D02*
D03*
X520700D02*
D03*
X400050D02*
D03*
X273050D02*
D03*
X152400D02*
D03*
X31750D02*
D03*
D66*
X129540Y166370D02*
D03*
X154940D02*
D03*
X544830Y153670D02*
D03*
X570230D02*
D03*
X603250Y152400D02*
D03*
X628650D02*
D03*
X210611Y166370D02*
D03*
X185210D02*
D03*
D67*
X298450Y266700D02*
D03*
X450850D02*
D03*
Y190500D02*
D03*
D68*
X298450D02*
D03*
D69*
X637540Y947420D02*
D03*
X612140D02*
D03*
X589280D02*
D03*
X596900Y1214120D02*
D03*
X561340Y947420D02*
D03*
X10160Y995680D02*
D03*
X-7620Y982980D02*
D03*
X-91819Y986026D02*
D03*
X746760Y914400D02*
D03*
X-107950Y996950D02*
D03*
X397410Y989330D02*
D03*
X692150Y431800D02*
D03*
X698500Y577850D02*
D03*
X660400D02*
D03*
X317500Y1231900D02*
D03*
M02*
