G04*
G04 #@! TF.GenerationSoftware,Altium Limited,Altium Designer,24.0.1 (36)*
G04*
G04 Layer_Color=65535*
%FSLAX44Y44*%
%MOMM*%
G71*
G04*
G04 #@! TF.SameCoordinates,F5D6D73F-2C16-40EA-88EE-8A7EB2D9318C*
G04*
G04*
G04 #@! TF.FilePolarity,Positive*
G04*
G01*
G75*
%ADD10C,0.2000*%
%ADD11C,0.2540*%
%ADD12C,0.1270*%
%ADD13C,0.1524*%
%ADD14C,0.0762*%
%ADD15R,0.8000X2.8000*%
G36*
X55457Y907203D02*
X56092D01*
Y906992D01*
X56515D01*
Y906780D01*
X56727D01*
Y906568D01*
X57150D01*
Y906357D01*
X57362D01*
Y906145D01*
X57573D01*
Y905933D01*
X57785D01*
Y905510D01*
X57997D01*
Y905298D01*
X58208D01*
Y904875D01*
X58420D01*
Y904452D01*
X58632D01*
Y904028D01*
X58843D01*
Y903393D01*
X59055D01*
Y902547D01*
X59267D01*
Y900853D01*
X59055D01*
Y900007D01*
X58843D01*
Y899372D01*
X58632D01*
Y899160D01*
X57997D01*
Y899372D01*
X57785D01*
Y899795D01*
X57573D01*
Y900007D01*
X57362D01*
Y900430D01*
X57150D01*
Y900853D01*
X56938D01*
Y901277D01*
X56727D01*
Y901488D01*
X56515D01*
Y901700D01*
X56303D01*
Y902123D01*
X56092D01*
Y902335D01*
X55668D01*
Y902547D01*
X55245D01*
Y902758D01*
X54822D01*
Y901700D01*
X55033D01*
Y900007D01*
X55245D01*
Y898948D01*
X55033D01*
Y897467D01*
X55245D01*
Y897043D01*
X55457D01*
Y896832D01*
X55668D01*
Y896408D01*
X55880D01*
Y895773D01*
X56092D01*
Y894927D01*
X56303D01*
Y892387D01*
X56092D01*
Y891328D01*
X55880D01*
Y890905D01*
X55668D01*
Y890270D01*
X55457D01*
Y890058D01*
X55245D01*
Y889635D01*
X55033D01*
Y889423D01*
X54822D01*
Y889212D01*
X54610D01*
Y888788D01*
X54398D01*
Y888577D01*
X54187D01*
Y888365D01*
X53763D01*
Y888153D01*
X53340D01*
Y888365D01*
X53128D01*
Y889423D01*
X52917D01*
Y891752D01*
X52705D01*
Y892175D01*
X52493D01*
Y891963D01*
X52282D01*
Y891752D01*
X52070D01*
Y891540D01*
X51858D01*
Y891328D01*
X51647D01*
Y891117D01*
X51223D01*
Y890905D01*
X51012D01*
Y890693D01*
X50588D01*
Y890482D01*
X50165D01*
Y890270D01*
X49742D01*
Y890058D01*
X48895D01*
Y889847D01*
X46778D01*
Y890058D01*
X45932D01*
Y890270D01*
X45508D01*
Y890482D01*
X45085D01*
Y890693D01*
X44662D01*
Y890905D01*
X44450D01*
Y891117D01*
X44027D01*
Y891328D01*
X43815D01*
Y891540D01*
X43603D01*
Y891752D01*
X43392D01*
Y891963D01*
X43180D01*
Y892175D01*
X42968D01*
Y891752D01*
X42757D01*
Y889423D01*
X42545D01*
Y888365D01*
X42333D01*
Y888153D01*
X41910D01*
Y888365D01*
X41487D01*
Y888577D01*
X41275D01*
Y888788D01*
X41063D01*
Y889212D01*
X40852D01*
Y889423D01*
X40640D01*
Y889635D01*
X40428D01*
Y890058D01*
X40217D01*
Y890270D01*
X40005D01*
Y890905D01*
X39793D01*
Y891328D01*
X39582D01*
Y892387D01*
X39370D01*
Y894927D01*
X39582D01*
Y895773D01*
X39793D01*
Y896408D01*
X40005D01*
Y896832D01*
X40217D01*
Y897043D01*
X40428D01*
Y897467D01*
X40640D01*
Y898948D01*
X40428D01*
Y900007D01*
X40640D01*
Y901700D01*
X40852D01*
Y902758D01*
X40428D01*
Y902547D01*
X40005D01*
Y902335D01*
X39582D01*
Y902123D01*
X39370D01*
Y901700D01*
X39158D01*
Y901488D01*
X38947D01*
Y901277D01*
X38735D01*
Y900853D01*
X38523D01*
Y900430D01*
X38312D01*
Y900007D01*
X38100D01*
Y899795D01*
X37888D01*
Y899372D01*
X37677D01*
Y899160D01*
X37042D01*
Y899372D01*
X36830D01*
Y900007D01*
X36618D01*
Y900853D01*
X36407D01*
Y902547D01*
X36618D01*
Y903393D01*
X36830D01*
Y904028D01*
X37042D01*
Y904452D01*
X37253D01*
Y904875D01*
X37465D01*
Y905298D01*
X37677D01*
Y905510D01*
X37888D01*
Y905933D01*
X38100D01*
Y906145D01*
X38312D01*
Y906357D01*
X38523D01*
Y906568D01*
X38947D01*
Y906780D01*
X39158D01*
Y906992D01*
X39582D01*
Y907203D01*
X41275D01*
Y906992D01*
X41487D01*
Y906780D01*
X42122D01*
Y906568D01*
X43180D01*
Y906780D01*
X43392D01*
Y906992D01*
X43603D01*
Y907203D01*
X44027D01*
Y907415D01*
X44238D01*
Y907627D01*
X44450D01*
Y907838D01*
X44662D01*
Y908050D01*
X44873D01*
Y909108D01*
X44662D01*
Y910167D01*
X44873D01*
Y911013D01*
X45085D01*
Y911437D01*
X45297D01*
Y911648D01*
X45508D01*
Y912072D01*
X45720D01*
Y912283D01*
X45932D01*
Y912495D01*
X46143D01*
Y912707D01*
X46355D01*
Y912918D01*
X46567D01*
Y913130D01*
X46778D01*
Y913342D01*
X47202D01*
Y913553D01*
X48472D01*
Y913342D01*
X48895D01*
Y913130D01*
X49107D01*
Y912918D01*
X49318D01*
Y912707D01*
X49530D01*
Y912495D01*
X49742D01*
Y912283D01*
X49953D01*
Y912072D01*
X50165D01*
Y911648D01*
X50377D01*
Y911437D01*
X50588D01*
Y911013D01*
X50800D01*
Y910167D01*
X51012D01*
Y909108D01*
X50800D01*
Y908050D01*
X51012D01*
Y907838D01*
X51223D01*
Y907627D01*
X51435D01*
Y907415D01*
X51647D01*
Y907203D01*
X52070D01*
Y906992D01*
X52282D01*
Y906780D01*
X52493D01*
Y906568D01*
X53552D01*
Y906780D01*
X54187D01*
Y906992D01*
X54398D01*
Y907203D01*
X55245D01*
X55457D01*
D02*
G37*
D10*
X-17300Y728310D02*
G03*
X-17300Y728310I-1000J0D01*
G01*
X309400Y645250D02*
G03*
X309400Y645250I-1000J0D01*
G01*
X-57150Y545500D02*
G03*
X-44450Y545500I6350J0D01*
G01*
X-17300Y893410D02*
G03*
X-17300Y893410I-1000J0D01*
G01*
Y810860D02*
G03*
X-17300Y810860I-1000J0D01*
G01*
X793750Y545500D02*
G03*
X806450Y545500I6350J0D01*
G01*
X673100D02*
G03*
X685800Y545500I6350J0D01*
G01*
X552450D02*
G03*
X565150Y545500I6350J0D01*
G01*
X431800D02*
G03*
X444500Y545500I6350J0D01*
G01*
X304800D02*
G03*
X317500Y545500I6350J0D01*
G01*
X184150D02*
G03*
X196850Y545500I6350J0D01*
G01*
X63500D02*
G03*
X76200Y545500I6350J0D01*
G01*
X519500Y1287650D02*
X623500D01*
X519500Y1246505D02*
Y1292650D01*
Y1246505D02*
X623500D01*
Y1292650D01*
X519500D02*
X623500D01*
X-16510Y167640D02*
Y187960D01*
X44450D01*
Y167640D02*
Y187960D01*
X-16510Y167640D02*
X44450D01*
X-19685Y177800D02*
X-16510D01*
X44450D02*
X47625D01*
X694530Y956141D02*
X838040D01*
Y1046141D01*
X694530Y1023141D02*
Y1046141D01*
X716120D01*
X747870D02*
X838040D01*
X694530Y956141D02*
Y980821D01*
X-77089Y1002030D02*
Y1156589D01*
Y1002030D02*
X-24511D01*
Y1156589D01*
X-77089D02*
X-24511D01*
X-77090Y1188148D02*
Y1240726D01*
Y1188148D02*
X-24512D01*
X-77090Y1240726D02*
X-24512D01*
Y1188148D02*
Y1240726D01*
X439250Y1021050D02*
Y1049050D01*
X386250Y1021050D02*
X439250D01*
X386250Y1049050D02*
X439250D01*
X-71628Y545500D02*
X-57150D01*
X-44450D02*
X-29972D01*
X-71628Y343500D02*
X-29972D01*
X-71628D02*
Y545500D01*
X-29972Y343500D02*
Y545500D01*
X115570Y184150D02*
X168910D01*
X115570Y148590D02*
X168910D01*
Y184150D01*
X115570Y148590D02*
Y184150D01*
X280670Y284480D02*
X468630D01*
Y172720D02*
Y284480D01*
X280670Y172720D02*
X468630D01*
X280670D02*
Y284480D01*
X335349Y1289237D02*
X439349D01*
X335349Y1248092D02*
Y1294237D01*
Y1248092D02*
X439349D01*
Y1294237D01*
X335349D02*
X439349D01*
X515620Y1084580D02*
Y1137920D01*
X551180Y1084580D02*
Y1137920D01*
X515620D02*
X551180D01*
X515620Y1084580D02*
X551180D01*
Y1014730D02*
Y1068070D01*
X515620Y1014730D02*
Y1068070D01*
Y1014730D02*
X551180D01*
X515620Y1068070D02*
X551180D01*
X515620Y1160780D02*
Y1214120D01*
X551180Y1160780D02*
Y1214120D01*
X515620D02*
X551180D01*
X515620Y1160780D02*
X551180D01*
X574040Y1083520D02*
Y1136860D01*
X609600Y1083520D02*
Y1136860D01*
X574040D02*
X609600D01*
X574040Y1083520D02*
X609600D01*
Y1013460D02*
Y1066800D01*
X574040Y1013460D02*
Y1066800D01*
Y1013460D02*
X609600D01*
X574040Y1066800D02*
X609600D01*
X62400Y982950D02*
Y1010950D01*
X115400D01*
X62400Y982950D02*
X115400D01*
X62400Y1109950D02*
Y1137950D01*
X115400D01*
X62400Y1109950D02*
X115400D01*
Y1078200D02*
Y1106200D01*
X62400Y1078200D02*
X115400D01*
X62400Y1106200D02*
X115400D01*
X267800Y1109950D02*
Y1137950D01*
X214800Y1109950D02*
X267800D01*
X214800Y1137950D02*
X267800D01*
X214800Y1078200D02*
Y1106200D01*
X267800D01*
X214800Y1078200D02*
X267800D01*
X62400Y1046450D02*
Y1074450D01*
X115400D01*
X62400Y1046450D02*
X115400D01*
Y1014700D02*
Y1042700D01*
X62400Y1014700D02*
X115400D01*
X62400Y1042700D02*
X115400D01*
X267800Y1046450D02*
Y1074450D01*
X214800Y1046450D02*
X267800D01*
X214800Y1074450D02*
X267800D01*
X443230Y1062990D02*
Y1083310D01*
X382270Y1062990D02*
X443230D01*
X382270D02*
Y1083310D01*
X443230D01*
Y1073150D02*
X446405D01*
X379095D02*
X382270D01*
X382269Y1096327D02*
Y1116647D01*
X443229D01*
Y1096327D02*
Y1116647D01*
X382269Y1096327D02*
X443229D01*
X379094Y1106487D02*
X382269D01*
X443229D02*
X446404D01*
X271780Y996950D02*
X274955D01*
X207645D02*
X210820D01*
Y986790D02*
X271780D01*
Y1007110D01*
X210820D02*
X271780D01*
X210820Y986790D02*
Y1007110D01*
X207644Y1023937D02*
X210819D01*
X271779D02*
X274954D01*
X210819Y1034097D02*
X271779D01*
X210819Y1013777D02*
Y1034097D01*
Y1013777D02*
X271779D01*
Y1034097D01*
X779272Y545500D02*
X793750D01*
X806450D02*
X820928D01*
X779272Y343500D02*
X820928D01*
X779272D02*
Y545500D01*
X820928Y343500D02*
Y545500D01*
X658622D02*
X673100D01*
X685800D02*
X700278D01*
X658622Y343500D02*
X700278D01*
X658622D02*
Y545500D01*
X700278Y343500D02*
Y545500D01*
X537972D02*
X552450D01*
X565150D02*
X579628D01*
X537972Y343500D02*
X579628D01*
X537972D02*
Y545500D01*
X579628Y343500D02*
Y545500D01*
X530860Y171450D02*
X584200D01*
X530860Y135890D02*
X584200D01*
Y171450D01*
X530860Y135890D02*
Y171450D01*
X589280Y170180D02*
X642620D01*
X589280Y134620D02*
X642620D01*
Y170180D01*
X589280Y134620D02*
Y170180D01*
X171240Y148590D02*
X224580D01*
X171240Y184150D02*
X224580D01*
X171240Y148590D02*
Y184150D01*
X224580Y148590D02*
Y184150D01*
X417322Y545500D02*
X431800D01*
X444500D02*
X458978D01*
X417322Y343500D02*
X458978D01*
X417322D02*
Y545500D01*
X458978Y343500D02*
Y545500D01*
X290322D02*
X304800D01*
X317500D02*
X331978D01*
X290322Y343500D02*
X331978D01*
X290322D02*
Y545500D01*
X331978Y343500D02*
Y545500D01*
X169672D02*
X184150D01*
X196850D02*
X211328D01*
X169672Y343500D02*
X211328D01*
X169672D02*
Y545500D01*
X211328Y343500D02*
Y545500D01*
X49022D02*
X63500D01*
X76200D02*
X90678D01*
X49022Y343500D02*
X90678D01*
X49022D02*
Y545500D01*
X90678Y343500D02*
Y545500D01*
X687070Y154940D02*
Y175260D01*
X748030D01*
Y154940D02*
Y175260D01*
X687070Y154940D02*
X748030D01*
X683895Y165100D02*
X687070D01*
X748030D02*
X751205D01*
X687070Y129540D02*
Y149860D01*
X748030D01*
Y129540D02*
Y149860D01*
X687070Y129540D02*
X748030D01*
X683895Y139700D02*
X687070D01*
X748030D02*
X751205D01*
X-16510Y142240D02*
Y162560D01*
X44450D01*
Y142240D02*
Y162560D01*
X-16510Y142240D02*
X44450D01*
X-19685Y152400D02*
X-16510D01*
X44450D02*
X47625D01*
D11*
X481922Y1149284D02*
G03*
X457877Y1149284I-12023J25783D01*
G01*
X393022D02*
G03*
X368977Y1149284I-12023J25783D01*
G01*
X740410Y1287780D02*
X821690D01*
X740410Y1176020D02*
X821690D01*
Y1287780D01*
X740410Y1176020D02*
Y1287780D01*
X262255Y1242187D02*
Y1275334D01*
X55245D02*
X262255D01*
Y1288542D01*
X55245Y1242187D02*
Y1275334D01*
Y1288542D01*
X262255D01*
X31750Y1298194D02*
X285750D01*
X193040Y1171194D02*
X285750D01*
X31750D02*
X124460D01*
X31750Y1242314D02*
Y1298194D01*
X285750Y1242314D02*
Y1298194D01*
X31750Y1171194D02*
Y1183894D01*
X285750Y1171194D02*
Y1183894D01*
X828039Y1056957D02*
Y1168717D01*
X746759Y1056957D02*
Y1168717D01*
X828039D01*
X746759Y1056957D02*
X828039D01*
X758189Y707707D02*
Y819467D01*
X839469Y707707D02*
Y819467D01*
X758189Y707707D02*
X839469D01*
X758189Y819467D02*
X839469D01*
Y828357D02*
Y940117D01*
X758189Y828357D02*
Y940117D01*
X839469D01*
X758189Y828357D02*
X839469D01*
X758189Y587057D02*
Y698817D01*
X839469Y587057D02*
Y698817D01*
X758189Y587057D02*
X839469D01*
X758189Y698817D02*
X839469D01*
X50797Y845814D02*
X48257Y848353D01*
X43179D01*
X40640Y845814D01*
Y835658D01*
X43179Y833118D01*
X48257D01*
X50797Y835658D01*
Y840736D01*
X45718D01*
X55875Y843275D02*
Y833118D01*
Y838197D01*
X58414Y840736D01*
X60953Y843275D01*
X63493D01*
X73649Y833118D02*
X78728D01*
X81267Y835658D01*
Y840736D01*
X78728Y843275D01*
X73649D01*
X71110Y840736D01*
Y835658D01*
X73649Y833118D01*
X86345Y843275D02*
Y835658D01*
X88884Y833118D01*
X96502D01*
Y843275D01*
X101580Y828040D02*
Y843275D01*
X109198D01*
X111737Y840736D01*
Y835658D01*
X109198Y833118D01*
X101580D01*
X132050D02*
Y843275D01*
X137129Y848353D01*
X142207Y843275D01*
Y833118D01*
Y840736D01*
X132050D01*
X147285Y845814D02*
X149825Y848353D01*
X154903D01*
X157442Y845814D01*
Y843275D01*
X154903Y840736D01*
X152364D01*
X154903D01*
X157442Y838197D01*
Y835658D01*
X154903Y833118D01*
X149825D01*
X147285Y835658D01*
X50797Y875025D02*
X40640D01*
Y859790D01*
X50797D01*
X40640Y867408D02*
X45718D01*
X55875Y875025D02*
Y859790D01*
X66032D01*
X81267Y875025D02*
X71110D01*
Y859790D01*
X81267D01*
X71110Y867408D02*
X76189D01*
X96502Y872486D02*
X93963Y875025D01*
X88884D01*
X86345Y872486D01*
Y862329D01*
X88884Y859790D01*
X93963D01*
X96502Y862329D01*
X116815Y872486D02*
X119354Y875025D01*
X124433D01*
X126972Y872486D01*
Y869947D01*
X124433Y867408D01*
X121894D01*
X124433D01*
X126972Y864868D01*
Y862329D01*
X124433Y859790D01*
X119354D01*
X116815Y862329D01*
X132050D02*
X134590Y859790D01*
X139668D01*
X142207Y862329D01*
Y872486D01*
X139668Y875025D01*
X134590D01*
X132050Y872486D01*
Y869947D01*
X134590Y867408D01*
X142207D01*
X147285Y859790D02*
X152364D01*
X149825D01*
Y875025D01*
X147285Y872486D01*
X50797Y822953D02*
X45718D01*
X48257D01*
Y810257D01*
X45718Y807718D01*
X43179D01*
X40640Y810257D01*
X58414Y817875D02*
X63493D01*
X66032Y815336D01*
Y807718D01*
X58414D01*
X55875Y810257D01*
X58414Y812797D01*
X66032D01*
X71110Y817875D02*
Y810257D01*
X73649Y807718D01*
X81267D01*
Y805179D01*
X78728Y802640D01*
X76189D01*
X81267Y807718D02*
Y817875D01*
X96502Y822953D02*
Y807718D01*
X88884D01*
X86345Y810257D01*
Y815336D01*
X88884Y817875D01*
X96502D01*
X109198Y807718D02*
X104120D01*
X101580Y810257D01*
Y815336D01*
X104120Y817875D01*
X109198D01*
X111737Y815336D01*
Y812797D01*
X101580D01*
X116815Y807718D02*
Y817875D01*
X124433D01*
X126972Y815336D01*
Y807718D01*
X157442Y820414D02*
X154903Y822953D01*
X149825D01*
X147285Y820414D01*
Y810257D01*
X149825Y807718D01*
X154903D01*
X157442Y810257D01*
Y815336D01*
X152364D01*
X162521Y817875D02*
Y810257D01*
X165060Y807718D01*
X172677D01*
Y817875D01*
X180295Y807718D02*
X185373D01*
X187912Y810257D01*
Y815336D01*
X185373Y817875D01*
X180295D01*
X177756Y815336D01*
Y810257D01*
X180295Y807718D01*
X66040Y906775D02*
X76197D01*
X71118D01*
Y891540D01*
X81275Y901697D02*
Y894079D01*
X83814Y891540D01*
X91432D01*
Y901697D01*
X96510D02*
Y891540D01*
Y896618D01*
X99049Y899157D01*
X101588Y901697D01*
X104128D01*
X114284Y904236D02*
Y901697D01*
X111745D01*
X116824D01*
X114284D01*
Y894079D01*
X116824Y891540D01*
X124441D02*
X129520D01*
X126980D01*
Y906775D01*
X124441D01*
X144754Y891540D02*
X139676D01*
X137137Y894079D01*
Y899157D01*
X139676Y901697D01*
X144754D01*
X147294Y899157D01*
Y896618D01*
X137137D01*
X148590Y914397D02*
X155361D01*
X151976D01*
Y904240D01*
X158747D02*
Y914397D01*
X162132Y911011D01*
X165518Y914397D01*
Y904240D01*
D12*
X-72560Y738350D02*
X-29040D01*
X-80800Y756590D02*
Y780110D01*
X-72560Y798350D02*
X-29040D01*
X-20800Y756590D02*
Y780110D01*
X208800Y936050D02*
X718300D01*
Y650950D02*
Y936050D01*
X208800Y650950D02*
Y936050D01*
Y650950D02*
X718300D01*
X208800D02*
Y761640D01*
Y828750D01*
Y936050D01*
Y650950D02*
X718300D01*
X208800Y936050D02*
X718300D01*
Y650950D02*
Y704650D01*
Y881550D01*
Y936050D01*
X-72560Y903450D02*
X-29040D01*
X-80800Y921690D02*
Y945210D01*
X-72560Y963450D02*
X-29040D01*
X-20800Y921690D02*
Y945210D01*
X-72560Y820900D02*
X-29040D01*
X-80800Y839140D02*
Y862660D01*
X-72560Y880900D02*
X-29040D01*
X-20800Y839140D02*
Y862660D01*
D13*
X746242Y222410D02*
X752358D01*
X720842D02*
X726958D01*
X695442D02*
X701558D01*
X670042D02*
X676158D01*
X644642D02*
X650758D01*
X619242D02*
X625358D01*
X593842D02*
X599958D01*
X568442D02*
X574558D01*
X543042D02*
X549158D01*
X511810Y296070D02*
X523758D01*
X543042D02*
X549158D01*
X568442D02*
X574558D01*
X593842D02*
X599958D01*
X619242D02*
X625358D01*
X644642D02*
X650758D01*
X670042D02*
X676158D01*
X695442D02*
X701558D01*
X720842D02*
X726958D01*
X746242D02*
X752069D01*
X771931D02*
X783590D01*
Y222410D02*
Y296070D01*
X511810Y222410D02*
X523758D01*
X511810D02*
Y296070D01*
X771642Y222410D02*
X783590D01*
X661162Y1103567D02*
Y1131633D01*
X697738Y1103567D02*
Y1131633D01*
X661162Y1217867D02*
Y1245933D01*
X697738Y1217867D02*
Y1245933D01*
X142992Y622460D02*
X149108D01*
X117592D02*
X123708D01*
X92192D02*
X98308D01*
X66792D02*
X72908D01*
X41392D02*
X47508D01*
X15992D02*
X22108D01*
X-9408D02*
X-3292D01*
X-34808D02*
X-28692D01*
X-60208D02*
X-54092D01*
X-91440Y696120D02*
X-79492D01*
X-60208D02*
X-54092D01*
X-34808D02*
X-28692D01*
X-9408D02*
X-3292D01*
X15992D02*
X22108D01*
X41392D02*
X47508D01*
X66792D02*
X72908D01*
X92192D02*
X98308D01*
X117592D02*
X123708D01*
X142992D02*
X148819D01*
X168681D02*
X180340D01*
Y622460D02*
Y696120D01*
X-91440Y622460D02*
X-79492D01*
X-91440D02*
Y696120D01*
X168392Y622460D02*
X180340D01*
X187442Y222410D02*
X193558D01*
X162042D02*
X168158D01*
X136642D02*
X142758D01*
X111242D02*
X117358D01*
X85842D02*
X91958D01*
X60442D02*
X66558D01*
X35042D02*
X41158D01*
X9642D02*
X15758D01*
X-15758D02*
X-9642D01*
X-46990Y296070D02*
X-35042D01*
X-15758D02*
X-9642D01*
X9642D02*
X15758D01*
X35042D02*
X41158D01*
X60442D02*
X66558D01*
X85842D02*
X91958D01*
X111242D02*
X117358D01*
X136642D02*
X142758D01*
X162042D02*
X168158D01*
X187442D02*
X193269D01*
X213131D02*
X224790D01*
Y222410D02*
Y296070D01*
X-46990Y222410D02*
X-35042D01*
X-46990D02*
Y296070D01*
X212842Y222410D02*
X224790D01*
X521660Y1298788D02*
X524623D01*
X523142D01*
Y1307675D01*
X521660Y1306194D01*
X534991Y1298788D02*
X529066D01*
X534991Y1304712D01*
Y1306194D01*
X533510Y1307675D01*
X530547D01*
X529066Y1306194D01*
X537953Y1307675D02*
Y1301750D01*
X540916Y1298788D01*
X543878Y1301750D01*
Y1307675D01*
X546841Y1298788D02*
Y1307675D01*
X551284D01*
X552765Y1306194D01*
Y1303231D01*
X551284Y1301750D01*
X546841D01*
X549803D02*
X552765Y1298788D01*
X560171D02*
X557209D01*
X555728Y1300269D01*
Y1303231D01*
X557209Y1304712D01*
X560171D01*
X561652Y1303231D01*
Y1301750D01*
X555728D01*
X567577Y1295825D02*
X569058D01*
X570540Y1297306D01*
Y1304712D01*
X566096D01*
X564615Y1303231D01*
Y1300269D01*
X566096Y1298788D01*
X570540D01*
X546100Y1231900D02*
X549062D01*
X547581D01*
Y1240787D01*
X546100Y1239306D01*
X602825Y1231900D02*
X596900D01*
X602825Y1237825D01*
Y1239306D01*
X601344Y1240787D01*
X598381D01*
X596900Y1239306D01*
X571500D02*
X572981Y1240787D01*
X575944D01*
X577425Y1239306D01*
Y1237825D01*
X575944Y1236344D01*
X574462D01*
X575944D01*
X577425Y1234862D01*
Y1233381D01*
X575944Y1231900D01*
X572981D01*
X571500Y1233381D01*
X734694Y1180154D02*
Y1183116D01*
Y1181635D01*
X725806D01*
X727288Y1180154D01*
Y1187560D02*
X725806Y1189041D01*
Y1192003D01*
X727288Y1193485D01*
X728769D01*
X730250Y1192003D01*
X731731Y1193485D01*
X733212D01*
X734694Y1192003D01*
Y1189041D01*
X733212Y1187560D01*
X731731D01*
X730250Y1189041D01*
X728769Y1187560D01*
X727288D01*
X730250Y1189041D02*
Y1192003D01*
X725806Y1196447D02*
X731731D01*
X734694Y1199409D01*
X731731Y1202372D01*
X725806D01*
X727288Y1211259D02*
X725806Y1209778D01*
Y1206815D01*
X727288Y1205334D01*
X728769D01*
X730250Y1206815D01*
Y1209778D01*
X731731Y1211259D01*
X733212D01*
X734694Y1209778D01*
Y1206815D01*
X733212Y1205334D01*
X725806Y1214221D02*
X734694D01*
X731731Y1217184D01*
X734694Y1220146D01*
X725806D01*
X-92288Y769831D02*
X-90806Y771312D01*
Y774275D01*
X-92288Y775756D01*
X-93769D01*
X-95250Y774275D01*
Y771312D01*
X-96731Y769831D01*
X-98212D01*
X-99694Y771312D01*
Y774275D01*
X-98212Y775756D01*
X-92288Y766869D02*
X-90806Y765388D01*
Y762425D01*
X-92288Y760944D01*
X-93769D01*
X-95250Y762425D01*
Y763906D01*
Y762425D01*
X-96731Y760944D01*
X-98212D01*
X-99694Y762425D01*
Y765388D01*
X-98212Y766869D01*
X84034Y173356D02*
Y182244D01*
X88478D01*
X89959Y180762D01*
Y177800D01*
X88478Y176319D01*
X84034D01*
X86996D02*
X89959Y173356D01*
X92921Y180762D02*
X94402Y182244D01*
X97365D01*
X98846Y180762D01*
Y179281D01*
X97365Y177800D01*
X98846Y176319D01*
Y174838D01*
X97365Y173356D01*
X94402D01*
X92921Y174838D01*
Y176319D01*
X94402Y177800D01*
X92921Y179281D01*
Y180762D01*
X94402Y177800D02*
X97365D01*
X34507Y1312544D02*
Y1303656D01*
X40432D01*
X49319D02*
X43394D01*
X49319Y1309581D01*
Y1311062D01*
X47838Y1312544D01*
X44875D01*
X43394Y1311062D01*
X52281Y1305138D02*
X53762Y1303656D01*
X56725D01*
X58206Y1305138D01*
Y1311062D01*
X56725Y1312544D01*
X53762D01*
X52281Y1311062D01*
Y1309581D01*
X53762Y1308100D01*
X58206D01*
X61168Y1311062D02*
X62649Y1312544D01*
X65612D01*
X67093Y1311062D01*
Y1309581D01*
X65612Y1308100D01*
X67093Y1306619D01*
Y1305138D01*
X65612Y1303656D01*
X62649D01*
X61168Y1305138D01*
Y1306619D01*
X62649Y1308100D01*
X61168Y1309581D01*
Y1311062D01*
X62649Y1308100D02*
X65612D01*
X210401Y941706D02*
Y950594D01*
X213363Y947631D01*
X216325Y950594D01*
Y941706D01*
X225212Y949112D02*
X223731Y950594D01*
X220769D01*
X219288Y949112D01*
Y943188D01*
X220769Y941706D01*
X223731D01*
X225212Y943188D01*
X228175Y950594D02*
Y943188D01*
X229656Y941706D01*
X232618D01*
X234100Y943188D01*
Y950594D01*
X441016Y1210734D02*
X443979D01*
X442497D01*
Y1219621D01*
X441016Y1218140D01*
X454347Y1210734D02*
X448422D01*
X454347Y1216658D01*
Y1218140D01*
X452866Y1219621D01*
X449903D01*
X448422Y1218140D01*
X457309Y1219621D02*
Y1213696D01*
X460272Y1210734D01*
X463234Y1213696D01*
Y1219621D01*
X466196Y1209253D02*
X472121D01*
X475084Y1219621D02*
Y1210734D01*
X481008D01*
X489895Y1219621D02*
X483971D01*
Y1210734D01*
X489895D01*
X483971Y1215177D02*
X486933D01*
X492858Y1219621D02*
Y1210734D01*
X497301D01*
X498783Y1212215D01*
Y1218140D01*
X497301Y1219621D01*
X492858D01*
X690244Y1015795D02*
Y1018757D01*
Y1017276D01*
X681356D01*
X682838Y1015795D01*
X690244Y1029125D02*
Y1023201D01*
X684319Y1029125D01*
X682838D01*
X681356Y1027644D01*
Y1024682D01*
X682838Y1023201D01*
X681356Y1032088D02*
X687281D01*
X690244Y1035050D01*
X687281Y1038012D01*
X681356D01*
Y1040975D02*
Y1043937D01*
Y1042456D01*
X690244D01*
Y1040975D01*
Y1043937D01*
Y1048381D02*
X681356D01*
X690244Y1054305D01*
X681356D01*
X-70055Y1163956D02*
Y1172844D01*
X-67093Y1169881D01*
X-64131Y1172844D01*
Y1163956D01*
X-59687D02*
X-56725D01*
X-55244Y1165438D01*
Y1168400D01*
X-56725Y1169881D01*
X-59687D01*
X-61168Y1168400D01*
Y1165438D01*
X-59687Y1163956D01*
X-50800Y1171362D02*
Y1169881D01*
X-52281D01*
X-49319D01*
X-50800D01*
Y1165438D01*
X-49319Y1163956D01*
X-43394D02*
X-40432D01*
X-38951Y1165438D01*
Y1168400D01*
X-40432Y1169881D01*
X-43394D01*
X-44875Y1168400D01*
Y1165438D01*
X-43394Y1163956D01*
X-35988Y1169881D02*
Y1163956D01*
Y1166919D01*
X-34507Y1168400D01*
X-33026Y1169881D01*
X-31545D01*
X-86349Y1248093D02*
Y1256980D01*
X-81906D01*
X-80424Y1255499D01*
Y1252537D01*
X-81906Y1251056D01*
X-86349D01*
X-77462Y1256980D02*
Y1248093D01*
Y1252537D01*
X-75981Y1254018D01*
X-73018D01*
X-71537Y1252537D01*
Y1248093D01*
X-67094D02*
X-64131D01*
X-62650Y1249574D01*
Y1252537D01*
X-64131Y1254018D01*
X-67094D01*
X-68575Y1252537D01*
Y1249574D01*
X-67094Y1248093D01*
X-58207Y1255499D02*
Y1254018D01*
X-59688D01*
X-56725D01*
X-58207D01*
Y1249574D01*
X-56725Y1248093D01*
X-50801D02*
X-47838D01*
X-46357Y1249574D01*
Y1252537D01*
X-47838Y1254018D01*
X-50801D01*
X-52282Y1252537D01*
Y1249574D01*
X-50801Y1248093D01*
X-43395Y1254018D02*
X-40432Y1248093D01*
X-37470Y1254018D01*
X-33026Y1248093D02*
X-30064D01*
X-28583Y1249574D01*
Y1252537D01*
X-30064Y1254018D01*
X-33026D01*
X-34508Y1252537D01*
Y1249574D01*
X-33026Y1248093D01*
X-25620D02*
X-22658D01*
X-24139D01*
Y1256980D01*
X-25620D01*
X-16733Y1255499D02*
Y1254018D01*
X-18214D01*
X-15252D01*
X-16733D01*
Y1249574D01*
X-15252Y1248093D01*
X480696Y1026374D02*
X489584D01*
Y1030818D01*
X488102Y1032299D01*
X482178D01*
X480696Y1030818D01*
Y1026374D01*
X488102Y1035261D02*
X489584Y1036742D01*
Y1039705D01*
X488102Y1041186D01*
X482178D01*
X480696Y1039705D01*
Y1036742D01*
X482178Y1035261D01*
X483659D01*
X485140Y1036742D01*
Y1041186D01*
X-86143Y563244D02*
Y554356D01*
X-81699D01*
X-80218Y555838D01*
Y561762D01*
X-81699Y563244D01*
X-86143D01*
X-71331D02*
X-77256D01*
Y558800D01*
X-74294D01*
X-77256D01*
Y554356D01*
X-62444Y563244D02*
X-68369D01*
Y558800D01*
X-65406D01*
X-68369D01*
Y554356D01*
X-59482Y561762D02*
X-58000Y563244D01*
X-55038D01*
X-53557Y561762D01*
Y560281D01*
X-55038Y558800D01*
X-53557Y557319D01*
Y555838D01*
X-55038Y554356D01*
X-58000D01*
X-59482Y555838D01*
Y557319D01*
X-58000Y558800D01*
X-59482Y560281D01*
Y561762D01*
X-58000Y558800D02*
X-55038D01*
X139489Y194732D02*
X138008Y196214D01*
X135045D01*
X133564Y194732D01*
Y188808D01*
X135045Y187326D01*
X138008D01*
X139489Y188808D01*
X142451D02*
X143932Y187326D01*
X146895D01*
X148376Y188808D01*
Y194732D01*
X146895Y196214D01*
X143932D01*
X142451Y194732D01*
Y193251D01*
X143932Y191770D01*
X148376D01*
X479212Y272625D02*
X480694Y274106D01*
Y277068D01*
X479212Y278549D01*
X473288D01*
X471806Y277068D01*
Y274106D01*
X473288Y272625D01*
X480694Y269662D02*
X471806D01*
Y263738D01*
X480694Y260775D02*
X471806D01*
X474769D01*
X480694Y254851D01*
X476250Y259294D01*
X471806Y254851D01*
X798194Y241837D02*
X789306D01*
Y246280D01*
X790788Y247762D01*
X793750D01*
X795231Y246280D01*
Y241837D01*
X789306Y250724D02*
X798194D01*
Y256649D01*
X789306Y259611D02*
X798194D01*
Y264055D01*
X796712Y265536D01*
X790788D01*
X789306Y264055D01*
Y259611D01*
X798194Y274423D02*
Y268498D01*
X792269Y274423D01*
X790788D01*
X789306Y272942D01*
Y269979D01*
X790788Y268498D01*
X643256Y1090719D02*
Y1084794D01*
X647700D01*
Y1087756D01*
Y1084794D01*
X652144D01*
Y1099606D02*
Y1093681D01*
X646219Y1099606D01*
X644738D01*
X643256Y1098125D01*
Y1095162D01*
X644738Y1093681D01*
X340788Y1309261D02*
X334863D01*
Y1304818D01*
X337825Y1306299D01*
X339306D01*
X340788Y1304818D01*
Y1301855D01*
X339306Y1300374D01*
X336344D01*
X334863Y1301855D01*
X343750Y1309261D02*
Y1303337D01*
X346712Y1300374D01*
X349675Y1303337D01*
Y1309261D01*
X352637Y1300374D02*
Y1309261D01*
X357080D01*
X358562Y1307780D01*
Y1304818D01*
X357080Y1303337D01*
X352637D01*
X355599D02*
X358562Y1300374D01*
X365968D02*
X363005D01*
X361524Y1301855D01*
Y1304818D01*
X363005Y1306299D01*
X365968D01*
X367449Y1304818D01*
Y1303337D01*
X361524D01*
X373374Y1297412D02*
X374855D01*
X376336Y1298893D01*
Y1306299D01*
X371892D01*
X370411Y1304818D01*
Y1301855D01*
X371892Y1300374D01*
X376336D01*
X361949Y1233487D02*
X364912D01*
X363430D01*
Y1242374D01*
X361949Y1240893D01*
X418674Y1233487D02*
X412749D01*
X418674Y1239411D01*
Y1240893D01*
X417193Y1242374D01*
X414230D01*
X412749Y1240893D01*
X387349D02*
X388830Y1242374D01*
X391793D01*
X393274Y1240893D01*
Y1239411D01*
X391793Y1237930D01*
X390312D01*
X391793D01*
X393274Y1236449D01*
Y1234968D01*
X391793Y1233487D01*
X388830D01*
X387349Y1234968D01*
X741043Y1068181D02*
Y1071144D01*
Y1069662D01*
X732156D01*
X733637Y1068181D01*
Y1075587D02*
X732156Y1077068D01*
Y1080031D01*
X733637Y1081512D01*
X735118D01*
X736599Y1080031D01*
X738081Y1081512D01*
X739562D01*
X741043Y1080031D01*
Y1077068D01*
X739562Y1075587D01*
X738081D01*
X736599Y1077068D01*
X735118Y1075587D01*
X733637D01*
X736599Y1077068D02*
Y1080031D01*
X732156Y1084474D02*
X738081D01*
X741043Y1087437D01*
X738081Y1090399D01*
X732156D01*
Y1093362D02*
Y1096324D01*
Y1094843D01*
X741043D01*
Y1093362D01*
Y1096324D01*
Y1100767D02*
X732156D01*
X741043Y1106692D01*
X732156D01*
X533400Y1079922D02*
X531919Y1081404D01*
X528956D01*
X527475Y1079922D01*
Y1073998D01*
X528956Y1072516D01*
X531919D01*
X533400Y1073998D01*
X536362Y1072516D02*
X539325D01*
X537844D01*
Y1081404D01*
X536362Y1079922D01*
X531919Y1008802D02*
X530438Y1010284D01*
X527475D01*
X525994Y1008802D01*
Y1002878D01*
X527475Y1001396D01*
X530438D01*
X531919Y1002878D01*
X540806Y1001396D02*
X534881D01*
X540806Y1007321D01*
Y1008802D01*
X539325Y1010284D01*
X536362D01*
X534881Y1008802D01*
X531919Y1156122D02*
X530438Y1157604D01*
X527475D01*
X525994Y1156122D01*
Y1150198D01*
X527475Y1148716D01*
X530438D01*
X531919Y1150198D01*
X534881Y1156122D02*
X536362Y1157604D01*
X539325D01*
X540806Y1156122D01*
Y1154641D01*
X539325Y1153160D01*
X537844D01*
X539325D01*
X540806Y1151679D01*
Y1150198D01*
X539325Y1148716D01*
X536362D01*
X534881Y1150198D01*
X590340Y1079815D02*
X588858Y1081296D01*
X585896D01*
X584415Y1079815D01*
Y1073891D01*
X585896Y1072409D01*
X588858D01*
X590340Y1073891D01*
X597745Y1072409D02*
Y1081296D01*
X593302Y1076853D01*
X599227D01*
X590339Y1008802D02*
X588858Y1010284D01*
X585895D01*
X584414Y1008802D01*
Y1002878D01*
X585895Y1001396D01*
X588858D01*
X590339Y1002878D01*
X599226Y1010284D02*
X593301D01*
Y1005840D01*
X596264Y1007321D01*
X597745D01*
X599226Y1005840D01*
Y1002878D01*
X597745Y1001396D01*
X594782D01*
X593301Y1002878D01*
X158116Y992295D02*
X167004D01*
Y996739D01*
X165522Y998220D01*
X159598D01*
X158116Y996739D01*
Y992295D01*
X167004Y1001182D02*
Y1004145D01*
Y1002664D01*
X158116D01*
X159598Y1001182D01*
X158116Y1115274D02*
X167004D01*
Y1119718D01*
X165522Y1121199D01*
X159598D01*
X158116Y1119718D01*
Y1115274D01*
X167004Y1130086D02*
Y1124161D01*
X161079Y1130086D01*
X159598D01*
X158116Y1128605D01*
Y1125642D01*
X159598Y1124161D01*
X158116Y1084794D02*
X167004D01*
Y1089238D01*
X165522Y1090719D01*
X159598D01*
X158116Y1089238D01*
Y1084794D01*
X159598Y1093681D02*
X158116Y1095162D01*
Y1098125D01*
X159598Y1099606D01*
X161079D01*
X162560Y1098125D01*
Y1096644D01*
Y1098125D01*
X164041Y1099606D01*
X165522D01*
X167004Y1098125D01*
Y1095162D01*
X165522Y1093681D01*
X310516Y1117814D02*
X319404D01*
Y1122258D01*
X317922Y1123739D01*
X311998D01*
X310516Y1122258D01*
Y1117814D01*
X319404Y1131145D02*
X310516D01*
X314960Y1126701D01*
Y1132626D01*
X310516Y1084794D02*
X319404D01*
Y1089238D01*
X317922Y1090719D01*
X311998D01*
X310516Y1089238D01*
Y1084794D01*
Y1099606D02*
Y1093681D01*
X314960D01*
X313479Y1096644D01*
Y1098125D01*
X314960Y1099606D01*
X317922D01*
X319404Y1098125D01*
Y1095162D01*
X317922Y1093681D01*
X158116Y1051774D02*
X167004D01*
Y1056218D01*
X165522Y1057699D01*
X159598D01*
X158116Y1056218D01*
Y1051774D01*
Y1066586D02*
X159598Y1063624D01*
X162560Y1060661D01*
X165522D01*
X167004Y1062142D01*
Y1065105D01*
X165522Y1066586D01*
X164041D01*
X162560Y1065105D01*
Y1060661D01*
X158116Y1021294D02*
X167004D01*
Y1025738D01*
X165522Y1027219D01*
X159598D01*
X158116Y1025738D01*
Y1021294D01*
Y1030181D02*
Y1036106D01*
X159598D01*
X165522Y1030181D01*
X167004D01*
X310516Y1051774D02*
X319404D01*
Y1056218D01*
X317922Y1057699D01*
X311998D01*
X310516Y1056218D01*
Y1051774D01*
X311998Y1060661D02*
X310516Y1062142D01*
Y1065105D01*
X311998Y1066586D01*
X313479D01*
X314960Y1065105D01*
X316441Y1066586D01*
X317922D01*
X319404Y1065105D01*
Y1062142D01*
X317922Y1060661D01*
X316441D01*
X314960Y1062142D01*
X313479Y1060661D01*
X311998D01*
X314960Y1062142D02*
Y1065105D01*
X361744Y1219621D02*
X355819D01*
Y1215177D01*
X358782Y1216658D01*
X360263D01*
X361744Y1215177D01*
Y1212215D01*
X360263Y1210734D01*
X357300D01*
X355819Y1212215D01*
X364706Y1219621D02*
Y1213696D01*
X367669Y1210734D01*
X370631Y1213696D01*
Y1219621D01*
X373593Y1209253D02*
X379518D01*
X382481Y1219621D02*
Y1210734D01*
X388405D01*
X397292Y1219621D02*
X391368D01*
Y1210734D01*
X397292D01*
X391368Y1215177D02*
X394330D01*
X400255Y1219621D02*
Y1210734D01*
X404698D01*
X406180Y1212215D01*
Y1218140D01*
X404698Y1219621D01*
X400255D01*
X643256Y1206500D02*
Y1200575D01*
X647700D01*
Y1203538D01*
Y1200575D01*
X652144D01*
Y1209462D02*
Y1212425D01*
Y1210944D01*
X643256D01*
X644738Y1209462D01*
X743586Y702954D02*
X752473D01*
Y708878D01*
X746548Y713322D02*
Y716284D01*
X748029Y717765D01*
X752473D01*
Y713322D01*
X750992Y711841D01*
X749510Y713322D01*
Y717765D01*
X752473Y720728D02*
Y725171D01*
X750992Y726653D01*
X749510Y725171D01*
Y722209D01*
X748029Y720728D01*
X746548Y722209D01*
Y726653D01*
X752473Y734059D02*
Y731096D01*
X750992Y729615D01*
X748029D01*
X746548Y731096D01*
Y734059D01*
X748029Y735540D01*
X749510D01*
Y729615D01*
X746548Y738502D02*
X752473D01*
X749510D01*
X748029Y739983D01*
X746548Y741464D01*
Y742946D01*
X743586Y747389D02*
Y750352D01*
Y748870D01*
X752473D01*
Y747389D01*
Y750352D01*
Y754795D02*
X746548D01*
Y759239D01*
X748029Y760720D01*
X752473D01*
X489584Y1065955D02*
X480696D01*
Y1070399D01*
X482178Y1071880D01*
X485140D01*
X486621Y1070399D01*
Y1065955D01*
Y1068918D02*
X489584Y1071880D01*
Y1074842D02*
Y1077805D01*
Y1076324D01*
X480696D01*
X482178Y1074842D01*
X489584Y1097494D02*
X480696D01*
Y1101938D01*
X482178Y1103419D01*
X485140D01*
X486621Y1101938D01*
Y1097494D01*
Y1100456D02*
X489584Y1103419D01*
Y1112306D02*
Y1106381D01*
X483659Y1112306D01*
X482178D01*
X480696Y1110825D01*
Y1107862D01*
X482178Y1106381D01*
X752473Y832491D02*
Y835453D01*
Y833972D01*
X743586D01*
X745067Y832491D01*
X752473Y845821D02*
Y839897D01*
X746548Y845821D01*
X745067D01*
X743586Y844340D01*
Y841378D01*
X745067Y839897D01*
X743586Y848784D02*
X749510D01*
X752473Y851746D01*
X749510Y854708D01*
X743586D01*
X745067Y863596D02*
X743586Y862114D01*
Y859152D01*
X745067Y857671D01*
X746548D01*
X748029Y859152D01*
Y862114D01*
X749510Y863596D01*
X750992D01*
X752473Y862114D01*
Y859152D01*
X750992Y857671D01*
X743586Y866558D02*
X752473D01*
X749510Y869520D01*
X752473Y872483D01*
X743586D01*
X743586Y590450D02*
X752473D01*
Y596375D01*
X745067Y605262D02*
X743586Y603781D01*
Y600818D01*
X745067Y599337D01*
X746548D01*
X748029Y600818D01*
Y603781D01*
X749510Y605262D01*
X750992D01*
X752473Y603781D01*
Y600818D01*
X750992Y599337D01*
X752473Y608224D02*
X743586D01*
Y612668D01*
X745067Y614149D01*
X748029D01*
X749510Y612668D01*
Y608224D01*
Y611187D02*
X752473Y614149D01*
X745067Y623036D02*
X743586Y621555D01*
Y618593D01*
X745067Y617112D01*
X746548D01*
X748029Y618593D01*
Y621555D01*
X749510Y623036D01*
X750992D01*
X752473Y621555D01*
Y618593D01*
X750992Y617112D01*
X743586Y625999D02*
X752473D01*
X749510Y628961D01*
X752473Y631923D01*
X743586D01*
X319404Y988274D02*
X310516D01*
Y992718D01*
X311998Y994199D01*
X314960D01*
X316441Y992718D01*
Y988274D01*
Y991236D02*
X319404Y994199D01*
X311998Y997161D02*
X310516Y998642D01*
Y1001605D01*
X311998Y1003086D01*
X313479D01*
X314960Y1001605D01*
Y1000124D01*
Y1001605D01*
X316441Y1003086D01*
X317922D01*
X319404Y1001605D01*
Y998642D01*
X317922Y997161D01*
X319404Y1016214D02*
X310516D01*
Y1020658D01*
X311998Y1022139D01*
X314960D01*
X316441Y1020658D01*
Y1016214D01*
Y1019176D02*
X319404Y1022139D01*
Y1029545D02*
X310516D01*
X314960Y1025101D01*
Y1031026D01*
X-106044Y675212D02*
X-97156D01*
Y670768D01*
X-98638Y669287D01*
X-101600D01*
X-103081Y670768D01*
Y675212D01*
X-97156Y666325D02*
X-106044D01*
Y660400D01*
X-97156Y657438D02*
X-106044D01*
Y652994D01*
X-104562Y651513D01*
X-98638D01*
X-97156Y652994D01*
Y657438D01*
X-106044Y648550D02*
Y645588D01*
Y647069D01*
X-97156D01*
X-98638Y648550D01*
X-92288Y933450D02*
X-90806Y934931D01*
Y937894D01*
X-92288Y939375D01*
X-93769D01*
X-95250Y937894D01*
Y934931D01*
X-96731Y933450D01*
X-98212D01*
X-99694Y934931D01*
Y937894D01*
X-98212Y939375D01*
X-99694Y930488D02*
Y927525D01*
Y929006D01*
X-90806D01*
X-92288Y930488D01*
X-92288Y852381D02*
X-90806Y853862D01*
Y856825D01*
X-92288Y858306D01*
X-93769D01*
X-95250Y856825D01*
Y853862D01*
X-96731Y852381D01*
X-98212D01*
X-99694Y853862D01*
Y856825D01*
X-98212Y858306D01*
X-99694Y843494D02*
Y849419D01*
X-93769Y843494D01*
X-92288D01*
X-90806Y844975D01*
Y847938D01*
X-92288Y849419D01*
X-61594Y280773D02*
X-52706D01*
Y276329D01*
X-54188Y274848D01*
X-57150D01*
X-58631Y276329D01*
Y280773D01*
X-52706Y271886D02*
X-61594D01*
Y265961D01*
X-52706Y262999D02*
X-61594D01*
Y258555D01*
X-60112Y257074D01*
X-54188D01*
X-52706Y258555D01*
Y262999D01*
X-54188Y254112D02*
X-52706Y252631D01*
Y249668D01*
X-54188Y248187D01*
X-55669D01*
X-57150Y249668D01*
Y251149D01*
Y249668D01*
X-58631Y248187D01*
X-60112D01*
X-61594Y249668D01*
Y252631D01*
X-60112Y254112D01*
X766238Y563244D02*
Y554356D01*
X770682D01*
X772163Y555838D01*
Y561762D01*
X770682Y563244D01*
X766238D01*
X781050D02*
X775125D01*
Y558800D01*
X778088D01*
X775125D01*
Y554356D01*
X789937Y563244D02*
X784012D01*
Y558800D01*
X786975D01*
X784012D01*
Y554356D01*
X792899D02*
X795862D01*
X794381D01*
Y563244D01*
X792899Y561762D01*
X644107Y563244D02*
Y554356D01*
X648550D01*
X650032Y555838D01*
Y561762D01*
X648550Y563244D01*
X644107D01*
X658919D02*
X652994D01*
Y558800D01*
X655956D01*
X652994D01*
Y554356D01*
X667806Y563244D02*
X661881D01*
Y558800D01*
X664844D01*
X661881D01*
Y554356D01*
X676693D02*
X670768D01*
X676693Y560281D01*
Y561762D01*
X675212Y563244D01*
X672250D01*
X670768Y561762D01*
X523457Y563244D02*
Y554356D01*
X527901D01*
X529382Y555838D01*
Y561762D01*
X527901Y563244D01*
X523457D01*
X538269D02*
X532344D01*
Y558800D01*
X535306D01*
X532344D01*
Y554356D01*
X547156Y563244D02*
X541231D01*
Y558800D01*
X544194D01*
X541231D01*
Y554356D01*
X550118Y561762D02*
X551600Y563244D01*
X554562D01*
X556043Y561762D01*
Y560281D01*
X554562Y558800D01*
X553081D01*
X554562D01*
X556043Y557319D01*
Y555838D01*
X554562Y554356D01*
X551600D01*
X550118Y555838D01*
X556049Y182032D02*
X554568Y183514D01*
X551605D01*
X550124Y182032D01*
Y176108D01*
X551605Y174626D01*
X554568D01*
X556049Y176108D01*
X564936Y183514D02*
X561974Y182032D01*
X559011Y179070D01*
Y176108D01*
X560492Y174626D01*
X563455D01*
X564936Y176108D01*
Y177589D01*
X563455Y179070D01*
X559011D01*
X614469Y180762D02*
X612988Y182244D01*
X610025D01*
X608544Y180762D01*
Y174838D01*
X610025Y173356D01*
X612988D01*
X614469Y174838D01*
X617431Y182244D02*
X623356D01*
Y180762D01*
X617431Y174838D01*
Y173356D01*
X195159Y194732D02*
X193678Y196214D01*
X190716D01*
X189235Y194732D01*
Y188808D01*
X190716Y187326D01*
X193678D01*
X195159Y188808D01*
X198122Y194732D02*
X199603Y196214D01*
X202565D01*
X204046Y194732D01*
Y193251D01*
X202565Y191770D01*
X204046Y190289D01*
Y188808D01*
X202565Y187326D01*
X199603D01*
X198122Y188808D01*
Y190289D01*
X199603Y191770D01*
X198122Y193251D01*
Y194732D01*
X199603Y191770D02*
X202565D01*
X396457Y563244D02*
Y554356D01*
X400900D01*
X402382Y555838D01*
Y561762D01*
X400900Y563244D01*
X396457D01*
X411269D02*
X405344D01*
Y558800D01*
X408306D01*
X405344D01*
Y554356D01*
X420156Y563244D02*
X414231D01*
Y558800D01*
X417194D01*
X414231D01*
Y554356D01*
X427562D02*
Y563244D01*
X423118Y558800D01*
X429043D01*
X269457Y563244D02*
Y554356D01*
X273901D01*
X275382Y555838D01*
Y561762D01*
X273901Y563244D01*
X269457D01*
X284269D02*
X278344D01*
Y558800D01*
X281306D01*
X278344D01*
Y554356D01*
X293156Y563244D02*
X287231D01*
Y558800D01*
X290194D01*
X287231D01*
Y554356D01*
X302043Y563244D02*
X296118D01*
Y558800D01*
X299081Y560281D01*
X300562D01*
X302043Y558800D01*
Y555838D01*
X300562Y554356D01*
X297600D01*
X296118Y555838D01*
X148807Y563244D02*
Y554356D01*
X153251D01*
X154732Y555838D01*
Y561762D01*
X153251Y563244D01*
X148807D01*
X163619D02*
X157694D01*
Y558800D01*
X160656D01*
X157694D01*
Y554356D01*
X172506Y563244D02*
X166581D01*
Y558800D01*
X169544D01*
X166581D01*
Y554356D01*
X181393Y563244D02*
X178431Y561762D01*
X175468Y558800D01*
Y555838D01*
X176950Y554356D01*
X179912D01*
X181393Y555838D01*
Y557319D01*
X179912Y558800D01*
X175468D01*
X28157Y563244D02*
Y554356D01*
X32601D01*
X34082Y555838D01*
Y561762D01*
X32601Y563244D01*
X28157D01*
X42969D02*
X37044D01*
Y558800D01*
X40006D01*
X37044D01*
Y554356D01*
X51856Y563244D02*
X45931D01*
Y558800D01*
X48894D01*
X45931D01*
Y554356D01*
X54818Y563244D02*
X60743D01*
Y561762D01*
X54818Y555838D01*
Y554356D01*
X786344Y160656D02*
Y169544D01*
X790788D01*
X792269Y168062D01*
Y165100D01*
X790788Y163619D01*
X786344D01*
X789306D02*
X792269Y160656D01*
X801156Y169544D02*
X795231D01*
Y165100D01*
X798194Y166581D01*
X799675D01*
X801156Y165100D01*
Y162138D01*
X799675Y160656D01*
X796712D01*
X795231Y162138D01*
X786344Y135256D02*
Y144144D01*
X790788D01*
X792269Y142662D01*
Y139700D01*
X790788Y138219D01*
X786344D01*
X789306D02*
X792269Y135256D01*
X801156Y144144D02*
X798194Y142662D01*
X795231Y139700D01*
Y136738D01*
X796712Y135256D01*
X799675D01*
X801156Y136738D01*
Y138219D01*
X799675Y139700D01*
X795231D01*
X84034Y147956D02*
Y156844D01*
X88478D01*
X89959Y155362D01*
Y152400D01*
X88478Y150919D01*
X84034D01*
X86996D02*
X89959Y147956D01*
X92921Y156844D02*
X98846D01*
Y155362D01*
X92921Y149438D01*
Y147956D01*
X637289Y964184D02*
X646176D01*
Y968628D01*
X644695Y970109D01*
X638770D01*
X637289Y968628D01*
Y964184D01*
X646176Y973071D02*
Y976033D01*
Y974552D01*
X637289D01*
X638770Y973071D01*
Y986402D02*
X637289Y984921D01*
Y981958D01*
X638770Y980477D01*
X644695D01*
X646176Y981958D01*
Y984921D01*
X644695Y986402D01*
X638770Y995289D02*
X637289Y993808D01*
Y990845D01*
X638770Y989364D01*
X644695D01*
X646176Y990845D01*
Y993808D01*
X644695Y995289D01*
X637289Y998251D02*
X646176D01*
X643214Y1001214D01*
X646176Y1004176D01*
X637289D01*
X601729Y964184D02*
X610616D01*
Y968628D01*
X609135Y970109D01*
X603210D01*
X601729Y968628D01*
Y964184D01*
X610616Y978996D02*
Y973071D01*
X604691Y978996D01*
X603210D01*
X601729Y977515D01*
Y974552D01*
X603210Y973071D01*
Y987883D02*
X601729Y986402D01*
Y983439D01*
X603210Y981958D01*
X609135D01*
X610616Y983439D01*
Y986402D01*
X609135Y987883D01*
X601729Y990845D02*
X610616D01*
X607654Y993808D01*
X610616Y996770D01*
X601729D01*
X573410Y961138D02*
X582297D01*
Y965581D01*
X580816Y967063D01*
X574892D01*
X573410Y965581D01*
Y961138D01*
X582297Y970025D02*
Y972987D01*
Y971506D01*
X573410D01*
X574892Y970025D01*
Y983356D02*
X573410Y981874D01*
Y978912D01*
X574892Y977431D01*
X580816D01*
X582297Y978912D01*
Y981874D01*
X580816Y983356D01*
X574892Y992243D02*
X573410Y990761D01*
Y987799D01*
X574892Y986318D01*
X580816D01*
X582297Y987799D01*
Y990761D01*
X580816Y992243D01*
X573410Y995205D02*
X582297D01*
X579335Y998167D01*
X582297Y1001130D01*
X573410D01*
X525529Y951484D02*
X534416D01*
Y955928D01*
X532935Y957409D01*
X527010D01*
X525529Y955928D01*
Y951484D01*
X534416Y960371D02*
Y963334D01*
Y961852D01*
X525529D01*
X527010Y960371D01*
Y973702D02*
X525529Y972221D01*
Y969258D01*
X527010Y967777D01*
X532935D01*
X534416Y969258D01*
Y972221D01*
X532935Y973702D01*
X525529Y976664D02*
X534416D01*
X531454Y979627D01*
X534416Y982589D01*
X525529D01*
X575564Y1194265D02*
X578526D01*
X577045D01*
Y1203152D01*
X575564Y1201671D01*
X588895Y1194265D02*
X582970D01*
X588895Y1200190D01*
Y1201671D01*
X587413Y1203152D01*
X584451D01*
X582970Y1201671D01*
X591857Y1203152D02*
Y1197228D01*
X594819Y1194265D01*
X597782Y1197228D01*
Y1203152D01*
X600744Y1192784D02*
X606669D01*
X609631Y1203152D02*
X615556D01*
X612594D01*
Y1194265D01*
X618518D02*
Y1203152D01*
X622962D01*
X624443Y1201671D01*
Y1198709D01*
X622962Y1197228D01*
X618518D01*
X458299Y1288242D02*
X452374D01*
Y1283799D01*
X455336Y1285280D01*
X456818D01*
X458299Y1283799D01*
Y1280836D01*
X456818Y1279355D01*
X453855D01*
X452374Y1280836D01*
X461261Y1288242D02*
Y1282318D01*
X464224Y1279355D01*
X467186Y1282318D01*
Y1288242D01*
X470148Y1277874D02*
X476073D01*
X479035Y1288242D02*
X484960D01*
X481998D01*
Y1279355D01*
X487923D02*
Y1288242D01*
X492366D01*
X493847Y1286761D01*
Y1283799D01*
X492366Y1282318D01*
X487923D01*
X-106427Y1139761D02*
Y1148648D01*
X-103464Y1145686D01*
X-100502Y1148648D01*
Y1139761D01*
X-97540D02*
X-94577D01*
X-96058D01*
Y1148648D01*
X-97540Y1147167D01*
X-90134Y1144204D02*
X-84209D01*
X-87171Y1147167D02*
Y1141242D01*
X-11601Y1202730D02*
X-13082Y1204211D01*
X-16045D01*
X-17526Y1202730D01*
Y1196805D01*
X-16045Y1195324D01*
X-13082D01*
X-11601Y1196805D01*
Y1199768D01*
X-14564D01*
X-8639Y1195324D02*
Y1204211D01*
X-2714Y1195324D01*
Y1204211D01*
X248D02*
Y1195324D01*
X4692D01*
X6173Y1196805D01*
Y1202730D01*
X4692Y1204211D01*
X248D01*
X-11601Y1228130D02*
X-13082Y1229611D01*
X-16045D01*
X-17526Y1228130D01*
Y1222205D01*
X-16045Y1220724D01*
X-13082D01*
X-11601Y1222205D01*
Y1225168D01*
X-14564D01*
X-8639Y1220724D02*
Y1229611D01*
X-2714Y1220724D01*
Y1229611D01*
X248D02*
Y1220724D01*
X4692D01*
X6173Y1222205D01*
Y1228130D01*
X4692Y1229611D01*
X248D01*
X-17796Y1139035D02*
Y1147922D01*
X-14834Y1144960D01*
X-11872Y1147922D01*
Y1139035D01*
X-2985D02*
X-8909D01*
X-2985Y1144960D01*
Y1146441D01*
X-4466Y1147922D01*
X-7428D01*
X-8909Y1146441D01*
X-22Y1143479D02*
X5903D01*
X2940Y1146441D02*
Y1140516D01*
X-17527Y1068004D02*
X-11602D01*
X-14564Y1070967D02*
Y1065042D01*
X-2715Y1072448D02*
X-8640D01*
Y1068004D01*
X-5677Y1069485D01*
X-4196D01*
X-2715Y1068004D01*
Y1065042D01*
X-4196Y1063561D01*
X-7158D01*
X-8640Y1065042D01*
X-17527Y1114361D02*
Y1123248D01*
X-14564Y1120285D01*
X-11602Y1123248D01*
Y1114361D01*
X-2715D02*
X-8640D01*
X-2715Y1120285D01*
Y1121767D01*
X-4196Y1123248D01*
X-7158D01*
X-8640Y1121767D01*
X248Y1118804D02*
X6172D01*
X3210Y1121767D02*
Y1115842D01*
X-11602Y1096367D02*
X-13083Y1097848D01*
X-16046D01*
X-17527Y1096367D01*
Y1090442D01*
X-16046Y1088961D01*
X-13083D01*
X-11602Y1090442D01*
Y1093404D01*
X-14564D01*
X-8640Y1088961D02*
Y1097848D01*
X-2715Y1088961D01*
Y1097848D01*
X248D02*
Y1088961D01*
X4691D01*
X6172Y1090442D01*
Y1096367D01*
X4691Y1097848D01*
X248D01*
X-11602Y1047048D02*
X-17527D01*
Y1038161D01*
X-11602D01*
X-17527Y1042604D02*
X-14564D01*
X-2715Y1038161D02*
X-8640D01*
X-2715Y1044085D01*
Y1045567D01*
X-4196Y1047048D01*
X-7158D01*
X-8640Y1045567D01*
X248Y1038161D02*
Y1044085D01*
X3210Y1047048D01*
X6172Y1044085D01*
Y1038161D01*
Y1042604D01*
X248D01*
X-11602Y1021648D02*
X-17527D01*
Y1012761D01*
X-11602D01*
X-17527Y1017204D02*
X-14564D01*
X-2715Y1012761D02*
X-8640D01*
X-2715Y1018686D01*
Y1020167D01*
X-4196Y1021648D01*
X-7158D01*
X-8640Y1020167D01*
X248Y1021648D02*
Y1012761D01*
X4691D01*
X6172Y1014242D01*
Y1015723D01*
X4691Y1017204D01*
X248D01*
X4691D01*
X6172Y1018686D01*
Y1020167D01*
X4691Y1021648D01*
X248D01*
X-100077Y1068004D02*
X-94152D01*
X-97114Y1070967D02*
Y1065042D01*
X-85265Y1072448D02*
X-91189D01*
Y1068004D01*
X-88227Y1069485D01*
X-86746D01*
X-85265Y1068004D01*
Y1065042D01*
X-86746Y1063561D01*
X-89708D01*
X-91189Y1065042D01*
X-100502Y1021648D02*
X-106427D01*
Y1012761D01*
X-100502D01*
X-106427Y1017204D02*
X-103464D01*
X-97540Y1012761D02*
X-94577D01*
X-96058D01*
Y1021648D01*
X-97540Y1020167D01*
X-90134Y1021648D02*
Y1012761D01*
X-85690D01*
X-84209Y1014242D01*
Y1015723D01*
X-85690Y1017204D01*
X-90134D01*
X-85690D01*
X-84209Y1018686D01*
Y1020167D01*
X-85690Y1021648D01*
X-90134D01*
X-100502Y1047048D02*
X-106427D01*
Y1038161D01*
X-100502D01*
X-106427Y1042604D02*
X-103464D01*
X-97540Y1038161D02*
X-94577D01*
X-96058D01*
Y1047048D01*
X-97540Y1045567D01*
X-90134Y1038161D02*
Y1044085D01*
X-87171Y1047048D01*
X-84209Y1044085D01*
Y1038161D01*
Y1042604D01*
X-90134D01*
X-106427Y1114361D02*
Y1123248D01*
X-103464Y1120285D01*
X-100502Y1123248D01*
Y1114361D01*
X-97540D02*
X-94577D01*
X-96058D01*
Y1123248D01*
X-97540Y1121767D01*
X-90134Y1118804D02*
X-84209D01*
X-100502Y1096367D02*
X-101983Y1097848D01*
X-104945D01*
X-106427Y1096367D01*
Y1090442D01*
X-104945Y1088961D01*
X-101983D01*
X-100502Y1090442D01*
Y1093404D01*
X-103464D01*
X-97540Y1088961D02*
Y1097848D01*
X-91615Y1088961D01*
Y1097848D01*
X-88652D02*
Y1088961D01*
X-84209D01*
X-82728Y1090442D01*
Y1096367D01*
X-84209Y1097848D01*
X-88652D01*
X-100077Y1196911D02*
Y1205798D01*
X-95633D01*
X-94152Y1204317D01*
Y1201354D01*
X-95633Y1199873D01*
X-100077D01*
X-85265Y1196911D02*
X-91189D01*
X-85265Y1202835D01*
Y1204317D01*
X-86746Y1205798D01*
X-89708D01*
X-91189Y1204317D01*
X-100077Y1222311D02*
Y1231198D01*
X-95633D01*
X-94152Y1229717D01*
Y1226754D01*
X-95633Y1225273D01*
X-100077D01*
X-91189Y1222311D02*
X-88227D01*
X-89708D01*
Y1231198D01*
X-91189Y1229717D01*
X848105Y784161D02*
Y790085D01*
X845143Y733361D02*
Y739286D01*
X842181Y736323D02*
X848105D01*
X845143Y854011D02*
Y859936D01*
X842181Y856973D02*
X848105D01*
Y904811D02*
Y910735D01*
X827023Y1212913D02*
Y1206988D01*
X834643Y1092263D02*
Y1086338D01*
X837606Y1143063D02*
Y1137138D01*
X840568Y1140100D02*
X834643D01*
X845143Y612711D02*
Y618635D01*
X842181Y615673D02*
X848105D01*
Y663511D02*
Y669435D01*
X829986Y1263713D02*
Y1257788D01*
X832948Y1260750D02*
X827023D01*
D14*
X780454Y301625D02*
X771990Y293161D01*
Y301625D02*
X780454Y293161D01*
X776222Y301625D02*
Y293161D01*
X771990Y297393D02*
X780454D01*
X177204Y701675D02*
X168740Y693211D01*
Y701675D02*
X177204Y693211D01*
X172972Y701675D02*
Y693211D01*
X168740Y697443D02*
X177204D01*
X221654Y301625D02*
X213190Y293161D01*
Y301625D02*
X221654Y293161D01*
X217422Y301625D02*
Y293161D01*
X213190Y297393D02*
X221654D01*
D15*
X389221Y1034997D02*
D03*
X112402Y997020D02*
D03*
Y1124022D02*
D03*
X65356Y1092171D02*
D03*
X217761Y1123917D02*
D03*
X264802Y1092273D02*
D03*
X112402Y1060531D02*
D03*
X65361Y1028672D02*
D03*
X217761Y1060422D02*
D03*
M02*
