G04*
G04 #@! TF.GenerationSoftware,Altium Limited,Altium Designer,24.0.1 (36)*
G04*
G04 Layer_Color=8388736*
%FSLAX44Y44*%
%MOMM*%
G71*
G04*
G04 #@! TF.SameCoordinates,F5D6D73F-2C16-40EA-88EE-8A7EB2D9318C*
G04*
G04*
G04 #@! TF.FilePolarity,Negative*
G04*
G01*
G75*
%ADD16R,3.5052X1.7780*%
%ADD17O,2.2032X2.7032*%
%ADD18R,2.2032X2.7032*%
%ADD19C,2.7432*%
%ADD20R,2.7432X2.7432*%
%ADD21R,1.7112X1.7112*%
%ADD22C,1.7112*%
%ADD23O,2.7032X2.0032*%
%ADD24C,2.1082*%
%ADD25R,2.1082X2.1082*%
%ADD26C,4.0132*%
%ADD27C,3.2032*%
%ADD28R,2.2032X2.2032*%
%ADD29C,2.2032*%
%ADD30O,2.7032X2.0032*%
%ADD31R,2.2032X2.2032*%
%ADD32C,2.0032*%
%ADD33R,2.0032X2.0032*%
%ADD34O,2.7032X2.2032*%
%ADD35R,2.7032X2.2032*%
%ADD36R,2.7032X2.0032*%
%ADD37O,2.0032X2.7032*%
%ADD38C,2.7032*%
%ADD39R,2.7032X2.7032*%
%ADD40C,1.3208*%
%ADD41R,1.3208X1.3208*%
%ADD42C,1.4732*%
D16*
X679450Y1143762D02*
D03*
Y1091438D02*
D03*
Y1258062D02*
D03*
Y1205738D02*
D03*
D17*
X596900Y1263650D02*
D03*
X571500D02*
D03*
X412749Y1265237D02*
D03*
X387349D02*
D03*
D18*
X546100Y1263650D02*
D03*
X361949Y1265237D02*
D03*
D19*
X781050Y1257300D02*
D03*
X787399Y1087437D02*
D03*
X798829Y788987D02*
D03*
Y858837D02*
D03*
Y668337D02*
D03*
D20*
X781050Y1206500D02*
D03*
X787399Y1138237D02*
D03*
X798829Y738187D02*
D03*
Y909637D02*
D03*
Y617537D02*
D03*
D21*
X-18300Y745850D02*
D03*
Y910950D02*
D03*
Y828400D02*
D03*
D22*
X-83300Y745850D02*
D03*
X-18300Y790850D02*
D03*
X-83300D02*
D03*
Y910950D02*
D03*
X-18300Y955950D02*
D03*
X-83300D02*
D03*
Y828400D02*
D03*
X-18300Y873400D02*
D03*
X-83300D02*
D03*
D23*
X-36830Y177800D02*
D03*
X64770D02*
D03*
X-88900Y495300D02*
D03*
Y469900D02*
D03*
Y444500D02*
D03*
Y419100D02*
D03*
Y393700D02*
D03*
Y368300D02*
D03*
X-12700Y520700D02*
D03*
Y495300D02*
D03*
Y469900D02*
D03*
Y444500D02*
D03*
Y419100D02*
D03*
Y393700D02*
D03*
Y368300D02*
D03*
X463550Y1073150D02*
D03*
X361950D02*
D03*
X361949Y1106487D02*
D03*
X463549D02*
D03*
X292100Y996950D02*
D03*
X190500D02*
D03*
X190499Y1023937D02*
D03*
X292099D02*
D03*
X762000Y495300D02*
D03*
Y469900D02*
D03*
Y444500D02*
D03*
Y419100D02*
D03*
Y393700D02*
D03*
Y368300D02*
D03*
X838200Y520700D02*
D03*
Y495300D02*
D03*
Y469900D02*
D03*
Y444500D02*
D03*
Y419100D02*
D03*
Y393700D02*
D03*
Y368300D02*
D03*
X641350Y495300D02*
D03*
Y469900D02*
D03*
Y444500D02*
D03*
Y419100D02*
D03*
Y393700D02*
D03*
Y368300D02*
D03*
X717550Y520700D02*
D03*
Y495300D02*
D03*
Y469900D02*
D03*
Y444500D02*
D03*
Y419100D02*
D03*
Y393700D02*
D03*
Y368300D02*
D03*
X520700Y495300D02*
D03*
Y469900D02*
D03*
Y444500D02*
D03*
Y419100D02*
D03*
Y393700D02*
D03*
Y368300D02*
D03*
X596900Y520700D02*
D03*
Y495300D02*
D03*
Y469900D02*
D03*
Y444500D02*
D03*
Y419100D02*
D03*
Y393700D02*
D03*
Y368300D02*
D03*
X400050Y495300D02*
D03*
Y469900D02*
D03*
Y444500D02*
D03*
Y419100D02*
D03*
Y393700D02*
D03*
Y368300D02*
D03*
X476250Y520700D02*
D03*
Y495300D02*
D03*
Y469900D02*
D03*
Y444500D02*
D03*
Y419100D02*
D03*
Y393700D02*
D03*
Y368300D02*
D03*
X273050Y495300D02*
D03*
Y469900D02*
D03*
Y444500D02*
D03*
Y419100D02*
D03*
Y393700D02*
D03*
Y368300D02*
D03*
X349250Y520700D02*
D03*
Y495300D02*
D03*
Y469900D02*
D03*
Y444500D02*
D03*
Y419100D02*
D03*
Y393700D02*
D03*
Y368300D02*
D03*
X152400Y495300D02*
D03*
Y469900D02*
D03*
Y444500D02*
D03*
Y419100D02*
D03*
Y393700D02*
D03*
Y368300D02*
D03*
X228600Y520700D02*
D03*
Y495300D02*
D03*
Y469900D02*
D03*
Y444500D02*
D03*
Y419100D02*
D03*
Y393700D02*
D03*
Y368300D02*
D03*
X31750Y495300D02*
D03*
Y469900D02*
D03*
Y444500D02*
D03*
Y419100D02*
D03*
Y393700D02*
D03*
Y368300D02*
D03*
X107950Y520700D02*
D03*
Y495300D02*
D03*
Y469900D02*
D03*
Y444500D02*
D03*
Y419100D02*
D03*
Y393700D02*
D03*
Y368300D02*
D03*
X666750Y165100D02*
D03*
X768350D02*
D03*
X666750Y139700D02*
D03*
X768350D02*
D03*
X-36830Y152400D02*
D03*
X64770D02*
D03*
D24*
X247650Y1193800D02*
D03*
X234950Y1244600D02*
D03*
X222250Y1193800D02*
D03*
X209550Y1244600D02*
D03*
X196850Y1193800D02*
D03*
X184150Y1244600D02*
D03*
X171450Y1193800D02*
D03*
X158750Y1244600D02*
D03*
X146050Y1193800D02*
D03*
X133350Y1244600D02*
D03*
X120650Y1193800D02*
D03*
X107950Y1244600D02*
D03*
X95250Y1193800D02*
D03*
X82550Y1244600D02*
D03*
D25*
X69850Y1193800D02*
D03*
D26*
X280670Y1216914D02*
D03*
X36830D02*
D03*
D27*
X228800Y916050D02*
D03*
X698300Y670950D02*
D03*
Y916050D02*
D03*
X228800Y670950D02*
D03*
X838200Y133350D02*
D03*
X-95250Y1301750D02*
D03*
X838200D02*
D03*
X-95250Y133350D02*
D03*
D28*
X308400Y666750D02*
D03*
D29*
X333800D02*
D03*
X359200D02*
D03*
X384600D02*
D03*
X410000D02*
D03*
X435400D02*
D03*
X460800D02*
D03*
X486200D02*
D03*
X511600D02*
D03*
X537000D02*
D03*
X562400D02*
D03*
X587800D02*
D03*
X613200D02*
D03*
X638600D02*
D03*
X664000D02*
D03*
X308400Y920750D02*
D03*
X333800D02*
D03*
X359200D02*
D03*
X384600D02*
D03*
X410000D02*
D03*
X435400D02*
D03*
X460800D02*
D03*
X486200D02*
D03*
X511600D02*
D03*
X537000D02*
D03*
X562400D02*
D03*
X587800D02*
D03*
X613200D02*
D03*
X638600D02*
D03*
X664000D02*
D03*
X761840Y998601D02*
D03*
X731360Y1045591D02*
D03*
D30*
X469899Y1161097D02*
D03*
Y1189037D02*
D03*
X533400Y1098550D02*
D03*
Y1123950D02*
D03*
Y1054100D02*
D03*
Y1028700D02*
D03*
Y1174750D02*
D03*
Y1200150D02*
D03*
X591820Y1097490D02*
D03*
Y1122890D02*
D03*
Y1052830D02*
D03*
Y1027430D02*
D03*
X380999Y1161097D02*
D03*
Y1189037D02*
D03*
D31*
X700880Y998601D02*
D03*
D32*
X-38100Y1016000D02*
D03*
X-63500D02*
D03*
X-38100Y1041400D02*
D03*
X-63500D02*
D03*
X-38100Y1066800D02*
D03*
X-63500D02*
D03*
X-38100Y1092200D02*
D03*
X-63500D02*
D03*
X-38100Y1117600D02*
D03*
X-63500D02*
D03*
X-38100Y1143000D02*
D03*
X-38101Y1227137D02*
D03*
X-63501Y1201737D02*
D03*
X-38101D02*
D03*
D33*
X-63500Y1143000D02*
D03*
X-63501Y1227137D02*
D03*
D34*
X463550Y1035050D02*
D03*
X38100Y996950D02*
D03*
Y1123950D02*
D03*
X139700Y1092200D02*
D03*
X292100Y1123950D02*
D03*
X190500Y1092200D02*
D03*
X38100Y1060450D02*
D03*
X139700Y1028700D02*
D03*
X292100Y1060450D02*
D03*
D35*
X361950Y1035050D02*
D03*
X139700Y996950D02*
D03*
Y1123950D02*
D03*
X38100Y1092200D02*
D03*
X190500Y1123950D02*
D03*
X292100Y1092200D02*
D03*
X139700Y1060450D02*
D03*
X38100Y1028700D02*
D03*
X190500Y1060450D02*
D03*
D36*
X-88900Y520700D02*
D03*
X762000D02*
D03*
X641350D02*
D03*
X520700D02*
D03*
X400050D02*
D03*
X273050D02*
D03*
X152400D02*
D03*
X31750D02*
D03*
D37*
X129540Y166370D02*
D03*
X154940D02*
D03*
X544830Y153670D02*
D03*
X570230D02*
D03*
X603250Y152400D02*
D03*
X628650D02*
D03*
X210611Y166370D02*
D03*
X185210D02*
D03*
D38*
X298450Y266700D02*
D03*
X450850D02*
D03*
Y190500D02*
D03*
D39*
X298450D02*
D03*
D40*
X762000Y220030D02*
D03*
X736600D02*
D03*
X711200D02*
D03*
X685800D02*
D03*
X660400D02*
D03*
X635000D02*
D03*
X609600D02*
D03*
X584200D02*
D03*
X558800D02*
D03*
X533400D02*
D03*
Y298450D02*
D03*
X558800D02*
D03*
X584200D02*
D03*
X609600D02*
D03*
X635000D02*
D03*
X660400D02*
D03*
X685800D02*
D03*
X711200D02*
D03*
X736600D02*
D03*
X158750Y620080D02*
D03*
X133350D02*
D03*
X107950D02*
D03*
X82550D02*
D03*
X57150D02*
D03*
X31750D02*
D03*
X6350D02*
D03*
X-19050D02*
D03*
X-44450D02*
D03*
X-69850D02*
D03*
Y698500D02*
D03*
X-44450D02*
D03*
X-19050D02*
D03*
X6350D02*
D03*
X31750D02*
D03*
X57150D02*
D03*
X82550D02*
D03*
X107950D02*
D03*
X133350D02*
D03*
X203200Y220030D02*
D03*
X177800D02*
D03*
X152400D02*
D03*
X127000D02*
D03*
X101600D02*
D03*
X76200D02*
D03*
X50800D02*
D03*
X25400D02*
D03*
X0D02*
D03*
X-25400D02*
D03*
Y298450D02*
D03*
X0D02*
D03*
X25400D02*
D03*
X50800D02*
D03*
X76200D02*
D03*
X101600D02*
D03*
X127000D02*
D03*
X152400D02*
D03*
X177800D02*
D03*
D41*
X762000D02*
D03*
X158750Y698500D02*
D03*
X203200Y298450D02*
D03*
D42*
X637540Y947420D02*
D03*
X612140D02*
D03*
X589280D02*
D03*
X596900Y1214120D02*
D03*
X561340Y947420D02*
D03*
X10160Y995680D02*
D03*
X-7620Y982980D02*
D03*
X-91819Y986026D02*
D03*
X746760Y914400D02*
D03*
X-107950Y996950D02*
D03*
X397410Y989330D02*
D03*
X692150Y431800D02*
D03*
X698500Y577850D02*
D03*
X660400D02*
D03*
X317500Y1231900D02*
D03*
M02*
