G04*
G04 #@! TF.GenerationSoftware,Altium Limited,Altium Designer,24.0.1 (36)*
G04*
G04 Layer_Color=8388736*
%FSLAX44Y44*%
%MOMM*%
G71*
G04*
G04 #@! TF.SameCoordinates,43BDCCDE-791F-4BA8-B158-4DCCD13140C2*
G04*
G04*
G04 #@! TF.FilePolarity,Negative*
G04*
G01*
G75*
%ADD17R,3.5052X1.7780*%
%ADD18O,2.0032X2.7032*%
%ADD19R,2.0032X2.0032*%
%ADD20C,2.0032*%
%ADD21O,2.7032X2.2032*%
%ADD22R,2.7032X2.2032*%
%ADD23R,2.7432X2.7432*%
%ADD24C,2.7432*%
%ADD25C,3.2032*%
%ADD26R,2.2032X2.2032*%
%ADD27C,2.2032*%
%ADD28O,2.2032X2.7032*%
%ADD29R,2.2032X2.7032*%
%ADD30O,2.7032X2.0032*%
%ADD31O,2.0032X2.7032*%
%ADD32R,2.2032X2.2032*%
%ADD33C,2.1082*%
%ADD34R,2.1082X2.1082*%
%ADD35C,4.0132*%
%ADD36C,1.4732*%
D17*
X558800Y407162D02*
D03*
Y354838D02*
D03*
X622300Y889762D02*
D03*
Y837438D02*
D03*
D18*
X546100Y660400D02*
D03*
X520700D02*
D03*
X444500D02*
D03*
X469900D02*
D03*
X368300D02*
D03*
X393700D02*
D03*
D19*
X50800Y495300D02*
D03*
Y711200D02*
D03*
D20*
X76200Y495300D02*
D03*
X50800Y469900D02*
D03*
X76200D02*
D03*
X50800Y444500D02*
D03*
X76200D02*
D03*
X50800Y419100D02*
D03*
X76200D02*
D03*
Y584200D02*
D03*
X50800D02*
D03*
X76200Y609600D02*
D03*
X50800D02*
D03*
X76200Y635000D02*
D03*
X50800D02*
D03*
X76200Y660400D02*
D03*
X50800D02*
D03*
X76200Y685800D02*
D03*
X50800D02*
D03*
X76200Y711200D02*
D03*
D21*
X254000Y368300D02*
D03*
X152400Y419100D02*
D03*
X254000Y469900D02*
D03*
X152400Y520700D02*
D03*
X520700Y584200D02*
D03*
X254000Y571500D02*
D03*
X152400Y723900D02*
D03*
X254000Y673100D02*
D03*
X152400Y622300D02*
D03*
D22*
Y368300D02*
D03*
X254000Y419100D02*
D03*
X152400Y469900D02*
D03*
X254000Y520700D02*
D03*
X419100Y584200D02*
D03*
X152400Y571500D02*
D03*
X254000Y723900D02*
D03*
X152400Y673100D02*
D03*
X254000Y622300D02*
D03*
D23*
X671830Y96210D02*
D03*
Y229560D02*
D03*
X673100Y412750D02*
D03*
Y647700D02*
D03*
Y730250D02*
D03*
D24*
X671830Y147010D02*
D03*
Y280360D02*
D03*
X673100Y361950D02*
D03*
Y596900D02*
D03*
Y781050D02*
D03*
D25*
X95450Y300100D02*
D03*
X564950Y55000D02*
D03*
Y300100D02*
D03*
X95450Y55000D02*
D03*
X698500Y37790D02*
D03*
X38100D02*
D03*
Y888690D02*
D03*
X692150D02*
D03*
D26*
X175050Y50800D02*
D03*
D27*
X200450D02*
D03*
X225850D02*
D03*
X251250D02*
D03*
X276650D02*
D03*
X302050D02*
D03*
X327450D02*
D03*
X352850D02*
D03*
X378250D02*
D03*
X403650D02*
D03*
X429050D02*
D03*
X454450D02*
D03*
X479850D02*
D03*
X505250D02*
D03*
X530650D02*
D03*
X175050Y304800D02*
D03*
X200450D02*
D03*
X225850D02*
D03*
X251250D02*
D03*
X276650D02*
D03*
X302050D02*
D03*
X327450D02*
D03*
X352850D02*
D03*
X378250D02*
D03*
X403650D02*
D03*
X429050D02*
D03*
X454450D02*
D03*
X479850D02*
D03*
X505250D02*
D03*
X530650D02*
D03*
X641350Y501650D02*
D03*
X610870Y548640D02*
D03*
D28*
X558800Y863600D02*
D03*
X533400D02*
D03*
X431800D02*
D03*
X406400D02*
D03*
D29*
X508000D02*
D03*
X381000D02*
D03*
D30*
X520700Y735330D02*
D03*
Y763270D02*
D03*
X419100Y734060D02*
D03*
Y762000D02*
D03*
X438150Y514350D02*
D03*
Y488950D02*
D03*
X495300Y514350D02*
D03*
Y488950D02*
D03*
D31*
X330200D02*
D03*
Y590550D02*
D03*
X361950Y488950D02*
D03*
Y590550D02*
D03*
D32*
X580390Y501650D02*
D03*
D33*
X292100Y787400D02*
D03*
X279400Y838200D02*
D03*
X266700Y787400D02*
D03*
X254000Y838200D02*
D03*
X241300Y787400D02*
D03*
X228600Y838200D02*
D03*
X215900Y787400D02*
D03*
X203200Y838200D02*
D03*
X190500Y787400D02*
D03*
X177800Y838200D02*
D03*
X165100Y787400D02*
D03*
X152400Y838200D02*
D03*
X139700Y787400D02*
D03*
X127000Y838200D02*
D03*
D34*
X114300Y787400D02*
D03*
D35*
X325120Y810514D02*
D03*
X81280D02*
D03*
D36*
X273050Y889000D02*
D03*
X558800Y457200D02*
D03*
X323850Y749300D02*
D03*
X50800Y787400D02*
D03*
M02*
