M48
;Layer_Color=9474304
;FILE_FORMAT=4:2
METRIC,LZ
;TYPE=PLATED
T01F00S00C0.71
T02F00S00C0.89
T03F00S00C0.99
T04F00S00C1.02
T05F00S00C1.24
T06F00S00C1.45
T07F00S00C2.11
T08F00S00C3.00
;TYPE=NON_PLATED
T09F00S00C3.00
%
T01
X005588Y004572
X003238Y007493
X002731Y00889
X000508Y007874
T02
X001524Y003683
Y004191
Y004699
Y005207
X00254
Y004699
Y004191
Y003683
Y005715
Y006223
Y006731
Y007239
X001524
Y006731
Y006223
Y005715
X004191Y005842
X005207
T03
X004381Y00489
Y005144
X004953
Y00489
X003619
X003302
X000762Y004953
X000508
Y004699
X000762
Y004445
X000508
Y004191
X000762
Y005842
X000508
Y006096
X000762
Y00635
X000508
Y006604
X000762
Y006858
X000508
Y007112
X000762
X003683Y006604
X003937
X003619Y005906
X003302
X00381Y008636
X004064
X004318
X00508
X005334
X005588
X005207Y007633
Y007353
Y006604
X005461
X004699
X004445
X004191Y007341
Y00762
T04
X00175Y000508
X002005
X002258
X002512
X002767
X00302
X003274
X003528
X003783
X004037
X00429
X004544
X004799
X005053
X005306
Y003048
X005053
X004799
X004544
X00429
X004037
X003783
X003528
X003274
X00302
X002767
X002512
X002258
X002005
X00175
T05
X005804Y005017
X006414
X006109Y005486
T06
X006718Y000962
Y00147
Y002296
Y002804
X006731Y003619
Y004128
X002921Y007874
X002667
X002413
X002159
X001905
X001651
X001397
X001143
X00127Y008382
X001524
X001778
X002032
X002286
X00254
X002794
X006731Y007811
Y007303
Y006477
Y005969
T07
X000813Y008105
X003251
T08
X000381Y000378
X006985
X000381Y008887
X006921
T09
X000955Y00055
X005649
Y003001
X000955
M30
