G04*
G04 #@! TF.GenerationSoftware,Altium Limited,Altium Designer,24.0.1 (36)*
G04*
G04 Layer_Physical_Order=2*
G04 Layer_Color=16711680*
%FSLAX44Y44*%
%MOMM*%
G71*
G04*
G04 #@! TF.SameCoordinates,43BDCCDE-791F-4BA8-B158-4DCCD13140C2*
G04*
G04*
G04 #@! TF.FilePolarity,Positive*
G04*
G01*
G75*
%ADD11C,0.2540*%
%ADD37O,1.8000X2.5000*%
%ADD38R,1.8000X1.8000*%
%ADD39C,1.8000*%
%ADD40O,2.5000X2.0000*%
%ADD41R,2.5000X2.0000*%
%ADD42R,2.5400X2.5400*%
%ADD43C,2.5400*%
%ADD44C,3.0000*%
%ADD45R,2.0000X2.0000*%
%ADD46C,2.0000*%
%ADD47O,2.0000X2.5000*%
%ADD48R,2.0000X2.5000*%
%ADD49O,2.5000X1.8000*%
%ADD50O,1.8000X2.5000*%
%ADD51R,2.0000X2.0000*%
%ADD52C,1.9050*%
%ADD53R,1.9050X1.9050*%
%ADD54C,3.8100*%
%ADD55C,1.2700*%
G36*
X711200Y51555D02*
X710027Y51069D01*
X709681Y51414D01*
X706808Y53334D01*
X703616Y54656D01*
X700228Y55330D01*
X696773D01*
X693384Y54656D01*
X690192Y53334D01*
X687319Y51414D01*
X684876Y48971D01*
X682956Y46098D01*
X681634Y42906D01*
X680960Y39518D01*
Y36063D01*
X681634Y32674D01*
X682956Y29482D01*
X684835Y26670D01*
X684720Y26110D01*
X684425Y25400D01*
X52175D01*
X51880Y26110D01*
X51765Y26670D01*
X53644Y29482D01*
X54966Y32674D01*
X55640Y36063D01*
Y39518D01*
X54966Y42906D01*
X53644Y46098D01*
X51724Y48971D01*
X49281Y51414D01*
X46408Y53334D01*
X43216Y54656D01*
X39827Y55330D01*
X36372D01*
X32984Y54656D01*
X29792Y53334D01*
X26919Y51414D01*
X26573Y51069D01*
X25400Y51555D01*
Y874925D01*
X26573Y875411D01*
X26919Y875066D01*
X29792Y873146D01*
X32984Y871824D01*
X36372Y871150D01*
X39827D01*
X43216Y871824D01*
X46408Y873146D01*
X49281Y875066D01*
X51724Y877509D01*
X53644Y880382D01*
X54966Y883574D01*
X55640Y886963D01*
Y890417D01*
X54966Y893806D01*
X53644Y896998D01*
X51724Y899871D01*
X51069Y900527D01*
X51555Y901700D01*
X678695D01*
X679181Y900527D01*
X678526Y899871D01*
X676606Y896998D01*
X675284Y893806D01*
X674610Y890417D01*
Y886963D01*
X675284Y883574D01*
X676606Y880382D01*
X678526Y877509D01*
X680969Y875066D01*
X683842Y873146D01*
X687034Y871824D01*
X690423Y871150D01*
X693877D01*
X697266Y871824D01*
X700458Y873146D01*
X703331Y875066D01*
X705774Y877509D01*
X707694Y880382D01*
X709016Y883574D01*
X709690Y886963D01*
Y890417D01*
X709016Y893806D01*
X707694Y896998D01*
X705774Y899871D01*
X705119Y900527D01*
X705605Y901700D01*
X711200D01*
Y51555D01*
D02*
G37*
%LPC*%
G36*
X558800Y878748D02*
X555526Y878317D01*
X552476Y877054D01*
X549856Y875044D01*
X547846Y872424D01*
X546787Y869867D01*
X545413D01*
X544354Y872424D01*
X542344Y875044D01*
X539724Y877054D01*
X536674Y878317D01*
X534670Y878581D01*
Y863600D01*
Y848619D01*
X536674Y848883D01*
X539724Y850146D01*
X542344Y852156D01*
X544354Y854776D01*
X545413Y857333D01*
X546787D01*
X547846Y854776D01*
X549856Y852156D01*
X552476Y850146D01*
X555526Y848883D01*
X558800Y848452D01*
X562074Y848883D01*
X565124Y850146D01*
X567744Y852156D01*
X569754Y854776D01*
X571017Y857826D01*
X571448Y861100D01*
Y866100D01*
X571017Y869374D01*
X569754Y872424D01*
X567744Y875044D01*
X565124Y877054D01*
X562074Y878317D01*
X558800Y878748D01*
D02*
G37*
G36*
X431800D02*
X428526Y878317D01*
X425476Y877054D01*
X422856Y875044D01*
X420846Y872424D01*
X419787Y869867D01*
X418413D01*
X417354Y872424D01*
X415344Y875044D01*
X412724Y877054D01*
X409674Y878317D01*
X407670Y878581D01*
Y863600D01*
Y848619D01*
X409674Y848883D01*
X412724Y850146D01*
X415344Y852156D01*
X417354Y854776D01*
X418413Y857333D01*
X419787D01*
X420846Y854776D01*
X422856Y852156D01*
X425476Y850146D01*
X428526Y848883D01*
X431800Y848452D01*
X435074Y848883D01*
X438124Y850146D01*
X440744Y852156D01*
X442754Y854776D01*
X444017Y857826D01*
X444448Y861100D01*
Y866100D01*
X444017Y869374D01*
X442754Y872424D01*
X440744Y875044D01*
X438124Y877054D01*
X435074Y878317D01*
X431800Y878748D01*
D02*
G37*
G36*
X520540Y878640D02*
X495460D01*
Y848560D01*
X520540D01*
Y856059D01*
X521810Y856312D01*
X522446Y854776D01*
X524456Y852156D01*
X527076Y850146D01*
X530126Y848883D01*
X532130Y848619D01*
Y863600D01*
Y878581D01*
X530126Y878317D01*
X527076Y877054D01*
X524456Y875044D01*
X522446Y872424D01*
X521810Y870888D01*
X520540Y871141D01*
Y878640D01*
D02*
G37*
G36*
X274220Y897890D02*
X271880D01*
X269619Y897284D01*
X267591Y896114D01*
X265936Y894459D01*
X265028Y892885D01*
X203200D01*
X201713Y892589D01*
X200453Y891747D01*
X157749Y849043D01*
X157057Y849443D01*
X153988Y850265D01*
X150812D01*
X147743Y849443D01*
X144992Y847854D01*
X142746Y845608D01*
X141157Y842857D01*
X140335Y839788D01*
Y836612D01*
X141157Y833543D01*
X142746Y830792D01*
X144992Y828546D01*
X147743Y826957D01*
X150812Y826135D01*
X153988D01*
X157057Y826957D01*
X159808Y828546D01*
X162054Y830792D01*
X163643Y833543D01*
X164465Y836612D01*
Y839788D01*
X163643Y842857D01*
X163243Y843549D01*
X204809Y885115D01*
X265028D01*
X265936Y883541D01*
X267591Y881886D01*
X269619Y880716D01*
X271880Y880110D01*
X274220D01*
X276481Y880716D01*
X278509Y881886D01*
X280164Y883541D01*
X281073Y885115D01*
X373041D01*
X377115Y881041D01*
Y878640D01*
X368460D01*
Y848560D01*
X393540D01*
Y856059D01*
X394810Y856312D01*
X395446Y854776D01*
X397456Y852156D01*
X400076Y850146D01*
X403126Y848883D01*
X405130Y848619D01*
Y863600D01*
Y878581D01*
X403126Y878317D01*
X400076Y877054D01*
X397456Y875044D01*
X395446Y872424D01*
X394810Y870888D01*
X393540Y871141D01*
Y878640D01*
X384885D01*
Y882650D01*
X384589Y884137D01*
X383747Y885397D01*
X377397Y891747D01*
X376137Y892589D01*
X374650Y892885D01*
X281073D01*
X280164Y894459D01*
X278509Y896114D01*
X276481Y897284D01*
X274220Y897890D01*
D02*
G37*
G36*
X204788Y850265D02*
X204470D01*
Y839470D01*
X215265D01*
Y839788D01*
X214443Y842857D01*
X212854Y845608D01*
X210608Y847854D01*
X207857Y849443D01*
X204788Y850265D01*
D02*
G37*
G36*
X201930D02*
X201612D01*
X198543Y849443D01*
X195792Y847854D01*
X193546Y845608D01*
X191957Y842857D01*
X191135Y839788D01*
Y839470D01*
X201930D01*
Y850265D01*
D02*
G37*
G36*
X280988D02*
X277812D01*
X274743Y849443D01*
X271992Y847854D01*
X269746Y845608D01*
X268157Y842857D01*
X267335Y839788D01*
Y836612D01*
X268157Y833543D01*
X269746Y830792D01*
X271992Y828546D01*
X274743Y826957D01*
X277812Y826135D01*
X280988D01*
X284057Y826957D01*
X286808Y828546D01*
X289054Y830792D01*
X290643Y833543D01*
X291465Y836612D01*
Y839788D01*
X290643Y842857D01*
X289054Y845608D01*
X286808Y847854D01*
X284057Y849443D01*
X280988Y850265D01*
D02*
G37*
G36*
X215265Y836930D02*
X204470D01*
Y826135D01*
X204788D01*
X207857Y826957D01*
X210608Y828546D01*
X212854Y830792D01*
X214443Y833543D01*
X215265Y836612D01*
Y836930D01*
D02*
G37*
G36*
X201930D02*
X191135D01*
Y836612D01*
X191957Y833543D01*
X193546Y830792D01*
X195792Y828546D01*
X198543Y826957D01*
X201612Y826135D01*
X201930D01*
Y836930D01*
D02*
G37*
G36*
X128588Y850265D02*
X125412D01*
X122343Y849443D01*
X119592Y847854D01*
X117346Y845608D01*
X115757Y842857D01*
X115550Y842085D01*
X76637D01*
X75150Y841789D01*
X73890Y840947D01*
X48053Y815110D01*
X47211Y813849D01*
X46915Y812363D01*
Y795423D01*
X45341Y794514D01*
X43686Y792859D01*
X42516Y790831D01*
X41910Y788570D01*
Y786230D01*
X42516Y783969D01*
X43686Y781941D01*
X45341Y780286D01*
X47369Y779116D01*
X49630Y778510D01*
X51970D01*
X54231Y779116D01*
X56259Y780286D01*
X57914Y781941D01*
X59084Y783969D01*
X59690Y786230D01*
Y788570D01*
X59084Y790831D01*
X57914Y792859D01*
X56259Y794514D01*
X54685Y795423D01*
Y810754D01*
X58918Y814987D01*
X60038Y814388D01*
X59690Y812640D01*
Y808388D01*
X60520Y804216D01*
X62147Y800287D01*
X64510Y796751D01*
X67517Y793744D01*
X71053Y791381D01*
X74982Y789754D01*
X79154Y788924D01*
X83406D01*
X87578Y789754D01*
X91507Y791381D01*
X95043Y793744D01*
X98050Y796751D01*
X100413Y800287D01*
X102040Y804216D01*
X102870Y808388D01*
Y812640D01*
X102040Y816812D01*
X100413Y820741D01*
X98050Y824277D01*
X95043Y827284D01*
X91507Y829647D01*
X87578Y831274D01*
X83406Y832104D01*
X79154D01*
X77406Y831756D01*
X76807Y832876D01*
X78246Y834315D01*
X115550D01*
X115757Y833543D01*
X117346Y830792D01*
X119592Y828546D01*
X122343Y826957D01*
X125412Y826135D01*
X128588D01*
X131657Y826957D01*
X134408Y828546D01*
X136654Y830792D01*
X138243Y833543D01*
X139065Y836612D01*
Y839788D01*
X138243Y842857D01*
X136654Y845608D01*
X134408Y847854D01*
X131657Y849443D01*
X128588Y850265D01*
D02*
G37*
G36*
X179388D02*
X176212D01*
X173143Y849443D01*
X170392Y847854D01*
X168146Y845608D01*
X166557Y842857D01*
X165735Y839788D01*
Y836612D01*
X166557Y833543D01*
X168146Y830792D01*
X170392Y828546D01*
X173143Y826957D01*
X176212Y826135D01*
X179388D01*
X182457Y826957D01*
X183149Y827357D01*
X210746Y799761D01*
X210498Y798213D01*
X208492Y797054D01*
X206246Y794808D01*
X204657Y792057D01*
X203835Y788988D01*
Y785812D01*
X204657Y782743D01*
X206246Y779992D01*
X208492Y777746D01*
X211243Y776157D01*
X214312Y775335D01*
X217488D01*
X220557Y776157D01*
X223308Y777746D01*
X225554Y779992D01*
X227143Y782743D01*
X227965Y785812D01*
Y788988D01*
X227143Y792057D01*
X225554Y794808D01*
X224685Y795677D01*
X225172Y796850D01*
X232029D01*
X232514Y795677D01*
X231646Y794808D01*
X230057Y792057D01*
X229235Y788988D01*
Y785812D01*
X230057Y782743D01*
X230998Y781113D01*
X229863Y779978D01*
X229021Y778718D01*
X228725Y777232D01*
Y348840D01*
X229021Y347353D01*
X229863Y346093D01*
X265459Y310497D01*
X264965Y309640D01*
X264607Y308307D01*
X263293D01*
X262935Y309640D01*
X261285Y312500D01*
X258950Y314834D01*
X256090Y316485D01*
X252901Y317340D01*
X249599D01*
X246410Y316485D01*
X243550Y314834D01*
X241215Y312500D01*
X239565Y309640D01*
X239207Y308307D01*
X237893D01*
X237535Y309640D01*
X235884Y312500D01*
X233550Y314834D01*
X230690Y316485D01*
X227501Y317340D01*
X224199D01*
X221010Y316485D01*
X218150Y314834D01*
X215816Y312500D01*
X214165Y309640D01*
X213807Y308307D01*
X212493D01*
X212135Y309640D01*
X210485Y312500D01*
X208150Y314834D01*
X205290Y316485D01*
X202101Y317340D01*
X201720D01*
Y304800D01*
Y292260D01*
X202101D01*
X205290Y293115D01*
X208150Y294765D01*
X210485Y297100D01*
X212135Y299960D01*
X212493Y301293D01*
X213807D01*
X214165Y299960D01*
X215816Y297100D01*
X218150Y294765D01*
X221010Y293115D01*
X224199Y292260D01*
X227501D01*
X230690Y293115D01*
X233550Y294765D01*
X235884Y297100D01*
X237535Y299960D01*
X237893Y301293D01*
X239207D01*
X239565Y299960D01*
X241215Y297100D01*
X243550Y294765D01*
X246410Y293115D01*
X249599Y292260D01*
X252901D01*
X256090Y293115D01*
X258950Y294765D01*
X261285Y297100D01*
X262935Y299960D01*
X263293Y301293D01*
X264607D01*
X264965Y299960D01*
X266616Y297100D01*
X268950Y294765D01*
X271810Y293115D01*
X274999Y292260D01*
X278301D01*
X281490Y293115D01*
X284350Y294765D01*
X286684Y297100D01*
X288335Y299960D01*
X288693Y301293D01*
X290007D01*
X290365Y299960D01*
X292015Y297100D01*
X294350Y294765D01*
X297210Y293115D01*
X300399Y292260D01*
X303701D01*
X306890Y293115D01*
X309750Y294765D01*
X312085Y297100D01*
X313735Y299960D01*
X314093Y301293D01*
X315407D01*
X315765Y299960D01*
X317416Y297100D01*
X319750Y294765D01*
X322610Y293115D01*
X325799Y292260D01*
X329101D01*
X332290Y293115D01*
X335150Y294765D01*
X337485Y297100D01*
X339135Y299960D01*
X339493Y301293D01*
X340807D01*
X341165Y299960D01*
X342816Y297100D01*
X345150Y294765D01*
X348010Y293115D01*
X351199Y292260D01*
X354501D01*
X357690Y293115D01*
X360550Y294765D01*
X362884Y297100D01*
X364535Y299960D01*
X364893Y301293D01*
X366207D01*
X366565Y299960D01*
X368215Y297100D01*
X370550Y294765D01*
X373410Y293115D01*
X376599Y292260D01*
X379901D01*
X383090Y293115D01*
X385950Y294765D01*
X388284Y297100D01*
X389935Y299960D01*
X390293Y301293D01*
X391607D01*
X391965Y299960D01*
X393615Y297100D01*
X395950Y294765D01*
X398810Y293115D01*
X401999Y292260D01*
X405301D01*
X408490Y293115D01*
X411350Y294765D01*
X413685Y297100D01*
X415335Y299960D01*
X415693Y301293D01*
X417007D01*
X417365Y299960D01*
X419016Y297100D01*
X421350Y294765D01*
X424210Y293115D01*
X427399Y292260D01*
X430701D01*
X433890Y293115D01*
X436750Y294765D01*
X439085Y297100D01*
X440735Y299960D01*
X441093Y301293D01*
X442407D01*
X442765Y299960D01*
X444416Y297100D01*
X446750Y294765D01*
X449610Y293115D01*
X452799Y292260D01*
X456101D01*
X459290Y293115D01*
X462150Y294765D01*
X464484Y297100D01*
X466135Y299960D01*
X466493Y301293D01*
X467807D01*
X468165Y299960D01*
X469815Y297100D01*
X472150Y294765D01*
X475010Y293115D01*
X478199Y292260D01*
X481501D01*
X484690Y293115D01*
X487550Y294765D01*
X489884Y297100D01*
X491535Y299960D01*
X491893Y301293D01*
X493207D01*
X493565Y299960D01*
X495215Y297100D01*
X497550Y294765D01*
X500410Y293115D01*
X503599Y292260D01*
X506901D01*
X510090Y293115D01*
X512950Y294765D01*
X515285Y297100D01*
X516935Y299960D01*
X517293Y301293D01*
X518607D01*
X518965Y299960D01*
X520616Y297100D01*
X522950Y294765D01*
X525810Y293115D01*
X528999Y292260D01*
X532301D01*
X535490Y293115D01*
X538350Y294765D01*
X540685Y297100D01*
X542335Y299960D01*
X543190Y303149D01*
Y306451D01*
X542335Y309640D01*
X540685Y312500D01*
X538350Y314834D01*
X535490Y316485D01*
X532301Y317340D01*
X528999D01*
X525810Y316485D01*
X522950Y314834D01*
X520616Y312500D01*
X518965Y309640D01*
X518607Y308307D01*
X517293D01*
X516935Y309640D01*
X515285Y312500D01*
X512950Y314834D01*
X510090Y316485D01*
X506901Y317340D01*
X503599D01*
X500410Y316485D01*
X497550Y314834D01*
X495215Y312500D01*
X493565Y309640D01*
X493207Y308307D01*
X491893D01*
X491535Y309640D01*
X489884Y312500D01*
X487550Y314834D01*
X484690Y316485D01*
X481501Y317340D01*
X478199D01*
X475010Y316485D01*
X472150Y314834D01*
X469815Y312500D01*
X468165Y309640D01*
X467807Y308307D01*
X466493D01*
X466135Y309640D01*
X464484Y312500D01*
X462150Y314834D01*
X459290Y316485D01*
X456101Y317340D01*
X452799D01*
X449610Y316485D01*
X446750Y314834D01*
X444416Y312500D01*
X442765Y309640D01*
X442407Y308307D01*
X441093D01*
X440735Y309640D01*
X439085Y312500D01*
X436750Y314834D01*
X433890Y316485D01*
X430701Y317340D01*
X427399D01*
X424210Y316485D01*
X421350Y314834D01*
X419016Y312500D01*
X417365Y309640D01*
X417007Y308307D01*
X415693D01*
X415335Y309640D01*
X413685Y312500D01*
X411350Y314834D01*
X408490Y316485D01*
X405301Y317340D01*
X401999D01*
X398810Y316485D01*
X395950Y314834D01*
X393615Y312500D01*
X391965Y309640D01*
X391607Y308307D01*
X390293D01*
X389935Y309640D01*
X388284Y312500D01*
X385950Y314834D01*
X383090Y316485D01*
X379901Y317340D01*
X376599D01*
X373410Y316485D01*
X370550Y314834D01*
X368215Y312500D01*
X366565Y309640D01*
X366207Y308307D01*
X364893D01*
X364535Y309640D01*
X362884Y312500D01*
X360550Y314834D01*
X357690Y316485D01*
X354501Y317340D01*
X351199D01*
X348010Y316485D01*
X345150Y314834D01*
X342816Y312500D01*
X341165Y309640D01*
X340807Y308307D01*
X339493D01*
X339135Y309640D01*
X337485Y312500D01*
X335150Y314834D01*
X332290Y316485D01*
X329101Y317340D01*
X325799D01*
X322610Y316485D01*
X319750Y314834D01*
X317416Y312500D01*
X315765Y309640D01*
X315407Y308307D01*
X314093D01*
X313735Y309640D01*
X313241Y310497D01*
X345757Y343013D01*
X346599Y344273D01*
X346895Y345760D01*
Y599356D01*
X346675Y600462D01*
Y755568D01*
X346379Y757055D01*
X345537Y758315D01*
X312197Y791656D01*
X313006Y792642D01*
X314893Y791381D01*
X318822Y789754D01*
X322994Y788924D01*
X327246D01*
X331418Y789754D01*
X335347Y791381D01*
X338883Y793744D01*
X341890Y796751D01*
X344253Y800287D01*
X345880Y804216D01*
X346710Y808388D01*
Y812640D01*
X345880Y816812D01*
X344253Y820741D01*
X341890Y824277D01*
X338883Y827284D01*
X335347Y829647D01*
X331418Y831274D01*
X327246Y832104D01*
X322994D01*
X318822Y831274D01*
X314893Y829647D01*
X311357Y827284D01*
X308350Y824277D01*
X305987Y820741D01*
X304360Y816812D01*
X303530Y812640D01*
Y808388D01*
X304360Y804216D01*
X305987Y800287D01*
X307248Y798400D01*
X306262Y797591D01*
X300370Y803482D01*
X299110Y804324D01*
X297624Y804620D01*
X216874D01*
X188643Y832851D01*
X189043Y833543D01*
X189865Y836612D01*
Y839788D01*
X189043Y842857D01*
X187454Y845608D01*
X185208Y847854D01*
X182457Y849443D01*
X179388Y850265D01*
D02*
G37*
G36*
X126365Y799465D02*
X115570D01*
Y788670D01*
X126365D01*
Y799465D01*
D02*
G37*
G36*
X113030D02*
X102235D01*
Y788670D01*
X113030D01*
Y799465D01*
D02*
G37*
G36*
X141288D02*
X138112D01*
X135043Y798643D01*
X132292Y797054D01*
X130046Y794808D01*
X128457Y792057D01*
X127635Y788988D01*
Y785812D01*
X128457Y782743D01*
X130046Y779992D01*
X132292Y777746D01*
X135043Y776157D01*
X138112Y775335D01*
X141288D01*
X144357Y776157D01*
X147108Y777746D01*
X149354Y779992D01*
X150943Y782743D01*
X151765Y785812D01*
Y788988D01*
X150943Y792057D01*
X149354Y794808D01*
X147108Y797054D01*
X144357Y798643D01*
X141288Y799465D01*
D02*
G37*
G36*
X126365Y786130D02*
X115570D01*
Y775335D01*
X126365D01*
Y786130D01*
D02*
G37*
G36*
X113030D02*
X102235D01*
Y775335D01*
X113030D01*
Y786130D01*
D02*
G37*
G36*
X674601Y796290D02*
X671599D01*
X668655Y795704D01*
X665881Y794556D01*
X663385Y792888D01*
X661262Y790765D01*
X659594Y788269D01*
X658446Y785495D01*
X657860Y782551D01*
Y779549D01*
X658446Y776605D01*
X659594Y773831D01*
X661262Y771335D01*
X663385Y769212D01*
X665881Y767544D01*
X668655Y766396D01*
X671599Y765810D01*
X674601D01*
X677545Y766396D01*
X680319Y767544D01*
X682815Y769212D01*
X684938Y771335D01*
X686606Y773831D01*
X687754Y776605D01*
X688340Y779549D01*
Y782551D01*
X687754Y785495D01*
X686606Y788269D01*
X684938Y790765D01*
X682815Y792888D01*
X680319Y794556D01*
X677545Y795704D01*
X674601Y796290D01*
D02*
G37*
G36*
X524200Y774910D02*
X517200D01*
X514187Y774513D01*
X511380Y773350D01*
X508970Y771500D01*
X507120Y769090D01*
X505957Y766283D01*
X505560Y763270D01*
X505957Y760257D01*
X507120Y757450D01*
X508970Y755040D01*
X511380Y753190D01*
X514187Y752027D01*
X517200Y751630D01*
X524200D01*
X527213Y752027D01*
X530020Y753190D01*
X532430Y755040D01*
X534280Y757450D01*
X535443Y760257D01*
X535840Y763270D01*
X535443Y766283D01*
X534280Y769090D01*
X532430Y771500D01*
X530020Y773350D01*
X527213Y774513D01*
X524200Y774910D01*
D02*
G37*
G36*
X422600Y773640D02*
X415600D01*
X412587Y773243D01*
X409780Y772080D01*
X407370Y770230D01*
X405520Y767820D01*
X404357Y765013D01*
X403960Y762000D01*
X404357Y758988D01*
X405520Y756180D01*
X407370Y753770D01*
X409780Y751920D01*
X412587Y750757D01*
X415600Y750360D01*
X422600D01*
X425613Y750757D01*
X428420Y751920D01*
X430830Y753770D01*
X432680Y756180D01*
X433843Y758988D01*
X434240Y762000D01*
X433843Y765013D01*
X432680Y767820D01*
X430830Y770230D01*
X428420Y772080D01*
X425613Y773243D01*
X422600Y773640D01*
D02*
G37*
G36*
X524200Y746970D02*
X517200D01*
X514187Y746573D01*
X511380Y745410D01*
X508970Y743560D01*
X507120Y741150D01*
X505957Y738343D01*
X505560Y735330D01*
X505957Y732318D01*
X507120Y729510D01*
X508970Y727100D01*
X511380Y725250D01*
X514187Y724087D01*
X517200Y723690D01*
X524200D01*
X527213Y724087D01*
X530020Y725250D01*
X532430Y727100D01*
X534280Y729510D01*
X535443Y732318D01*
X535840Y735330D01*
X535443Y738343D01*
X534280Y741150D01*
X532430Y743560D01*
X530020Y745410D01*
X527213Y746573D01*
X524200Y746970D01*
D02*
G37*
G36*
X422600Y745699D02*
X415600D01*
X412587Y745303D01*
X409780Y744140D01*
X407370Y742290D01*
X405520Y739880D01*
X404357Y737073D01*
X403960Y734060D01*
X404357Y731048D01*
X405520Y728240D01*
X407370Y725830D01*
X409780Y723980D01*
X412587Y722817D01*
X415600Y722420D01*
X422600D01*
X425613Y722817D01*
X428420Y723980D01*
X430830Y725830D01*
X432680Y728240D01*
X433843Y731048D01*
X434240Y734060D01*
X433843Y737073D01*
X432680Y739880D01*
X430830Y742290D01*
X428420Y744140D01*
X425613Y745303D01*
X422600Y745699D01*
D02*
G37*
G36*
X688340Y745490D02*
X657860D01*
Y715010D01*
X688340D01*
Y745490D01*
D02*
G37*
G36*
X154900Y736548D02*
X149900D01*
X146626Y736117D01*
X143576Y734854D01*
X140956Y732844D01*
X138946Y730224D01*
X137683Y727174D01*
X137252Y723900D01*
X137683Y720626D01*
X138946Y717576D01*
X140956Y714956D01*
X143576Y712946D01*
X146626Y711683D01*
X149900Y711252D01*
X154900D01*
X158174Y711683D01*
X161224Y712946D01*
X163844Y714956D01*
X165854Y717576D01*
X167117Y720626D01*
X167548Y723900D01*
X167117Y727174D01*
X165854Y730224D01*
X163844Y732844D01*
X161224Y734854D01*
X158174Y736117D01*
X154900Y736548D01*
D02*
G37*
G36*
X77719Y722740D02*
X74681D01*
X71746Y721954D01*
X69114Y720434D01*
X66966Y718286D01*
X65447Y715654D01*
X64660Y712719D01*
Y709681D01*
X65447Y706746D01*
X66966Y704114D01*
X69114Y701966D01*
X71746Y700446D01*
X74681Y699660D01*
X77719D01*
X80654Y700446D01*
X81165Y700741D01*
X90205Y691701D01*
Y671664D01*
X89032Y671178D01*
X83465Y676745D01*
X85434Y678714D01*
X86953Y681346D01*
X87740Y684281D01*
Y687319D01*
X86953Y690254D01*
X85434Y692886D01*
X83286Y695034D01*
X80654Y696553D01*
X77719Y697340D01*
X74681D01*
X71746Y696553D01*
X69114Y695034D01*
X66966Y692886D01*
X65447Y690254D01*
X64660Y687319D01*
Y684281D01*
X65447Y681346D01*
X66966Y678714D01*
X69114Y676566D01*
X71746Y675046D01*
X74681Y674260D01*
X75532D01*
X75569Y674071D01*
X76145Y673210D01*
X75603Y671940D01*
X74681D01*
X71746Y671153D01*
X69114Y669634D01*
X66966Y667486D01*
X65447Y664854D01*
X64660Y661919D01*
Y661670D01*
X76200D01*
Y660400D01*
X77470D01*
Y648860D01*
X77719D01*
X80654Y649647D01*
X83286Y651166D01*
X83952Y651832D01*
X85125Y651346D01*
Y644054D01*
X83952Y643568D01*
X83286Y644234D01*
X80654Y645753D01*
X77719Y646540D01*
X74681D01*
X71746Y645753D01*
X69114Y644234D01*
X66966Y642086D01*
X65447Y639454D01*
X64660Y636519D01*
Y633481D01*
X65447Y630546D01*
X66966Y627914D01*
X69114Y625766D01*
X71746Y624246D01*
X74681Y623460D01*
X77719D01*
X80654Y624246D01*
X83286Y625766D01*
X83952Y626432D01*
X85125Y625946D01*
Y618654D01*
X83952Y618168D01*
X83286Y618834D01*
X80654Y620354D01*
X77719Y621140D01*
X74681D01*
X71746Y620354D01*
X69114Y618834D01*
X66966Y616686D01*
X65447Y614054D01*
X64660Y611119D01*
Y608081D01*
X65447Y605146D01*
X66966Y602514D01*
X69114Y600366D01*
X71746Y598847D01*
X74681Y598060D01*
X77719D01*
X80654Y598847D01*
X83286Y600366D01*
X83952Y601032D01*
X85125Y600546D01*
Y593254D01*
X83952Y592768D01*
X83286Y593434D01*
X80654Y594953D01*
X77719Y595740D01*
X74681D01*
X71746Y594953D01*
X69114Y593434D01*
X66966Y591286D01*
X65447Y588654D01*
X64660Y585719D01*
Y582681D01*
X65447Y579746D01*
X66966Y577114D01*
X69114Y574966D01*
X71746Y573447D01*
X74681Y572660D01*
X77719D01*
X80654Y573447D01*
X83286Y574966D01*
X83952Y575632D01*
X85125Y575146D01*
Y533290D01*
X85421Y531803D01*
X86263Y530543D01*
X137285Y479521D01*
Y478630D01*
X137360Y478255D01*
Y457360D01*
X164825D01*
Y428690D01*
X163555Y428265D01*
X161224Y430054D01*
X158174Y431317D01*
X154900Y431748D01*
X149900D01*
X146626Y431317D01*
X143576Y430054D01*
X140956Y428044D01*
X138946Y425424D01*
X137683Y422374D01*
X137252Y419100D01*
X137683Y415826D01*
X138946Y412776D01*
X140956Y410156D01*
X143576Y408146D01*
X146626Y406883D01*
X149900Y406452D01*
X154900D01*
X158174Y406883D01*
X158689Y407096D01*
X159745Y406391D01*
Y380840D01*
X137360D01*
Y355760D01*
X167440D01*
Y376655D01*
X167515Y377030D01*
Y406691D01*
X171457Y410633D01*
X172299Y411893D01*
X172595Y413380D01*
Y481478D01*
X172299Y482965D01*
X171457Y484225D01*
X156285Y499397D01*
Y508234D01*
X158174Y508483D01*
X161224Y509746D01*
X163844Y511756D01*
X165854Y514376D01*
X167117Y517426D01*
X167548Y520700D01*
X167117Y523974D01*
X165854Y527024D01*
X163844Y529644D01*
X161224Y531654D01*
X158174Y532917D01*
X154900Y533348D01*
X149900D01*
X146626Y532917D01*
X144187Y531907D01*
X97975Y578119D01*
Y693310D01*
X97679Y694797D01*
X96837Y696057D01*
X86659Y706235D01*
X86953Y706746D01*
X87740Y709681D01*
Y712719D01*
X86953Y715654D01*
X85434Y718286D01*
X83286Y720434D01*
X80654Y721954D01*
X77719Y722740D01*
D02*
G37*
G36*
X394970Y675372D02*
Y661670D01*
X405340D01*
Y663900D01*
X404943Y666913D01*
X403780Y669720D01*
X401930Y672130D01*
X399520Y673980D01*
X396712Y675143D01*
X394970Y675372D01*
D02*
G37*
G36*
X445770D02*
Y661670D01*
X456139D01*
Y663900D01*
X455743Y666913D01*
X454580Y669720D01*
X452730Y672130D01*
X450320Y673980D01*
X447513Y675143D01*
X445770Y675372D01*
D02*
G37*
G36*
X52319Y671940D02*
X52070D01*
Y661670D01*
X62340D01*
Y661919D01*
X61554Y664854D01*
X60034Y667486D01*
X57886Y669634D01*
X55254Y671153D01*
X52319Y671940D01*
D02*
G37*
G36*
X547370Y675372D02*
Y661670D01*
X557739D01*
Y663900D01*
X557343Y666913D01*
X556180Y669720D01*
X554330Y672130D01*
X551920Y673980D01*
X549113Y675143D01*
X547370Y675372D01*
D02*
G37*
G36*
X544830D02*
X543088Y675143D01*
X540280Y673980D01*
X537870Y672130D01*
X536020Y669720D01*
X534857Y666913D01*
X534460Y663900D01*
Y661670D01*
X544830D01*
Y675372D01*
D02*
G37*
G36*
X49530Y671940D02*
X49281D01*
X46346Y671153D01*
X43714Y669634D01*
X41566Y667486D01*
X40047Y664854D01*
X39260Y661919D01*
Y661670D01*
X49530D01*
Y671940D01*
D02*
G37*
G36*
X392430Y675372D02*
X390687Y675143D01*
X387880Y673980D01*
X385470Y672130D01*
X383620Y669720D01*
X382457Y666913D01*
X382061Y663900D01*
Y661670D01*
X392430D01*
Y675372D01*
D02*
G37*
G36*
X443230D02*
X441488Y675143D01*
X438680Y673980D01*
X436270Y672130D01*
X434420Y669720D01*
X433257Y666913D01*
X432860Y663900D01*
Y661670D01*
X443230D01*
Y675372D01*
D02*
G37*
G36*
X101600Y740485D02*
X50800D01*
X49313Y740189D01*
X48053Y739347D01*
X35243Y726537D01*
X34401Y725277D01*
X34105Y723790D01*
Y698610D01*
X34401Y697123D01*
X35243Y695863D01*
X40341Y690765D01*
X40047Y690254D01*
X39260Y687319D01*
Y684281D01*
X40047Y681346D01*
X41566Y678714D01*
X43714Y676566D01*
X46346Y675046D01*
X49281Y674260D01*
X52319D01*
X55254Y675046D01*
X57886Y676566D01*
X60034Y678714D01*
X61554Y681346D01*
X62340Y684281D01*
Y687319D01*
X61554Y690254D01*
X60034Y692886D01*
X57886Y695034D01*
X55254Y696553D01*
X52319Y697340D01*
X49281D01*
X46346Y696553D01*
X45835Y696259D01*
X43607Y698487D01*
X44093Y699660D01*
X62340D01*
Y722740D01*
X44093D01*
X43607Y723913D01*
X52409Y732715D01*
X99991D01*
X145893Y686813D01*
X145407Y685640D01*
X137360D01*
Y660560D01*
X167440D01*
Y685640D01*
X156285D01*
Y685800D01*
X155989Y687287D01*
X155147Y688547D01*
X104347Y739347D01*
X103087Y740189D01*
X101600Y740485D01*
D02*
G37*
G36*
X74930Y659130D02*
X64660D01*
Y658881D01*
X65447Y655946D01*
X66966Y653314D01*
X69114Y651166D01*
X71746Y649647D01*
X74681Y648860D01*
X74930D01*
Y659130D01*
D02*
G37*
G36*
X62340D02*
X52070D01*
Y648860D01*
X52319D01*
X55254Y649647D01*
X57886Y651166D01*
X60034Y653314D01*
X61554Y655946D01*
X62340Y658881D01*
Y659130D01*
D02*
G37*
G36*
X49530D02*
X39260D01*
Y658881D01*
X40047Y655946D01*
X41566Y653314D01*
X43714Y651166D01*
X46346Y649647D01*
X49281Y648860D01*
X49530D01*
Y659130D01*
D02*
G37*
G36*
X520700Y675540D02*
X517687Y675143D01*
X514880Y673980D01*
X512470Y672130D01*
X510620Y669720D01*
X509457Y666913D01*
X509060Y663900D01*
Y656900D01*
X509368Y654562D01*
X502781Y647975D01*
X479198D01*
X478572Y649245D01*
X479980Y651080D01*
X481143Y653887D01*
X481539Y656900D01*
Y663900D01*
X481143Y666913D01*
X479980Y669720D01*
X478130Y672130D01*
X475720Y673980D01*
X472912Y675143D01*
X469900Y675540D01*
X466888Y675143D01*
X464080Y673980D01*
X461670Y672130D01*
X459820Y669720D01*
X458657Y666913D01*
X458260Y663900D01*
Y656900D01*
X458657Y653887D01*
X459820Y651080D01*
X461228Y649245D01*
X460602Y647975D01*
X453798D01*
X453172Y649245D01*
X454580Y651080D01*
X455743Y653887D01*
X456139Y656900D01*
Y659130D01*
X444500D01*
X432860D01*
Y656900D01*
X433257Y653887D01*
X434420Y651080D01*
X435828Y649245D01*
X435202Y647975D01*
X402998D01*
X402372Y649245D01*
X403780Y651080D01*
X404943Y653887D01*
X405340Y656900D01*
Y659130D01*
X393700D01*
X382061D01*
Y656900D01*
X382457Y653887D01*
X383620Y651080D01*
X385028Y649245D01*
X384402Y647975D01*
X382719D01*
X378741Y651952D01*
X379543Y653887D01*
X379939Y656900D01*
Y663900D01*
X379543Y666913D01*
X378380Y669720D01*
X376530Y672130D01*
X374120Y673980D01*
X371312Y675143D01*
X368300Y675540D01*
X365288Y675143D01*
X362480Y673980D01*
X360070Y672130D01*
X358220Y669720D01*
X357057Y666913D01*
X356660Y663900D01*
Y656900D01*
X357057Y653887D01*
X358220Y651080D01*
X360070Y648670D01*
X362480Y646820D01*
X364415Y646018D01*
Y632500D01*
X364711Y631013D01*
X365553Y629753D01*
X404060Y591246D01*
Y571660D01*
X434140D01*
Y596740D01*
X409554D01*
X372185Y634109D01*
Y645959D01*
X373290Y646417D01*
X378363Y641343D01*
X379623Y640501D01*
X381110Y640205D01*
X504390D01*
X505877Y640501D01*
X507137Y641343D01*
X513598Y647804D01*
X514880Y646820D01*
X517687Y645657D01*
X520700Y645260D01*
X523713Y645657D01*
X525648Y646459D01*
X554915Y617191D01*
Y465223D01*
X553341Y464314D01*
X551686Y462659D01*
X550516Y460631D01*
X549910Y458370D01*
Y456030D01*
X550516Y453769D01*
X551686Y451741D01*
X553341Y450086D01*
X555369Y448916D01*
X557630Y448310D01*
X559970D01*
X562231Y448916D01*
X564259Y450086D01*
X565914Y451741D01*
X567084Y453769D01*
X567690Y456030D01*
Y458370D01*
X567084Y460631D01*
X565914Y462659D01*
X564259Y464314D01*
X562685Y465223D01*
Y618800D01*
X562389Y620287D01*
X561547Y621547D01*
X531141Y651952D01*
X531943Y653887D01*
X532340Y656900D01*
Y663900D01*
X531943Y666913D01*
X530780Y669720D01*
X528930Y672130D01*
X526520Y673980D01*
X523713Y675143D01*
X520700Y675540D01*
D02*
G37*
G36*
X557739Y659130D02*
X547370D01*
Y645428D01*
X549113Y645657D01*
X551920Y646820D01*
X554330Y648670D01*
X556180Y651080D01*
X557343Y653887D01*
X557739Y656900D01*
Y659130D01*
D02*
G37*
G36*
X544830D02*
X534460D01*
Y656900D01*
X534857Y653887D01*
X536020Y651080D01*
X537870Y648670D01*
X540280Y646820D01*
X543088Y645657D01*
X544830Y645428D01*
Y659130D01*
D02*
G37*
G36*
X688340Y662940D02*
X657860D01*
Y632460D01*
X688340D01*
Y662940D01*
D02*
G37*
G36*
X52319Y646540D02*
X49281D01*
X46346Y645753D01*
X43714Y644234D01*
X41566Y642086D01*
X40047Y639454D01*
X39260Y636519D01*
Y633481D01*
X40047Y630546D01*
X41566Y627914D01*
X43714Y625766D01*
X46346Y624246D01*
X49281Y623460D01*
X52319D01*
X55254Y624246D01*
X57886Y625766D01*
X60034Y627914D01*
X61554Y630546D01*
X62340Y633481D01*
Y636519D01*
X61554Y639454D01*
X60034Y642086D01*
X57886Y644234D01*
X55254Y645753D01*
X52319Y646540D01*
D02*
G37*
G36*
X154900Y634948D02*
X149900D01*
X146626Y634517D01*
X143576Y633254D01*
X140956Y631244D01*
X138946Y628624D01*
X137683Y625574D01*
X137252Y622300D01*
X137683Y619026D01*
X138946Y615976D01*
X140956Y613356D01*
X143576Y611346D01*
X146626Y610083D01*
X149900Y609652D01*
X154900D01*
X158174Y610083D01*
X161224Y611346D01*
X163844Y613356D01*
X165854Y615976D01*
X167117Y619026D01*
X167548Y622300D01*
X167117Y625574D01*
X165854Y628624D01*
X163844Y631244D01*
X161224Y633254D01*
X158174Y634517D01*
X154900Y634948D01*
D02*
G37*
G36*
X52319Y621140D02*
X49281D01*
X46346Y620354D01*
X43714Y618834D01*
X41566Y616686D01*
X40047Y614054D01*
X39260Y611119D01*
Y608081D01*
X40047Y605146D01*
X41566Y602514D01*
X43714Y600366D01*
X46346Y598847D01*
X49281Y598060D01*
X52319D01*
X55254Y598847D01*
X57886Y600366D01*
X60034Y602514D01*
X61554Y605146D01*
X62340Y608081D01*
Y611119D01*
X61554Y614054D01*
X60034Y616686D01*
X57886Y618834D01*
X55254Y620354D01*
X52319Y621140D01*
D02*
G37*
G36*
X674601Y612140D02*
X671599D01*
X668655Y611554D01*
X665881Y610406D01*
X663385Y608738D01*
X661262Y606615D01*
X659594Y604119D01*
X658446Y601345D01*
X657860Y598401D01*
Y595399D01*
X658446Y592455D01*
X659594Y589681D01*
X661262Y587185D01*
X663385Y585062D01*
X665881Y583395D01*
X668655Y582246D01*
X671599Y581660D01*
X674601D01*
X677545Y582246D01*
X680319Y583395D01*
X682815Y585062D01*
X684938Y587185D01*
X686606Y589681D01*
X687754Y592455D01*
X688340Y595399D01*
Y598401D01*
X687754Y601345D01*
X686606Y604119D01*
X684938Y606615D01*
X682815Y608738D01*
X680319Y610406D01*
X677545Y611554D01*
X674601Y612140D01*
D02*
G37*
G36*
X361950Y605690D02*
X358937Y605293D01*
X356130Y604130D01*
X353720Y602280D01*
X351870Y599870D01*
X350707Y597063D01*
X350310Y594050D01*
Y587050D01*
X350707Y584037D01*
X351870Y581230D01*
X353720Y578820D01*
X356130Y576970D01*
X358937Y575807D01*
X361950Y575410D01*
X364963Y575807D01*
X367770Y576970D01*
X370180Y578820D01*
X372030Y581230D01*
X373193Y584037D01*
X373590Y587050D01*
Y594050D01*
X373193Y597063D01*
X372030Y599870D01*
X370180Y602280D01*
X367770Y604130D01*
X364963Y605293D01*
X361950Y605690D01*
D02*
G37*
G36*
X52319Y595740D02*
X49281D01*
X46346Y594953D01*
X43714Y593434D01*
X41566Y591286D01*
X40047Y588654D01*
X39260Y585719D01*
Y582681D01*
X40047Y579746D01*
X41566Y577114D01*
X43714Y574966D01*
X46346Y573447D01*
X49281Y572660D01*
X52319D01*
X55254Y573447D01*
X57886Y574966D01*
X60034Y577114D01*
X61554Y579746D01*
X62340Y582681D01*
Y585719D01*
X61554Y588654D01*
X60034Y591286D01*
X57886Y593434D01*
X55254Y594953D01*
X52319Y595740D01*
D02*
G37*
G36*
X523200Y596848D02*
X518200D01*
X514926Y596417D01*
X511876Y595154D01*
X509256Y593144D01*
X507246Y590524D01*
X505983Y587474D01*
X505552Y584200D01*
X505983Y580926D01*
X507246Y577876D01*
X509256Y575256D01*
X511876Y573246D01*
X514926Y571983D01*
X518200Y571552D01*
X523200D01*
X526474Y571983D01*
X529524Y573246D01*
X532144Y575256D01*
X534154Y577876D01*
X535417Y580926D01*
X535848Y584200D01*
X535417Y587474D01*
X534154Y590524D01*
X532144Y593144D01*
X529524Y595154D01*
X526474Y596417D01*
X523200Y596848D01*
D02*
G37*
G36*
X167440Y584040D02*
X137360D01*
Y558960D01*
X167440D01*
Y584040D01*
D02*
G37*
G36*
X323850Y873835D02*
X236438D01*
X234951Y873539D01*
X233691Y872697D01*
X225853Y864859D01*
X225011Y863599D01*
X224715Y862112D01*
Y849650D01*
X223943Y849443D01*
X221192Y847854D01*
X218946Y845608D01*
X217357Y842857D01*
X216535Y839788D01*
Y836612D01*
X217357Y833543D01*
X218946Y830792D01*
X221192Y828546D01*
X223943Y826957D01*
X227012Y826135D01*
X230188D01*
X233257Y826957D01*
X236008Y828546D01*
X238254Y830792D01*
X239843Y833543D01*
X240665Y836612D01*
Y839788D01*
X239843Y842857D01*
X238254Y845608D01*
X236008Y847854D01*
X233257Y849443D01*
X232485Y849650D01*
Y860503D01*
X238047Y866065D01*
X322241D01*
X349678Y838628D01*
X350938Y837786D01*
X352425Y837490D01*
X579416D01*
X624765Y792141D01*
Y507677D01*
X623985Y505104D01*
X623645Y501650D01*
X623985Y498196D01*
X624765Y495623D01*
Y91343D01*
X611117Y77695D01*
X597042D01*
X596899Y78961D01*
X598159Y79803D01*
X599647Y81291D01*
X600489Y82551D01*
X600785Y84038D01*
Y539195D01*
X602055Y539721D01*
X603170Y538605D01*
X606030Y536955D01*
X609219Y536100D01*
X612521D01*
X615710Y536955D01*
X618570Y538605D01*
X620905Y540940D01*
X622555Y543800D01*
X623410Y546989D01*
Y550291D01*
X622555Y553480D01*
X620905Y556340D01*
X618570Y558675D01*
X615710Y560325D01*
X612521Y561180D01*
X609219D01*
X606030Y560325D01*
X603170Y558675D01*
X602055Y557559D01*
X600785Y558085D01*
Y806450D01*
X600489Y807937D01*
X599647Y809197D01*
X586947Y821897D01*
X585687Y822739D01*
X584200Y823035D01*
X357209D01*
X320247Y859997D01*
X318987Y860839D01*
X317500Y861135D01*
X261838D01*
X260351Y860839D01*
X259091Y859997D01*
X253376Y854282D01*
X252534Y853022D01*
X252238Y851535D01*
Y850219D01*
X249343Y849443D01*
X246592Y847854D01*
X244346Y845608D01*
X242757Y842857D01*
X241935Y839788D01*
Y836612D01*
X242757Y833543D01*
X244346Y830792D01*
X246592Y828546D01*
X249343Y826957D01*
X252412Y826135D01*
X255588D01*
X258657Y826957D01*
X261408Y828546D01*
X263654Y830792D01*
X265243Y833543D01*
X266065Y836612D01*
Y839788D01*
X265243Y842857D01*
X263654Y845608D01*
X261408Y847854D01*
X260008Y848663D01*
Y849926D01*
X263447Y853365D01*
X315891D01*
X352853Y816403D01*
X354113Y815561D01*
X355600Y815265D01*
X582591D01*
X593015Y804841D01*
Y515425D01*
X592930Y514190D01*
X591745Y514190D01*
X567850D01*
Y489110D01*
X591745D01*
X592930Y489110D01*
X593015Y487875D01*
Y86435D01*
X588019D01*
X587340Y87705D01*
X587343Y87709D01*
X587540Y88700D01*
Y265600D01*
X587343Y266591D01*
X586781Y267431D01*
X585941Y267993D01*
X584950Y268190D01*
X520050D01*
X519059Y267993D01*
X518219Y267431D01*
X517657Y266591D01*
X517460Y265600D01*
Y88700D01*
X517657Y87709D01*
X518219Y86869D01*
X519059Y86307D01*
X520050Y86110D01*
X533270D01*
X533797Y84840D01*
X510947Y61991D01*
X510090Y62485D01*
X506901Y63340D01*
X503599D01*
X500410Y62485D01*
X497550Y60834D01*
X495215Y58500D01*
X493565Y55640D01*
X493207Y54307D01*
X491893D01*
X491535Y55640D01*
X489884Y58500D01*
X487550Y60834D01*
X484690Y62485D01*
X481501Y63340D01*
X478199D01*
X475010Y62485D01*
X472150Y60834D01*
X469815Y58500D01*
X468165Y55640D01*
X467807Y54307D01*
X466493D01*
X466135Y55640D01*
X464484Y58500D01*
X462150Y60834D01*
X459290Y62485D01*
X456101Y63340D01*
X452799D01*
X449610Y62485D01*
X446750Y60834D01*
X444416Y58500D01*
X442765Y55640D01*
X442407Y54307D01*
X441093D01*
X440735Y55640D01*
X439085Y58500D01*
X436750Y60834D01*
X433890Y62485D01*
X430701Y63340D01*
X427399D01*
X424210Y62485D01*
X423353Y61991D01*
X393697Y91647D01*
X392437Y92489D01*
X390950Y92785D01*
X166709D01*
X137235Y122259D01*
Y290491D01*
X193247Y346503D01*
X194089Y347763D01*
X194385Y349250D01*
Y775950D01*
X195157Y776157D01*
X197908Y777746D01*
X200154Y779992D01*
X201743Y782743D01*
X202565Y785812D01*
Y788988D01*
X201743Y792057D01*
X200154Y794808D01*
X197908Y797054D01*
X195157Y798643D01*
X192088Y799465D01*
X188912D01*
X185843Y798643D01*
X183092Y797054D01*
X180846Y794808D01*
X179257Y792057D01*
X178435Y788988D01*
Y785812D01*
X179257Y782743D01*
X180846Y779992D01*
X183092Y777746D01*
X185843Y776157D01*
X186615Y775950D01*
Y350859D01*
X130603Y294847D01*
X129761Y293587D01*
X129465Y292100D01*
Y120650D01*
X129761Y119163D01*
X130603Y117903D01*
X162353Y86153D01*
X163613Y85311D01*
X165100Y85015D01*
X389341D01*
X417859Y56497D01*
X417365Y55640D01*
X417007Y54307D01*
X415693D01*
X415335Y55640D01*
X413685Y58500D01*
X411350Y60834D01*
X408490Y62485D01*
X405301Y63340D01*
X401999D01*
X398810Y62485D01*
X397953Y61991D01*
X380997Y78947D01*
X379737Y79789D01*
X378250Y80085D01*
X160359D01*
X124535Y115909D01*
Y291979D01*
X180547Y347991D01*
X181389Y349251D01*
X181685Y350738D01*
Y774700D01*
X181389Y776187D01*
X180547Y777447D01*
X175943Y782051D01*
X176343Y782743D01*
X177165Y785812D01*
Y788988D01*
X176343Y792057D01*
X174754Y794808D01*
X172508Y797054D01*
X169757Y798643D01*
X166688Y799465D01*
X163512D01*
X160443Y798643D01*
X157692Y797054D01*
X155446Y794808D01*
X153857Y792057D01*
X153035Y788988D01*
Y785812D01*
X153857Y782743D01*
X155446Y779992D01*
X157692Y777746D01*
X160443Y776157D01*
X163512Y775335D01*
X166688D01*
X169757Y776157D01*
X170449Y776557D01*
X173915Y773091D01*
Y352347D01*
X117903Y296335D01*
X117061Y295075D01*
X116765Y293588D01*
Y114300D01*
X117061Y112813D01*
X117903Y111553D01*
X156003Y73453D01*
X157263Y72611D01*
X158750Y72315D01*
X376641D01*
X392459Y56497D01*
X391965Y55640D01*
X391607Y54307D01*
X390293D01*
X389935Y55640D01*
X388284Y58500D01*
X385950Y60834D01*
X383090Y62485D01*
X379901Y63340D01*
X376599D01*
X373410Y62485D01*
X370550Y60834D01*
X368215Y58500D01*
X366565Y55640D01*
X366207Y54307D01*
X364893D01*
X364535Y55640D01*
X362884Y58500D01*
X360550Y60834D01*
X357690Y62485D01*
X354501Y63340D01*
X351199D01*
X348010Y62485D01*
X345150Y60834D01*
X342816Y58500D01*
X341165Y55640D01*
X340807Y54307D01*
X339493D01*
X339135Y55640D01*
X337485Y58500D01*
X335150Y60834D01*
X332290Y62485D01*
X329101Y63340D01*
X325799D01*
X322610Y62485D01*
X319750Y60834D01*
X317416Y58500D01*
X315765Y55640D01*
X315407Y54307D01*
X314093D01*
X313735Y55640D01*
X312085Y58500D01*
X309750Y60834D01*
X306890Y62485D01*
X303701Y63340D01*
X300399D01*
X297210Y62485D01*
X294350Y60834D01*
X292015Y58500D01*
X290365Y55640D01*
X290007Y54307D01*
X288693D01*
X288335Y55640D01*
X286684Y58500D01*
X284350Y60834D01*
X281490Y62485D01*
X278301Y63340D01*
X274999D01*
X271810Y62485D01*
X268950Y60834D01*
X266616Y58500D01*
X264965Y55640D01*
X264607Y54307D01*
X263293D01*
X262935Y55640D01*
X261285Y58500D01*
X258950Y60834D01*
X256090Y62485D01*
X252901Y63340D01*
X249599D01*
X246410Y62485D01*
X243550Y60834D01*
X241215Y58500D01*
X239565Y55640D01*
X239207Y54307D01*
X237893D01*
X237535Y55640D01*
X235884Y58500D01*
X233550Y60834D01*
X230690Y62485D01*
X227501Y63340D01*
X224199D01*
X221010Y62485D01*
X218150Y60834D01*
X215816Y58500D01*
X214165Y55640D01*
X213807Y54307D01*
X212493D01*
X212135Y55640D01*
X210485Y58500D01*
X208150Y60834D01*
X205290Y62485D01*
X202101Y63340D01*
X201720D01*
Y50800D01*
Y38260D01*
X202101D01*
X205290Y39115D01*
X208150Y40766D01*
X210485Y43100D01*
X212135Y45960D01*
X212493Y47293D01*
X213807D01*
X214165Y45960D01*
X215816Y43100D01*
X218150Y40766D01*
X221010Y39115D01*
X224199Y38260D01*
X227501D01*
X230690Y39115D01*
X233550Y40766D01*
X235884Y43100D01*
X237535Y45960D01*
X237893Y47293D01*
X239207D01*
X239565Y45960D01*
X241215Y43100D01*
X243550Y40766D01*
X246410Y39115D01*
X249599Y38260D01*
X252901D01*
X256090Y39115D01*
X258950Y40766D01*
X261285Y43100D01*
X262935Y45960D01*
X263293Y47293D01*
X264607D01*
X264965Y45960D01*
X266616Y43100D01*
X268950Y40766D01*
X271810Y39115D01*
X274999Y38260D01*
X278301D01*
X281490Y39115D01*
X284350Y40766D01*
X286684Y43100D01*
X288335Y45960D01*
X288693Y47293D01*
X290007D01*
X290365Y45960D01*
X292015Y43100D01*
X294350Y40766D01*
X297210Y39115D01*
X300399Y38260D01*
X303701D01*
X306890Y39115D01*
X309750Y40766D01*
X312085Y43100D01*
X313735Y45960D01*
X314093Y47293D01*
X315407D01*
X315765Y45960D01*
X317416Y43100D01*
X319750Y40766D01*
X322610Y39115D01*
X325799Y38260D01*
X329101D01*
X332290Y39115D01*
X335150Y40766D01*
X337485Y43100D01*
X339135Y45960D01*
X339493Y47293D01*
X340807D01*
X341165Y45960D01*
X342816Y43100D01*
X345150Y40766D01*
X348010Y39115D01*
X351199Y38260D01*
X354501D01*
X357690Y39115D01*
X360550Y40766D01*
X362884Y43100D01*
X364535Y45960D01*
X364893Y47293D01*
X366207D01*
X366565Y45960D01*
X368215Y43100D01*
X370550Y40766D01*
X373410Y39115D01*
X376599Y38260D01*
X379901D01*
X383090Y39115D01*
X385950Y40766D01*
X388284Y43100D01*
X389935Y45960D01*
X390293Y47293D01*
X391607D01*
X391965Y45960D01*
X393615Y43100D01*
X395950Y40766D01*
X398810Y39115D01*
X401999Y38260D01*
X405301D01*
X408490Y39115D01*
X411350Y40766D01*
X413685Y43100D01*
X415335Y45960D01*
X415693Y47293D01*
X417007D01*
X417365Y45960D01*
X419016Y43100D01*
X421350Y40766D01*
X424210Y39115D01*
X427399Y38260D01*
X430701D01*
X433890Y39115D01*
X436750Y40766D01*
X439085Y43100D01*
X440735Y45960D01*
X441093Y47293D01*
X442407D01*
X442765Y45960D01*
X444416Y43100D01*
X446750Y40766D01*
X449610Y39115D01*
X452799Y38260D01*
X456101D01*
X459290Y39115D01*
X462150Y40766D01*
X464484Y43100D01*
X466135Y45960D01*
X466493Y47293D01*
X467807D01*
X468165Y45960D01*
X469815Y43100D01*
X472150Y40766D01*
X475010Y39115D01*
X478199Y38260D01*
X481501D01*
X484690Y39115D01*
X487550Y40766D01*
X489884Y43100D01*
X491535Y45960D01*
X491893Y47293D01*
X493207D01*
X493565Y45960D01*
X495215Y43100D01*
X497550Y40766D01*
X500410Y39115D01*
X503599Y38260D01*
X506901D01*
X510090Y39115D01*
X512950Y40766D01*
X515285Y43100D01*
X516935Y45960D01*
X517293Y47293D01*
X518607D01*
X518965Y45960D01*
X520616Y43100D01*
X522950Y40766D01*
X525810Y39115D01*
X528999Y38260D01*
X532301D01*
X535490Y39115D01*
X538350Y40766D01*
X540685Y43100D01*
X542335Y45960D01*
X543190Y49149D01*
Y52451D01*
X542335Y55640D01*
X541841Y56497D01*
X547593Y62249D01*
X548670Y61530D01*
X548084Y60116D01*
X547410Y56727D01*
Y53273D01*
X548084Y49884D01*
X549406Y46692D01*
X551326Y43819D01*
X553769Y41376D01*
X556642Y39456D01*
X559834Y38134D01*
X563223Y37460D01*
X566678D01*
X570066Y38134D01*
X573258Y39456D01*
X576131Y41376D01*
X578574Y43819D01*
X580494Y46692D01*
X581816Y49884D01*
X582490Y53273D01*
Y56727D01*
X581816Y60116D01*
X580494Y63308D01*
X578574Y66181D01*
X576131Y68624D01*
X576003Y68710D01*
X576371Y69925D01*
X610763D01*
X610871Y69853D01*
X612358Y69557D01*
X613844Y69853D01*
X615105Y70695D01*
X631397Y86987D01*
X632239Y88248D01*
X632535Y89734D01*
Y491142D01*
X633805Y491526D01*
X636510Y489965D01*
X639699Y489110D01*
X640080D01*
Y501650D01*
Y514190D01*
X639699D01*
X636510Y513335D01*
X633805Y511774D01*
X632535Y512158D01*
Y793750D01*
X632239Y795237D01*
X631397Y796497D01*
X583772Y844122D01*
X582512Y844964D01*
X581025Y845260D01*
X354034D01*
X326597Y872697D01*
X325337Y873539D01*
X323850Y873835D01*
D02*
G37*
G36*
X498800Y525989D02*
X496570D01*
Y515620D01*
X510272D01*
X510043Y517363D01*
X508880Y520170D01*
X507030Y522580D01*
X504620Y524430D01*
X501813Y525593D01*
X498800Y525989D01*
D02*
G37*
G36*
X441650D02*
X439420D01*
Y515620D01*
X453122D01*
X452893Y517363D01*
X451730Y520170D01*
X449880Y522580D01*
X447470Y524430D01*
X444663Y525593D01*
X441650Y525989D01*
D02*
G37*
G36*
X494030D02*
X491800D01*
X488787Y525593D01*
X485980Y524430D01*
X483570Y522580D01*
X481720Y520170D01*
X480557Y517363D01*
X480328Y515620D01*
X494030D01*
Y525989D01*
D02*
G37*
G36*
X436880D02*
X434650D01*
X431637Y525593D01*
X428830Y524430D01*
X426420Y522580D01*
X424570Y520170D01*
X423407Y517363D01*
X423178Y515620D01*
X436880D01*
Y525989D01*
D02*
G37*
G36*
X643001Y514190D02*
X642620D01*
Y502920D01*
X653890D01*
Y503301D01*
X653035Y506490D01*
X651385Y509350D01*
X649050Y511684D01*
X646190Y513335D01*
X643001Y514190D01*
D02*
G37*
G36*
X510272Y513080D02*
X496570D01*
Y502710D01*
X498800D01*
X501813Y503107D01*
X504620Y504270D01*
X507030Y506120D01*
X508880Y508530D01*
X510043Y511338D01*
X510272Y513080D01*
D02*
G37*
G36*
X494030D02*
X480328D01*
X480557Y511338D01*
X481720Y508530D01*
X483570Y506120D01*
X485980Y504270D01*
X488787Y503107D01*
X491800Y502710D01*
X494030D01*
Y513080D01*
D02*
G37*
G36*
X453122D02*
X439420D01*
Y502710D01*
X441650D01*
X444663Y503107D01*
X447470Y504270D01*
X449880Y506120D01*
X451730Y508530D01*
X452893Y511338D01*
X453122Y513080D01*
D02*
G37*
G36*
X436880D02*
X423178D01*
X423407Y511338D01*
X424570Y508530D01*
X426420Y506120D01*
X428830Y504270D01*
X431637Y503107D01*
X434650Y502710D01*
X436880D01*
Y513080D01*
D02*
G37*
G36*
X77719Y506840D02*
X77470D01*
Y496570D01*
X87740D01*
Y496819D01*
X86953Y499754D01*
X85434Y502386D01*
X83286Y504534D01*
X80654Y506054D01*
X77719Y506840D01*
D02*
G37*
G36*
X74930D02*
X74681D01*
X71746Y506054D01*
X69114Y504534D01*
X66966Y502386D01*
X65447Y499754D01*
X64660Y496819D01*
Y496570D01*
X74930D01*
Y506840D01*
D02*
G37*
G36*
X363220Y503922D02*
Y490220D01*
X373590D01*
Y492450D01*
X373193Y495463D01*
X372030Y498270D01*
X370180Y500680D01*
X367770Y502530D01*
X364963Y503693D01*
X363220Y503922D01*
D02*
G37*
G36*
X360680D02*
X358937Y503693D01*
X356130Y502530D01*
X353720Y500680D01*
X351870Y498270D01*
X350707Y495463D01*
X350310Y492450D01*
Y490220D01*
X360680D01*
Y503922D01*
D02*
G37*
G36*
X653890Y500380D02*
X642620D01*
Y489110D01*
X643001D01*
X646190Y489965D01*
X649050Y491615D01*
X651385Y493950D01*
X653035Y496810D01*
X653890Y499999D01*
Y500380D01*
D02*
G37*
G36*
X87740Y494030D02*
X77470D01*
Y483760D01*
X77719D01*
X80654Y484547D01*
X83286Y486066D01*
X85434Y488214D01*
X86953Y490846D01*
X87740Y493781D01*
Y494030D01*
D02*
G37*
G36*
X74930D02*
X64660D01*
Y493781D01*
X65447Y490846D01*
X66966Y488214D01*
X69114Y486066D01*
X71746Y484547D01*
X74681Y483760D01*
X74930D01*
Y494030D01*
D02*
G37*
G36*
X62340Y506840D02*
X39260D01*
Y483760D01*
X62340D01*
Y506840D01*
D02*
G37*
G36*
X498800Y500589D02*
X491800D01*
X488787Y500193D01*
X485980Y499030D01*
X483570Y497180D01*
X481720Y494770D01*
X480557Y491963D01*
X480160Y488950D01*
X480557Y485938D01*
X481720Y483130D01*
X483570Y480720D01*
X485980Y478870D01*
X488787Y477707D01*
X491800Y477310D01*
X498800D01*
X501813Y477707D01*
X504620Y478870D01*
X507030Y480720D01*
X508880Y483130D01*
X510043Y485938D01*
X510440Y488950D01*
X510043Y491963D01*
X508880Y494770D01*
X507030Y497180D01*
X504620Y499030D01*
X501813Y500193D01*
X498800Y500589D01*
D02*
G37*
G36*
X441650D02*
X434650D01*
X431637Y500193D01*
X428830Y499030D01*
X426420Y497180D01*
X424570Y494770D01*
X423407Y491963D01*
X423010Y488950D01*
X423407Y485938D01*
X424570Y483130D01*
X426420Y480720D01*
X428830Y478870D01*
X431637Y477707D01*
X434650Y477310D01*
X441650D01*
X444663Y477707D01*
X447470Y478870D01*
X449880Y480720D01*
X451730Y483130D01*
X452893Y485938D01*
X453290Y488950D01*
X452893Y491963D01*
X451730Y494770D01*
X449880Y497180D01*
X447470Y499030D01*
X444663Y500193D01*
X441650Y500589D01*
D02*
G37*
G36*
X373590Y487680D02*
X363220D01*
Y473978D01*
X364963Y474207D01*
X367770Y475370D01*
X370180Y477220D01*
X372030Y479630D01*
X373193Y482437D01*
X373590Y485450D01*
Y487680D01*
D02*
G37*
G36*
X360680D02*
X350310D01*
Y485450D01*
X350707Y482437D01*
X351870Y479630D01*
X353720Y477220D01*
X356130Y475370D01*
X358937Y474207D01*
X360680Y473978D01*
Y487680D01*
D02*
G37*
G36*
X77719Y481440D02*
X77470D01*
Y471170D01*
X87740D01*
Y471419D01*
X86953Y474354D01*
X85434Y476986D01*
X83286Y479134D01*
X80654Y480653D01*
X77719Y481440D01*
D02*
G37*
G36*
X74930D02*
X74681D01*
X71746Y480653D01*
X69114Y479134D01*
X66966Y476986D01*
X65447Y474354D01*
X64660Y471419D01*
Y471170D01*
X74930D01*
Y481440D01*
D02*
G37*
G36*
X87740Y468630D02*
X77470D01*
Y458360D01*
X77719D01*
X80654Y459146D01*
X83286Y460666D01*
X85434Y462814D01*
X86953Y465446D01*
X87740Y468381D01*
Y468630D01*
D02*
G37*
G36*
X74930D02*
X64660D01*
Y468381D01*
X65447Y465446D01*
X66966Y462814D01*
X69114Y460666D01*
X71746Y459146D01*
X74681Y458360D01*
X74930D01*
Y468630D01*
D02*
G37*
G36*
X52319Y481440D02*
X49281D01*
X46346Y480653D01*
X43714Y479134D01*
X41566Y476986D01*
X40047Y474354D01*
X39260Y471419D01*
Y468381D01*
X40047Y465446D01*
X41566Y462814D01*
X43714Y460666D01*
X46346Y459146D01*
X49281Y458360D01*
X52319D01*
X55254Y459146D01*
X57886Y460666D01*
X60034Y462814D01*
X61554Y465446D01*
X62340Y468381D01*
Y471419D01*
X61554Y474354D01*
X60034Y476986D01*
X57886Y479134D01*
X55254Y480653D01*
X52319Y481440D01*
D02*
G37*
G36*
X77719Y456040D02*
X77470D01*
Y445770D01*
X87740D01*
Y446019D01*
X86953Y448954D01*
X85434Y451586D01*
X83286Y453734D01*
X80654Y455253D01*
X77719Y456040D01*
D02*
G37*
G36*
X74930D02*
X74681D01*
X71746Y455253D01*
X69114Y453734D01*
X66966Y451586D01*
X65447Y448954D01*
X64660Y446019D01*
Y445770D01*
X74930D01*
Y456040D01*
D02*
G37*
G36*
X87740Y443230D02*
X77470D01*
Y432960D01*
X77719D01*
X80654Y433746D01*
X83286Y435266D01*
X85434Y437414D01*
X86953Y440046D01*
X87740Y442981D01*
Y443230D01*
D02*
G37*
G36*
X74930D02*
X64660D01*
Y442981D01*
X65447Y440046D01*
X66966Y437414D01*
X69114Y435266D01*
X71746Y433746D01*
X74681Y432960D01*
X74930D01*
Y443230D01*
D02*
G37*
G36*
X52319Y456040D02*
X49281D01*
X46346Y455253D01*
X43714Y453734D01*
X41566Y451586D01*
X40047Y448954D01*
X39260Y446019D01*
Y442981D01*
X40047Y440046D01*
X41566Y437414D01*
X43714Y435266D01*
X46346Y433746D01*
X49281Y432960D01*
X52319D01*
X55254Y433746D01*
X57886Y435266D01*
X60034Y437414D01*
X61554Y440046D01*
X62340Y442981D01*
Y446019D01*
X61554Y448954D01*
X60034Y451586D01*
X57886Y453734D01*
X55254Y455253D01*
X52319Y456040D01*
D02*
G37*
G36*
X77719Y430640D02*
X77470D01*
Y420370D01*
X87740D01*
Y420619D01*
X86953Y423554D01*
X85434Y426186D01*
X83286Y428334D01*
X80654Y429854D01*
X77719Y430640D01*
D02*
G37*
G36*
X74930D02*
X74681D01*
X71746Y429854D01*
X69114Y428334D01*
X66966Y426186D01*
X65447Y423554D01*
X64660Y420619D01*
Y420370D01*
X74930D01*
Y430640D01*
D02*
G37*
G36*
X87740Y417830D02*
X77470D01*
Y407560D01*
X77719D01*
X80654Y408346D01*
X83286Y409866D01*
X85434Y412014D01*
X86953Y414646D01*
X87740Y417581D01*
Y417830D01*
D02*
G37*
G36*
X74930D02*
X64660D01*
Y417581D01*
X65447Y414646D01*
X66966Y412014D01*
X69114Y409866D01*
X71746Y408346D01*
X74681Y407560D01*
X74930D01*
Y417830D01*
D02*
G37*
G36*
X52319Y430640D02*
X49281D01*
X46346Y429854D01*
X43714Y428334D01*
X41566Y426186D01*
X40047Y423554D01*
X39260Y420619D01*
Y417581D01*
X40047Y414646D01*
X41566Y412014D01*
X43714Y409866D01*
X46346Y408346D01*
X49281Y407560D01*
X52319D01*
X55254Y408346D01*
X57886Y409866D01*
X60034Y412014D01*
X61554Y414646D01*
X62340Y417581D01*
Y420619D01*
X61554Y423554D01*
X60034Y426186D01*
X57886Y428334D01*
X55254Y429854D01*
X52319Y430640D01*
D02*
G37*
G36*
X688340Y427990D02*
X657860D01*
Y397510D01*
X688340D01*
Y427990D01*
D02*
G37*
G36*
X674601Y377190D02*
X671599D01*
X668655Y376604D01*
X665881Y375456D01*
X663385Y373788D01*
X661262Y371665D01*
X659594Y369169D01*
X658446Y366395D01*
X657860Y363451D01*
Y360449D01*
X658446Y357505D01*
X659594Y354731D01*
X661262Y352235D01*
X663385Y350112D01*
X665881Y348445D01*
X668655Y347296D01*
X671599Y346710D01*
X674601D01*
X677545Y347296D01*
X680319Y348445D01*
X682815Y350112D01*
X684938Y352235D01*
X686606Y354731D01*
X687754Y357505D01*
X688340Y360449D01*
Y363451D01*
X687754Y366395D01*
X686606Y369169D01*
X684938Y371665D01*
X682815Y373788D01*
X680319Y375456D01*
X677545Y376604D01*
X674601Y377190D01*
D02*
G37*
G36*
X199180Y317340D02*
X198799D01*
X195610Y316485D01*
X192750Y314834D01*
X190415Y312500D01*
X188765Y309640D01*
X188407Y308307D01*
X187093D01*
X186735Y309640D01*
X185084Y312500D01*
X182750Y314834D01*
X179890Y316485D01*
X176701Y317340D01*
X173399D01*
X170210Y316485D01*
X167350Y314834D01*
X165016Y312500D01*
X163365Y309640D01*
X162510Y306451D01*
Y303149D01*
X163365Y299960D01*
X165016Y297100D01*
X167350Y294765D01*
X170210Y293115D01*
X173399Y292260D01*
X176701D01*
X179890Y293115D01*
X182750Y294765D01*
X185084Y297100D01*
X186735Y299960D01*
X187093Y301293D01*
X188407D01*
X188765Y299960D01*
X190415Y297100D01*
X192750Y294765D01*
X195610Y293115D01*
X198799Y292260D01*
X199180D01*
Y304800D01*
Y317340D01*
D02*
G37*
G36*
X566678Y317640D02*
X563223D01*
X559834Y316966D01*
X556642Y315644D01*
X553769Y313724D01*
X551326Y311281D01*
X549406Y308408D01*
X548084Y305216D01*
X547410Y301828D01*
Y298372D01*
X548084Y294984D01*
X549406Y291792D01*
X551326Y288919D01*
X553769Y286476D01*
X556642Y284556D01*
X559834Y283234D01*
X563223Y282560D01*
X566678D01*
X570066Y283234D01*
X573258Y284556D01*
X576131Y286476D01*
X578574Y288919D01*
X580494Y291792D01*
X581816Y294984D01*
X582490Y298372D01*
Y301828D01*
X581816Y305216D01*
X580494Y308408D01*
X578574Y311281D01*
X576131Y313724D01*
X573258Y315644D01*
X570066Y316966D01*
X566678Y317640D01*
D02*
G37*
G36*
X97177D02*
X93722D01*
X90334Y316966D01*
X87142Y315644D01*
X84269Y313724D01*
X81826Y311281D01*
X79906Y308408D01*
X78584Y305216D01*
X77910Y301828D01*
Y298372D01*
X78584Y294984D01*
X79906Y291792D01*
X81826Y288919D01*
X84269Y286476D01*
X87142Y284556D01*
X90334Y283234D01*
X93722Y282560D01*
X97177D01*
X100566Y283234D01*
X103758Y284556D01*
X106631Y286476D01*
X109074Y288919D01*
X110994Y291792D01*
X112316Y294984D01*
X112990Y298372D01*
Y301828D01*
X112316Y305216D01*
X110994Y308408D01*
X109074Y311281D01*
X106631Y313724D01*
X103758Y315644D01*
X100566Y316966D01*
X97177Y317640D01*
D02*
G37*
G36*
X673331Y295600D02*
X673100D01*
Y281630D01*
X687070D01*
Y281861D01*
X686484Y284805D01*
X685335Y287579D01*
X683668Y290075D01*
X681545Y292198D01*
X679049Y293866D01*
X676275Y295014D01*
X673331Y295600D01*
D02*
G37*
G36*
X670560D02*
X670329D01*
X667385Y295014D01*
X664611Y293866D01*
X662115Y292198D01*
X659992Y290075D01*
X658325Y287579D01*
X657176Y284805D01*
X656590Y281861D01*
Y281630D01*
X670560D01*
Y295600D01*
D02*
G37*
G36*
X687070Y279090D02*
X673100D01*
Y265120D01*
X673331D01*
X676275Y265706D01*
X679049Y266854D01*
X681545Y268522D01*
X683668Y270645D01*
X685335Y273141D01*
X686484Y275915D01*
X687070Y278859D01*
Y279090D01*
D02*
G37*
G36*
X670560D02*
X656590D01*
Y278859D01*
X657176Y275915D01*
X658325Y273141D01*
X659992Y270645D01*
X662115Y268522D01*
X664611Y266854D01*
X667385Y265706D01*
X670329Y265120D01*
X670560D01*
Y279090D01*
D02*
G37*
G36*
X687070Y244800D02*
X656590D01*
Y214320D01*
X687070D01*
Y244800D01*
D02*
G37*
G36*
X673331Y162250D02*
X670329D01*
X667385Y161664D01*
X664611Y160515D01*
X662115Y158848D01*
X659992Y156725D01*
X658325Y154229D01*
X657176Y151455D01*
X656590Y148511D01*
Y145509D01*
X657176Y142565D01*
X658325Y139791D01*
X659992Y137295D01*
X662115Y135172D01*
X664611Y133504D01*
X667385Y132356D01*
X670329Y131770D01*
X673331D01*
X676275Y132356D01*
X679049Y133504D01*
X681545Y135172D01*
X683668Y137295D01*
X685335Y139791D01*
X686484Y142565D01*
X687070Y145509D01*
Y148511D01*
X686484Y151455D01*
X685335Y154229D01*
X683668Y156725D01*
X681545Y158848D01*
X679049Y160515D01*
X676275Y161664D01*
X673331Y162250D01*
D02*
G37*
G36*
X687070Y111450D02*
X656590D01*
Y80970D01*
X687070D01*
Y111450D01*
D02*
G37*
G36*
X199180Y63340D02*
X198799D01*
X195610Y62485D01*
X192750Y60834D01*
X190415Y58500D01*
X189467Y56856D01*
X187806Y56519D01*
X187590Y56682D01*
Y63340D01*
X162510D01*
Y38260D01*
X187590D01*
Y44918D01*
X187806Y45081D01*
X189467Y44744D01*
X190415Y43100D01*
X192750Y40766D01*
X195610Y39115D01*
X198799Y38260D01*
X199180D01*
Y50800D01*
Y63340D01*
D02*
G37*
G36*
X97177Y72540D02*
X93722D01*
X90334Y71866D01*
X87142Y70544D01*
X84269Y68624D01*
X81826Y66181D01*
X79906Y63308D01*
X78584Y60116D01*
X77910Y56727D01*
Y53273D01*
X78584Y49884D01*
X79906Y46692D01*
X81826Y43819D01*
X84269Y41376D01*
X87142Y39456D01*
X90334Y38134D01*
X93722Y37460D01*
X97177D01*
X100566Y38134D01*
X103758Y39456D01*
X106631Y41376D01*
X109074Y43819D01*
X110994Y46692D01*
X112316Y49884D01*
X112990Y53273D01*
Y56727D01*
X112316Y60116D01*
X110994Y63308D01*
X109074Y66181D01*
X106631Y68624D01*
X103758Y70544D01*
X100566Y71866D01*
X97177Y72540D01*
D02*
G37*
%LPD*%
G36*
X283314Y795677D02*
X282446Y794808D01*
X280857Y792057D01*
X280035Y788988D01*
Y788670D01*
X292100D01*
Y787400D01*
X293370D01*
Y775335D01*
X293688D01*
X296757Y776157D01*
X299508Y777746D01*
X301754Y779992D01*
X303343Y782743D01*
X304165Y785812D01*
Y787040D01*
X305338Y787526D01*
X338905Y753960D01*
Y603517D01*
X337635Y602891D01*
X336020Y604130D01*
X333213Y605293D01*
X330200Y605690D01*
X327188Y605293D01*
X324380Y604130D01*
X321970Y602280D01*
X320120Y599870D01*
X318957Y597063D01*
X318561Y594050D01*
Y587050D01*
X318957Y584037D01*
X320120Y581230D01*
X321970Y578820D01*
X324380Y576970D01*
X327188Y575807D01*
X330200Y575410D01*
X333213Y575807D01*
X336020Y576970D01*
X337855Y578378D01*
X339125Y577752D01*
Y501748D01*
X337855Y501122D01*
X336020Y502530D01*
X333213Y503693D01*
X331470Y503922D01*
Y488950D01*
Y473978D01*
X333213Y474207D01*
X336020Y475370D01*
X337855Y476778D01*
X339125Y476152D01*
Y347369D01*
X307747Y315991D01*
X306890Y316485D01*
X303701Y317340D01*
X300399D01*
X297210Y316485D01*
X294350Y314834D01*
X292015Y312500D01*
X290365Y309640D01*
X290007Y308307D01*
X288693D01*
X288335Y309640D01*
X286684Y312500D01*
X284350Y314834D01*
X281490Y316485D01*
X278301Y317340D01*
X274999D01*
X271810Y316485D01*
X270953Y315991D01*
X236495Y350449D01*
Y458222D01*
X237668Y458708D01*
X250115Y446261D01*
Y431640D01*
X238960D01*
Y406560D01*
X269040D01*
Y431640D01*
X257885D01*
Y447870D01*
X257589Y449356D01*
X256747Y450617D01*
X251298Y456065D01*
X251908Y457252D01*
X252730D01*
Y469900D01*
Y482548D01*
X251500D01*
X248226Y482117D01*
X245176Y480854D01*
X242845Y479065D01*
X241575Y479490D01*
Y483926D01*
X245517Y487868D01*
X246359Y489128D01*
X246655Y490615D01*
Y508160D01*
X269040D01*
Y533240D01*
X257885D01*
Y549470D01*
X257589Y550956D01*
X256747Y552217D01*
X251298Y557665D01*
X251908Y558852D01*
X252730D01*
Y571500D01*
Y584148D01*
X251500D01*
X248226Y583717D01*
X245176Y582454D01*
X242845Y580665D01*
X241575Y581090D01*
Y585526D01*
X245517Y589468D01*
X246359Y590728D01*
X246655Y592215D01*
Y609760D01*
X269040D01*
Y634840D01*
X257885D01*
Y651070D01*
X257589Y652556D01*
X256747Y653817D01*
X251298Y659266D01*
X251908Y660452D01*
X252730D01*
Y673100D01*
Y685748D01*
X251500D01*
X248226Y685317D01*
X245176Y684054D01*
X242845Y682265D01*
X241575Y682690D01*
Y687126D01*
X245517Y691068D01*
X246359Y692328D01*
X246655Y693815D01*
Y711360D01*
X269040D01*
Y720015D01*
X298450D01*
X299937Y720311D01*
X301197Y721153D01*
X320924Y740880D01*
X322680Y740410D01*
X325020D01*
X327281Y741016D01*
X329309Y742186D01*
X330964Y743841D01*
X332134Y745869D01*
X332740Y748130D01*
Y750470D01*
X332134Y752731D01*
X330964Y754759D01*
X329309Y756414D01*
X327281Y757584D01*
X325020Y758190D01*
X322680D01*
X320419Y757584D01*
X318391Y756414D01*
X316736Y754759D01*
X315566Y752731D01*
X314960Y750470D01*
Y748130D01*
X315430Y746374D01*
X296841Y727785D01*
X269040D01*
Y736440D01*
X238960D01*
Y715545D01*
X238885Y715170D01*
Y695424D01*
X237668Y694206D01*
X236495Y694693D01*
Y774944D01*
X237656Y775886D01*
X239712Y775335D01*
X242888D01*
X245957Y776157D01*
X248708Y777746D01*
X250954Y779992D01*
X252543Y782743D01*
X253365Y785812D01*
Y788988D01*
X252543Y792057D01*
X250954Y794808D01*
X250086Y795677D01*
X250571Y796850D01*
X257428D01*
X257915Y795677D01*
X257046Y794808D01*
X255457Y792057D01*
X254635Y788988D01*
Y785812D01*
X255457Y782743D01*
X257046Y779992D01*
X259292Y777746D01*
X262043Y776157D01*
X265112Y775335D01*
X268288D01*
X271357Y776157D01*
X274108Y777746D01*
X276354Y779992D01*
X277943Y782743D01*
X278765Y785812D01*
Y788988D01*
X277943Y792057D01*
X276354Y794808D01*
X275485Y795677D01*
X275972Y796850D01*
X282829D01*
X283314Y795677D01*
D02*
G37*
G36*
X250115Y649461D02*
Y634840D01*
X238960D01*
Y613945D01*
X238885Y613570D01*
Y593824D01*
X237668Y592607D01*
X236495Y593093D01*
Y661422D01*
X237668Y661908D01*
X250115Y649461D01*
D02*
G37*
G36*
Y547861D02*
Y533240D01*
X238960D01*
Y512345D01*
X238885Y511970D01*
Y492224D01*
X237668Y491007D01*
X236495Y491493D01*
Y559822D01*
X237668Y560308D01*
X250115Y547861D01*
D02*
G37*
%LPC*%
G36*
X290830Y786130D02*
X280035D01*
Y785812D01*
X280857Y782743D01*
X282446Y779992D01*
X284692Y777746D01*
X287443Y776157D01*
X290512Y775335D01*
X290830D01*
Y786130D01*
D02*
G37*
G36*
X256500Y685748D02*
X255270D01*
Y674370D01*
X268981D01*
X268717Y676374D01*
X267454Y679424D01*
X265444Y682044D01*
X262824Y684054D01*
X259774Y685317D01*
X256500Y685748D01*
D02*
G37*
G36*
X268981Y671830D02*
X255270D01*
Y660452D01*
X256500D01*
X259774Y660883D01*
X262824Y662146D01*
X265444Y664156D01*
X267454Y666776D01*
X268717Y669826D01*
X268981Y671830D01*
D02*
G37*
G36*
X256500Y584148D02*
X255270D01*
Y572770D01*
X268981D01*
X268717Y574774D01*
X267454Y577824D01*
X265444Y580444D01*
X262824Y582454D01*
X259774Y583717D01*
X256500Y584148D01*
D02*
G37*
G36*
X268981Y570230D02*
X255270D01*
Y558852D01*
X256500D01*
X259774Y559283D01*
X262824Y560546D01*
X265444Y562556D01*
X267454Y565176D01*
X268717Y568226D01*
X268981Y570230D01*
D02*
G37*
G36*
X328930Y503922D02*
X327188Y503693D01*
X324380Y502530D01*
X321970Y500680D01*
X320120Y498270D01*
X318957Y495463D01*
X318561Y492450D01*
Y490220D01*
X328930D01*
Y503922D01*
D02*
G37*
G36*
Y487680D02*
X318561D01*
Y485450D01*
X318957Y482437D01*
X320120Y479630D01*
X321970Y477220D01*
X324380Y475370D01*
X327188Y474207D01*
X328930Y473978D01*
Y487680D01*
D02*
G37*
G36*
X256500Y482548D02*
X255270D01*
Y471170D01*
X268981D01*
X268717Y473174D01*
X267454Y476224D01*
X265444Y478844D01*
X262824Y480854D01*
X259774Y482117D01*
X256500Y482548D01*
D02*
G37*
G36*
X268981Y468630D02*
X255270D01*
Y457252D01*
X256500D01*
X259774Y457683D01*
X262824Y458946D01*
X265444Y460956D01*
X267454Y463576D01*
X268717Y466626D01*
X268981Y468630D01*
D02*
G37*
G36*
X256500Y380948D02*
X255270D01*
Y369570D01*
X268981D01*
X268717Y371574D01*
X267454Y374624D01*
X265444Y377244D01*
X262824Y379254D01*
X259774Y380517D01*
X256500Y380948D01*
D02*
G37*
G36*
X252730D02*
X251500D01*
X248226Y380517D01*
X245176Y379254D01*
X242556Y377244D01*
X240546Y374624D01*
X239283Y371574D01*
X239019Y369570D01*
X252730D01*
Y380948D01*
D02*
G37*
G36*
X268981Y367030D02*
X255270D01*
Y355652D01*
X256500D01*
X259774Y356083D01*
X262824Y357346D01*
X265444Y359356D01*
X267454Y361976D01*
X268717Y365026D01*
X268981Y367030D01*
D02*
G37*
G36*
X252730D02*
X239019D01*
X239283Y365026D01*
X240546Y361976D01*
X242556Y359356D01*
X245176Y357346D01*
X248226Y356083D01*
X251500Y355652D01*
X252730D01*
Y367030D01*
D02*
G37*
%LPD*%
G36*
X138693Y526413D02*
X137683Y523974D01*
X137252Y520700D01*
X137683Y517426D01*
X138946Y514376D01*
X140956Y511756D01*
X143576Y509746D01*
X146626Y508483D01*
X148515Y508234D01*
Y497788D01*
X148811Y496302D01*
X149653Y495041D01*
X161081Y483613D01*
X160595Y482440D01*
X144794D01*
X144759Y482617D01*
X143917Y483877D01*
X92895Y534899D01*
Y570552D01*
X94068Y571038D01*
X138693Y526413D01*
D02*
G37*
G36*
X552173Y77399D02*
X550913Y76557D01*
X536347Y61991D01*
X535490Y62485D01*
X532301Y63340D01*
X528999D01*
X525810Y62485D01*
X522950Y60834D01*
X520616Y58500D01*
X518965Y55640D01*
X518607Y54307D01*
X517293D01*
X516935Y55640D01*
X516441Y56497D01*
X538609Y78665D01*
X552030D01*
X552173Y77399D01*
D02*
G37*
D11*
X628650Y507075D02*
G03*
X628650Y496225I12700J-5425D01*
G01*
Y507075D02*
Y793750D01*
X581025Y841375D02*
X628650Y793750D01*
X352425Y841375D02*
X581025D01*
X612358Y73442D02*
X628650Y89734D01*
Y496225D01*
X596900Y84038D02*
Y806450D01*
X355600Y819150D02*
X584200D01*
X596900Y806450D01*
X595412Y82550D02*
X596900Y84038D01*
X537000Y82550D02*
X595412D01*
X317500Y857250D02*
X355600Y819150D01*
X261838Y857250D02*
X317500D01*
X254000Y838200D02*
X256123Y840323D01*
Y851535D01*
X261838Y857250D01*
X323850Y869950D02*
X352425Y841375D01*
X236438Y869950D02*
X323850D01*
X505250Y50800D02*
X537000Y82550D01*
X228600Y838200D02*
Y862112D01*
X236438Y869950D01*
X504390Y644090D02*
X520700Y660400D01*
X381110Y644090D02*
X504390D01*
X611990Y73810D02*
X612358Y73442D01*
X530650Y50800D02*
X553660Y73810D01*
X611990D01*
X558800Y457200D02*
Y618800D01*
X520700Y656900D02*
X558800Y618800D01*
X203200Y889000D02*
X374650D01*
X50800Y812363D02*
X76637Y838200D01*
X127000D01*
X152400D02*
X203200Y889000D01*
X190500Y349250D02*
Y787400D01*
X133350Y292100D02*
X190500Y349250D01*
X133350Y120650D02*
Y292100D01*
Y120650D02*
X165100Y88900D01*
X390950D01*
X429050Y50800D01*
X120650Y114300D02*
Y293588D01*
X177800Y350738D01*
Y774700D01*
X165100Y787400D02*
X177800Y774700D01*
X152400Y497788D02*
Y520700D01*
Y497788D02*
X168710Y481478D01*
X163630Y408300D02*
X168710Y413380D01*
Y481478D01*
X163630Y377030D02*
Y408300D01*
X120650Y114300D02*
X158750Y76200D01*
X378250D01*
X403650Y50800D01*
X368300Y632500D02*
X416600Y584200D01*
X368300Y656900D02*
X381110Y644090D01*
X374650Y889000D02*
X381000Y882650D01*
Y863600D02*
Y882650D01*
X241300Y785921D02*
Y787400D01*
X232610Y777232D02*
X241300Y785921D01*
X232610Y348840D02*
Y777232D01*
Y348840D02*
X276650Y304800D01*
X242770Y490615D02*
Y511970D01*
X237690Y485535D02*
X242770Y490615D01*
Y511970D02*
X251500Y520700D01*
X237690Y464180D02*
Y485535D01*
X251500Y520700D02*
X254000D01*
X237690Y464180D02*
X254000Y447870D01*
Y419100D02*
Y447870D01*
X520700Y656900D02*
Y660400D01*
X368300Y632500D02*
Y656900D01*
Y660400D01*
X416600Y584200D02*
X419100D01*
X237690Y565780D02*
Y587135D01*
X242770Y592215D01*
Y613570D01*
X251500Y622300D01*
X237690Y565780D02*
X254000Y549470D01*
Y520700D02*
Y549470D01*
X237690Y667380D02*
Y688735D01*
X242770Y693815D01*
X237690Y667380D02*
X254000Y651070D01*
X242770Y693815D02*
Y715170D01*
X251500Y723900D01*
X254000D01*
X251500Y622300D02*
X254000D01*
Y651070D01*
Y723900D02*
X298450D01*
X323850Y749300D01*
X342790Y599576D02*
Y755568D01*
X89010Y533290D02*
Y665706D01*
Y533290D02*
X141170Y481130D01*
X79158Y675558D02*
Y682842D01*
X76200Y685800D02*
X79158Y682842D01*
Y675558D02*
X89010Y665706D01*
X149900Y469900D02*
X152400D01*
X141170Y478630D02*
Y481130D01*
Y478630D02*
X149900Y469900D01*
X101600Y736600D02*
X152400Y685800D01*
Y673100D02*
Y685800D01*
X50800Y736600D02*
X101600D01*
X37990Y723790D02*
X50800Y736600D01*
X37990Y698610D02*
X50800Y685800D01*
X37990Y698610D02*
Y723790D01*
X76200Y711200D02*
X94090Y693310D01*
Y576510D02*
Y693310D01*
Y576510D02*
X149900Y520700D01*
X152400D01*
X154900Y368300D02*
X163630Y377030D01*
X152400Y368300D02*
X154900D01*
X50800Y787400D02*
Y812363D01*
X342790Y599576D02*
X343010Y599356D01*
X297624Y800735D02*
X342790Y755568D01*
X343010Y345760D02*
Y599356D01*
X302050Y304800D02*
X343010Y345760D01*
X215265Y800735D02*
X297624D01*
X177800Y838200D02*
X215265Y800735D01*
D37*
X546100Y660400D02*
D03*
X520700D02*
D03*
X444500D02*
D03*
X469900D02*
D03*
X368300D02*
D03*
X393700D02*
D03*
D38*
X50800Y495300D02*
D03*
Y711200D02*
D03*
D39*
X76200Y495300D02*
D03*
X50800Y469900D02*
D03*
X76200D02*
D03*
X50800Y444500D02*
D03*
X76200D02*
D03*
X50800Y419100D02*
D03*
X76200D02*
D03*
Y584200D02*
D03*
X50800D02*
D03*
X76200Y609600D02*
D03*
X50800D02*
D03*
X76200Y635000D02*
D03*
X50800D02*
D03*
X76200Y660400D02*
D03*
X50800D02*
D03*
X76200Y685800D02*
D03*
X50800D02*
D03*
X76200Y711200D02*
D03*
D40*
X254000Y368300D02*
D03*
X152400Y419100D02*
D03*
X254000Y469900D02*
D03*
X152400Y520700D02*
D03*
X520700Y584200D02*
D03*
X254000Y571500D02*
D03*
X152400Y723900D02*
D03*
X254000Y673100D02*
D03*
X152400Y622300D02*
D03*
D41*
Y368300D02*
D03*
X254000Y419100D02*
D03*
X152400Y469900D02*
D03*
X254000Y520700D02*
D03*
X419100Y584200D02*
D03*
X152400Y571500D02*
D03*
X254000Y723900D02*
D03*
X152400Y673100D02*
D03*
X254000Y622300D02*
D03*
D42*
X671830Y96210D02*
D03*
Y229560D02*
D03*
X673100Y412750D02*
D03*
Y647700D02*
D03*
Y730250D02*
D03*
D43*
X671830Y147010D02*
D03*
Y280360D02*
D03*
X673100Y361950D02*
D03*
Y596900D02*
D03*
Y781050D02*
D03*
D44*
X95450Y300100D02*
D03*
X564950Y55000D02*
D03*
Y300100D02*
D03*
X95450Y55000D02*
D03*
X698500Y37790D02*
D03*
X38100D02*
D03*
Y888690D02*
D03*
X692150D02*
D03*
D45*
X175050Y50800D02*
D03*
D46*
X200450D02*
D03*
X225850D02*
D03*
X251250D02*
D03*
X276650D02*
D03*
X302050D02*
D03*
X327450D02*
D03*
X352850D02*
D03*
X378250D02*
D03*
X403650D02*
D03*
X429050D02*
D03*
X454450D02*
D03*
X479850D02*
D03*
X505250D02*
D03*
X530650D02*
D03*
X175050Y304800D02*
D03*
X200450D02*
D03*
X225850D02*
D03*
X251250D02*
D03*
X276650D02*
D03*
X302050D02*
D03*
X327450D02*
D03*
X352850D02*
D03*
X378250D02*
D03*
X403650D02*
D03*
X429050D02*
D03*
X454450D02*
D03*
X479850D02*
D03*
X505250D02*
D03*
X530650D02*
D03*
X641350Y501650D02*
D03*
X610870Y548640D02*
D03*
D47*
X558800Y863600D02*
D03*
X533400D02*
D03*
X431800D02*
D03*
X406400D02*
D03*
D48*
X508000D02*
D03*
X381000D02*
D03*
D49*
X520700Y735330D02*
D03*
Y763270D02*
D03*
X419100Y734060D02*
D03*
Y762000D02*
D03*
X438150Y514350D02*
D03*
Y488950D02*
D03*
X495300Y514350D02*
D03*
Y488950D02*
D03*
D50*
X330200D02*
D03*
Y590550D02*
D03*
X361950Y488950D02*
D03*
Y590550D02*
D03*
D51*
X580390Y501650D02*
D03*
D52*
X292100Y787400D02*
D03*
X279400Y838200D02*
D03*
X266700Y787400D02*
D03*
X254000Y838200D02*
D03*
X241300Y787400D02*
D03*
X228600Y838200D02*
D03*
X215900Y787400D02*
D03*
X203200Y838200D02*
D03*
X190500Y787400D02*
D03*
X177800Y838200D02*
D03*
X165100Y787400D02*
D03*
X152400Y838200D02*
D03*
X139700Y787400D02*
D03*
X127000Y838200D02*
D03*
D53*
X114300Y787400D02*
D03*
D54*
X325120Y810514D02*
D03*
X81280D02*
D03*
D55*
X273050Y889000D02*
D03*
X558800Y457200D02*
D03*
X323850Y749300D02*
D03*
X50800Y787400D02*
D03*
M02*
